<svg width="112" height="113" viewBox="0 0 112 113" fill="none" xmlns="http://www.w3.org/2000/svg">
<g filter="url(#filter0_d)">
<rect x="18" y="18" width="75.9752" height="76.022" rx="16" fill="white"/>
<g clip-path="url(#clip0)">
<path d="M67.0634 33.1778L55.4127 34.0696L43.8779 33.1778C43.8767 32.2314 44.2522 31.3235 44.9214 30.6543C45.5906 29.9851 46.4985 29.6097 47.4449 29.6108H63.4964C65.4664 29.6108 67.0634 31.2078 67.0634 33.1778Z" fill="#782BB1"/>
<path d="M75.9822 53.6885H72.4152C71.9227 53.6885 71.5234 53.2893 71.5234 52.7968C71.5234 52.3043 71.9227 51.905 72.4152 51.905H75.9822C76.9672 51.905 77.7657 51.1065 77.7657 50.1215V39.4206C77.7657 38.9281 78.1649 38.5288 78.6574 38.5288C79.1499 38.5288 79.5492 38.9281 79.5492 39.4206V50.1215C79.5492 52.0915 77.9522 53.6885 75.9822 53.6885Z" fill="#BDC3C7"/>
<path d="M72.4157 35.853V62.1595H38.5293V35.853C38.5293 34.3755 39.727 33.1777 41.2045 33.1777H69.7405C71.218 33.1777 72.4157 34.3755 72.4157 35.853Z" fill="#9446CE"/>
<path d="M66.1739 40.3125H44.7719C43.2944 40.3125 42.0967 41.5102 42.0967 42.9877V51.9052C42.0967 53.3827 43.2944 54.5805 44.7719 54.5805H66.1739C67.6514 54.5805 68.8491 53.3827 68.8491 51.9052V42.9877C68.8491 41.5102 67.6514 40.3125 66.1739 40.3125Z" fill="#FF5364"/>
<path d="M75.9833 65.2809V77.3195H34.9629V65.2809C34.9629 63.3109 36.5599 61.7139 38.5299 61.7139H72.4163C74.3863 61.7139 75.9833 63.3109 75.9833 65.2809Z" fill="#782BB1"/>
<path d="M45.6632 50.1205C45.3543 50.1203 45.0675 49.9603 44.9051 49.6975C44.7427 49.4346 44.7279 49.1065 44.866 48.8301L46.0039 46.5535H45.6632C45.1707 46.5535 44.7715 46.1543 44.7715 45.6618C44.7715 45.1693 45.1707 44.77 45.6632 44.77H47.4467C47.7558 44.7699 48.043 44.9298 48.2055 45.1927C48.3681 45.4556 48.383 45.7839 48.2448 46.0604L46.4613 49.6274C46.3103 49.9297 46.0012 50.1207 45.6632 50.1205Z" fill="#3D3D3D"/>
<path d="M54.5793 50.1205C54.2703 50.1203 53.9835 49.9603 53.8211 49.6975C53.6587 49.4346 53.6439 49.1065 53.782 48.8301L54.9199 46.5535H54.5793C54.0868 46.5535 53.6875 46.1543 53.6875 45.6618C53.6875 45.1693 54.0868 44.77 54.5793 44.77H56.3628C56.6719 44.7699 56.959 44.9298 57.1216 45.1927C57.2842 45.4556 57.299 45.7839 57.1609 46.0604L55.3774 49.6274C55.2263 49.9297 54.9172 50.1207 54.5793 50.1205Z" fill="#3D3D3D"/>
<path d="M63.4972 50.1215C63.1883 50.1213 62.9014 49.9613 62.7391 49.6985C62.5767 49.4356 62.5619 49.1075 62.7 48.8311L63.8379 46.5545H63.4972C63.0047 46.5545 62.6055 46.1553 62.6055 45.6628C62.6055 45.1703 63.0047 44.771 63.4972 44.771H65.2807C65.5906 44.7693 65.8791 44.9286 66.0428 45.1918C66.2065 45.4549 66.2218 45.7842 66.0833 46.0614L64.2998 49.6284C64.148 49.9321 63.8368 50.1233 63.4972 50.1215Z" fill="#3D3D3D"/>
<path d="M51.0128 55.4714C50.5203 55.4714 50.1211 55.0721 50.1211 54.5796V40.3117C50.1211 39.8192 50.5203 39.4199 51.0128 39.4199C51.5053 39.4199 51.9046 39.8192 51.9046 40.3117V54.5796C51.9046 55.0721 51.5053 55.4714 51.0128 55.4714Z" fill="#802D40"/>
<path d="M59.9308 55.4714C59.4383 55.4714 59.0391 55.0721 59.0391 54.5796V40.3117C59.0391 39.8192 59.4383 39.4199 59.9308 39.4199C60.4233 39.4199 60.8225 39.8192 60.8225 40.3117V54.5796C60.8225 55.0721 60.4233 55.4714 59.9308 55.4714Z" fill="#802D40"/>
<path d="M66.174 55.4714H44.7721C42.8021 55.4714 41.2051 53.8744 41.2051 51.9044V42.9869C41.2051 41.0169 42.8021 39.4199 44.7721 39.4199H66.174C68.144 39.4199 69.741 41.0169 69.741 42.9869V51.9044C69.741 53.8744 68.144 55.4714 66.174 55.4714ZM44.7721 41.2034C43.7871 41.2034 42.9886 42.0019 42.9886 42.9869V51.9044C42.9886 52.8894 43.7871 53.6879 44.7721 53.6879H66.174C67.159 53.6879 67.9575 52.8894 67.9575 51.9044V42.9869C67.9575 42.0019 67.159 41.2034 66.174 41.2034H44.7721Z" fill="#F3D55B"/>
<path d="M44.7697 37.637C45.2622 37.637 45.6614 37.2378 45.6614 36.7453C45.6614 36.2528 45.2622 35.8535 44.7697 35.8535C44.2772 35.8535 43.8779 36.2528 43.8779 36.7453C43.8779 37.2378 44.2772 37.637 44.7697 37.637Z" fill="#F5EFCA"/>
<path d="M48.3361 37.637C48.8286 37.637 49.2278 37.2378 49.2278 36.7453C49.2278 36.2528 48.8286 35.8535 48.3361 35.8535C47.8436 35.8535 47.4443 36.2528 47.4443 36.7453C47.4443 37.2378 47.8436 37.637 48.3361 37.637Z" fill="#F5EFCA"/>
<path d="M51.9035 37.637C52.396 37.637 52.7952 37.2378 52.7952 36.7453C52.7952 36.2528 52.396 35.8535 51.9035 35.8535C51.411 35.8535 51.0117 36.2528 51.0117 36.7453C51.0117 37.2378 51.411 37.637 51.9035 37.637Z" fill="#F5EFCA"/>
<path d="M55.4699 37.637C55.9624 37.637 56.3616 37.2378 56.3616 36.7453C56.3616 36.2528 55.9624 35.8535 55.4699 35.8535C54.9774 35.8535 54.5781 36.2528 54.5781 36.7453C54.5781 37.2378 54.9774 37.637 55.4699 37.637Z" fill="#F5EFCA"/>
<path d="M59.0363 37.637C59.5288 37.637 59.928 37.2378 59.928 36.7453C59.928 36.2528 59.5288 35.8535 59.0363 35.8535C58.5438 35.8535 58.1445 36.2528 58.1445 36.7453C58.1445 37.2378 58.5438 37.637 59.0363 37.637Z" fill="#F5EFCA"/>
<path d="M62.6056 37.637C63.0981 37.637 63.4973 37.2378 63.4973 36.7453C63.4973 36.2528 63.0981 35.8535 62.6056 35.8535C62.1131 35.8535 61.7139 36.2528 61.7139 36.7453C61.7139 37.2378 62.1131 37.637 62.6056 37.637Z" fill="#F5EFCA"/>
<path d="M66.173 37.637C66.6655 37.637 67.0647 37.2378 67.0647 36.7453C67.0647 36.2528 66.6655 35.8535 66.173 35.8535C65.6805 35.8535 65.2812 36.2528 65.2812 36.7453C65.2812 37.2378 65.6805 37.637 66.173 37.637Z" fill="#F5EFCA"/>
<path d="M44.7697 59.0389C45.2622 59.0389 45.6614 58.6396 45.6614 58.1471C45.6614 57.6546 45.2622 57.2554 44.7697 57.2554C44.2772 57.2554 43.8779 57.6546 43.8779 58.1471C43.8779 58.6396 44.2772 59.0389 44.7697 59.0389Z" fill="#F5EFCA"/>
<path d="M48.3361 59.0389C48.8286 59.0389 49.2278 58.6396 49.2278 58.1471C49.2278 57.6546 48.8286 57.2554 48.3361 57.2554C47.8436 57.2554 47.4443 57.6546 47.4443 58.1471C47.4443 58.6396 47.8436 59.0389 48.3361 59.0389Z" fill="#F5EFCA"/>
<path d="M51.9035 59.0389C52.396 59.0389 52.7952 58.6396 52.7952 58.1471C52.7952 57.6546 52.396 57.2554 51.9035 57.2554C51.411 57.2554 51.0117 57.6546 51.0117 58.1471C51.0117 58.6396 51.411 59.0389 51.9035 59.0389Z" fill="#F5EFCA"/>
<path d="M55.4699 59.0389C55.9624 59.0389 56.3616 58.6396 56.3616 58.1471C56.3616 57.6546 55.9624 57.2554 55.4699 57.2554C54.9774 57.2554 54.5781 57.6546 54.5781 58.1471C54.5781 58.6396 54.9774 59.0389 55.4699 59.0389Z" fill="#F5EFCA"/>
<path d="M50.1212 73.3064C50.6137 73.3064 51.013 72.9072 51.013 72.4147C51.013 71.9222 50.6137 71.5229 50.1212 71.5229C49.6287 71.5229 49.2295 71.9222 49.2295 72.4147C49.2295 72.9072 49.6287 73.3064 50.1212 73.3064Z" fill="#531483"/>
<path d="M53.6886 73.3064C54.1811 73.3064 54.5804 72.9072 54.5804 72.4147C54.5804 71.9222 54.1811 71.5229 53.6886 71.5229C53.1961 71.5229 52.7969 71.9222 52.7969 72.4147C52.7969 72.9072 53.1961 73.3064 53.6886 73.3064Z" fill="#531483"/>
<path d="M57.255 73.3064C57.7475 73.3064 58.1468 72.9072 58.1468 72.4147C58.1468 71.9222 57.7475 71.5229 57.255 71.5229C56.7625 71.5229 56.3633 71.9222 56.3633 72.4147C56.3633 72.9072 56.7625 73.3064 57.255 73.3064Z" fill="#531483"/>
<path d="M60.8214 73.3064C61.3139 73.3064 61.7132 72.9072 61.7132 72.4147C61.7132 71.9222 61.3139 71.5229 60.8214 71.5229C60.3289 71.5229 59.9297 71.9222 59.9297 72.4147C59.9297 72.9072 60.3289 73.3064 60.8214 73.3064Z" fill="#531483"/>
<path d="M59.0392 59.0384C59.5317 59.0384 59.9309 58.6391 59.9309 58.1466C59.9309 57.6541 59.5317 57.2549 59.0392 57.2549C58.5467 57.2549 58.1475 57.6541 58.1475 58.1466C58.1475 58.6391 58.5467 59.0384 59.0392 59.0384Z" fill="#F5EFCA"/>
<path d="M62.6066 59.0384C63.0991 59.0384 63.4983 58.6391 63.4983 58.1466C63.4983 57.6541 63.0991 57.2549 62.6066 57.2549C62.1141 57.2549 61.7148 57.6541 61.7148 58.1466C61.7148 58.6391 62.1141 59.0384 62.6066 59.0384Z" fill="#F5EFCA"/>
<path d="M66.173 59.0384C66.6655 59.0384 67.0647 58.6391 67.0647 58.1466C67.0647 57.6541 66.6655 57.2549 66.173 57.2549C65.6805 57.2549 65.2812 57.6541 65.2812 58.1466C65.2812 58.6391 65.6805 59.0384 66.173 59.0384Z" fill="#F5EFCA"/>
<path d="M66.1716 65.2808H44.7697C44.2772 65.2808 43.8779 65.68 43.8779 66.1725V67.956C43.8779 68.4485 44.2772 68.8478 44.7697 68.8478H66.1716C66.6641 68.8478 67.0634 68.4485 67.0634 67.956V66.1725C67.0634 65.68 66.6641 65.2808 66.1716 65.2808Z" fill="#531483"/>
<path d="M66.1727 69.7401H44.7708C43.7858 69.7401 42.9873 68.9416 42.9873 67.9566V66.1731C42.9873 65.1881 43.7858 64.3896 44.7708 64.3896H66.1727C67.1577 64.3896 67.9562 65.1881 67.9562 66.1731V67.9566C67.9562 68.9416 67.1577 69.7401 66.1727 69.7401ZM44.7708 66.1731V67.9566H66.1727V66.1731H44.7708Z" fill="#BDC3C7"/>
<path d="M78.6567 39.4203C80.1342 39.4203 81.3319 38.2226 81.3319 36.7451C81.3319 35.2676 80.1342 34.0698 78.6567 34.0698C77.1792 34.0698 75.9814 35.2676 75.9814 36.7451C75.9814 38.2226 77.1792 39.4203 78.6567 39.4203Z" fill="#FF5364"/>
<path d="M79.5492 76.873H31.3948C30.4098 76.873 29.6113 77.6715 29.6113 78.6565V79.5483C29.6113 80.5333 30.4098 81.3318 31.3948 81.3318H79.5492C80.5342 81.3318 81.3327 80.5333 81.3327 79.5483V78.6565C81.3327 77.6715 80.5342 76.873 79.5492 76.873Z" fill="#87DE6E"/>
</g>
</g>
<defs>
<filter id="filter0_d" x="0" y="0" width="111.976" height="112.022" filterUnits="userSpaceOnUse" color-interpolation-filters="sRGB">
<feFlood flood-opacity="0" result="BackgroundImageFix"/>
<feColorMatrix in="SourceAlpha" type="matrix" values="0 0 0 0 0 0 0 0 0 0 0 0 0 0 0 0 0 0 127 0" result="hardAlpha"/>
<feOffset/>
<feGaussianBlur stdDeviation="9"/>
<feComposite in2="hardAlpha" operator="out"/>
<feColorMatrix type="matrix" values="0 0 0 0 0.458824 0 0 0 0 0.384314 0 0 0 0 0.878431 0 0 0 0.25 0"/>
<feBlend mode="normal" in2="BackgroundImageFix" result="effect1_dropShadow"/>
<feBlend mode="normal" in="SourceGraphic" in2="effect1_dropShadow" result="shape"/>
</filter>
<clipPath id="clip0">
<rect width="51.7214" height="51.7214" fill="white" transform="translate(29.6113 29.6108)"/>
</clipPath>
</defs>
</svg>
