<svg width="98" height="98" viewBox="0 0 98 98" fill="none" xmlns="http://www.w3.org/2000/svg">
<g filter="url(#filter0_d)">
<path d="M18 46C18 32.8007 18 26.201 22.1005 22.1005C26.201 18 32.8007 18 46 18H51.0135C64.2129 18 70.8125 18 74.913 22.1005C79.0135 26.201 79.0135 32.8007 79.0135 46V51.0511C79.0135 64.2504 79.0135 70.8501 74.913 74.9506C70.8125 79.0511 64.2129 79.0511 51.0135 79.0511H46C32.8007 79.0511 26.201 79.0511 22.1005 74.9506C18 70.8501 18 64.2504 18 51.0511V46Z" fill="white"/>
<path d="M40.2583 38.4447H31.176C30.4534 38.4447 29.8672 39.0309 29.8672 39.7535C29.8672 40.1153 30.0139 40.442 30.2503 40.6792C30.4875 40.9156 30.8143 41.0623 31.176 41.0623H38.9495C39.6721 41.0623 40.2583 41.6485 40.2583 42.3711C40.2583 42.7329 40.1115 43.0596 39.8751 43.2968C39.638 43.5332 39.3111 43.6799 38.9495 43.6799H37.5216C36.799 43.6799 36.2128 44.2661 36.2128 44.9887C36.2128 45.3505 36.3596 45.6772 36.596 45.9144C36.8331 46.1508 37.16 46.2975 37.5216 46.2975H38.9494C39.672 46.2975 40.2582 46.8837 40.2582 47.6063C40.2582 47.9681 40.1115 48.2948 39.8751 48.532C39.6379 48.7684 39.3111 48.9151 38.9494 48.9151H33.3177C32.595 48.9151 32.0089 49.5013 32.0089 50.2239C32.0089 50.5857 32.1556 50.9124 32.392 51.1496C32.6292 51.386 32.956 51.5327 33.3177 51.5327H38.9495C39.6721 51.5327 40.2583 52.1189 40.2583 52.8415C40.2583 53.2033 40.1115 53.53 39.8751 53.7672C39.638 54.0036 39.3111 54.1503 38.9495 54.1503H34.5416C33.8079 54.1503 33.1852 54.7508 33.1987 55.4845C33.2122 56.1952 33.7928 56.7679 34.5075 56.7679H40.2583H45.9655C45.9519 56.7535 45.9385 56.7388 45.925 56.7244C45.9512 56.7293 45.9655 56.7319 45.9655 56.7319L51.9455 56.6922V38.4087L40.2583 38.4447Z" fill="#9446CE"/>
<path d="M40.5254 47.4116C40.5254 50.9385 41.7242 54.1853 43.7359 56.7679H45.9649C45.9513 56.7534 45.938 56.7388 45.9244 56.7243C45.9507 56.7292 45.9649 56.7318 45.9649 56.7318L51.9449 56.6922V38.4087L43.4501 38.4349C41.6114 40.9528 40.5254 44.0552 40.5254 47.4116Z" fill="#782BB1"/>
<path d="M56.6379 64.5859C57.1416 64.5859 57.5501 64.9944 57.5501 65.4981C57.5501 65.7504 57.4477 65.978 57.2827 66.143C57.1177 66.308 56.8901 66.4103 56.6379 66.4103H49.8956C49.3919 66.4103 48.9834 66.0018 48.9834 65.4981C48.9834 65.2459 49.0857 65.0182 49.2507 64.8533C49.4157 64.6883 49.6433 64.5859 49.8956 64.5859H56.6379Z" fill="#9446CE"/>
<path d="M39.8225 62.6816C40.3262 62.6816 40.7347 63.0901 40.7347 63.5938C40.7347 63.8461 40.6324 64.0738 40.4674 64.2387C40.3024 64.4037 40.0747 64.506 39.8225 64.506H33.0802C32.5764 64.506 32.168 64.0975 32.168 63.5938C32.168 63.3416 32.2703 63.1139 32.4353 62.949C32.6003 62.784 32.8279 62.6816 33.0802 62.6816H39.8225Z" fill="#9446CE"/>
<path d="M32.3658 43.645C33.0884 43.645 33.6746 44.2312 33.6746 44.9538C33.6746 45.3156 33.5279 45.6423 33.2915 45.8795C33.0543 46.1159 32.7275 46.2626 32.3658 46.2626H31.176C30.4534 46.2626 29.8672 45.6764 29.8672 44.9538C29.8672 44.5921 30.0139 44.2653 30.2503 44.0282C30.4875 43.7918 30.8143 43.645 31.176 43.645H32.3658Z" fill="#9446CE"/>
<path d="M47.1988 30.7153C47.7906 30.7153 48.2696 31.1944 48.2696 31.7861C48.2696 32.082 48.1498 32.3493 47.9563 32.5436C47.762 32.7372 47.4947 32.8569 47.1988 32.8569H43.6294C43.0377 32.8569 42.5586 32.3779 42.5586 31.7861C42.5586 31.4902 42.6784 31.223 42.8719 31.0286C43.0662 30.8351 43.3336 30.7153 43.6294 30.7153H47.1988Z" fill="#9446CE"/>
<g clip-path="url(#clip0)">
<path d="M66.3323 48.3043C66.3323 50.6944 65.6387 53.0308 64.3391 55.0181C63.0396 57.0054 61.1925 58.5543 59.0314 59.469C56.8704 60.3836 54.4924 60.6229 52.1982 60.1567C49.904 59.6904 47.7967 58.5394 46.1427 56.8494C44.4887 55.1593 43.3623 53.0061 42.906 50.6619C42.4496 48.3177 42.6838 45.8879 43.579 43.6797C44.4741 41.4716 45.99 39.5842 47.9349 38.2563C49.8798 36.9285 52.1664 36.2197 54.5055 36.2197C57.6421 36.2199 60.6502 37.4932 62.8681 39.7595C65.086 42.0257 66.3321 45.0993 66.3323 48.3043Z" fill="url(#paint0_linear)"/>
<path d="M66.3323 46.8487C66.3323 49.2388 65.6387 51.5752 64.3391 53.5625C63.0396 55.5498 61.1925 57.0987 59.0314 58.0134C56.8704 58.928 54.4924 59.1674 52.1982 58.7011C49.904 58.2348 47.7967 57.0838 46.1427 55.3938C44.4887 53.7037 43.3623 51.5505 42.906 49.2063C42.4496 46.8621 42.6838 44.4323 43.579 42.2242C44.4741 40.016 45.99 38.1286 47.9349 36.8008C49.8798 35.4729 52.1664 34.7642 54.5055 34.7642C56.0586 34.7642 57.5965 35.0767 59.0314 35.684C60.4663 36.2913 61.7701 37.1815 62.8683 38.3036C63.9665 39.4258 64.8377 40.758 65.432 42.2242C66.0264 43.6903 66.3323 45.2617 66.3323 46.8487Z" fill="url(#paint1_linear)"/>
<path d="M63.5768 46.557C63.5769 48.3905 63.045 50.1828 62.0482 51.7074C61.0514 53.2319 59.6345 54.4202 57.9768 55.1219C56.3191 55.8236 54.4949 56.0072 52.735 55.6496C50.9751 55.2919 49.3586 54.409 48.0898 53.1126C46.821 51.8161 45.9569 50.1644 45.6069 48.3661C45.2569 46.5679 45.4366 44.704 46.1233 43.0101C46.8101 41.3162 47.973 39.8685 49.465 38.85C50.957 37.8315 52.7111 37.2879 54.5055 37.2881C56.9113 37.2883 59.2185 38.2649 60.9196 40.0031C62.6208 41.7414 63.5765 44.0988 63.5768 46.557Z" fill="url(#paint2_linear)"/>
<path d="M60.9198 53.4995C64.4623 49.8797 64.4623 44.0109 60.9198 40.3912C57.3772 36.7714 51.6336 36.7714 48.0911 40.3912C44.5486 44.0109 44.5486 49.8797 48.0911 53.4995C51.6336 57.1192 57.3772 57.1192 60.9198 53.4995Z" fill="url(#paint3_linear)"/>
<path d="M59.5841 45.8262H59.2156L58.8966 46.1495L58.7665 46.2817H52.6273L52.4345 46.4779L52.2099 46.7065H58.3483L57.5803 47.4863L56.9368 48.138L56.2444 48.8413L56.1142 48.9735H49.3429L47.1504 51.198H48.6661C49.0185 51.1977 49.3565 51.0545 49.6057 50.7998L50.451 49.9336H55.7701C56.0409 49.9336 56.309 49.879 56.559 49.7729C56.8091 49.6667 57.0362 49.5112 57.2272 49.3151L59.8924 46.5835C59.9527 46.5211 59.9936 46.442 60.01 46.356C60.0264 46.27 60.0176 46.181 59.9847 46.1001C59.9517 46.0192 59.8961 45.95 59.8249 45.9013C59.7536 45.8526 59.6699 45.8264 59.5841 45.8262Z" fill="url(#paint4_linear)"/>
<path d="M53.6609 42.499L52.3438 43.8341H60.542L61.8592 42.499H53.6609Z" fill="url(#paint5_linear)"/>
<path d="M49.2149 48.5165H55.9293L56.6224 47.8141L57.2643 47.1624H51.126L51.5987 46.6819L52.4423 45.8256H58.5807L59.897 44.4897H51.6995L48.7837 47.4483C48.6979 47.5356 48.6394 47.647 48.6155 47.7683C48.5917 47.8896 48.6036 48.0154 48.6497 48.1298C48.6959 48.2442 48.7743 48.342 48.8749 48.4108C48.9755 48.4797 49.0938 48.5165 49.2149 48.5165Z" fill="url(#paint6_linear)"/>
</g>
</g>
<defs>
<filter id="filter0_d" x="0" y="0" width="97.0137" height="97.0513" filterUnits="userSpaceOnUse" color-interpolation-filters="sRGB">
<feFlood flood-opacity="0" result="BackgroundImageFix"/>
<feColorMatrix in="SourceAlpha" type="matrix" values="0 0 0 0 0 0 0 0 0 0 0 0 0 0 0 0 0 0 127 0" result="hardAlpha"/>
<feOffset/>
<feGaussianBlur stdDeviation="9"/>
<feComposite in2="hardAlpha" operator="out"/>
<feColorMatrix type="matrix" values="0 0 0 0 0.458824 0 0 0 0 0.384314 0 0 0 0 0.878431 0 0 0 0.25 0"/>
<feBlend mode="normal" in2="BackgroundImageFix" result="effect1_dropShadow"/>
<feBlend mode="normal" in="SourceGraphic" in2="effect1_dropShadow" result="shape"/>
</filter>
<linearGradient id="paint0_linear" x1="42.6787" y1="48.3043" x2="66.3323" y2="48.3043" gradientUnits="userSpaceOnUse">
<stop stop-color="#D96E00"/>
<stop offset="0.57" stop-color="#EFA400"/>
<stop offset="0.97" stop-color="#D96E00"/>
</linearGradient>
<linearGradient id="paint1_linear" x1="46.1429" y1="38.303" x2="63.2287" y2="55.0244" gradientUnits="userSpaceOnUse">
<stop stop-color="#EAC600"/>
<stop offset="0.54" stop-color="#EAEB80"/>
<stop offset="1" stop-color="#E9E542"/>
</linearGradient>
<linearGradient id="paint2_linear" x1="5676.1" y1="5611.77" x2="9722.43" y2="5611.77" gradientUnits="userSpaceOnUse">
<stop stop-color="#D96E00"/>
<stop offset="0.57" stop-color="#EFA400"/>
<stop offset="0.97" stop-color="#D96E00"/>
</linearGradient>
<linearGradient id="paint3_linear" x1="48.0906" y1="40.3914" x2="61.1963" y2="53.2175" gradientUnits="userSpaceOnUse">
<stop stop-color="#EFA400"/>
<stop offset="0.57" stop-color="#E9E542"/>
<stop offset="0.97" stop-color="#F3E000"/>
</linearGradient>
<linearGradient id="paint4_linear" x1="4311.88" y1="1787.37" x2="6347.42" y2="1787.37" gradientUnits="userSpaceOnUse">
<stop stop-color="#D96E00"/>
<stop offset="0.57" stop-color="#EFA400"/>
<stop offset="0.97" stop-color="#D96E00"/>
</linearGradient>
<linearGradient id="paint5_linear" x1="1182.87" y1="177.447" x2="2295.8" y2="177.447" gradientUnits="userSpaceOnUse">
<stop stop-color="#D96E00"/>
<stop offset="0.57" stop-color="#EFA400"/>
<stop offset="0.97" stop-color="#D96E00"/>
</linearGradient>
<linearGradient id="paint6_linear" x1="3993.31" y1="1252.69" x2="5561.3" y2="1252.69" gradientUnits="userSpaceOnUse">
<stop stop-color="#D96E00"/>
<stop offset="0.57" stop-color="#EFA400"/>
<stop offset="0.97" stop-color="#D96E00"/>
</linearGradient>
<clipPath id="clip0">
<rect width="23.6536" height="25.6247" fill="white" transform="translate(42.6787 34.7642)"/>
</clipPath>
</defs>
</svg>
