<svg width="121" height="122" viewBox="0 0 121 122" fill="none" xmlns="http://www.w3.org/2000/svg">
<g filter="url(#filter0_d)">
<rect x="18" y="18" width="84.9697" height="85.022" rx="16" fill="white"/>
<g clip-path="url(#clip0)">
<path d="M86.8397 45.4292H78.666V51.0262H88.5275V48.6745V47.117C88.5277 46.1841 87.7714 45.4292 86.8397 45.4292Z" fill="#67CC4A"/>
<path d="M35.5414 45.4292C34.6096 45.4292 33.8535 46.1841 33.8535 47.117V48.6745V50.094H41.4173V45.4292C41.4173 45.4292 35.5414 45.4292 35.5414 45.4292Z" fill="#67CC4A"/>
<path d="M84.2772 47.1698C83.8478 47.1698 83.4532 46.919 83.2718 46.5316L82.7565 45.4292H78.6641V51.0262H88.5256V48.6745V47.1698H84.2772Z" fill="#52AE37"/>
<path d="M41.4173 45.4292H39.6301L39.1154 46.5308C38.9337 46.919 38.5389 47.1698 38.1096 47.1698H33.8535V48.6745V50.094H41.4173V45.4292Z" fill="#52AE37"/>
<path d="M79.7104 44.3248C80.2071 44.3248 80.6673 44.6083 80.9319 45.0759L81.0974 45.4296L81.91 47.1688C82.3402 48.088 83.2643 48.6749 84.2788 48.6749H88.5273H89.849C91.2095 48.6749 92.3118 49.7784 92.3118 51.1389V68.8189C92.3118 70.1795 91.2095 71.283 89.849 71.283H85.2305C83.4186 71.283 81.6692 71.994 80.4027 73.2894C77.6026 76.1534 73.6964 77.9317 69.3751 77.9317H53.013C48.6918 77.9317 44.7856 76.1536 41.9853 73.2894C40.7188 71.994 38.9695 71.283 37.1575 71.283H32.4062C31.0456 71.2831 29.9434 70.1796 29.9434 68.8189V51.1389C29.9434 49.7784 31.0456 48.6749 32.4062 48.6749H33.8533H38.1094C39.1238 48.6749 40.048 48.088 40.4781 47.1688L41.2894 45.432L41.4562 45.0758C41.7208 44.608 42.1822 44.3247 42.6776 44.3247L79.7104 44.3248Z" fill="#9446CE"/>
<path d="M82.7037 62.9552C83.8118 62.9552 84.71 62.0569 84.71 60.9488C84.71 59.8407 83.8118 58.9424 82.7037 58.9424C81.5956 58.9424 80.6973 59.8407 80.6973 60.9488C80.6973 62.0569 81.5956 62.9552 82.7037 62.9552Z" fill="#782BB1"/>
<path d="M86.7173 56.6847C87.8254 56.6847 88.7237 55.7864 88.7237 54.6783C88.7237 53.5702 87.8254 52.6719 86.7173 52.6719C85.6092 52.6719 84.7109 53.5702 84.7109 54.6783C84.7109 55.7864 85.6092 56.6847 86.7173 56.6847Z" fill="#782BB1"/>
<path d="M41.0295 56.3879V59.4727C41.0295 59.5906 40.9342 59.6858 40.8163 59.6858H38.9854C38.8675 59.6858 38.7723 59.7811 38.7723 59.899V61.7299C38.7723 61.8478 38.677 61.943 38.5591 61.943H35.4743C35.3564 61.943 35.2611 61.8478 35.2611 61.7299V59.899C35.2611 59.7811 35.1658 59.6858 35.0479 59.6858H33.2171C33.0992 59.6858 33.0039 59.5906 33.0039 59.4727V56.3879C33.0039 56.2699 33.0992 56.1747 33.2171 56.1747H35.0479C35.1658 56.1747 35.2611 56.0794 35.2611 55.9615V54.1307C35.2611 54.0127 35.3564 53.9175 35.4743 53.9175H38.5591C38.677 53.9175 38.7723 54.0127 38.7723 54.1307V55.9615C38.7723 56.0794 38.8675 56.1747 38.9854 56.1747H40.8163C40.9341 56.1747 41.0295 56.2701 41.0295 56.3879Z" fill="#782BB1"/>
<path d="M87.7093 66.9567C85.8973 66.9567 84.148 67.6677 82.8815 68.9631C80.0814 71.8271 76.1752 73.6054 71.8538 73.6054H55.4918C51.1706 73.6054 47.2644 71.8273 44.4641 68.9631C43.1976 67.6677 41.4483 66.9567 39.6363 66.9567H33.853C33.0626 66.9567 32.422 66.3161 32.422 65.5257V48.6748H32.4062C31.0456 48.6748 29.9434 49.7783 29.9434 51.1388V68.8188C29.9434 70.1794 31.0456 71.2829 32.4062 71.2829H37.1575C38.9695 71.2829 40.7188 71.9939 41.9853 73.2893C44.7855 76.1533 48.6917 77.9316 53.013 77.9316H69.3751C73.6963 77.9316 77.6025 76.1535 80.4027 73.2893C81.6692 71.9939 83.4186 71.2829 85.2305 71.2829H89.849C91.2095 71.2829 92.3118 70.1794 92.3118 68.8188V66.9567H87.7093Z" fill="#782BB1"/>
<path d="M77.8181 51.4781V68.0446C77.8181 68.8547 77.4908 69.6322 76.9103 70.199C74.9139 72.1528 72.2166 73.2763 69.3764 73.2763H53.0141C50.0635 73.2763 47.2671 72.0636 45.2507 69.967C44.7216 69.4165 44.4395 68.6754 44.4395 67.9117V51.4781C44.4395 50.4435 45.2772 49.606 46.3116 49.606H75.9459C76.9804 49.6058 77.8181 50.4435 77.8181 51.4781Z" fill="#67CC4A"/>
<path d="M71.7891 71.9796H55.427C52.4763 71.9796 49.68 70.7669 47.6636 68.6702C47.1344 68.1198 46.8523 67.3787 46.8523 66.615V50.1815C46.8523 49.9805 46.8849 49.7873 46.9432 49.606H46.3106C45.2761 49.606 44.4385 50.4437 44.4385 51.4781V67.9117C44.4385 68.6754 44.7206 69.4165 45.2498 69.967C47.2661 72.0636 50.0626 73.2763 53.0132 73.2763H69.3753C71.6493 73.2763 73.8306 72.5545 75.6349 71.2646C74.4225 71.7292 73.122 71.9796 71.7891 71.9796Z" fill="#52AE37"/>
<path d="M74.4303 53.3551V66.9337C74.4303 67.1674 74.2391 67.3586 74.0054 67.3586H48.1251C47.8914 67.3586 47.7002 67.1674 47.7002 66.9337V53.3551C47.7002 53.1214 47.8914 52.9302 48.1251 52.9302H74.0054C74.2391 52.9302 74.4303 53.1214 74.4303 53.3551Z" fill="#D9B4F4"/>
<path d="M62.3898 65.144C55.6721 65.144 50.1759 59.6478 50.1759 52.9302H48.1241C47.8905 52.9302 47.6992 53.1214 47.6992 53.3551V66.9337C47.6992 67.1674 47.8905 67.3586 48.1241 67.3586H74.0044C74.2381 67.3586 74.4293 67.1674 74.4293 66.9337V65.144H62.3898Z" fill="#C8A0E6"/>
<path d="M41.252 55.2589V58.3437C41.252 58.4617 41.1567 58.5569 41.0388 58.5569H39.208C39.09 58.5569 38.9948 58.6522 38.9948 58.7701V60.6009C38.9948 60.7189 38.8995 60.8141 38.7816 60.8141H35.6969C35.579 60.8141 35.4838 60.7189 35.4838 60.6009V58.7701C35.4838 58.6522 35.3885 58.5569 35.2706 58.5569H33.4397C33.3218 58.5569 33.2266 58.4617 33.2266 58.3437V55.2589C33.2266 55.141 33.3218 55.0458 33.4397 55.0458H35.2706C35.3885 55.0458 35.4838 54.9505 35.4838 54.8326V53.0017C35.4838 52.8838 35.579 52.7886 35.6969 52.7886H38.7817C38.8997 52.7886 38.9949 52.8838 38.9949 53.0017V54.8326C38.9949 54.9505 39.0902 55.0458 39.2081 55.0458H41.0389C41.1567 55.0458 41.252 55.1412 41.252 55.2589Z" fill="#4F4F74"/>
<path d="M36.8811 59.4343C36.7632 59.4343 36.6679 59.3391 36.6679 59.2212V57.3903C36.6679 57.2724 36.5727 57.1771 36.4547 57.1771H34.6239C34.506 57.1771 34.4107 57.0819 34.4107 56.964V55.0454H33.4407C33.3228 55.0454 33.2275 55.1407 33.2275 55.2586V58.3434C33.2275 58.4613 33.3228 58.5566 33.4407 58.5566H35.2716C35.3895 58.5566 35.4847 58.6518 35.4847 58.7697V60.6006C35.4847 60.7185 35.58 60.8138 35.6979 60.8138H38.7827C38.9006 60.8138 38.9959 60.7185 38.9959 60.6006V59.4343H36.8811Z" fill="#3E436D"/>
<path d="M40.5622 65.1405C41.1855 65.1405 41.6908 64.6352 41.6908 64.0119C41.6908 63.3886 41.1855 62.8833 40.5622 62.8833C39.9389 62.8833 39.4336 63.3886 39.4336 64.0119C39.4336 64.6352 39.9389 65.1405 40.5622 65.1405Z" fill="#87DE6E"/>
<path d="M40.5622 68.5267C41.1855 68.5267 41.6908 68.0214 41.6908 67.3981C41.6908 66.7748 41.1855 66.2695 40.5622 66.2695C39.9389 66.2695 39.4336 66.7748 39.4336 67.3981C39.4336 68.0214 39.9389 68.5267 40.5622 68.5267Z" fill="#87DE6E"/>
<path d="M83.3863 62.4439C84.4944 62.4439 85.3927 61.5456 85.3927 60.4375C85.3927 59.3294 84.4944 58.4312 83.3863 58.4312C82.2782 58.4312 81.3799 59.3294 81.3799 60.4375C81.3799 61.5456 82.2782 62.4439 83.3863 62.4439Z" fill="#358DCD"/>
<path d="M87.3999 56.1749C88.508 56.1749 89.4063 55.2766 89.4063 54.1685C89.4063 53.0604 88.508 52.1621 87.3999 52.1621C86.2918 52.1621 85.3936 53.0604 85.3936 54.1685C85.3936 55.2766 86.2918 56.1749 87.3999 56.1749Z" fill="#DD1B1B"/>
<path d="M84.7429 61.3163C83.6344 61.3163 82.7365 60.4184 82.7365 59.3099C82.7365 59.0174 82.8005 58.7406 82.9127 58.4902C82.0323 58.7026 81.3779 59.4928 81.3779 60.4385C81.3779 61.547 82.2758 62.4449 83.3843 62.4449C84.2005 62.4449 84.901 61.9575 85.2146 61.2582C85.0632 61.2949 84.9058 61.3163 84.7429 61.3163Z" fill="#098BAA"/>
<path d="M88.7566 55.0458C87.6481 55.0458 86.7502 54.1479 86.7502 53.0394C86.7502 52.7469 86.8141 52.4701 86.9263 52.2197C86.046 52.432 85.3916 53.2223 85.3916 54.168C85.3916 55.2765 86.2895 56.1744 87.398 56.1744C88.2141 56.1744 88.9147 55.687 89.2282 54.9877C89.0768 55.0244 88.9194 55.0458 88.7566 55.0458Z" fill="#CC0202"/>
<path d="M82.2589 69.2785C81.7393 69.2785 81.3184 68.8574 81.3184 68.338V66.3316C81.3184 65.8122 81.7393 65.3911 82.2589 65.3911C82.7784 65.3911 83.1994 65.8122 83.1994 66.3316V68.338C83.1994 68.8574 82.7784 69.2785 82.2589 69.2785Z" fill="#87DE6E"/>
<path d="M85.1417 69.2785C84.6222 69.2785 84.2012 68.8574 84.2012 68.338V66.3316C84.2012 65.8122 84.6222 65.3911 85.1417 65.3911C85.6612 65.3911 86.0822 65.8122 86.0822 66.3316V68.338C86.0822 68.8574 85.6612 69.2785 85.1417 69.2785Z" fill="#87DE6E"/>
<path d="M88.0274 69.2785C87.5079 69.2785 87.0869 68.8574 87.0869 68.338V66.3316C87.0869 65.8122 87.5079 65.3911 88.0274 65.3911C88.547 65.3911 88.9679 65.8122 88.9679 66.3316V68.338C88.9679 68.8574 88.547 69.2785 88.0274 69.2785Z" fill="#87DE6E"/>
</g>
</g>
<defs>
<filter id="filter0_d" x="0" y="0" width="120.97" height="121.022" filterUnits="userSpaceOnUse" color-interpolation-filters="sRGB">
<feFlood flood-opacity="0" result="BackgroundImageFix"/>
<feColorMatrix in="SourceAlpha" type="matrix" values="0 0 0 0 0 0 0 0 0 0 0 0 0 0 0 0 0 0 127 0" result="hardAlpha"/>
<feOffset/>
<feGaussianBlur stdDeviation="9"/>
<feComposite in2="hardAlpha" operator="out"/>
<feColorMatrix type="matrix" values="0 0 0 0 0.458824 0 0 0 0 0.384314 0 0 0 0 0.878431 0 0 0 0.25 0"/>
<feBlend mode="normal" in2="BackgroundImageFix" result="effect1_dropShadow"/>
<feBlend mode="normal" in="SourceGraphic" in2="effect1_dropShadow" result="shape"/>
</filter>
<clipPath id="clip0">
<rect width="62.3684" height="62.3684" fill="white" transform="translate(29.9434 29.9434)"/>
</clipPath>
</defs>
</svg>
