<svg width="89" height="90" viewBox="0 0 89 90" fill="none" xmlns="http://www.w3.org/2000/svg">
<g filter="url(#filter0_d)">
<path d="M18 42C18 30.6863 18 25.0294 21.5147 21.5147C25.0294 18 30.6863 18 42 18H47C58.3137 18 63.9706 18 67.4853 21.5147C71 25.0294 71 30.6863 71 42V47.0326C71 58.3463 71 64.0032 67.4853 67.5179C63.9706 71.0326 58.3137 71.0326 47 71.0326H42C30.6863 71.0326 25.0294 71.0326 21.5147 67.5179C18 64.0032 18 58.3463 18 47.0326V42Z" fill="white"/>
<g clip-path="url(#clip0)">
<path d="M46.407 32.1278L44.6318 27.7622C44.3302 27.0206 44.851 26.2079 45.6534 26.1834C46.2897 26.1834 46.8056 26.6993 46.8056 27.3357V26.5426C46.8056 25.9179 47.2914 25.3857 47.9158 25.3635C48.5713 25.3403 49.11 25.8647 49.11 26.515V27.3357C49.11 26.6993 49.6259 26.1834 50.2623 26.1834C51.0655 26.2048 51.5849 27.0218 51.2839 27.7622L49.5087 32.1278C54.3094 33.5494 58.498 40.0469 58.498 43.9654C58.498 48.445 53.779 48.3423 47.9578 48.3423C42.1366 48.3423 37.4176 48.445 37.4176 43.9654C37.4176 40.0469 41.6061 33.5494 46.407 32.1278Z" fill="#9446CE"/>
<path d="M46.4058 32.1279L44.6306 27.7623C44.329 27.0207 44.8498 26.2081 45.6522 26.1836C46.1484 26.1836 46.5701 26.4979 46.7323 26.9378C46.7232 27.0566 46.7448 27.1891 46.8044 27.3358L48.7171 32.1279C43.9162 33.5496 39.7277 40.047 39.7277 43.9655C39.7277 48.1445 43.8348 48.3355 49.1123 48.3423C48.7327 48.3428 48.3473 48.3424 47.9567 48.3424C42.1354 48.3424 37.4164 48.4451 37.4164 43.9655C37.4164 40.047 41.6049 33.5496 46.4058 32.1279Z" fill="#782BB1"/>
<path d="M49.1162 27.2124V27.3357C49.1162 27.313 49.1141 27.2909 49.1128 27.2685C49.1139 27.2498 49.1142 27.2309 49.1162 27.2124Z" fill="#745B9C"/>
<path d="M45.0558 32.5918H50.8591C51.3862 32.5918 51.8135 32.1645 51.8135 31.6375C51.8135 31.1104 51.3862 30.6831 50.8591 30.6831H45.0558C44.5288 30.6831 44.1015 31.1104 44.1015 31.6375C44.1016 32.1645 44.5288 32.5918 45.0558 32.5918Z" fill="#F683AE"/>
<path d="M45.0569 30.6831H47.3682C46.8411 30.6831 46.4138 31.1104 46.4138 31.6375C46.4138 32.1645 46.8411 32.5918 47.3682 32.5918H45.0569C44.5299 32.5918 44.1026 32.1645 44.1026 31.6375C44.1026 31.1104 44.5299 30.6831 45.0569 30.6831Z" fill="#F26D9F"/>
<path d="M35.496 48.8225C32.3397 48.8225 29.781 46.2638 29.781 43.1075C29.781 39.9513 32.3397 37.3926 35.496 37.3926C38.6523 37.3926 41.2109 39.9513 41.2109 43.1075C41.2109 46.2638 38.6523 48.8225 35.496 48.8225Z" fill="#FFC72E"/>
<path d="M34.8471 47.1482C32.6169 46.7867 31.1021 44.6857 31.4636 42.4555C31.8251 40.2253 33.9261 38.7104 36.1563 39.072C38.3864 39.4335 39.9013 41.5345 39.5397 43.7647C39.1782 45.9949 37.0772 47.5097 34.8471 47.1482Z" fill="#FFED75"/>
<path d="M35.4957 39.0166C35.897 39.0166 36.2846 39.0757 36.6514 39.1839C34.9566 39.6839 33.7158 41.2532 33.7158 43.1079C33.7158 44.9625 34.9566 46.5319 36.6514 47.0319C36.2847 47.1401 35.897 47.1992 35.4957 47.1992C33.2399 47.1992 31.4045 45.3638 31.4045 43.1079C31.4045 40.8519 33.2398 39.0166 35.4957 39.0166Z" fill="#FCE547"/>
<path d="M42.9755 54.0798C39.8192 54.0798 37.2605 51.5211 37.2605 48.3649C37.2605 45.2086 39.8192 42.6499 42.9755 42.6499C46.1318 42.6499 48.6904 45.2086 48.6904 48.3649C48.6904 51.5211 46.1318 54.0798 42.9755 54.0798Z" fill="#FFC72E"/>
<path d="M42.2474 52.3816C40.0173 52.0201 38.5024 49.9191 38.864 47.6889C39.2255 45.4587 41.3265 43.9438 43.5567 44.3054C45.7868 44.6669 47.3016 46.7679 46.9401 48.9981C46.5786 51.2283 44.4776 52.7431 42.2474 52.3816Z" fill="#FFED75"/>
<path d="M42.8971 44.251C43.2984 44.251 43.686 44.31 44.0527 44.4182C42.358 44.9183 41.1171 46.4876 41.1171 48.3423C41.1171 50.1968 42.3579 51.7663 44.0527 52.2663C43.686 52.3745 43.2984 52.4335 42.8971 52.4335C40.6412 52.4335 38.8058 50.5982 38.8058 48.3423C38.8058 46.0863 40.6412 44.251 42.8971 44.251Z" fill="#FCE547"/>
<path d="M36.5833 30.0859C36.8226 30.0859 37.0166 30.2799 37.0166 30.5193V35.1419C37.0166 35.3812 36.8226 35.5752 36.5833 35.5752C36.3439 35.5752 36.1499 35.3812 36.1499 35.1419V30.5193C36.1499 30.2799 36.3439 30.0859 36.5833 30.0859Z" fill="#F1F0F7"/>
<path d="M34.4114 26.9316C34.6508 26.9316 34.8447 27.1257 34.8447 27.365V35.142C34.8447 35.3813 34.6507 35.5753 34.4114 35.5753C34.1721 35.5753 33.9781 35.3813 33.9781 35.142V27.365C33.9781 27.1257 34.1721 26.9316 34.4114 26.9316Z" fill="#F1F0F7"/>
<path d="M42.4651 40.7864C42.7045 40.7864 42.8984 40.5924 42.8984 40.353V38.3352C42.8984 38.0958 42.7044 37.9019 42.4651 37.9019C42.2258 37.9019 42.0318 38.0959 42.0318 38.3352V40.353C42.0317 40.5924 42.2257 40.7864 42.4651 40.7864Z" fill="#F1F0F7"/>
<path d="M44.718 40.7862C44.9574 40.7862 45.1514 40.5922 45.1514 40.3529V36.262C45.1514 36.0226 44.9574 35.8286 44.718 35.8286C44.4787 35.8286 44.2847 36.0226 44.2847 36.262V40.3529C44.2846 40.5922 44.4787 40.7862 44.718 40.7862Z" fill="#F1F0F7"/>
</g>
<path d="M37.0836 42.8438H36.9544L36.8427 42.9571L36.7971 43.0034H34.6458L34.5782 43.0721L34.4995 43.1522H36.6505L36.3814 43.4255L36.1559 43.6539L35.9133 43.9003L35.8677 43.9466H33.4949L32.7266 44.7261H33.2577C33.3812 44.7261 33.4996 44.6759 33.587 44.5866L33.8832 44.2831H35.7471C35.842 44.2831 35.9359 44.2639 36.0235 44.2268C36.1112 44.1896 36.1907 44.135 36.2577 44.0663L37.1916 43.1091C37.2128 43.0873 37.2271 43.0596 37.2328 43.0294C37.2386 42.9993 37.2355 42.9681 37.224 42.9397C37.2124 42.9114 37.1929 42.8872 37.168 42.8701C37.143 42.853 37.1136 42.8438 37.0836 42.8438Z" fill="#FFC72E"/>
<path d="M35.0084 41.6782L34.5469 42.1461H37.4197L37.8813 41.6782H35.0084Z" fill="#FFC72E"/>
<path d="M33.4506 43.7866H35.8034L36.0463 43.5404L36.2713 43.312H34.1203L34.2859 43.1437L34.5815 42.8436H36.7325L37.1938 42.3755H34.3212L33.2995 43.4122C33.2694 43.4428 33.2489 43.4818 33.2405 43.5243C33.2322 43.5669 33.2363 43.6109 33.2525 43.651C33.2687 43.6911 33.2962 43.7254 33.3314 43.7495C33.3667 43.7736 33.4081 43.7865 33.4506 43.7866Z" fill="#FFC72E"/>
<path d="M44.4469 47.998H44.3177L44.206 48.1114L44.1604 48.1577H42.0091L41.9415 48.2264L41.8628 48.3065H44.0138L43.7447 48.5798L43.5192 48.8082L43.2766 49.0546L43.231 49.1009H40.8582L40.0898 49.8804H40.621C40.7445 49.8804 40.8629 49.8302 40.9502 49.7409L41.2465 49.4374H43.1104C43.2053 49.4374 43.2992 49.4182 43.3868 49.3811C43.4745 49.3439 43.554 49.2893 43.621 49.2206L44.5549 48.2634C44.576 48.2416 44.5904 48.2139 44.5961 48.1837C44.6019 48.1536 44.5988 48.1224 44.5872 48.094C44.5757 48.0657 44.5562 48.0414 44.5312 48.0244C44.5063 48.0073 44.4769 47.9981 44.4469 47.998Z" fill="#FFC72E"/>
<path d="M42.3717 46.8325L41.9102 47.3004H44.783L45.2446 46.8325H42.3717Z" fill="#FFC72E"/>
<path d="M40.8139 48.9409H43.1667L43.4096 48.6947L43.6345 48.4663H41.4835L41.6492 48.298L41.9448 47.9979H44.0958L44.5571 47.5298H41.6845L40.6628 48.5665C40.6327 48.5971 40.6122 48.6361 40.6038 48.6786C40.5955 48.7212 40.5996 48.7652 40.6158 48.8053C40.632 48.8454 40.6594 48.8797 40.6947 48.9038C40.73 48.9279 40.7714 48.9408 40.8139 48.9409Z" fill="#FFC72E"/>
<path d="M58.2747 53.9674H58.2742L50.3711 60.3069C49.7216 60.8279 48.8882 61.0652 48.0612 60.9643L37.4096 59.6679L34.5715 60.7178C33.0469 59.1498 33.6734 54.4112 33.6734 54.4112L34.3493 53.9199C34.2907 53.0168 34.7166 52.12 35.5072 51.6068C35.5943 51.5497 35.6857 51.498 35.782 51.4509L40.3494 49.2203L42.6985 48.0731C42.8264 48.0107 42.9569 47.9616 43.0895 47.9256C44.0714 47.6567 45.1373 48.0884 45.6399 49.0143C46.2101 50.0654 45.8507 51.3791 44.825 51.9937L41.028 54.2693L47.4176 55.3823C48.1865 55.5159 48.9776 55.3542 49.6329 54.9288L55.9876 50.8037C56.84 50.2499 57.9741 50.4422 58.5972 51.2461C58.7583 51.4543 58.8715 51.6852 58.9375 51.9251C59.1372 52.6542 58.9009 53.4649 58.2747 53.9674Z" fill="#F1D0A5"/>
<path d="M48.0434 59.2616C43.6677 59.8299 40.6509 57.264 38.8258 54.8499C37.9209 53.6529 38.226 51.9408 39.4894 51.131C43.8957 48.3065 45.0355 48.4103 45.6395 49.0143C45.1369 48.0884 44.071 47.6567 43.0892 47.9256C42.9566 47.9616 42.826 48.0107 42.6981 48.0731L40.3491 49.2203L36.647 51.0283C36.647 51.0283 36.6467 51.0289 36.6466 51.029L35.7816 51.451C34.8161 51.9224 34.2839 52.917 34.3489 53.92L32.376 54.4169C32.376 54.4169 33.0466 59.1499 34.5712 60.7179L37.4093 59.668L48.0609 60.9643C48.888 61.0652 49.7213 60.8279 50.3708 60.3069L58.2738 53.9675C55.5428 53.2266 50.9906 58.8108 48.0434 59.2616Z" fill="#F1B986"/>
<path d="M43.1526 51.8722C42.7763 51.8722 42.4112 51.6896 42.1884 51.3567C41.6973 50.6235 41.5524 49.889 41.5464 49.8582C41.4985 49.6089 41.6619 49.3681 41.9111 49.3203C42.159 49.2726 42.4003 49.4352 42.4487 49.6837C42.4507 49.6937 42.5702 50.2754 42.9519 50.8454C43.0206 50.9478 43.1612 50.9818 43.2725 50.9224L43.8421 50.6186C44.0661 50.4992 44.3444 50.584 44.4637 50.8079C44.5832 51.0318 44.4985 51.3101 44.2746 51.4295L43.705 51.7333C43.5288 51.8272 43.3393 51.8722 43.1526 51.8722Z" fill="#F1B986"/>
<path d="M34.0919 63.4019C35.5775 62.8773 35.9244 60.0242 34.8669 57.0293C33.8093 54.0345 31.7477 52.0319 30.2621 52.5565C28.7766 53.0811 28.4296 55.9342 29.4872 58.9291C30.5448 61.9239 32.6064 63.9265 34.0919 63.4019Z" fill="#87DE6E"/>
<path d="M32.9339 60.9081C32.6668 60.9081 32.4257 60.7279 32.3481 60.4731C32.2726 60.2249 32.3665 59.9487 32.5772 59.7973C32.7763 59.6541 33.0484 59.6468 33.2567 59.7752C33.4713 59.9075 33.5846 60.1676 33.5349 60.4149C33.4781 60.6977 33.2226 60.9081 32.9339 60.9081Z" fill="#3D3D3D"/>
</g>
<defs>
<filter id="filter0_d" x="0" y="0" width="89" height="89.0327" filterUnits="userSpaceOnUse" color-interpolation-filters="sRGB">
<feFlood flood-opacity="0" result="BackgroundImageFix"/>
<feColorMatrix in="SourceAlpha" type="matrix" values="0 0 0 0 0 0 0 0 0 0 0 0 0 0 0 0 0 0 127 0" result="hardAlpha"/>
<feOffset/>
<feGaussianBlur stdDeviation="9"/>
<feComposite in2="hardAlpha" operator="out"/>
<feColorMatrix type="matrix" values="0 0 0 0 0.458824 0 0 0 0 0.384314 0 0 0 0 0.878431 0 0 0 0.25 0"/>
<feBlend mode="normal" in2="BackgroundImageFix" result="effect1_dropShadow"/>
<feBlend mode="normal" in="SourceGraphic" in2="effect1_dropShadow" result="shape"/>
</filter>
<clipPath id="clip0">
<rect width="28.7172" height="28.7172" fill="white" transform="matrix(-1 0 0 1 58.498 25.3633)"/>
</clipPath>
</defs>
</svg>
