<svg width="90" height="90" viewBox="0 0 90 90" fill="none" xmlns="http://www.w3.org/2000/svg">
<g filter="url(#filter0_d)">
<rect x="18" y="18" width="53.9668" height="54" rx="10" fill="white"/>
<g clip-path="url(#clip0)">
<path d="M25.7786 37.561C26.5765 36.75 27.2457 35.5898 27.2495 33.9779C27.2556 31.2852 29.0723 29.082 31.7647 29.082H39.4697V39.1982H26.4566C25.6018 39.1982 25.1791 38.1702 25.7786 37.561Z" fill="#9446CE"/>
<path d="M39.4697 29.082V34.9675H27.1579C27.2163 34.658 27.2487 34.3292 27.2495 33.9776C27.2557 31.2852 29.0723 29.082 31.7647 29.082H39.4697Z" fill="#782BB1"/>
<path d="M49.0351 29.082C52.8478 29.082 55.9385 32.1727 55.9385 35.9854V60.2268H40.1226C38.063 60.2268 36.3934 58.5572 36.3934 56.4976V33.7098C36.3934 31.1539 34.3215 29.082 31.7656 29.082H49.0351Z" fill="#9446CE"/>
<path d="M47.1782 54.6376L55.9385 54.716V60.2275H40.1226C38.063 60.2275 36.3934 58.5579 36.3934 56.4983V54.6309C42.0151 55.2041 47.1782 54.6376 47.1782 54.6376Z" fill="#782BB1"/>
<path d="M43.8504 56.4975V53.7992C43.8504 51.7624 45.5019 50.1108 47.5391 50.1108H62.7768C63.6313 50.1108 64.054 51.1386 63.4545 51.7481C62.6566 52.5591 61.9873 53.7193 61.9835 55.3311C61.9774 58.0239 59.8011 60.227 57.1086 60.227H40.1212C42.1808 60.227 43.8504 58.5574 43.8504 56.4975Z" fill="#AB60E2"/>
<path d="M39.9595 42.1336H52.3312C52.6497 42.1336 52.9082 41.8754 52.9082 41.5565C52.9082 41.238 52.6497 40.9795 52.3312 40.9795H39.9595C39.6407 40.9795 39.3825 41.238 39.3825 41.5565C39.3825 41.8754 39.6407 42.1336 39.9595 42.1336Z" fill="#87DE6E"/>
<path d="M39.9605 39.1375H52.3321C52.6507 39.1375 52.9092 38.8793 52.9092 38.5604C52.9092 38.2419 52.6507 37.9834 52.3321 37.9834H39.9605C39.6416 37.9834 39.3834 38.2419 39.3834 38.5604C39.3834 38.8793 39.6416 39.1375 39.9605 39.1375Z" fill="#87DE6E"/>
<path d="M39.9595 44.9837H52.3312C52.6497 44.9837 52.9082 44.7252 52.9082 44.4066C52.9082 44.0881 52.6497 43.8296 52.3312 43.8296H39.9595C39.6407 43.8296 39.3825 44.0881 39.3825 44.4066C39.3825 44.7252 39.6407 44.9837 39.9595 44.9837Z" fill="#87DE6E"/>
<path d="M39.9609 47.8333H46.3292C46.6481 47.8333 46.9062 47.5748 46.9062 47.2563C46.9062 46.9374 46.6481 46.6792 46.3292 46.6792H39.9609C39.642 46.6792 39.3838 46.9374 39.3838 47.2563C39.3838 47.5748 39.642 47.8333 39.9609 47.8333Z" fill="#87DE6E"/>
<path d="M53.5204 55.5089C53.5204 54.7341 54.1485 54.106 54.9233 54.106H62.126C62.0358 54.4823 61.9851 54.8896 61.9842 55.3315C61.9827 55.8841 61.8903 56.4153 61.7208 56.9119H54.9233C54.1485 56.9119 53.5204 56.2838 53.5204 55.5089Z" fill="#782BB1"/>
<path d="M48.8797 56.9119H50.0082C50.783 56.9119 51.4111 56.2838 51.4111 55.5089C51.4111 54.7341 50.783 54.106 50.0082 54.106H48.8797C48.1049 54.106 47.4768 54.7341 47.4768 55.5089C47.4768 56.2838 48.1049 56.9119 48.8797 56.9119Z" fill="#782BB1"/>
</g>
</g>
<defs>
<filter id="filter0_d" x="0" y="0" width="89.9668" height="90" filterUnits="userSpaceOnUse" color-interpolation-filters="sRGB">
<feFlood flood-opacity="0" result="BackgroundImageFix"/>
<feColorMatrix in="SourceAlpha" type="matrix" values="0 0 0 0 0 0 0 0 0 0 0 0 0 0 0 0 0 0 127 0" result="hardAlpha"/>
<feOffset/>
<feGaussianBlur stdDeviation="9"/>
<feComposite in2="hardAlpha" operator="out"/>
<feColorMatrix type="matrix" values="0 0 0 0 0.458824 0 0 0 0 0.384314 0 0 0 0 0.878431 0 0 0 0.25 0"/>
<feBlend mode="normal" in2="BackgroundImageFix" result="effect1_dropShadow"/>
<feBlend mode="normal" in="SourceGraphic" in2="effect1_dropShadow" result="shape"/>
</filter>
<clipPath id="clip0">
<rect width="38.2383" height="38.2383" fill="white" transform="matrix(-1 0 0 1 63.7363 25.4976)"/>
</clipPath>
</defs>
</svg>
