<svg width="108" height="109" viewBox="0 0 108 109" fill="none" xmlns="http://www.w3.org/2000/svg">
<g filter="url(#filter0_d)">
<rect x="18" y="18" width="71.9777" height="72.022" rx="17" fill="white"/>
<g clip-path="url(#clip0)">
<path d="M75.658 54.7231V69.633C75.658 71.8585 73.8542 73.6624 71.6286 73.6624H37.4356C35.2102 73.6624 33.4062 71.8586 33.4062 69.633V54.7231H75.658Z" fill="#9446CE"/>
<path d="M75.6599 38.0767V54.4376H33.4082V38.0767C33.4082 35.8512 35.212 34.0474 37.4376 34.0474H71.6307C73.856 34.0474 75.6599 35.8512 75.6599 38.0767Z" fill="#67CC4A"/>
<path d="M75.2337 51.6001V54.4378H33.834V49.7284C33.834 48.804 34.5855 48.0525 35.5099 48.0525H38.4763V45.1152C38.4763 44.1908 39.2279 43.4392 40.1523 43.4392H54.0919L56.6349 41.1396C56.9463 40.8591 57.344 40.7065 57.7586 40.7065H64.5753C65.4997 40.7065 66.2512 41.4581 66.2512 42.3825V45.9681H70.1553C71.0797 45.9681 71.8313 46.7197 71.8313 47.6441V49.9242H73.5574C74.4821 49.9241 75.2337 50.6757 75.2337 51.6001Z" fill="#0CC756"/>
<path d="M73.0789 38.7047V54.4377H35.9873V38.7047C35.9873 37.5086 36.9603 36.5356 38.1572 36.5356H70.9089C72.106 36.5356 73.0789 37.5086 73.0789 38.7047Z" fill="#9446CE"/>
<path d="M73.0759 38.1544V39.2932C73.0759 38.0971 72.103 37.1242 70.9059 37.1242H38.1543C36.9572 37.1242 35.9844 38.0971 35.9844 39.2932V38.1544C35.9844 36.9583 36.9573 35.9854 38.1543 35.9854H70.9059C72.103 35.9854 73.0759 36.9583 73.0759 38.1544Z" fill="#782BB1"/>
<path d="M73.078 49.9242V54.4378H35.9863V48.0525H38.4746V45.1152C38.4746 44.1908 39.2262 43.4392 40.1506 43.4392H45.6963C46.0438 42.0561 47.2973 41.0285 48.787 41.0285C50.2768 41.0285 51.5303 42.0561 51.8778 43.4392H54.0901L56.6331 41.1396C56.9445 40.8591 57.3422 40.7065 57.7568 40.7065H64.5735C65.4979 40.7065 66.2494 41.4581 66.2494 42.3825V44.5435L67.674 45.9681H70.1535C71.0779 45.9681 71.8294 46.7196 71.8294 47.644V49.9241H73.078V49.9242Z" fill="#782BB1"/>
<path d="M74.0857 51.5999V54.4376H34.9795V49.7282C34.9795 49.4362 35.2168 49.199 35.5087 49.199H39.0926C39.3854 49.199 39.6219 48.9626 39.6219 48.6697V45.115C39.6219 44.823 39.8591 44.5857 40.1511 44.5857H54.5326L57.4029 41.9898C57.4999 41.9024 57.626 41.853 57.7574 41.853H64.5741C64.8661 41.853 65.1034 42.0903 65.1034 42.3823V46.5854C65.1034 46.8774 65.3406 47.1146 65.6326 47.1146H70.1542C70.4462 47.1146 70.6834 47.351 70.6834 47.6439V50.5415C70.6834 50.8343 70.9198 51.0707 71.2127 51.0707H73.5564C73.8484 51.0707 74.0857 51.308 74.0857 51.5999Z" fill="#FFDC13"/>
<path d="M74.0857 52.2194V54.4379H34.9795V52.2194H50.7697C50.954 52.0722 51.186 51.9839 51.44 51.9839H57.6252C57.8792 51.9839 58.1112 52.0721 58.2955 52.2194H74.0857Z" fill="#0BBE53"/>
<path d="M65.1047 42.3818V43.487C65.1047 43.195 64.8674 42.9578 64.5754 42.9578H58.288C58.1565 42.9578 58.0304 43.0063 57.9334 43.0945L55.0631 45.6905H40.1523C39.8603 45.6905 39.623 45.9269 39.623 46.2197V45.1145C39.623 44.8225 39.8603 44.5852 40.1523 44.5852H54.5338L57.4041 41.9893C57.5011 41.9019 57.6272 41.8525 57.7586 41.8525H64.5753C64.8674 41.8525 65.1047 42.0898 65.1047 42.3818Z" fill="#FFED97"/>
<path d="M47.1241 54.0897H43.8604V49.7077C43.8604 49.4268 44.088 49.1992 44.3688 49.1992H46.6156C46.8964 49.1992 47.124 49.4269 47.124 49.7077L47.1241 54.0897Z" fill="#E94141"/>
<path d="M47.1243 52.2188H43.8604V54.0896H47.1243V52.2188Z" fill="#C62525"/>
<path d="M58.6999 54.7231V64.1856C58.6999 64.8231 58.1832 65.3398 57.5457 65.3398H51.5185C50.881 65.3398 50.3643 64.8231 50.3643 64.1856V54.7231H58.6999Z" fill="#782BB1"/>
<path d="M75.6579 54.7231V57.903H69.8212V73.6623H63.8231V57.903H45.2411V73.6623H39.243V57.903H33.4062V54.7231H75.6579Z" fill="#782BB1"/>
<path d="M75.658 66.7471V69.6333C75.658 71.8587 73.8542 73.6627 71.6286 73.6627H37.4356C35.2102 73.6627 33.4062 71.8588 33.4062 69.6333V66.7471C33.4062 68.9725 35.2101 70.7765 37.4356 70.7765H71.6287C73.8542 70.7764 75.658 68.9725 75.658 66.7471Z" fill="#782BB1"/>
<path d="M68.6754 55.8608V74.4895C68.6754 74.7819 68.4385 75.0188 68.1462 75.0188H65.4999C65.2076 75.0188 64.9707 74.7819 64.9707 74.4895V55.8608H68.6754Z" fill="#52AE37"/>
<path d="M68.6747 55.8613H64.9697V57.9034H68.6747V55.8613Z" fill="#36861E"/>
<path d="M44.0964 55.8608V74.4895C44.0964 74.7819 43.8595 75.0188 43.5671 75.0188H40.9208C40.6285 75.0188 40.3916 74.7819 40.3916 74.4895V55.8608H44.0964Z" fill="#52AE37"/>
<path d="M44.0956 55.8613H40.3906V57.9034H44.0956V55.8613Z" fill="#36861E"/>
<path d="M76.4528 53.8945V56.2267C76.4528 56.519 76.2158 56.7559 75.9235 56.7559H33.1425C32.8502 56.7559 32.6133 56.519 32.6133 56.2267V53.8945C32.6133 53.6022 32.8502 53.3652 33.1425 53.3652H75.9235C76.2158 53.3652 76.4528 53.6022 76.4528 53.8945Z" fill="#67CC4A"/>
<path d="M58.6998 53.3647H50.3643V56.7555H58.6998V53.3647Z" fill="#0CC756"/>
<path d="M47.1244 69.707C46.7591 69.707 46.4629 69.4109 46.4629 69.0455V68.9628C46.4629 68.5974 46.7591 68.3013 47.1244 68.3013C47.4898 68.3013 47.786 68.5974 47.786 68.9628V69.0455C47.786 69.4109 47.4898 69.707 47.1244 69.707Z" fill="#FFDC13"/>
<path d="M50.8285 69.707C50.4632 69.707 50.167 69.4109 50.167 69.0455V68.9628C50.167 68.5974 50.4632 68.3013 50.8285 68.3013C51.1939 68.3013 51.4901 68.5974 51.4901 68.9628V69.0455C51.4901 69.4109 51.1939 69.707 50.8285 69.707Z" fill="#FFDC13"/>
<path d="M54.5336 69.707C54.1682 69.707 53.8721 69.4109 53.8721 69.0455V68.9628C53.8721 68.5974 54.1682 68.3013 54.5336 68.3013C54.8989 68.3013 55.1951 68.5974 55.1951 68.9628V69.0455C55.1951 69.4109 54.8989 69.707 54.5336 69.707Z" fill="#FFDC13"/>
<path d="M58.2387 69.707C57.8733 69.707 57.5771 69.4109 57.5771 69.0455V68.9628C57.5771 68.5974 57.8733 68.3013 58.2387 68.3013C58.604 68.3013 58.9002 68.5974 58.9002 68.9628V69.0455C58.9002 69.4109 58.604 69.707 58.2387 69.707Z" fill="#FFDC13"/>
<path d="M61.9428 69.707C61.5774 69.707 61.2812 69.4109 61.2812 69.0455V68.9628C61.2812 68.5974 61.5774 68.3013 61.9428 68.3013C62.3081 68.3013 62.6043 68.5974 62.6043 68.9628V69.0455C62.6044 69.4109 62.3081 69.707 61.9428 69.707Z" fill="#FFDC13"/>
<path d="M57.0257 64.1928H52.0419C51.7496 64.1928 51.5127 63.9559 51.5127 63.6636V53.6591C51.5127 53.3668 51.7496 53.1299 52.0419 53.1299H57.0257C57.318 53.1299 57.5549 53.3668 57.5549 53.6591V63.6636C57.5549 63.9559 57.3179 64.1928 57.0257 64.1928Z" fill="#67CC4A"/>
<path d="M55.7189 60.3956C55.7189 59.74 55.1874 59.2085 54.5318 59.2085C53.8762 59.2085 53.3447 59.74 53.3447 60.3956C53.3447 60.8062 53.5533 61.1681 53.8703 61.3813V62.2749C53.8703 62.6403 54.1665 62.9364 54.5318 62.9364C54.8972 62.9364 55.1933 62.6402 55.1933 62.2749V61.3813C55.5103 61.1681 55.7189 60.8062 55.7189 60.3956Z" fill="#782BB1"/>
<path d="M48.7873 46.2548C49.9141 46.2548 50.8276 45.3414 50.8276 44.2146C50.8276 43.0878 49.9141 42.1743 48.7873 42.1743C47.6605 42.1743 46.7471 43.0878 46.7471 44.2146C46.7471 45.3414 47.6605 46.2548 48.7873 46.2548Z" fill="#87DE6E"/>
<path d="M55.4436 50.3223C56.3671 50.3223 57.1158 49.5737 57.1158 48.6502C57.1158 47.7267 56.3671 46.978 55.4436 46.978C54.5201 46.978 53.7715 47.7267 53.7715 48.6502C53.7715 49.5737 54.5201 50.3223 55.4436 50.3223Z" fill="#87DE6E"/>
<path d="M64.6113 49.4534L62.8667 47.7088C62.6681 47.5102 62.6681 47.1883 62.8667 46.9897L64.6113 45.2451C64.8098 45.0466 65.1318 45.0466 65.3303 45.2451L67.0749 46.9897C67.2735 47.1883 67.2735 47.5102 67.0749 47.7088L65.3303 49.4534C65.1318 49.6519 64.8098 49.6519 64.6113 49.4534Z" fill="#23D527"/>
<path d="M59.6049 45.1151H58.9213C58.5559 45.1151 58.2598 44.8189 58.2598 44.4535C58.2598 44.0881 58.5559 43.792 58.9213 43.792H59.6049C59.9703 43.792 60.2665 44.0882 60.2665 44.4535C60.2665 44.819 59.9703 45.1151 59.6049 45.1151Z" fill="#FFED97"/>
<path d="M60.2885 47.286H59.6049C59.2395 47.286 58.9434 46.9898 58.9434 46.6244C58.9434 46.259 59.2395 45.9629 59.6049 45.9629H60.2885C60.6539 45.9629 60.95 46.2591 60.95 46.6244C60.9501 46.9899 60.6539 47.286 60.2885 47.286Z" fill="#FFED97"/>
<path d="M51.8539 49.9114H51.1703C50.805 49.9114 50.5088 49.6153 50.5088 49.2499C50.5088 48.8845 50.805 48.5884 51.1703 48.5884H51.8539C52.2193 48.5884 52.5155 48.8846 52.5155 49.2499C52.5156 49.6154 52.2193 49.9114 51.8539 49.9114Z" fill="#FFA511"/>
<path d="M44.9731 47.2869H44.2895C43.9241 47.2869 43.6279 46.9908 43.6279 46.6254C43.6279 46.26 43.9241 45.9639 44.2895 45.9639H44.9731C45.3384 45.9639 45.6346 46.26 45.6346 46.6254C45.6346 46.9908 45.3384 47.2869 44.9731 47.2869Z" fill="#FFA511"/>
<path d="M42.5854 48.5111H41.9018C41.5364 48.5111 41.2402 48.2149 41.2402 47.8495C41.2402 47.4841 41.5364 47.188 41.9018 47.188H42.5854C42.9507 47.188 43.2469 47.4842 43.2469 47.8495C43.247 48.215 42.9507 48.5111 42.5854 48.5111Z" fill="#FFED97"/>
<path d="M61.9418 51.4212H61.2582C60.8929 51.4212 60.5967 51.125 60.5967 50.7597C60.5967 50.3942 60.8929 50.0981 61.2582 50.0981H61.9418C62.3072 50.0981 62.6034 50.3943 62.6034 50.7597C62.6034 51.125 62.3072 51.4212 61.9418 51.4212Z" fill="#FFA511"/>
<path d="M68.1186 50.9842H67.435C67.0696 50.9842 66.7734 50.688 66.7734 50.3227C66.7734 49.9573 67.0696 49.6611 67.435 49.6611H68.1186C68.4839 49.6611 68.7801 49.9573 68.7801 50.3227C68.7801 50.688 68.4839 50.9842 68.1186 50.9842Z" fill="#FFA511"/>
<path d="M41.0737 51.7327H40.39C40.0247 51.7327 39.7285 51.4366 39.7285 51.0712C39.7285 50.7058 40.0247 50.4097 40.39 50.4097H41.0737C41.439 50.4097 41.7352 50.7058 41.7352 51.0712C41.7353 51.4366 41.439 51.7327 41.0737 51.7327Z" fill="#FFA511"/>
</g>
</g>
<defs>
<filter id="filter0_d" x="0" y="0" width="107.978" height="108.022" filterUnits="userSpaceOnUse" color-interpolation-filters="sRGB">
<feFlood flood-opacity="0" result="BackgroundImageFix"/>
<feColorMatrix in="SourceAlpha" type="matrix" values="0 0 0 0 0 0 0 0 0 0 0 0 0 0 0 0 0 0 127 0" result="hardAlpha"/>
<feOffset/>
<feGaussianBlur stdDeviation="9"/>
<feComposite in2="hardAlpha" operator="out"/>
<feColorMatrix type="matrix" values="0 0 0 0 0.458824 0 0 0 0 0.384314 0 0 0 0 0.878431 0 0 0 0.25 0"/>
<feBlend mode="normal" in2="BackgroundImageFix" result="effect1_dropShadow"/>
<feBlend mode="normal" in="SourceGraphic" in2="effect1_dropShadow" result="shape"/>
</filter>
<clipPath id="clip0">
<rect x="32.6133" y="32.6133" width="43.8395" height="43.8395" rx="17" fill="white"/>
</clipPath>
</defs>
</svg>
