<svg width="100%" height="100%" viewBox="0 0 676 526" fill="none" xmlns="http://www.w3.org/2000/svg">
<path opacity="0.67" d="M475.364 72.6397C371.906 75.2949 271.833 112.15 193.797 180.151C150.041 218.268 109.067 269.036 89.9082 333.893C38.8265 506.855 225.481 556.006 429.826 508.823C634.171 461.641 640.047 123.577 575.21 88.2093C551.058 75.0309 513.272 71.6702 475.364 72.6397Z" fill="#FAFBFD"/>
<path d="M399.65 240.357C409.414 213.132 431.566 192.016 459.7 185.371C483.205 179.811 508.988 182.698 525.026 211.576C560.663 275.746 608.772 268.616 605.21 327.44C601.648 386.264 580.259 416.564 589.173 473.586H361.095C361.095 473.586 359.312 307.812 373.567 281.075C383.862 261.765 393.228 258.27 399.65 240.357Z" fill="#7562E0"/>
<path d="M492.949 227.565C492.949 227.565 507.204 220.482 510.77 209.785C514.335 199.088 496.515 206.222 496.515 206.222L492.949 227.565Z" fill="#7562E0"/>
<mask id="mask0_1055:10117" style="mask-type:alpha" maskUnits="userSpaceOnUse" x="242" y="101" width="434" height="366">
<rect x="242.564" y="101.274" width="433.435" height="365.173" fill="#C4C4C4"/>
</mask>
<g mask="url(#mask0_1055:10117)">
<path opacity="0.7" d="M406.592 286.457C406.592 286.457 412.813 299.848 408.287 319.289" stroke="#70C250" stroke-width="0.64" stroke-miterlimit="10"/>
<path opacity="0.7" d="M426.587 283.223C426.587 283.223 437.335 300.077 430.524 315.61" stroke="#70C250" stroke-width="0.76" stroke-miterlimit="10"/>
<path opacity="0.7" d="M465.727 373.633C465.727 373.633 461.417 393.045 483.157 403.735" stroke="#70C250" stroke-width="0.76" stroke-miterlimit="10"/>
<path opacity="0.7" d="M447.883 405.644C447.883 405.644 457.007 426.637 477.985 421.45" stroke="#70C250" stroke-width="0.76" stroke-miterlimit="10"/>
<path opacity="0.6" d="M444.219 437.615C444.219 437.615 449.736 453.521 476.994 444.081" stroke="#70C250" stroke-width="0.76" stroke-miterlimit="10"/>
<path opacity="0.7" d="M451.341 372.122C451.341 372.122 453.741 391.865 431.081 400.4" stroke="#70C250" stroke-width="0.76" stroke-miterlimit="10"/>
<path opacity="0.7" d="M465.999 405.729C465.999 405.729 454.878 425.731 434.503 418.575" stroke="#70C250" stroke-width="0.76" stroke-miterlimit="10"/>
<path opacity="0.6" d="M466.544 437.889C466.544 437.889 459.504 453.191 433.295 441.15" stroke="#70C250" stroke-width="0.76" stroke-miterlimit="10"/>
<path opacity="0.6" d="M461.016 469.931C461.016 469.931 449.406 480.42 428.456 465.621" stroke="#70C250" stroke-width="0.76" stroke-miterlimit="10"/>
<path d="M458.675 400.704C458.984 402.167 458.984 403.68 458.675 405.144V400.704Z" fill="#231F20"/>
<path d="M458.675 400.704C458.984 402.167 458.984 403.68 458.675 405.144" stroke="white" stroke-width="0.38" stroke-miterlimit="10"/>
<path d="M586.602 403.547C585.581 399.655 583.309 396.207 580.136 393.733C577.391 391.247 572.951 383.933 568.569 374.479L524.141 278.481C518.163 263.782 499.714 263.796 490.661 261.425C469.209 255.836 470.804 242.918 470.804 242.918L471.465 226.265H446.722L447.382 242.918C447.382 242.918 448.977 255.85 427.525 261.425C418.458 263.796 398.414 263.782 392.422 278.481L348.037 374.479C343.597 383.933 339.214 391.247 336.455 393.733C333.291 396.215 331.021 399.66 329.989 403.547L296.783 496.944L310.778 503.324L361.644 419.396C361.974 418.936 362.305 418.447 362.592 417.959C364.617 414.919 365.761 411.378 365.897 407.728C367.552 401.723 369.7 395.864 372.32 390.212L407.48 317.162C414.406 336.143 421.289 357.394 422.208 368.674C423.099 379.393 415.541 411.133 415.541 411.133C415.541 411.133 428.947 413.605 458.49 415.444V415.502H459.093H459.711V415.43C489.239 413.619 500.921 411.335 500.921 411.335C500.921 411.335 494.67 379.393 495.647 368.688C496.667 357.567 503.062 336.876 509.542 318.124L544.257 390.198C546.876 395.848 549.02 401.707 550.665 407.714C550.8 411.366 551.949 414.909 553.984 417.944C554.286 418.433 554.602 418.921 554.947 419.381L605.813 503.309L619.808 496.93L586.602 403.547Z" fill="url(#paint0_linear_1055:10117)"/>
<path d="M410.119 396.508C410.119 396.508 450.725 383.317 507.209 396.594L502.022 415.503L418.554 432.746L410.119 396.508Z" fill="#2E2454"/>
<path d="M422.002 375.826C422.002 375.826 435.695 366.487 457.924 365.121C468.571 364.461 481.33 367.679 495.713 374.921C495.713 374.921 500.469 408.688 502.495 411.116C504.521 413.544 500.469 408.688 500.469 408.688L463.556 432.741L412.748 415.498L422.002 375.826Z" fill="url(#paint1_linear_1055:10117)"/>
<path d="M439.727 368.216C438.419 368.029 436.695 369.179 435.014 369.653C430.481 371.254 426.12 373.305 421.996 375.774L416.708 398.448L446.739 408.075C433.807 400.805 439.727 368.159 439.727 368.159" fill="#E39FB8"/>
<path opacity="0.3" d="M478.504 367.985C479.811 367.812 482.211 369.235 483.892 369.752C487.968 371.103 491.908 372.835 495.66 374.925L499.697 398.504L469.652 408.131C482.584 400.86 478.547 367.985 478.547 367.985" fill="white"/>
<path d="M376.999 311.846C378.526 314.874 379.322 318.218 379.322 321.61C379.322 325.001 378.526 328.345 376.999 331.373L353.233 382.541C351.703 384.461 349.754 386.007 347.535 387.06C345.316 388.114 342.886 388.647 340.431 388.619L376.999 311.846Z" fill="#572188"/>
<path d="M404.413 323.54C401.04 324.202 397.874 325.661 395.179 327.796C392.485 329.93 390.34 332.679 388.924 335.811C388.924 335.811 377.026 358.6 373.894 366.546C372.601 369.836 371.667 373.845 377.098 380.297L404.413 323.54Z" fill="#572188"/>
<path d="M375.772 386.632C375.772 386.632 371.03 381.115 370.427 375.137C370.427 375.137 370.197 374.232 369.134 375.956C369.134 375.956 365.211 382.336 373.602 392.61L375.772 386.632Z" fill="#572188"/>
<path d="M372.188 394.609C372.188 394.609 367.446 389.092 366.843 383.114C366.843 383.114 366.613 382.209 365.549 383.919C365.549 383.919 361.871 390.414 370.277 400.673L372.188 394.609Z" fill="#572188"/>
<path d="M384.59 295.377C384.59 295.377 431.432 294.184 430.34 260.604C430.34 260.604 390.122 257.745 384.59 295.377Z" fill="#2E2454"/>
<path d="M531.952 295.377C531.952 295.377 485.109 294.184 486.201 260.604C486.201 260.604 526.42 257.745 531.952 295.377Z" fill="#2E2454"/>
<path d="M539.485 311.602C537.874 314.638 537.006 318.013 536.951 321.45C536.896 324.886 537.656 328.287 539.169 331.374L562.935 382.541C564.574 384.446 566.605 385.975 568.889 387.024C571.172 388.073 573.656 388.617 576.169 388.619L539.485 311.602Z" fill="#572188"/>
<path d="M512.164 323.355C515.471 324.11 518.556 325.628 521.171 327.789C523.786 329.95 525.858 332.693 527.223 335.799C527.223 335.799 539.12 358.588 542.267 366.534C543.56 369.824 544.494 373.833 539.048 380.285L512.164 323.355Z" fill="#572188"/>
<path d="M540.363 386.632C540.363 386.632 545.105 381.115 545.723 375.137C545.723 375.137 545.953 374.232 547.002 375.956C547.002 375.956 550.939 382.336 542.533 392.61L540.363 386.632Z" fill="#572188"/>
<path d="M543.962 394.609C543.962 394.609 548.718 389.092 549.321 383.114C549.321 383.114 549.551 382.209 550.6 383.919C550.6 383.919 554.279 390.414 545.887 400.673L543.962 394.609Z" fill="#572188"/>
<path d="M563.276 708.454C555.574 686.111 549.453 628.664 544.381 603.045C547.384 514.476 514.767 412.946 514.767 412.946C514.256 409.458 513.012 406.119 511.117 403.146L511.002 402.888C510.428 401.451 508.344 397.039 507.195 396.58C505.255 395.761 501.073 398.017 499.105 398.519L499.45 398.634C489.981 398.936 476.948 403.563 471.89 407.083C455.941 414.569 433.411 403.85 417.433 398.749C415.996 398.318 411.585 396.321 410.105 396.493C407.949 396.723 405.363 402.945 405.205 404.698C404.09 406.622 403.097 408.614 402.231 410.661C397.819 420.92 392.503 430.361 389.198 440.433C375.955 480.111 367.188 521.144 363.061 562.769C360.604 589.409 368.809 651.266 367.573 677.475C366.668 696.887 353.477 711.041 354.512 729.892C354.814 735.18 356.969 738.514 356.696 742.982C356.337 748.73 351.566 749.606 350.129 754.564C347.974 761.906 347.557 771.188 346.896 778.416C344.554 803.935 358.176 803.159 378.22 806.392C386.957 807.829 435.81 813.763 443.297 801.823C449.849 798.676 457.105 792.741 457.838 788.359C458.944 781.749 453.225 780.442 453.326 775.168C453.326 772.05 457.134 767.812 457.78 764.507C459.576 755.268 456.114 745.827 455.338 737.12C453.628 717.88 457.752 698.224 457.752 677.82C457.752 654.715 446.156 630.101 449.044 608.404C450.783 595.472 454.576 583.216 454.461 570.241C454.353 564.544 453.173 558.919 450.984 553.659C456.02 549.883 462.12 547.796 468.413 547.696C468.413 548.53 468.327 549.377 468.255 550.196C463.945 568.2 459.907 583.058 459.907 603.619C459.905 631.094 461.743 658.537 465.41 685.766C466.775 696.169 465.482 705.537 467.795 715.639C468.887 720.38 470.899 721.688 470.813 727.55C470.813 731.473 466.976 735.424 467.451 739.433C468.083 744.707 472.235 744.505 472.149 749.247C472.149 752.581 468.241 758.041 467.522 762.064C466.186 769.593 466.085 784.551 469.678 790.687C473.5 797.124 489.65 803.13 497.251 805.645C507.496 812.441 522.555 815.444 533.058 814.481C600.735 808.26 574.239 740.238 563.276 708.454Z" fill="url(#paint2_linear_1055:10117)"/>
<path d="M490.427 422.142C490.427 422.142 480.742 436.683 469.204 437.373L462.149 533.327L452.594 428.536C452.594 428.536 486.188 428.349 490.427 422.142Z" fill="url(#paint3_linear_1055:10117)"/>
<path d="M577.695 761.992C551.961 787.31 498.149 779.91 498.149 779.91V699.128C498.149 670.592 498.149 645.26 498.149 622.873C498.264 516.544 499.256 476.987 499.256 476.987L519.372 437.07" stroke="#5F578C" stroke-width="1.14" stroke-linejoin="round"/>
<path d="M514.769 412.946C514.769 412.946 510.961 420.964 503.001 422.314C503.001 422.314 503.705 469.3 532.155 481.787C532.155 481.787 518.433 420.202 514.769 412.946Z" fill="url(#paint4_linear_1055:10117)"/>
<path d="M400.547 414.353C400.547 414.353 414.154 425.029 419.327 426.25C419.327 426.25 390.92 474.386 378.175 477.734C378.218 477.734 389.167 427.371 400.547 414.353Z" fill="url(#paint5_linear_1055:10117)"/>
<path d="M347.692 769.076C369.488 778.447 393.213 782.457 416.878 780.772L412.352 699.128C412.352 670.592 412.424 645.26 412.352 622.873C412.237 516.544 411.246 476.987 411.246 476.987L391.129 437.07" stroke="#5F578C" stroke-width="1.14" stroke-linejoin="round"/>
<mask id="mask1_1055:10117" style="mask-type:alpha" maskUnits="userSpaceOnUse" x="346" y="396" width="232" height="419">
<path d="M563.276 708.454C555.574 686.111 549.453 628.664 544.381 603.045C547.384 514.476 514.767 412.946 514.767 412.946C514.256 409.458 513.012 406.119 511.117 403.146L511.002 402.888C510.428 401.451 508.344 397.039 507.195 396.58C505.255 395.761 501.073 398.017 499.105 398.519L499.45 398.634C489.981 398.936 476.948 403.563 471.89 407.083C455.941 414.569 433.411 403.85 417.433 398.749C415.996 398.318 411.585 396.321 410.105 396.493C407.949 396.723 405.363 402.945 405.205 404.698C404.09 406.622 403.097 408.614 402.231 410.661C397.819 420.92 392.503 430.361 389.198 440.433C375.955 480.111 367.188 521.144 363.061 562.769C360.604 589.409 368.809 651.266 367.573 677.475C366.668 696.887 353.477 711.041 354.512 729.892C354.814 735.18 356.969 738.514 356.696 742.982C356.337 748.73 351.566 749.606 350.129 754.564C347.974 761.906 347.557 771.188 346.896 778.416C344.554 803.935 358.176 803.159 378.22 806.392C386.957 807.829 435.81 813.763 443.297 801.823C449.849 798.676 457.105 792.741 457.838 788.359C458.944 781.749 453.225 780.442 453.326 775.168C453.326 772.05 457.134 767.812 457.78 764.507C459.576 755.268 456.114 745.827 455.338 737.12C453.628 717.88 457.752 698.224 457.752 677.82C457.752 654.715 446.156 630.101 449.044 608.404C450.783 595.472 454.576 583.216 454.461 570.241C454.353 564.544 453.173 558.919 450.984 553.659C456.02 549.883 462.12 547.796 468.413 547.696C468.413 548.53 468.327 549.377 468.255 550.196C463.945 568.2 459.907 583.058 459.907 603.619C459.905 631.094 461.743 658.537 465.41 685.766C466.775 696.169 465.482 705.537 467.795 715.639C468.887 720.38 470.899 721.688 470.813 727.55C470.813 731.473 466.976 735.424 467.451 739.433C468.083 744.707 472.235 744.505 472.149 749.247C472.149 752.581 468.241 758.041 467.522 762.064C466.186 769.593 466.085 784.551 469.678 790.687C473.5 797.124 489.65 803.13 497.251 805.645C507.496 812.441 522.555 815.444 533.058 814.481C600.735 808.26 574.239 740.238 563.276 708.454Z" fill="url(#paint6_linear_1055:10117)"/>
</mask>
<g mask="url(#mask1_1055:10117)">
<path d="M336.682 623.619L395.824 682.761V483.322L370.161 432.744C339.943 481.224 336.682 623.619 336.682 623.619Z" stroke="#5F578C" stroke-width="4.92" stroke-linejoin="round"/>
<path d="M540.259 432.744L514.61 483.322V682.761L573.738 623.633C573.738 623.633 570.476 481.224 540.259 432.744Z" stroke="#5F578C" stroke-width="4.92" stroke-linejoin="round"/>
</g>
<path d="M410.107 406.955C410.107 406.955 449.794 437.129 507.197 408.765" stroke="#5F578C" stroke-width="3.41" stroke-linejoin="round"/>
<path d="M487.569 230.32C485.414 229.501 482.267 230.722 480.299 231.398C476.75 232.478 473.116 233.257 469.436 233.725C469.81 231.297 469.264 228.768 469.436 226.268C469.608 223.768 475.284 220.664 476.276 218.322C478.761 212.575 482.454 207.388 485.759 202.057C487.828 198.723 489.682 194.269 492.943 191.869C494.639 190.59 496.119 190.892 498.202 191.395C500.832 192.027 505.732 192.832 506.895 195.706C508.217 199.025 507.054 203.882 505.459 206.899C503.15 211.351 500.375 215.547 497.182 219.414C494.165 223.208 490.874 226.599 487.842 230.263" fill="#683199"/>
<path d="M428.105 231.684C430.249 232.411 432.539 232.599 434.772 232.23C434.781 231.697 434.747 231.163 434.671 230.635C435.72 233.265 444.442 234.457 447.373 233.796C447.373 230.463 447.273 228.595 445.29 226.267C437.759 217.185 430.969 207.512 424.987 197.343C420.159 189.411 416.869 181.681 416.121 171.838C415.69 166.09 419.714 163.461 422.199 158.805C426.251 151.262 433.608 139.149 418.478 141.434C412.4 142.353 409.698 147.54 407.198 152.929C403.477 160.831 403.477 168.648 402.96 177.126C401.968 193.391 401.077 213.838 415.963 224.543C419.828 227.33 424.786 228.638 428.637 231.353" fill="#683199"/>
<path d="M494.713 133.875C497.443 142.238 502.285 148.474 506.596 156.19C511.295 164.595 511.596 173.993 515.749 182.671C517.761 186.896 520.491 190.675 520.174 195.531C519.901 199.742 517.43 203.19 516.956 207.414C516.209 214.01 520.376 222.028 525.017 226.324C519.269 229.356 503.305 233.422 502.328 224.743C502.322 227.086 502.691 229.414 503.42 231.64C497.299 233.163 489.67 230.433 483.778 230.304C489.138 224.312 491.767 220.591 494.354 212.329C497.716 201.609 500.518 189.339 499.009 178.174C497.946 170.429 493.98 164.754 492.601 157.253C491.772 153.082 491.42 148.83 491.552 144.58C491.81 140.844 493.405 138.545 494.239 135.082" fill="#A96AD8"/>
<path d="M446.821 229.384L447.123 246.181C450.6 248.474 454.63 249.789 458.79 249.989C458.79 249.989 466.19 250.55 471.033 246.727L471.866 222.847L449.566 220.605L446.821 229.384Z" fill="#2E2454"/>
<path d="M510.632 182.298C510.906 184.95 510.383 187.622 509.132 189.975C507.881 192.329 505.957 194.256 503.606 195.512C501.255 196.767 498.583 197.295 495.932 197.026C493.28 196.758 490.768 195.706 488.716 194.005C486.665 192.304 485.166 190.03 484.411 187.474C483.657 184.918 483.68 182.195 484.479 179.652C485.278 177.109 486.816 174.862 488.897 173.196C490.978 171.531 493.507 170.523 496.163 170.3C499.672 169.977 503.166 171.058 505.879 173.307C508.592 175.557 510.301 178.79 510.632 182.298Z" fill="#E39FB8"/>
<path d="M499.824 146.519C492.97 132.452 467.897 129.665 451.358 131.044C445.645 131.518 440.106 133.244 435.135 136.101C430.165 138.957 425.885 142.874 422.599 147.572C419.314 152.271 417.104 157.635 416.127 163.284C415.15 168.933 415.429 174.728 416.945 180.257L420.667 202.055C422.535 207.813 425.585 213.118 429.62 217.631C433.655 222.144 438.588 225.765 444.102 228.263C446.406 229.435 448.81 230.396 451.287 231.137C452.226 231.458 453.186 231.712 454.16 231.899C456.054 232.256 457.987 232.357 459.908 232.2C462.15 232.007 464.347 231.459 466.417 230.577L466.632 230.476C467.121 230.261 467.609 230.016 468.069 229.772C469.97 228.812 471.808 227.732 473.573 226.539C478.925 223.2 483.487 218.738 486.944 213.46C490.4 208.183 492.667 202.217 493.588 195.977L498.761 174.811C498.873 171.865 498.82 168.915 498.603 165.975C498.143 160.989 501.893 150.744 499.824 146.519Z" fill="url(#paint7_linear_1055:10117)"/>
<path d="M442.701 195.877C442.701 195.877 431.565 199.167 425.918 199.498C425.918 199.498 437.485 224.269 446.868 229.169C448.449 229.988 450.158 230.189 450.819 230.606C454.11 232.417 447.069 229.701 447.069 229.701C447.069 229.701 426.809 222.085 421.464 204.498L420.932 203.061L419.912 195.46C427.441 196.776 435.129 196.916 442.701 195.877Z" fill="url(#paint8_linear_1055:10117)"/>
<path d="M494.783 160.975L484.94 141.146H474.882L477.023 148.417L483.245 156.09C483.245 156.09 468.172 158.389 466.62 161.693C466.62 161.693 479.552 158.13 484.481 161.693" fill="url(#paint9_linear_1055:10117)"/>
<path d="M469.324 177.255C469.324 177.255 469.338 177.228 469.324 177.255V177.255Z" fill="#231F20"/>
<path d="M471.162 179.555C471.065 179.244 470.988 178.927 470.932 178.606C470.747 176.962 470.974 175.298 471.593 173.764L472.512 173.347C473.554 172.19 474.998 171.475 476.55 171.35H476.938H477.312H479.725L479.165 171.02L475.271 171.235L470.587 174.425L468.805 176.983L468.23 180.273C469.465 181.466 470.932 182.39 472.541 182.989C471.932 181.898 471.45 180.741 471.104 179.54L471.162 179.555Z" fill="white"/>
<path d="M487.526 177.802L486.893 175.546L481.52 172.414C482.576 173.575 483.174 175.082 483.201 176.652C483.201 176.81 483.201 176.954 483.201 177.112C483.346 178.879 483.009 180.652 482.224 182.242C484.305 181.184 486.119 179.666 487.526 177.802Z" fill="white"/>
<path d="M481.503 172.398L480.066 171.363H479.707L481.518 172.412L481.503 172.398Z" fill="#231F20"/>
<path d="M483.259 177.111C483.259 176.953 483.259 176.809 483.259 176.651C483.232 175.081 482.634 173.574 481.578 172.412L479.767 171.363H477.353H476.98H476.592C475.04 171.489 473.595 172.203 472.554 173.361L471.634 173.777C471.016 175.312 470.789 176.976 470.974 178.62C471.03 178.94 471.107 179.257 471.203 179.568C471.549 180.769 472.031 181.926 472.64 183.016C474.232 183.627 475.944 183.858 477.641 183.692C479.29 183.524 480.891 183.036 482.354 182.255C483.117 180.654 483.429 178.876 483.259 177.111Z" fill="#2E2454"/>
<path d="M467.118 179.726C467.113 178.029 467.395 176.343 467.952 174.74C468.423 173.167 469.314 171.752 470.529 170.648C471.744 169.544 473.238 168.793 474.849 168.475L475.021 169.323C473.552 169.611 472.192 170.301 471.091 171.316C469.99 172.33 469.192 173.63 468.785 175.07C468.259 176.576 467.987 178.159 467.98 179.755L467.118 179.726Z" fill="#2E2454"/>
<path d="M438.92 182.241C438.949 181.921 438.949 181.599 438.92 181.279C438.835 179.631 438.342 178.032 437.483 176.623L436.506 176.35C435.281 175.397 433.743 174.936 432.196 175.057H431.822L431.477 175.129L429.106 175.56L429.595 175.143L433.503 174.669L438.647 177.04L440.788 179.296L441.909 182.457C440.886 183.836 439.59 184.99 438.101 185.848C438.502 184.664 438.772 183.441 438.906 182.198L438.92 182.241Z" fill="white"/>
<path d="M422.497 183.248L422.741 180.92L427.512 176.926C426.655 178.253 426.318 179.849 426.563 181.409C426.563 181.553 426.563 181.711 426.563 181.869C426.713 183.633 427.344 185.323 428.388 186.754C426.18 186.056 424.164 184.856 422.497 183.248Z" fill="white"/>
<path d="M427.526 176.924L428.776 175.659L429.121 175.602L427.512 176.924H427.526Z" fill="#231F20"/>
<path d="M426.572 181.866C426.572 181.708 426.572 181.549 426.572 181.406C426.327 179.846 426.664 178.25 427.521 176.923L429.13 175.601L431.501 175.17L431.846 175.098H432.219C433.767 174.977 435.304 175.439 436.53 176.391L437.507 176.664C438.365 178.073 438.859 179.673 438.944 181.32C438.973 181.64 438.973 181.962 438.944 182.282C438.81 183.525 438.54 184.749 438.139 185.932C436.656 186.774 435 187.266 433.297 187.369C431.648 187.471 429.994 187.257 428.426 186.737C427.374 185.313 426.733 183.628 426.572 181.866Z" fill="#2E2454"/>
<path d="M442.652 181.867H441.79C441.933 179.328 441.093 176.832 439.445 174.895C437.798 172.958 435.468 171.73 432.938 171.464L433.068 170.602C443.14 172.111 442.652 181.781 442.652 181.867Z" fill="#2E2454"/>
<path d="M453.79 196.94L450.312 194.066C452.235 191.047 452.905 187.398 452.18 183.893C452.18 183.893 455.399 193.204 453.79 196.94Z" fill="white"/>
<path d="M459.71 195.876C459.794 195.669 459.922 195.483 460.084 195.33C460.253 195.17 460.441 195.03 460.644 194.913C460.891 194.787 461.159 194.704 461.434 194.669H461.865C462.003 194.676 462.139 194.705 462.268 194.755L462.612 194.899C462.727 194.899 462.799 195.028 462.885 195.086C463.053 195.234 463.207 195.398 463.345 195.574C463.345 195.574 463.072 195.502 462.727 195.373C462.643 195.327 462.55 195.298 462.454 195.287C462.354 195.301 462.253 195.301 462.153 195.287C462.038 195.287 461.937 195.287 461.822 195.287H461.492C461.272 195.297 461.055 195.336 460.845 195.402C460.658 195.502 460.428 195.531 460.285 195.632L459.71 195.876Z" fill="white"/>
<path d="M470.956 203.147C470.51 204.075 469.891 204.909 469.131 205.604C467.445 204.016 465.295 203.009 462.995 202.731C462.618 202.642 462.233 202.584 461.846 202.558C461.009 202.476 460.165 202.614 459.397 202.956C458.628 203.299 457.962 203.835 457.463 204.512C456.703 204.154 455.856 204.022 455.023 204.131C454.19 204.241 453.406 204.588 452.765 205.13C449.13 207.415 448.124 210.001 447.865 211.452C447.048 211.261 446.283 210.893 445.624 210.375L444.445 211.639C445.599 212.576 446.993 213.169 448.469 213.349C452.003 220.031 460.912 216.855 460.912 216.855C468.614 215.274 469.533 209.34 469.792 207.372C470.935 206.439 471.866 205.273 472.522 203.952L470.956 203.147Z" fill="#2E2454"/>
<path d="M454.896 210.92C454.896 210.92 457.339 207.084 462.684 209.124C461.741 210.206 460.48 210.962 459.082 211.285C457.683 211.607 456.218 211.48 454.896 210.92Z" fill="white"/>
<path d="M490.249 164.986C490.048 164.785 489.861 164.583 489.646 164.397L489.014 163.822C488.798 163.635 488.568 163.477 488.338 163.305L487.994 163.046L487.634 162.816C487.39 162.658 487.16 162.5 486.902 162.356C486.643 162.213 486.241 161.997 485.896 161.839C481.976 159.971 477.595 159.291 473.294 159.885C472.273 159.961 471.26 160.114 470.262 160.345C467.711 160.94 465.37 162.222 463.495 164.052L463.423 164.138C462.788 164.763 462.237 165.468 461.785 166.236L461.569 166.509L461.785 166.667C461.863 166.739 461.95 166.802 462.044 166.854L462.36 167.069C462.463 167.147 462.574 167.214 462.69 167.27L463.006 167.443L463.351 167.586L463.696 167.716C463.811 167.767 463.932 167.806 464.055 167.831L464.429 167.917C464.553 167.932 464.678 167.932 464.802 167.917H465.19H465.578C465.832 167.931 466.086 167.931 466.34 167.917L467.073 167.773H467.317L467.59 167.572L468.165 167.141L468.797 166.696C469.228 166.408 469.659 166.135 470.119 165.877C470.579 165.618 471.01 165.359 471.469 165.115L472.159 164.756L472.863 164.425C473.337 164.21 473.812 164.009 474.3 163.836C474.789 163.664 475.277 163.477 475.737 163.333C475.981 163.246 476.231 163.174 476.484 163.118L477.231 162.931L477.979 162.787L478.74 162.672C479.243 162.672 479.76 162.557 480.263 162.543C480.517 162.529 480.771 162.529 481.025 162.543C481.278 162.528 481.533 162.528 481.786 162.543L482.548 162.615L483.309 162.744L484.042 162.917L484.416 163.017L484.775 163.132C485.265 163.289 485.745 163.476 486.212 163.693L486.887 164.052L487.232 164.239L487.562 164.454C487.778 164.598 487.994 164.727 488.209 164.885L488.827 165.359C489.042 165.517 489.229 165.69 489.43 165.862L490.005 166.394L490.81 165.647L490.249 164.986Z" fill="#2E2454"/>
<path d="M500.975 174.511C496.664 176.092 495.299 186.308 495.228 186.739L496.305 186.868C496.609 184.663 497.129 182.492 497.857 180.388C498.181 180.371 498.505 180.417 498.811 180.526C499.117 180.634 499.398 180.802 499.639 181.02C500.443 181.767 501.248 183.535 500.645 187.788L501.722 187.946C502.268 184.138 501.808 181.538 500.372 180.216C499.796 179.693 499.063 179.375 498.288 179.31C498.782 177.707 499.873 176.355 501.334 175.531C502.455 175.129 503.748 175.603 505.185 176.968L505.918 176.178C504.179 174.497 502.57 173.951 500.975 174.511Z" fill="#2E2454"/>
<path d="M469.324 177.255C469.324 177.255 469.338 177.228 469.324 177.255V177.255Z" fill="#2E2454"/>
<path d="M478.331 170.143C478.145 170.128 477.957 170.128 477.771 170.143H477.081C476.851 170.143 476.635 170.143 476.406 170.258C475.513 170.421 474.644 170.696 473.819 171.077C473.026 171.472 472.279 171.954 471.592 172.513C470.951 173.012 470.368 173.58 469.853 174.209C469.399 174.781 468.995 175.391 468.646 176.034C468.56 176.177 468.503 176.321 468.431 176.45C468.406 176.522 468.372 176.589 468.33 176.652V176.752C468.215 177.04 468.1 177.298 468.014 177.557C467.928 177.816 467.899 177.959 467.842 178.146C467.72 178.616 467.653 179.098 467.641 179.583L468.431 180.258C468.437 180.158 468.437 180.057 468.431 179.956V179.597C468.424 179.526 468.424 179.453 468.431 179.382C468.431 179.31 468.431 179.224 468.431 179.137C468.431 179.051 468.517 178.793 468.575 178.591C468.632 178.39 468.733 178.175 468.804 177.945C468.876 177.715 469.02 177.485 469.121 177.241V177.14L469.523 176.982C469.595 176.853 469.667 176.695 469.738 176.58C470.073 176.033 470.458 175.518 470.888 175.042C471.36 174.502 471.896 174.019 472.483 173.605C473.107 173.173 473.777 172.812 474.48 172.528C475.202 172.226 475.96 172.023 476.736 171.924H477.311H477.9C478.283 171.901 478.667 171.901 479.049 171.924C480.491 172.091 481.877 172.582 483.101 173.361L483.504 173.634L483.705 173.764L483.877 173.907L484.237 174.195L484.567 174.496C484.736 174.648 484.894 174.812 485.041 174.985C485.539 175.832 485.801 176.797 485.801 177.78C485.801 178.762 485.539 179.727 485.041 180.574C485.44 180.343 485.816 180.074 486.162 179.77C487.837 178.523 489.083 176.785 489.725 174.798C483.892 169.209 478.331 170.143 478.331 170.143Z" fill="#2E2454"/>
<path d="M442.062 180.43L441.789 179.898C441.66 179.654 441.502 179.41 441.344 179.151V179.05L441.215 178.878L440.784 178.418C440.353 177.845 439.872 177.311 439.347 176.823C438.744 176.269 438.078 175.787 437.364 175.386C436.595 174.968 435.78 174.64 434.935 174.409C434.028 174.187 433.096 174.085 432.162 174.108C431.932 174.108 431.702 174.108 431.473 174.108H431.113H430.797C430.344 174.156 429.893 174.228 429.447 174.323H429.303C427.373 174.639 425.526 175.34 423.872 176.384C422.218 177.428 420.791 178.794 419.676 180.401C420.591 182.24 422.058 183.747 423.871 184.712C424.361 185.056 424.892 185.336 425.452 185.545C424.818 184.796 424.393 183.892 424.222 182.925C424.05 181.959 424.138 180.964 424.475 180.042C424.599 179.848 424.734 179.661 424.877 179.481L425.136 179.137L425.452 178.792L425.596 178.619L425.768 178.461L426.127 178.131C426.652 177.675 427.22 177.271 427.823 176.924C428.483 176.577 429.176 176.298 429.892 176.09C430.259 175.986 430.634 175.909 431.013 175.861H431.329H431.588H432.177C432.959 175.831 433.741 175.903 434.504 176.076C435.245 176.24 435.963 176.491 436.645 176.823C437.294 177.127 437.906 177.503 438.47 177.944C438.991 178.342 439.472 178.79 439.907 179.28C440.008 179.381 440.094 179.51 440.194 179.625L440.324 179.812V179.898C440.479 180.106 440.623 180.322 440.755 180.545L441.085 181.148C441.186 181.335 441.258 181.507 441.33 181.666L441.43 181.881L441.516 182.097L441.631 182.441C441.703 182.628 441.732 182.729 441.732 182.729L442.407 181.924C442.349 181.415 442.233 180.913 442.062 180.43Z" fill="#2E2454"/>
<path d="M434.435 160.198C433.573 159.882 432.768 159.637 432.036 159.436C430.356 158.953 428.608 158.754 426.863 158.847H426.403C426.118 158.864 425.835 158.903 425.555 158.962L425.139 159.034L424.736 159.149L424.334 159.264H424.133L423.932 159.336L423.156 159.652L422.423 160.04L422.064 160.226L421.719 160.456L421.029 160.916L420.397 161.419L420.081 161.678L419.779 161.951L419.233 162.612C419.046 162.798 418.874 163 418.687 163.201L418.414 163.488L418.285 163.646H418.213C418.213 163.646 418.213 163.646 418.328 163.876L419.089 164.58C419.276 164.709 419.305 164.709 419.319 164.681H419.391L419.52 164.551L419.779 164.293C419.966 164.12 420.124 163.934 420.311 163.775L420.871 163.301L421.144 163.057L421.446 162.856L422.035 162.425C422.222 162.295 422.437 162.181 422.638 162.066L422.94 161.879L423.271 161.721L423.903 161.433L424.564 161.203H424.722H424.894L425.225 161.117H425.555H425.9C426.125 161.096 426.351 161.096 426.575 161.117C426.805 161.117 427.035 161.117 427.265 161.117H427.941L428.616 161.247C428.846 161.247 429.061 161.361 429.277 161.419C429.725 161.548 430.162 161.711 430.584 161.908C430.801 162.001 431.012 162.107 431.217 162.224L431.518 162.382L431.834 162.568C432.042 162.683 432.243 162.807 432.438 162.942C432.625 163.086 432.826 163.201 433.013 163.359C433.2 163.517 433.774 163.948 434.148 164.264C434.521 164.58 434.794 164.853 435.111 165.169H435.039H435.111C435.398 165.442 438.2 168.33 438.214 168.345C439.207 169.192 440.309 169.902 441.49 170.457C442.339 170.739 443.256 170.739 444.105 170.457C444.731 170.212 445.29 169.825 445.739 169.326C446.188 168.827 446.514 168.23 446.692 167.583C446.016 165.787 443.373 163.158 434.435 160.198Z" fill="#2E2454"/>
<path d="M506.332 169.797C506.146 152.195 501.864 140.298 495.771 132.28L495.642 132.122C492.361 127.827 488.202 124.281 483.443 121.719C466.761 112.149 447.363 114.894 447.363 114.894C439.664 115.756 432.257 118.337 425.688 122.445C419.12 126.554 413.559 132.085 409.415 138.631C405.592 144.863 403.089 151.812 402.058 159.049C401.726 160.792 401.563 162.563 401.569 164.337C401.569 164.653 401.569 164.811 401.569 164.811C401.569 165.53 401.569 166.248 401.67 166.981C402.575 177.671 393.523 188.362 390.175 198.405C387.632 206.006 393.049 211.136 392.891 219.068C392.761 223.91 391.669 227.186 388.58 230.304C391.574 232.53 395.195 233.752 398.926 233.796C404.515 233.796 406.196 232.934 408.538 229.011C408.517 230.315 408.647 231.617 408.926 232.89C415.708 233.939 423.295 232.488 430.479 232.057C421.456 226.065 421.988 212.76 421.068 203.075C420.278 194.799 418.194 188.462 417.088 180.329C416.614 176.881 414.832 171.363 415.91 165.961C416.507 163.269 417.324 160.631 418.352 158.072C419.128 156.075 419.918 154.279 420.479 152.641C424.516 152.009 428.152 151.204 428.152 151.204L429.977 142.942L430.652 151.003C435.839 151.721 453.642 150.514 453.642 150.514L452.679 139.019L455.955 150.342C459.188 149.781 467.062 149.408 467.062 149.408L464.878 139.45L468.514 149.293L486.015 147.856C486.015 147.856 496.317 159.107 493.429 179.97C493.429 179.97 495.254 169.984 501.102 170.947L501.504 169.596L506.332 169.797Z" fill="url(#paint10_linear_1055:10117)"/>
<path d="M501.053 192.931C501.053 193.32 500.938 193.701 500.721 194.025C500.505 194.348 500.198 194.601 499.838 194.75C499.478 194.899 499.083 194.938 498.701 194.862C498.319 194.786 497.968 194.598 497.693 194.323C497.417 194.048 497.23 193.697 497.154 193.315C497.078 192.933 497.117 192.537 497.266 192.178C497.415 191.818 497.667 191.51 497.991 191.294C498.315 191.078 498.695 190.962 499.085 190.962C499.607 190.962 500.108 191.17 500.477 191.539C500.846 191.908 501.053 192.409 501.053 192.931Z" fill="#70C250"/>
<path d="M504.18 190.963C504.18 191.205 504.108 191.441 503.974 191.642C503.84 191.842 503.649 191.999 503.426 192.091C503.203 192.184 502.957 192.208 502.72 192.161C502.483 192.114 502.266 191.997 502.095 191.827C501.924 191.656 501.808 191.438 501.761 191.201C501.714 190.964 501.738 190.719 501.83 190.496C501.923 190.272 502.079 190.082 502.28 189.948C502.481 189.813 502.717 189.742 502.959 189.742C503.283 189.742 503.593 189.87 503.822 190.099C504.051 190.328 504.18 190.639 504.18 190.963Z" fill="#2E2454"/>
<path d="M510.675 176.708C509.548 177.728 508.229 178.514 506.796 179.021" stroke="#70C250" stroke-width="1.52" stroke-miterlimit="10"/>
<path opacity="0.3" d="M454.061 165.068C436.057 166.505 410.553 166.677 410.553 166.677L413.814 192.211C420.51 199.625 446.863 195.329 446.863 195.329L449.564 185.644C450.929 180.874 453.774 179.897 455.312 179.767C456.849 179.638 459.823 180.098 461.993 184.552L466.304 193.633C466.304 193.633 493.001 193.317 498.317 184.854L497.125 159.134C497.125 159.134 472.037 163.43 454.061 165.068Z" fill="white"/>
<path d="M449.914 185.947C451.222 180.501 454.067 179.438 455.662 179.28C457.257 179.122 460.188 179.725 462.415 184.855" stroke="#683199" stroke-width="1.52" stroke-miterlimit="10" stroke-linecap="round"/>
<path d="M410.604 167.984C410.604 167.984 460.22 168.674 497.234 160.455" stroke="#683199" stroke-width="2.27" stroke-miterlimit="10" stroke-linecap="round"/>
<path d="M497.668 294.074C501.634 280.768 502.841 263.756 502.899 262.922C502.954 262.131 502.693 261.351 502.173 260.753C501.653 260.155 500.916 259.788 500.126 259.732C499.335 259.677 498.554 259.938 497.956 260.458C497.358 260.978 496.991 261.715 496.936 262.506C496.195 272.2 494.632 281.813 492.266 291.243C490.667 290.739 488.999 290.487 487.323 290.496H430.15C428.789 290.493 427.433 290.657 426.112 290.984C423.791 281.646 422.258 272.129 421.528 262.534C421.423 261.781 421.036 261.095 420.445 260.616C419.855 260.137 419.104 259.9 418.345 259.953C417.586 260.006 416.876 260.345 416.357 260.901C415.838 261.458 415.55 262.19 415.551 262.951C415.551 263.784 416.787 280.294 420.609 293.513C410.55 300.497 407.476 317.179 407.476 317.179L417.333 346.534C417.333 346.534 420.494 343.215 458.729 343.172C496.964 343.129 500.399 346.534 500.399 346.534L509.954 317.107C509.954 317.107 507.094 301.373 497.668 294.074Z" fill="#70C250"/>
<path d="M468.742 310.052H467.98L467.32 310.713L467.047 310.971H454.344L453.942 311.374L453.468 311.833H466.184L464.604 313.414L463.268 314.736L461.831 316.173L461.558 316.446H447.534L442.993 320.958H446.14C446.865 320.944 447.558 320.656 448.08 320.153L449.833 318.386H460.897C462.028 318.381 463.111 317.932 463.914 317.136L469.432 311.604C469.564 311.474 469.654 311.308 469.689 311.126C469.724 310.945 469.702 310.756 469.627 310.587C469.552 310.418 469.427 310.276 469.269 310.181C469.111 310.085 468.927 310.04 468.742 310.052Z" fill="white"/>
<path d="M456.547 302.983L453.817 305.684H470.801L473.531 302.983H456.547Z" fill="white"/>
<path d="M447.014 315.498H460.895L462.331 314.061L463.653 312.739H450.98L451.957 311.762L454.026 309.707H466.728L469.458 306.991H452.489L446.123 313.313C445.938 313.489 445.809 313.716 445.755 313.965C445.701 314.215 445.724 314.475 445.82 314.711C445.917 314.947 446.082 315.149 446.295 315.289C446.508 315.43 446.759 315.502 447.014 315.498Z" fill="white"/>
<path d="M441.228 330.929C423.065 327.481 415.809 298.068 415.809 298.068C410.062 304.031 406.857 318.443 406.857 318.443L417.332 346.534L432.161 344.019L424.804 331.835L441.228 330.929Z" fill="#339F28"/>
<path d="M476.231 330.929C494.408 327.481 501.664 298.068 501.664 298.068C507.412 304.031 509.998 317.15 509.998 317.15L500.141 346.534L485.327 344.019L492.684 331.835L476.231 330.929Z" fill="#84EF84"/>
<path d="M318.95 439.141L311.875 452.645L335.307 464.921L342.382 451.417L318.95 439.141Z" fill="#70C250"/>
<path d="M292.897 475.434L312.367 482.446C313.5 482.816 314.726 482.78 315.835 482.345C316.944 481.91 317.867 481.102 318.445 480.06L343.705 432.14C343.979 431.671 344.144 431.146 344.189 430.604C344.233 430.063 344.156 429.518 343.964 429.01C343.771 428.502 343.467 428.043 343.074 427.667C342.682 427.292 342.21 427.009 341.694 426.838L322.224 419.812" fill="#63676B"/>
<path d="M341.119 431.208C341.393 430.738 341.558 430.213 341.602 429.672C341.647 429.13 341.57 428.585 341.377 428.077C341.185 427.569 340.881 427.11 340.488 426.735C340.096 426.359 339.624 426.076 339.108 425.906L319.638 418.894C318.504 418.525 317.277 418.563 316.168 419C315.058 419.438 314.136 420.249 313.56 421.293L288.3 469.199C288.027 469.671 287.862 470.197 287.818 470.741C287.775 471.284 287.853 471.83 288.047 472.34C288.241 472.849 288.546 473.308 288.94 473.685C289.335 474.061 289.808 474.345 290.326 474.515L309.781 481.513C310.914 481.883 312.14 481.847 313.249 481.412C314.358 480.977 315.281 480.169 315.859 479.128L341.119 431.208Z" fill="#A7A9AC"/>
<path d="M317.831 473.051L292.341 463.869L311.494 427.559L336.985 436.741L317.831 473.051Z" fill="#2E2454"/>
<path d="M329.206 426.998C328.94 427.478 328.514 427.849 328.002 428.049C327.491 428.248 326.925 428.263 326.404 428.09C326.166 428.012 325.948 427.882 325.766 427.71C325.584 427.537 325.444 427.326 325.354 427.091C325.264 426.857 325.228 426.606 325.249 426.356C325.269 426.106 325.344 425.864 325.47 425.647C325.742 425.153 326.18 424.772 326.706 424.572C327.233 424.372 327.813 424.366 328.344 424.555C328.576 424.64 328.787 424.776 328.961 424.952C329.135 425.128 329.267 425.34 329.35 425.574C329.432 425.807 329.462 426.055 329.437 426.302C329.412 426.548 329.334 426.785 329.206 426.998Z" fill="#70C250"/>
<path d="M306.459 449.34L306.976 449.541L307.594 449.254L307.853 449.139L308.083 449.225L316.546 452.329L316.919 452.156L317.351 451.955L310.166 449.326L308.629 448.765L310.066 448.076L311.316 447.501L312.652 446.883L312.911 446.768L313.14 446.854L321.862 450.044L322.509 450.288L326.748 448.334L324.592 447.544C324.1 447.344 323.548 447.344 323.055 447.544L321.417 448.32L313.974 445.676C313.589 445.535 313.181 445.472 312.771 445.489C312.362 445.506 311.96 445.604 311.589 445.777L306.402 448.191C306.298 448.25 306.214 448.337 306.157 448.441C306.1 448.546 306.073 448.664 306.079 448.783C306.085 448.902 306.123 449.017 306.191 449.115C306.258 449.213 306.351 449.291 306.459 449.34Z" fill="#9446CE"/>
<path d="M313.057 457.273L315.601 456.095L303.948 451.828L301.404 453.006L313.057 457.273Z" fill="#70C250"/>
<path d="M322.743 451.067L321.924 450.78L313.202 447.576L311.851 448.194L310.615 448.768L318.461 451.642L319.337 451.958L318.418 452.389L316.478 453.28L307.756 450.076L305.198 451.254L316.851 455.565L322.814 452.835C322.996 452.764 323.152 452.639 323.259 452.476C323.366 452.313 323.42 452.12 323.412 451.925C323.404 451.73 323.335 451.543 323.215 451.389C323.095 451.235 322.93 451.122 322.743 451.067Z" fill="#70C250"/>
</g>
<path d="M462.661 191.948C462.661 193.916 461.862 195.511 460.878 195.511C459.895 195.511 459.096 193.916 459.096 191.948C459.096 189.98 459.895 188.381 460.878 188.381C461.862 188.381 462.661 189.991 462.661 191.948Z" fill="#7562E0"/>
<path d="M612.333 466.466H56.3936V489.64H612.333V466.466Z" fill="#70C250"/>
<path d="M342.399 227.608H119.637C109.312 227.608 100.941 235.982 100.941 246.311V380.027C100.941 390.356 109.312 398.729 119.637 398.729H342.399C352.724 398.729 361.094 390.356 361.094 380.027V246.311C361.094 235.982 352.724 227.608 342.399 227.608Z" fill="#7562E0"/>
<path d="M276.064 279.302H182.406C180.714 279.302 179.343 280.674 179.343 282.366V404.579C179.343 406.271 180.714 407.643 182.406 407.643H276.064C277.756 407.643 279.127 406.271 279.127 404.579V282.366C279.127 280.674 277.756 279.302 276.064 279.302Z" fill="#E9E9E9"/>
<path d="M252.4 466.466H206.073V338.126C206.073 331.983 208.511 326.092 212.85 321.747C217.19 317.402 223.077 314.958 229.217 314.952C235.36 314.952 241.252 317.394 245.597 321.739C249.941 326.085 252.382 331.98 252.382 338.126L252.4 466.466Z" fill="#7562E0"/>
<path d="M125.889 330.638H100.938V325.649H125.889C126.217 325.649 126.541 325.714 126.844 325.839C127.147 325.965 127.422 326.149 127.653 326.38C127.885 326.612 128.069 326.887 128.194 327.19C128.32 327.493 128.384 327.818 128.384 328.145C128.384 328.473 128.32 328.797 128.194 329.1C128.069 329.403 127.885 329.678 127.653 329.909C127.421 330.141 127.146 330.324 126.844 330.449C126.541 330.574 126.216 330.638 125.889 330.638Z" fill="#70C250"/>
<path d="M125.889 340.626H100.938V335.634H125.889C126.551 335.634 127.185 335.897 127.653 336.365C128.121 336.833 128.384 337.468 128.384 338.13C128.384 338.792 128.121 339.427 127.653 339.895C127.185 340.363 126.551 340.626 125.889 340.626Z" fill="#70C250"/>
<path d="M125.889 350.602H100.938V345.614H125.889C126.216 345.613 126.541 345.677 126.844 345.802C127.146 345.928 127.421 346.111 127.653 346.342C127.885 346.574 128.069 346.849 128.194 347.152C128.32 347.454 128.384 347.779 128.384 348.106C128.384 348.768 128.121 349.403 127.653 349.871C127.185 350.339 126.551 350.602 125.889 350.602Z" fill="#70C250"/>
<path d="M335.098 345.614H360.049V350.602H335.098C334.436 350.602 333.801 350.339 333.333 349.871C332.865 349.403 332.603 348.768 332.603 348.106C332.603 347.779 332.667 347.454 332.793 347.152C332.918 346.849 333.102 346.574 333.334 346.342C333.565 346.111 333.84 345.928 334.143 345.802C334.446 345.677 334.77 345.613 335.098 345.614Z" fill="#70C250"/>
<path d="M335.098 335.63H360.049V340.626H335.098C334.436 340.626 333.801 340.363 333.333 339.895C332.865 339.426 332.603 338.792 332.603 338.13C332.602 337.801 332.666 337.477 332.791 337.173C332.917 336.87 333.1 336.594 333.332 336.362C333.564 336.13 333.839 335.946 334.142 335.82C334.445 335.695 334.77 335.63 335.098 335.63Z" fill="#70C250"/>
<path d="M335.098 325.649H360.049V330.638H335.098C334.77 330.638 334.446 330.574 334.143 330.449C333.84 330.324 333.565 330.141 333.334 329.909C333.102 329.678 332.918 329.403 332.793 329.1C332.667 328.797 332.603 328.473 332.603 328.145C332.603 327.483 332.865 326.849 333.333 326.38C333.801 325.912 334.436 325.649 335.098 325.649Z" fill="#70C250"/>
<path d="M302.292 373.776C302.293 374.481 302.084 375.171 301.693 375.759C301.301 376.346 300.744 376.803 300.093 377.074C299.441 377.344 298.724 377.415 298.032 377.278C297.34 377.14 296.704 376.8 296.205 376.301C295.707 375.802 295.367 375.166 295.229 374.474C295.092 373.782 295.163 373.064 295.433 372.413C295.704 371.761 296.161 371.204 296.748 370.812C297.335 370.42 298.025 370.212 298.73 370.212C299.675 370.213 300.58 370.589 301.248 371.257C301.916 371.925 302.291 372.831 302.292 373.776Z" fill="#70C250"/>
<path d="M321.892 373.776C321.892 374.481 321.684 375.171 321.292 375.759C320.901 376.346 320.344 376.803 319.692 377.074C319.041 377.344 318.324 377.415 317.632 377.278C316.94 377.14 316.304 376.8 315.805 376.301C315.306 375.802 314.967 375.166 314.829 374.474C314.692 373.782 314.763 373.064 315.033 372.413C315.303 371.761 315.761 371.204 316.348 370.812C316.935 370.42 317.624 370.212 318.33 370.212C319.274 370.213 320.18 370.589 320.847 371.257C321.515 371.925 321.891 372.831 321.892 373.776Z" fill="#70C250"/>
<path d="M341.495 373.776C341.496 374.481 341.288 375.171 340.896 375.758C340.505 376.345 339.948 376.803 339.297 377.074C338.645 377.344 337.928 377.415 337.236 377.278C336.545 377.141 335.909 376.801 335.41 376.303C334.911 375.804 334.571 375.168 334.433 374.476C334.295 373.784 334.366 373.067 334.635 372.415C334.905 371.763 335.362 371.206 335.949 370.814C336.535 370.422 337.224 370.212 337.93 370.212C338.874 370.213 339.78 370.589 340.449 371.257C341.117 371.925 341.493 372.831 341.495 373.776Z" fill="#70C250"/>
<path d="M312.226 457.553H148.031C146.412 457.553 144.859 458.197 143.715 459.342C142.57 460.487 141.927 462.04 141.927 463.66V466.467H318.33V463.66C318.33 462.04 317.687 460.487 316.542 459.342C315.397 458.197 313.845 457.553 312.226 457.553Z" fill="#7562E0"/>
<path d="M478.37 454.695C477.653 454.236 476.82 453.991 475.969 453.99H308.588C307.996 453.989 307.409 454.106 306.861 454.332C306.314 454.559 305.816 454.891 305.397 455.31C304.978 455.729 304.646 456.226 304.419 456.774C304.192 457.321 304.075 457.908 304.075 458.501V466.459H507.205V465.877C507.206 465.018 506.927 464.182 506.409 463.496C505.891 462.81 505.164 462.313 504.338 462.078L478.37 454.695Z" fill="#E9E9E9"/>
<path d="M286.688 185.009L287.911 184.669L315.372 182.86C315.372 182.86 317.046 183.19 317.541 184.101C318.037 185.013 322.033 200.275 321.881 203.491C321.729 206.707 320.221 210.816 319.378 211.576C318.536 212.336 314.656 212.625 313.119 212.788C311.582 212.95 288.666 214.043 288.666 214.043L286.688 185.009Z" fill="#E9E9E9"/>
<path d="M290.619 214.213L234.207 218.192L226.193 214.871L225.011 192.175L232.12 188.066L289.707 184.325C289.707 184.325 294.679 200.792 290.619 214.213Z" fill="#7562E0"/>
<path d="M321.747 204.75C321.747 204.75 321.747 207.709 317.769 207.969C313.792 208.23 288.291 209.199 288.291 209.199L288.03 212.223L317.451 210.758C317.451 210.758 322.546 210.715 321.747 204.75Z" fill="#7562E0"/>
<path d="M278.324 189.083C276.541 189.224 275.174 190.323 275.272 191.539C275.369 192.754 276.895 193.623 278.678 193.478C280.461 193.333 281.831 192.233 281.734 191.022C281.636 189.81 280.132 188.938 278.324 189.083Z" fill="#E9E9E9"/>
<path d="M260.363 190.164C258.58 190.305 257.213 191.405 257.307 192.62C257.401 193.836 258.931 194.704 260.717 194.559C262.504 194.415 263.867 193.315 263.769 192.103C263.672 190.891 262.149 190.019 260.363 190.164Z" fill="#E9E9E9"/>
<path d="M278.4 188.004C276.697 188.141 275.395 189.191 275.489 190.348C275.583 191.506 277.033 192.33 278.744 192.193C280.454 192.056 281.749 191.01 281.637 189.853C281.524 188.695 280.1 187.87 278.4 188.004Z" fill="#E9E9E9"/>
<path d="M260.461 188.988C258.761 189.126 257.456 190.171 257.55 191.329C257.644 192.487 259.094 193.315 260.804 193.178C262.515 193.04 263.809 191.991 263.715 190.837C263.621 189.683 262.16 188.851 260.461 188.988Z" fill="#E9E9E9"/>
<path d="M225.789 191.835C223.883 191.94 222.628 197.261 222.983 203.718C223.337 210.176 225.174 215.323 227.08 215.218C228.986 215.113 230.244 209.792 229.89 203.335C229.535 196.878 227.698 191.73 225.789 191.835Z" fill="#7562E0"/>
<path d="M124.276 469.509L115.319 472.993L41.958 250.254L50.9188 246.771L124.276 469.509Z" fill="#7562E0"/>
<path d="M257.034 156.258L255.145 151.849L44.1399 242.362L46.0297 246.771L257.034 156.258Z" fill="#E9E9E9"/>
<path d="M259.495 162.407L257.605 157.999L46.6009 248.512L48.4906 252.92L259.495 162.407Z" fill="#E9E9E9"/>
<path d="M124.76 452.37H114.27C110.715 452.37 107.833 455.253 107.833 458.809V487.767C107.833 491.323 110.715 494.206 114.27 494.206H124.76C128.315 494.206 131.197 491.323 131.197 487.767V458.809C131.197 455.253 128.315 452.37 124.76 452.37Z" fill="#7562E0"/>
<path d="M123.82 472.056C123.82 473.029 123.532 473.98 122.991 474.789C122.451 475.598 121.683 476.228 120.784 476.601C119.886 476.973 118.897 477.071 117.943 476.881C116.989 476.691 116.113 476.222 115.425 475.534C114.737 474.846 114.269 473.97 114.079 473.015C113.889 472.061 113.987 471.072 114.359 470.173C114.731 469.274 115.361 468.505 116.17 467.965C116.979 467.424 117.93 467.136 118.902 467.136C120.207 467.136 121.458 467.654 122.38 468.577C123.302 469.499 123.82 470.751 123.82 472.056Z" fill="#E9E9E9"/>
<path d="M55.8373 248.018C55.8373 249.965 55.2601 251.869 54.1788 253.487C53.0974 255.106 51.5605 256.368 49.7623 257.113C47.9642 257.858 45.9856 258.052 44.0768 257.672C42.168 257.292 40.4148 256.354 39.0389 254.977C37.6629 253.6 36.7261 251.846 36.3468 249.937C35.9676 248.027 36.1629 246.048 36.9082 244.249C37.6535 242.451 38.9152 240.914 40.5338 239.832C42.1524 238.751 44.0551 238.175 46.0014 238.175C48.6104 238.176 51.1122 239.214 52.9566 241.06C54.8011 242.905 55.8373 245.409 55.8373 248.018Z" fill="#E9E9E9"/>
<path d="M52.1484 248.018C52.1484 249.234 51.7879 250.423 51.1124 251.434C50.4369 252.446 49.4768 253.234 48.3535 253.699C47.2302 254.165 45.9942 254.287 44.8017 254.049C43.6092 253.812 42.5138 253.226 41.6541 252.366C40.7943 251.506 40.2088 250.411 39.9716 249.218C39.7344 248.025 39.8562 246.788 40.3215 245.664C40.7868 244.541 41.5747 243.58 42.5856 242.905C43.5966 242.229 44.7851 241.868 46.001 241.868C47.6314 241.868 49.195 242.516 50.3479 243.669C51.5008 244.823 52.1484 246.387 52.1484 248.018Z" fill="#7562E0"/>
<path d="M253.807 168.018C259.239 168.018 263.643 163.611 263.643 158.175C263.643 152.739 259.239 148.332 253.807 148.332C248.374 148.332 243.971 152.739 243.971 158.175C243.971 163.611 248.374 168.018 253.807 168.018Z" fill="#E9E9E9"/>
<path d="M253.807 164.329C257.202 164.329 259.954 161.574 259.954 158.175C259.954 154.777 257.202 152.022 253.807 152.022C250.411 152.022 247.659 154.777 247.659 158.175C247.659 161.574 250.411 164.329 253.807 164.329Z" fill="#7562E0"/>
<path d="M254.182 186.612H264.872L260.662 164.798L251.658 165.97L254.182 186.612Z" fill="#E9E9E9"/>
<path d="M135.002 35H0V92.2935H135.002V35Z" fill="#70C250"/>
<path d="M38.4578 43.1865H27.83C27.083 43.1865 26.4775 43.7923 26.4775 44.5395V82.758C26.4775 83.5052 27.083 84.111 27.83 84.111H38.4578C39.2048 84.111 39.8103 83.5052 39.8103 82.758V44.5395C39.8103 43.7923 39.2048 43.1865 38.4578 43.1865Z" fill="white"/>
<path d="M60.1258 43.1865H49.498C48.751 43.1865 48.1455 43.7923 48.1455 44.5395V82.758C48.1455 83.5052 48.751 84.111 49.498 84.111H60.1258C60.8728 84.111 61.4783 83.5052 61.4783 82.758V44.5395C61.4783 43.7923 60.8728 43.1865 60.1258 43.1865Z" fill="white"/>
<path d="M81.8223 45.2159V80.1027C81.8223 80.9746 82.9071 81.4629 83.6774 80.9239L109.254 62.6485C109.393 62.5553 109.505 62.4288 109.581 62.2806C109.658 62.1325 109.695 61.9675 109.691 61.8009C109.687 61.6343 109.64 61.4715 109.556 61.3275C109.473 61.1835 109.354 61.0631 109.211 60.9772L83.6376 44.3549C82.8746 43.8702 81.8223 44.3549 81.8223 45.2159Z" fill="white"/>
<path d="M347.063 55.6215C347.063 55.6215 348.981 50.0413 356.36 50.4988C363.738 50.9563 372.468 56.558 374.146 59.9949C375.824 63.4319 373.532 67.8411 373.532 67.8411L347.063 55.6215Z" fill="#9446CE"/>
<path d="M316.099 43.9326C316.099 43.9326 318.016 38.3524 311.915 34.1755C305.814 29.9986 295.487 29.0467 292.052 30.7243C288.617 32.4018 287.716 37.289 287.716 37.289L316.099 43.9326Z" fill="#9446CE"/>
<path d="M332.317 53.9286C332.317 53.9286 322.867 50.4201 318.488 45.0149C314.109 39.6098 310.883 35.3807 304.137 33.8413C297.39 32.302 287.2 33.217 278.565 42.4654C269.929 51.7138 258.593 67.314 252.168 81.4814C245.743 95.6487 250.105 102.609 258.409 103.384C266.713 104.16 276.842 85.2858 290.842 84.6389C290.842 84.6389 299.782 84.3318 309.826 90.6469C319.871 96.9619 329.451 94.7951 336.104 98.1185C342.756 101.442 343.751 103.088 346.504 107.934C349.256 112.78 349.402 130.507 352.233 135.12C355.064 139.733 363.181 144.863 368.296 137.524C373.412 130.186 379.254 104.118 378.687 89.8854C378.12 75.6525 374.888 63.8832 369.725 59.2478C364.561 54.6123 357.894 52.8396 354.545 53.508C351.197 54.1763 339.986 56.5662 332.317 53.9286Z" fill="#7562E0"/>
<path d="M309.04 58.1431C308.092 60.9021 306.347 63.3179 304.027 65.0851C301.706 66.8523 298.914 67.8914 296.003 68.0712C293.093 68.2509 290.194 67.5631 287.674 66.0948C285.154 64.6265 283.125 62.4436 281.846 59.8221C280.566 57.2007 280.092 54.2584 280.483 51.3675C280.875 48.4765 282.115 45.7666 284.046 43.5805C285.977 41.3944 288.513 39.8302 291.333 39.0859C294.153 38.3415 297.13 38.4503 299.888 39.3986C303.586 40.6704 306.628 43.3597 308.344 46.8749C310.06 50.3901 310.311 54.4433 309.04 58.1431Z" fill="#E9E9E9"/>
<path d="M367.575 85.1154C373.333 79.3549 373.333 70.0152 367.575 64.2547C361.816 58.4942 352.48 58.4942 346.721 64.2547C340.963 70.0152 340.963 79.3549 346.721 85.1154C352.48 90.876 361.816 90.8759 367.575 85.1154Z" fill="#E9E9E9"/>
<path d="M360.399 70.1681C362.278 69.8828 363.57 68.128 363.285 66.2485C363 64.369 361.245 63.0767 359.367 63.3619C357.488 63.6472 356.196 65.402 356.481 67.2815C356.766 69.1609 358.52 70.4533 360.399 70.1681Z" fill="#FEB961"/>
<path d="M355.78 85.5495C357.548 84.8543 358.419 82.8564 357.724 81.0871C357.029 79.3178 355.032 78.447 353.263 79.1422C351.494 79.8373 350.624 81.8352 351.319 83.6045C352.014 85.3739 354.011 86.2446 355.78 85.5495Z" fill="#70C250"/>
<path d="M367.835 80.0892C369.241 78.8108 369.345 76.6339 368.067 75.227C366.789 73.8201 364.613 73.7159 363.207 74.9943C361.8 76.2727 361.696 78.4496 362.974 79.8565C364.252 81.2634 366.428 81.3676 367.835 80.0892Z" fill="#70C250"/>
<path d="M351.802 72.8485C351.581 73.4922 351.174 74.0559 350.632 74.4682C350.091 74.8804 349.439 75.1228 348.76 75.1647C348.081 75.2065 347.404 75.0459 346.816 74.7033C346.228 74.3606 345.755 73.8512 345.456 73.2395C345.158 72.6277 345.047 71.9412 345.139 71.2666C345.23 70.592 345.519 69.9597 345.97 69.4497C346.421 68.9396 347.012 68.5747 347.67 68.401C348.328 68.2273 349.023 68.2527 349.667 68.474C350.094 68.621 350.488 68.8507 350.827 69.1501C351.165 69.4495 351.442 69.8126 351.64 70.2188C351.838 70.625 351.955 71.0664 351.983 71.5176C352.01 71.9688 351.949 72.421 351.802 72.8485Z" fill="#FEB961"/>
<path d="M288.949 60.0032C289.17 59.3595 289.577 58.7958 290.119 58.3837C290.661 57.9715 291.312 57.7293 291.992 57.6876C292.671 57.6459 293.347 57.8067 293.935 58.1496C294.523 58.4925 294.996 59.0022 295.295 59.6141C295.593 60.2259 295.703 60.9126 295.612 61.5872C295.52 62.2618 295.23 62.894 294.779 63.4039C294.328 63.9138 293.736 64.2785 293.078 64.4518C292.42 64.6252 291.725 64.5994 291.082 64.3777C290.219 64.0803 289.51 63.4524 289.11 62.6322C288.71 61.8119 288.652 60.8663 288.949 60.0032Z" fill="#FEB961"/>
<path d="M294.313 44.429C294.535 43.7853 294.942 43.2217 295.484 42.8095C296.025 42.3973 296.677 42.155 297.356 42.1134C298.036 42.0717 298.712 42.2325 299.3 42.5754C299.888 42.9183 300.361 43.428 300.659 44.0399C300.958 44.6517 301.068 45.3384 300.976 46.013C300.884 46.6876 300.595 47.3198 300.144 47.8297C299.693 48.3396 299.101 48.7043 298.443 48.8776C297.785 49.0509 297.09 49.0251 296.446 48.8035C295.584 48.5063 294.874 47.8785 294.474 47.0581C294.074 46.2378 294.016 45.2921 294.313 44.429Z" fill="#70C250"/>
<path d="M283.308 49.2173C283.529 48.5737 283.937 48.0102 284.479 47.5983C285.021 47.1863 285.672 46.9443 286.352 46.9029C287.031 46.8614 287.707 47.0224 288.295 47.3655C288.883 47.7086 289.356 48.2183 289.654 48.8303C289.952 49.4422 290.062 50.1288 289.97 50.8034C289.878 51.4779 289.588 52.11 289.137 52.6198C288.686 53.1296 288.094 53.4941 287.436 53.6673C286.778 53.8405 286.083 53.8146 285.44 53.5928C284.577 53.2954 283.868 52.6673 283.468 51.8468C283.068 51.0262 283.011 50.0804 283.308 49.2173Z" fill="#70C250"/>
<path d="M300.27 55.0625C300.492 54.4187 300.899 53.8551 301.441 53.443C301.983 53.0309 302.634 52.7887 303.314 52.7471C303.993 52.7056 304.669 52.8665 305.257 53.2095C305.845 53.5525 306.318 54.0622 306.617 54.6742C306.915 55.2862 307.025 55.9729 306.933 56.6475C306.841 57.3221 306.551 57.9543 306.1 58.4641C305.649 58.9739 305.057 59.3384 304.399 59.5116C303.741 59.6848 303.046 59.6588 302.403 59.4369C301.54 59.1395 300.831 58.5116 300.431 57.6913C300.031 56.871 299.973 55.9254 300.27 55.0625Z" fill="#FEB961"/>
<path d="M338.504 103.381C342.763 99.1201 342.763 92.2119 338.504 87.9511C334.244 83.6903 327.339 83.6902 323.079 87.9511C318.82 92.2119 318.82 99.1201 323.079 103.381C327.339 107.642 334.244 107.642 338.504 103.381Z" fill="#7562E0"/>
<path d="M337.062 99.6335C339.25 96.1692 338.216 91.5868 334.753 89.3984C331.29 87.2101 326.709 88.2444 324.521 91.7087C322.334 95.1731 323.368 99.7555 326.831 101.944C330.294 104.132 334.875 103.098 337.062 99.6335Z" fill="#9446CE"/>
<g opacity="0.11">
<path opacity="0.11" d="M331.737 88.9325C330.79 88.7442 329.809 88.8606 328.932 89.2651C327.849 89.7472 326.426 90.7389 326.13 92.6785C325.64 95.8943 333.642 95.877 334.674 93.7696C335.544 91.9928 334.26 89.4739 331.737 88.9325Z" fill="white"/>
</g>
<g opacity="0.11">
<path opacity="0.11" d="M334.082 90.2836C333.232 89.7391 332.05 90.1362 331.742 91.1024C331.624 91.476 331.667 91.8946 332.112 92.2784C333.297 93.3019 335.43 91.5732 334.518 90.6408C334.387 90.5056 334.241 90.3857 334.082 90.2836Z" fill="white"/>
</g>
<path d="M296.18 79.2088L292.462 77.9295C292.092 77.8026 291.787 77.534 291.615 77.1828C291.442 76.8315 291.416 76.4261 291.541 76.0554C291.668 75.6852 291.937 75.3805 292.288 75.2079C292.64 75.0353 293.045 75.0088 293.416 75.1343L297.134 76.4136C297.503 76.5415 297.806 76.8105 297.978 77.1618C298.149 77.513 298.175 77.9178 298.048 78.2877C297.921 78.6568 297.654 78.9607 297.304 79.1333C296.954 79.3058 296.55 79.333 296.18 79.2088Z" fill="#9446CE"/>
<path d="M306.639 82.8041L302.921 81.5258C302.552 81.3976 302.248 81.1285 302.077 80.7772C301.905 80.4259 301.88 80.0209 302.006 79.6507C302.134 79.2816 302.403 78.9781 302.754 78.8067C303.105 78.6353 303.509 78.6097 303.879 78.7357L307.598 80.0141C307.967 80.1422 308.271 80.4114 308.442 80.7627C308.614 81.1141 308.639 81.5191 308.513 81.8891C308.385 82.2583 308.116 82.5617 307.765 82.7332C307.414 82.9046 307.009 82.9301 306.639 82.8041Z" fill="#9446CE"/>
<path d="M329.735 72.1941C333.635 70.1321 335.125 65.2981 333.064 61.397C331.003 57.496 326.17 56.0052 322.271 58.0672C318.371 60.1292 316.881 64.9632 318.942 68.8642C321.003 72.7652 325.836 74.2561 329.735 72.1941Z" fill="#9446CE"/>
<path d="M272.663 49.2744C272.663 49.2744 281.397 55.397 274.375 66.761C267.352 78.125 272.786 85.1155 285.69 85.6958C285.69 85.6958 281.333 87.5136 279.179 89.1635C277.026 90.8134 271.329 95.5942 269.203 97.4713C267.077 99.3484 261.612 105.8 254.63 102.486C247.648 99.1734 249.132 91.9986 249.132 91.9986C249.132 91.9986 249.541 85.2639 253.542 78.5794L258.874 68.8817C258.874 68.8817 266.762 56.0838 272.663 49.2744Z" fill="#70C250"/>
<path d="M378.344 85.613C378.344 85.613 367.692 85.0705 366.248 98.3515C364.803 111.633 356.221 113.806 345.683 106.322C345.683 106.322 347.32 110.77 348 113.395C348.68 116.02 349.459 122.988 349.983 125.779C350.507 128.57 349.867 138.218 358.859 140.79C365.912 142.807 369.067 137.649 370.163 135.101C370.599 134.088 371.14 133.127 371.622 132.133C372.795 129.723 374.767 125.703 375.408 120.485L377.162 109.557C377.162 109.557 379.728 95.1878 378.344 85.613Z" fill="#70C250"/>
<path d="M321.645 77.4254C316.018 75.492 310.13 69.9733 314.004 54.6627C317.567 40.5854 310.256 36.606 310.182 36.5671L310.294 36.3491C310.373 36.389 312.225 37.3726 313.652 40.1361C314.962 42.6774 316.128 47.2709 314.242 54.721C310.414 69.8504 316.199 75.2934 321.725 77.191C329.012 79.6976 333.749 78.0098 337.564 71.5618C338.317 70.2885 339.046 68.915 339.751 67.5865C343.221 61.0504 346.811 54.2911 355.724 53.2574L355.753 53.502C346.964 54.5173 343.408 61.2182 339.968 67.699C339.262 69.0296 338.536 70.4062 337.775 71.6835C335.694 75.2044 333.293 77.3179 330.436 78.1439C327.96 78.8665 325.168 78.6393 321.645 77.4254Z" fill="#70C250"/>
<path d="M418 0H369.572V18.4231H418V0Z" fill="#ED1C24"/>
<path d="M410.427 9.74861C410.73 8.46511 409.935 7.17905 408.652 6.87612C407.369 6.57318 406.084 7.36809 405.781 8.65159C405.478 9.93509 406.273 11.2212 407.556 11.5241C408.839 11.827 410.124 11.0321 410.427 9.74861Z" fill="white"/>
<path d="M369.572 17.2617V25.2461L381.85 18.4234L369.572 17.2617Z" fill="#ED1C24"/>
<defs>
<linearGradient id="paint0_linear_1055:10117" x1="61274.2" y1="107645" x2="133897" y2="107645" gradientUnits="userSpaceOnUse">
<stop stop-color="#6C28A5"/>
<stop offset="1" stop-color="#A96AD8"/>
</linearGradient>
<linearGradient id="paint1_linear_1055:10117" x1="412.748" y1="398.874" x2="503.013" y2="398.874" gradientUnits="userSpaceOnUse">
<stop stop-color="#CE7E9B"/>
<stop offset="0.27" stop-color="#D48CA9"/>
<stop offset="0.66" stop-color="#DB99B7"/>
<stop offset="1" stop-color="#DD9EBC"/>
</linearGradient>
<linearGradient id="paint2_linear_1055:10117" x1="346.623" y1="605.531" x2="577.673" y2="605.531" gradientUnits="userSpaceOnUse">
<stop stop-color="#1D183A"/>
<stop offset="0.16" stop-color="#221B41"/>
<stop offset="0.61" stop-color="#2B224F"/>
<stop offset="1" stop-color="#2E2454"/>
</linearGradient>
<linearGradient id="paint3_linear_1055:10117" x1="452.594" y1="477.734" x2="490.427" y2="477.734" gradientUnits="userSpaceOnUse">
<stop stop-color="#1D183A" stop-opacity="0.5"/>
<stop offset="1" stop-color="#1D183A"/>
</linearGradient>
<linearGradient id="paint4_linear_1055:10117" x1="10191" y1="31059.5" x2="10782.5" y2="31059.5" gradientUnits="userSpaceOnUse">
<stop stop-color="#1D183A" stop-opacity="0.5"/>
<stop offset="1" stop-color="#1D183A"/>
</linearGradient>
<linearGradient id="paint5_linear_1055:10117" x1="10479.4" y1="28571.9" x2="11658" y2="28571.9" gradientUnits="userSpaceOnUse">
<stop stop-color="#1D183A" stop-opacity="0.5"/>
<stop offset="1" stop-color="#1D183A"/>
</linearGradient>
<linearGradient id="paint6_linear_1055:10117" x1="346.623" y1="605.531" x2="577.673" y2="605.531" gradientUnits="userSpaceOnUse">
<stop stop-color="#1D183A"/>
<stop offset="0.16" stop-color="#221B41"/>
<stop offset="0.61" stop-color="#2B224F"/>
<stop offset="1" stop-color="#2E2454"/>
</linearGradient>
<linearGradient id="paint7_linear_1055:10117" x1="458.011" y1="130.728" x2="458.011" y2="232.229" gradientUnits="userSpaceOnUse">
<stop stop-color="#F2B7CC"/>
<stop offset="1" stop-color="#ECB7D0"/>
</linearGradient>
<linearGradient id="paint8_linear_1055:10117" x1="9494.95" y1="9846.5" x2="9494.95" y2="10736.8" gradientUnits="userSpaceOnUse">
<stop stop-color="#E0A2B8"/>
<stop offset="1" stop-color="#DD9EBC"/>
</linearGradient>
<linearGradient id="paint9_linear_1055:10117" x1="480.716" y1="141.146" x2="480.716" y2="161.693" gradientUnits="userSpaceOnUse">
<stop stop-color="#CE7E9B"/>
<stop offset="0.09" stop-color="#D388A6"/>
<stop offset="0.27" stop-color="#D995B3"/>
<stop offset="0.5" stop-color="#DC9CBA"/>
<stop offset="1" stop-color="#DD9EBC"/>
</linearGradient>
<linearGradient id="paint10_linear_1055:10117" x1="30135.1" y1="30526.3" x2="39792" y2="30526.3" gradientUnits="userSpaceOnUse">
<stop stop-color="#6C28A5"/>
<stop offset="1" stop-color="#A96AD8"/>
</linearGradient>
</defs>
</svg>
