<svg width="40" height="40" viewBox="0 0 40 40" fill="none" xmlns="http://www.w3.org/2000/svg">
<path d="M20 0C8.95433 0 0 8.95433 0 20C0 31.0457 8.95433 40 20 40C31.0457 40 40 31.0457 40 20C40 8.95433 31.0457 0 20 0ZM14.472 30.365H9.63479V16.545H14.472V30.365ZM12.0534 14.472C10.7176 14.472 9.63479 13.3892 9.63479 12.0534C9.63479 10.7176 10.7176 9.63479 12.0534 9.63479C13.3892 9.63479 14.472 10.7176 14.472 12.0534C14.472 13.3891 13.3892 14.4719 12.0535 14.472H12.0534ZM30.365 30.365H26.2191V23.6313C26.2191 22.0252 26.0408 19.9594 23.8396 19.9594C21.6047 19.9594 21.2629 21.7088 21.2629 23.5149V30.365H17.236V16.545H21.0891V18.4101H21.1485C21.7221 17.3212 23.1244 16.545 25.2136 16.545C29.5606 16.545 30.365 19.0408 30.365 22.7701V30.365Z" fill="white"/>
</svg>
