<svg width="41" height="41" viewBox="0 0 41 41" fill="none" xmlns="http://www.w3.org/2000/svg">
<path d="M20.0798 24.2338C22.3481 24.2338 24.1869 22.395 24.1869 20.1267C24.1869 17.8584 22.3481 16.0195 20.0798 16.0195C17.8115 16.0195 15.9727 17.8584 15.9727 20.1267C15.9727 22.395 17.8115 24.2338 20.0798 24.2338Z" fill="white"/>
<path d="M20.0793 0.046875C8.98983 0.046875 0 9.03671 0 20.1262C0 31.2157 8.98983 40.2055 20.0793 40.2055C31.1688 40.2055 40.1586 31.2157 40.1586 20.1262C40.1586 9.03671 31.1688 0.046875 20.0793 0.046875ZM32.485 25.2296C32.3886 27.1385 31.8521 29.021 30.461 30.3974C29.0563 31.7869 27.1649 32.3046 25.2375 32.4H14.9212C12.9936 32.3046 11.1024 31.7872 9.69775 30.3974C8.30649 29.021 7.77013 27.1385 7.67375 25.2296V15.0228C7.77013 13.1139 8.30657 11.2314 9.69775 9.8549C11.1024 8.46541 12.9938 7.94769 14.9212 7.85235H25.2375C27.1651 7.94769 29.0562 8.46517 30.4609 9.8549C31.8521 11.2314 32.3885 13.1139 32.485 15.0228V25.2296Z" fill="white"/>
<path d="M25.0744 10.1388C22.5852 10.0696 17.6029 10.0696 15.1137 10.1388C13.8184 10.1748 12.3499 10.5017 11.427 11.5007C10.4679 12.5393 10.1055 13.794 10.0688 15.1976C10.0041 17.6612 10.0688 25.0555 10.0688 25.0555C10.1108 26.459 10.4679 27.7139 11.427 28.7524C12.3499 29.7518 13.8184 30.0783 15.1137 30.1143C17.6029 30.1835 22.5852 30.1835 25.0744 30.1143C26.3697 30.0783 27.8382 29.7515 28.7611 28.7524C29.7202 27.7139 30.0826 26.4592 30.1194 25.0555V15.1976C30.0826 13.794 29.7202 12.5393 28.7611 11.5007C27.8379 10.5013 26.3694 10.1748 25.0744 10.1388ZM20.0937 26.6884C16.518 26.6884 13.6193 23.7505 13.6193 20.1266C13.6193 16.5026 16.518 13.5648 20.0937 13.5648C23.6695 13.5648 26.5682 16.5026 26.5682 20.1266C26.5682 21.8669 25.886 23.5359 24.6718 24.7665C23.4577 25.997 21.8109 26.6884 20.0937 26.6884ZM26.5957 14.9192C25.8806 14.9191 25.301 14.3314 25.3011 13.6067C25.3012 12.8819 25.881 12.2945 26.5961 12.2945C27.3112 12.2946 27.8909 12.8821 27.8909 13.6069C27.8909 13.955 27.7544 14.2889 27.5115 14.535C27.2686 14.7811 26.9392 14.9193 26.5957 14.9192Z" fill="white"/>
</svg>
