<svg width="41" height="40" viewBox="0 0 41 40" fill="none" xmlns="http://www.w3.org/2000/svg">
<path d="M20.1582 0C9.11251 0 0.158203 8.9543 0.158203 20C0.158203 31.0457 9.11251 40 20.1582 40C31.2039 40 40.1582 31.0457 40.1582 20C40.1582 8.9543 31.2039 0 20.1582 0ZM29.174 17.7711C27.3898 17.9684 25.8608 17.2632 24.3319 16.3632C24.3319 16.5105 24.3766 21.0789 24.3003 23.2579C24.224 25.4974 23.424 27.4684 21.6687 28.9395C17.9477 32.0632 12.6661 30.3763 11.4056 25.6C10.7214 22.9974 11.3161 20.6526 13.3582 18.7974C14.5082 17.7447 15.9266 17.2763 17.4477 17.0816C17.774 17.0395 18.1029 17.0211 18.4556 16.9895V20.5263C18.0082 20.6368 17.5556 20.7342 17.1108 20.8658C16.8023 20.9549 16.5014 21.0684 16.2108 21.2053C15.3893 21.5747 14.7866 22.3055 14.5803 23.1823C14.374 24.0591 14.5876 24.982 15.1582 25.6789C15.8482 26.633 17.0117 27.124 18.1766 26.9526C19.3266 26.8132 20.0477 26.0895 20.474 25.05C20.7688 24.2273 20.8967 23.3542 20.8503 22.4816C20.8345 18.1868 20.8345 13.8947 20.8266 9.6C20.8303 9.55583 20.8364 9.5119 20.845 9.46842H24.2793C24.6635 12.3421 26.1214 14.1632 29.174 14.4211V17.7711Z" fill="white"/>
</svg>
