<svg width="41" height="40" viewBox="0 0 41 40" fill="none" xmlns="http://www.w3.org/2000/svg">
<path d="M20.1582 0C9.11253 0 0.158203 8.95433 0.158203 20C0.158203 31.0457 9.11253 40 20.1582 40C31.2039 40 40.1582 31.0457 40.1582 20C40.1582 8.95433 31.2039 0 20.1582 0ZM29.6751 15.1961C29.6844 15.4031 29.6876 15.6125 29.6876 15.8218C29.6876 22.2084 24.7505 29.5718 15.7193 29.5718C13.0554 29.5755 10.4452 28.8227 8.19225 27.4011C8.58115 27.446 8.9723 27.4685 9.36378 27.4685C11.5697 27.4737 13.7148 26.746 15.4623 25.3998C13.3754 25.37 11.5355 24.0237 10.8758 22.0435C11.6121 22.1823 12.3702 22.154 13.0942 21.9607C10.8477 21.5159 9.15504 19.5621 9.15504 17.2212V17.1606C9.83853 17.5341 10.6004 17.7412 11.3789 17.7652C10.0191 16.8788 9.19763 15.3667 9.19402 13.7434C9.19319 12.8883 9.423 12.0489 9.85923 11.3134C12.3733 14.3433 16.046 16.1758 19.9787 16.3628C19.8946 16.0018 19.8522 15.6323 19.8524 15.2617C19.8524 12.5924 22.0507 10.4285 24.7615 10.4285C26.1147 10.4247 27.4101 10.9766 28.3447 11.9552C29.4431 11.7425 30.4976 11.3457 31.4636 10.7814C31.0936 11.9059 30.3258 12.8567 29.3043 13.4552C30.2767 13.3424 31.227 13.086 32.1242 12.6944C31.4633 13.6675 30.6339 14.5147 29.6751 15.1961Z" fill="white"/>
</svg>
