<svg width="100%" height="100%" viewBox="0 0 175 58" fill="none" xmlns="http://www.w3.org/2000/svg">
<rect x="0.5" y="0.5" width="173.588" height="56.2868" rx="7.5" stroke="white"/>
<path d="M53.418 18.7979H56.0874V22.6167C55.672 22.7492 55.2495 22.8494 54.8198 22.9175C54.3901 22.9855 53.8924 23.0195 53.3267 23.0195C52.1379 23.0195 51.2122 22.6668 50.5498 21.9614C49.8874 21.2524 49.5562 20.2606 49.5562 18.9858C49.5562 18.1694 49.7191 17.4551 50.0449 16.8428C50.3743 16.2269 50.847 15.7578 51.4629 15.4355C52.0788 15.1097 52.8003 14.9468 53.6274 14.9468C54.4653 14.9468 55.2459 15.1007 55.9692 15.4087L55.6147 16.2144C54.9058 15.9136 54.2236 15.7632 53.5684 15.7632C52.6123 15.7632 51.8657 16.0479 51.3286 16.6172C50.7915 17.1865 50.5229 17.9761 50.5229 18.9858C50.5229 20.0457 50.7808 20.8496 51.2964 21.3975C51.8156 21.9453 52.5765 22.2192 53.5791 22.2192C54.1234 22.2192 54.6551 22.1566 55.1743 22.0312V19.6143H53.418V18.7979ZM62.3555 22.9121H57.978V15.0596H62.3555V15.8706H58.8911V18.4004H62.146V19.2061H58.8911V22.0957H62.3555V22.9121ZM66.5181 22.9121H65.605V15.8706H63.1182V15.0596H69.0049V15.8706H66.5181V22.9121ZM73.0493 22.9121V15.0596H73.9624V22.9121H73.0493ZM78.5386 22.9121H77.6255V15.8706H75.1387V15.0596H81.0254V15.8706H78.5386V22.9121ZM91.8857 18.9751C91.8857 20.2319 91.5671 21.2202 90.9297 21.9399C90.2959 22.6597 89.4132 23.0195 88.2817 23.0195C87.1252 23.0195 86.2318 22.6668 85.6016 21.9614C84.9749 21.2524 84.6616 20.2534 84.6616 18.9644C84.6616 17.686 84.9767 16.696 85.6069 15.9941C86.2371 15.2887 87.1323 14.936 88.2925 14.936C89.4204 14.936 90.3013 15.2941 90.9351 16.0103C91.5688 16.7264 91.8857 17.7147 91.8857 18.9751ZM85.6284 18.9751C85.6284 20.0386 85.854 20.846 86.3052 21.3975C86.7599 21.9453 87.4188 22.2192 88.2817 22.2192C89.1519 22.2192 89.8089 21.9453 90.2529 21.3975C90.6969 20.8496 90.9189 20.0422 90.9189 18.9751C90.9189 17.9188 90.6969 17.1185 90.2529 16.5742C89.8125 16.0264 89.159 15.7524 88.2925 15.7524C87.4224 15.7524 86.7599 16.0282 86.3052 16.5796C85.854 17.1274 85.6284 17.9259 85.6284 18.9751ZM99.7759 22.9121H98.7339L94.4424 16.3218H94.3994C94.4567 17.0952 94.4854 17.8042 94.4854 18.4487V22.9121H93.6421V15.0596H94.6733L98.9541 21.623H98.9971C98.9899 21.5264 98.9738 21.2166 98.9487 20.6938C98.9237 20.1675 98.9147 19.7915 98.9219 19.5659V15.0596H99.7759V22.9121Z" fill="white"/>
<path d="M55.833 35.0801H61.0869V42.248C60.2275 42.528 59.4007 42.7266 58.6064 42.8438C57.8187 42.9609 56.9658 43.0195 56.0479 43.0195C53.8864 43.0195 52.2197 42.3815 51.0479 41.1055C49.876 39.8229 49.29 38.0163 49.29 35.6855C49.29 33.3874 49.9508 31.5905 51.2725 30.2949C52.5941 28.9928 54.4137 28.3418 56.7314 28.3418C58.2223 28.3418 59.6351 28.6283 60.9697 29.2012L60.1494 31.1445C58.9906 30.6107 57.8317 30.3438 56.6729 30.3438C55.1494 30.3438 53.945 30.8223 53.0596 31.7793C52.1742 32.7363 51.7314 34.0449 51.7314 35.7051C51.7314 37.4499 52.1286 38.778 52.9229 39.6895C53.7236 40.5944 54.8727 41.0469 56.3701 41.0469C57.1253 41.0469 57.9326 40.9525 58.792 40.7637V37.082H55.833V35.0801ZM73.8604 37.4043C73.8604 39.1686 73.4079 40.5456 72.5029 41.5352C71.598 42.5247 70.3382 43.0195 68.7236 43.0195C67.7145 43.0195 66.8226 42.7917 66.0479 42.3359C65.2731 41.8802 64.6774 41.2259 64.2607 40.373C63.8441 39.5202 63.6357 38.5306 63.6357 37.4043C63.6357 35.653 64.085 34.2858 64.9834 33.3027C65.8818 32.3197 67.1481 31.8281 68.7822 31.8281C70.3447 31.8281 71.5817 32.3327 72.4932 33.3418C73.4046 34.3444 73.8604 35.6986 73.8604 37.4043ZM65.999 37.4043C65.999 39.8978 66.9202 41.1445 68.7627 41.1445C70.5856 41.1445 71.4971 39.8978 71.4971 37.4043C71.4971 34.9368 70.5791 33.7031 68.7432 33.7031C67.7796 33.7031 67.0798 34.0221 66.6436 34.6602C66.2139 35.2982 65.999 36.2129 65.999 37.4043ZM86.0869 37.4043C86.0869 39.1686 85.6344 40.5456 84.7295 41.5352C83.8245 42.5247 82.5648 43.0195 80.9502 43.0195C79.9411 43.0195 79.0492 42.7917 78.2744 42.3359C77.4997 41.8802 76.904 41.2259 76.4873 40.373C76.0706 39.5202 75.8623 38.5306 75.8623 37.4043C75.8623 35.653 76.3115 34.2858 77.21 33.3027C78.1084 32.3197 79.3747 31.8281 81.0088 31.8281C82.5713 31.8281 83.8083 32.3327 84.7197 33.3418C85.6312 34.3444 86.0869 35.6986 86.0869 37.4043ZM78.2256 37.4043C78.2256 39.8978 79.1468 41.1445 80.9893 41.1445C82.8122 41.1445 83.7236 39.8978 83.7236 37.4043C83.7236 34.9368 82.8057 33.7031 80.9697 33.7031C80.0062 33.7031 79.3063 34.0221 78.8701 34.6602C78.4404 35.2982 78.2256 36.2129 78.2256 37.4043ZM97.8545 32.0234V33.2832L96.0088 33.625C96.1781 33.8529 96.318 34.1328 96.4287 34.4648C96.5394 34.7969 96.5947 35.1484 96.5947 35.5195C96.5947 36.6328 96.2106 37.5085 95.4424 38.1465C94.6742 38.7845 93.6162 39.1035 92.2686 39.1035C91.9235 39.1035 91.611 39.0775 91.3311 39.0254C90.8363 39.3314 90.5889 39.6895 90.5889 40.0996C90.5889 40.347 90.7028 40.5326 90.9307 40.6562C91.165 40.7799 91.5915 40.8418 92.21 40.8418H94.0947C95.2861 40.8418 96.1911 41.0957 96.8096 41.6035C97.4281 42.1113 97.7373 42.8438 97.7373 43.8008C97.7373 45.0247 97.2327 45.9688 96.2236 46.6328C95.2145 47.2969 93.7562 47.6289 91.8486 47.6289C90.3773 47.6289 89.2542 47.3685 88.4795 46.8477C87.7048 46.3268 87.3174 45.5846 87.3174 44.6211C87.3174 43.957 87.5257 43.3971 87.9424 42.9414C88.3656 42.4922 88.9548 42.1797 89.71 42.0039C89.404 41.8737 89.1501 41.6654 88.9482 41.3789C88.7529 41.0859 88.6553 40.7799 88.6553 40.4609C88.6553 40.0573 88.7692 39.7155 88.9971 39.4355C89.2249 39.1556 89.5635 38.8789 90.0127 38.6055C89.4528 38.3646 88.9971 37.974 88.6455 37.4336C88.3005 36.8867 88.1279 36.2487 88.1279 35.5195C88.1279 34.3477 88.4958 33.4395 89.2314 32.7949C89.9736 32.1504 91.0283 31.8281 92.3955 31.8281C92.7015 31.8281 93.0205 31.8509 93.3525 31.8965C93.6911 31.9355 93.945 31.9779 94.1143 32.0234H97.8545ZM89.3682 44.5039C89.3682 44.9987 89.5895 45.3796 90.0322 45.6465C90.4814 45.9134 91.1097 46.0469 91.917 46.0469C93.167 46.0469 94.098 45.8678 94.71 45.5098C95.3219 45.1517 95.6279 44.6764 95.6279 44.084C95.6279 43.6152 95.4587 43.2799 95.1201 43.0781C94.7881 42.8828 94.1663 42.7852 93.2549 42.7852H91.5166C90.859 42.7852 90.335 42.9382 89.9443 43.2441C89.5602 43.5566 89.3682 43.9766 89.3682 44.5039ZM90.3545 35.5195C90.3545 36.1966 90.527 36.7174 90.8721 37.082C91.2236 37.4466 91.7249 37.6289 92.376 37.6289C93.7041 37.6289 94.3682 36.9193 94.3682 35.5C94.3682 34.7969 94.2021 34.2565 93.8701 33.8789C93.5446 33.4948 93.0465 33.3027 92.376 33.3027C91.7119 33.3027 91.2074 33.4915 90.8623 33.8691C90.5238 34.2467 90.3545 34.7969 90.3545 35.5195ZM102.161 42.8242H99.8662V27.6289H102.161V42.8242ZM110.169 43.0195C108.489 43.0195 107.174 42.5312 106.224 41.5547C105.28 40.5716 104.808 39.2207 104.808 37.502C104.808 35.7376 105.247 34.3509 106.126 33.3418C107.005 32.3327 108.213 31.8281 109.749 31.8281C111.175 31.8281 112.301 32.2611 113.128 33.127C113.955 33.9928 114.368 35.1842 114.368 36.7012V37.9414H107.171C107.203 38.9896 107.487 39.7969 108.021 40.3633C108.554 40.9232 109.306 41.2031 110.276 41.2031C110.914 41.2031 111.507 41.1445 112.054 41.0273C112.607 40.9036 113.2 40.7018 113.831 40.4219V42.2871C113.271 42.554 112.705 42.7428 112.132 42.8535C111.559 42.9642 110.905 43.0195 110.169 43.0195ZM109.749 33.5664C109.02 33.5664 108.434 33.7975 107.991 34.2598C107.555 34.722 107.295 35.3958 107.21 36.2812H112.112C112.099 35.3893 111.884 34.7155 111.468 34.2598C111.051 33.7975 110.478 33.5664 109.749 33.5664ZM131.868 32.8633C131.868 34.3542 131.38 35.4967 130.403 36.291C129.427 37.0853 128.037 37.4824 126.233 37.4824H124.749V42.8242H122.415V28.5469H126.526C128.31 28.5469 129.645 28.9115 130.53 29.6406C131.422 30.3698 131.868 31.444 131.868 32.8633ZM124.749 35.5195H125.989C127.187 35.5195 128.066 35.3112 128.626 34.8945C129.186 34.4779 129.466 33.8268 129.466 32.9414C129.466 32.1211 129.215 31.5091 128.714 31.1055C128.213 30.7018 127.431 30.5 126.37 30.5H124.749V35.5195ZM136.771 42.8242H134.476V27.6289H136.771V42.8242ZM146.819 42.8242L146.36 41.3203H146.282C145.761 41.9779 145.237 42.4271 144.71 42.668C144.183 42.9023 143.506 43.0195 142.679 43.0195C141.618 43.0195 140.787 42.7331 140.188 42.1602C139.596 41.5872 139.3 40.7767 139.3 39.7285C139.3 38.6152 139.713 37.7754 140.54 37.209C141.367 36.6426 142.627 36.3333 144.319 36.2812L146.185 36.2227V35.6465C146.185 34.9564 146.022 34.4421 145.696 34.1035C145.377 33.7585 144.879 33.5859 144.202 33.5859C143.649 33.5859 143.118 33.6673 142.61 33.8301C142.103 33.9928 141.614 34.1849 141.146 34.4062L140.403 32.7656C140.989 32.4596 141.631 32.2285 142.327 32.0723C143.024 31.9095 143.681 31.8281 144.3 31.8281C145.674 31.8281 146.709 32.1276 147.405 32.7266C148.108 33.3255 148.46 34.2663 148.46 35.5488V42.8242H146.819ZM143.401 41.2617C144.235 41.2617 144.902 41.0306 145.403 40.5684C145.911 40.0996 146.165 39.4453 146.165 38.6055V37.668L144.778 37.7266C143.698 37.7656 142.91 37.9479 142.415 38.2734C141.927 38.5924 141.683 39.084 141.683 39.748C141.683 40.2298 141.826 40.6042 142.112 40.8711C142.399 41.1315 142.828 41.2617 143.401 41.2617ZM150.022 32.0234H152.522L154.72 38.1465C155.052 39.0189 155.273 39.8392 155.384 40.6074H155.462C155.521 40.2493 155.628 39.8164 155.784 39.3086C155.94 38.7943 156.767 36.3659 158.265 32.0234H160.745L156.126 44.2598C155.286 46.5059 153.886 47.6289 151.927 47.6289C151.419 47.6289 150.924 47.5736 150.442 47.4629V45.6465C150.787 45.7246 151.181 45.7637 151.624 45.7637C152.731 45.7637 153.509 45.1224 153.958 43.8398L154.358 42.8242L150.022 32.0234Z" fill="white"/>
<path d="M16.7905 14.4595C16.133 14.0379 15.3433 13.9105 14.6025 14.084L27.6202 27.0033L31.8392 22.8161L16.7905 14.4595Z" fill="#70C250"/>
<path d="M12.9871 15.1338C12.624 15.6128 12.415 16.201 12.415 16.8232V39.8363C12.415 40.4585 12.6241 41.0467 12.9871 41.5257L26.2835 28.3298L12.9871 15.1338Z" fill="#70C250"/>
<path d="M37.3454 25.8741L33.5537 23.7686L28.957 28.3305L33.5539 32.8926L37.3461 30.7869C38.2546 30.2817 38.7969 29.3635 38.7969 28.3305C38.7969 27.2974 38.2546 26.3793 37.3454 25.8741Z" fill="#70C250"/>
<path d="M27.6204 29.6572L14.6035 42.5757C14.8169 42.6256 15.0341 42.6524 15.2513 42.6524C15.7881 42.6524 16.323 42.5009 16.7908 42.2009L31.8396 33.8445L27.6204 29.6572Z" fill="#70C250"/>
</svg>
