<svg width="100%" height="100%" viewBox="0 0 192 63" fill="none" xmlns="http://www.w3.org/2000/svg">
<rect width="100%" height="100%" fill="white"/>
<rect x="0.5" y="0.5" width="191" height="62" rx="7.5" stroke="#70C250"/>
<path d="M69.5254 19.3623C69.5254 20.5407 69.2048 21.4424 68.5635 22.0674C67.9255 22.6891 67.0059 23 65.8047 23H63.8271V15.8613H66.0146C67.1247 15.8613 67.9873 16.1689 68.6025 16.7842C69.2178 17.3994 69.5254 18.2588 69.5254 19.3623ZM68.6465 19.3916C68.6465 18.4606 68.4121 17.7591 67.9434 17.2871C67.4779 16.8151 66.7845 16.5791 65.8633 16.5791H64.6572V22.2822H65.668C66.6576 22.2822 67.4014 22.0397 67.8994 21.5547C68.3975 21.0664 68.6465 20.3454 68.6465 19.3916ZM77.3184 19.4209C77.3184 20.5635 77.0286 21.4619 76.4492 22.1162C75.873 22.7705 75.0706 23.0977 74.042 23.0977C72.9906 23.0977 72.1784 22.777 71.6055 22.1357C71.0358 21.4912 70.751 20.583 70.751 19.4111C70.751 18.249 71.0374 17.349 71.6104 16.7109C72.1833 16.0697 72.9971 15.749 74.0518 15.749C75.0771 15.749 75.8779 16.0745 76.4541 16.7256C77.0303 17.3766 77.3184 18.2751 77.3184 19.4209ZM71.6299 19.4209C71.6299 20.3877 71.835 21.1217 72.2451 21.623C72.6585 22.1211 73.2575 22.3701 74.042 22.3701C74.833 22.3701 75.4303 22.1211 75.834 21.623C76.2376 21.125 76.4395 20.391 76.4395 19.4209C76.4395 18.4606 76.2376 17.7331 75.834 17.2383C75.4336 16.7402 74.8395 16.4912 74.0518 16.4912C73.2607 16.4912 72.6585 16.7419 72.2451 17.2432C71.835 17.7412 71.6299 18.4671 71.6299 19.4209ZM85.1455 23H84.3252L82.8848 18.2197C82.8164 18.0081 82.7399 17.7412 82.6553 17.4189C82.5706 17.0967 82.5267 16.903 82.5234 16.8379C82.4518 17.2676 82.3379 17.738 82.1816 18.249L80.7852 23H79.9648L78.0654 15.8613H78.9443L80.0723 20.2705C80.2285 20.889 80.3424 21.4489 80.4141 21.9502C80.502 21.3545 80.6322 20.7718 80.8047 20.2021L82.084 15.8613H82.9629L84.3057 20.2412C84.4619 20.7458 84.5938 21.3154 84.7012 21.9502C84.763 21.488 84.8802 20.9248 85.0527 20.2607L86.1758 15.8613H87.0547L85.1455 23ZM93.749 23H92.8018L88.9004 17.0088H88.8613C88.9134 17.7119 88.9395 18.3564 88.9395 18.9424V23H88.1729V15.8613H89.1104L93.002 21.8281H93.041C93.0345 21.7402 93.0199 21.4587 92.9971 20.9834C92.9743 20.5049 92.9661 20.1631 92.9727 19.958V15.8613H93.749V23ZM95.7119 23V15.8613H96.542V22.248H99.6914V23H95.7119ZM107.104 19.4209C107.104 20.5635 106.814 21.4619 106.234 22.1162C105.658 22.7705 104.856 23.0977 103.827 23.0977C102.776 23.0977 101.964 22.777 101.391 22.1357C100.821 21.4912 100.536 20.583 100.536 19.4111C100.536 18.249 100.823 17.349 101.396 16.7109C101.968 16.0697 102.782 15.749 103.837 15.749C104.862 15.749 105.663 16.0745 106.239 16.7256C106.815 17.3766 107.104 18.2751 107.104 19.4209ZM101.415 19.4209C101.415 20.3877 101.62 21.1217 102.03 21.623C102.444 22.1211 103.043 22.3701 103.827 22.3701C104.618 22.3701 105.215 22.1211 105.619 21.623C106.023 21.125 106.225 20.391 106.225 19.4209C106.225 18.4606 106.023 17.7331 105.619 17.2383C105.219 16.7402 104.625 16.4912 103.837 16.4912C103.046 16.4912 102.444 16.7419 102.03 17.2432C101.62 17.7412 101.415 18.4671 101.415 19.4209ZM113.188 23L112.299 20.7295H109.438L108.559 23H107.719L110.541 15.832H111.239L114.047 23H113.188ZM112.04 19.9824L111.21 17.7705C111.103 17.4906 110.992 17.1471 110.878 16.7402C110.806 17.0527 110.704 17.3962 110.57 17.7705L109.73 19.9824H112.04ZM120.727 19.3623C120.727 20.5407 120.406 21.4424 119.765 22.0674C119.127 22.6891 118.207 23 117.006 23H115.028V15.8613H117.216C118.326 15.8613 119.188 16.1689 119.804 16.7842C120.419 17.3994 120.727 18.2588 120.727 19.3623ZM119.848 19.3916C119.848 18.4606 119.613 17.7591 119.145 17.2871C118.679 16.8151 117.986 16.5791 117.064 16.5791H115.858V22.2822H116.869C117.859 22.2822 118.603 22.0397 119.101 21.5547C119.599 21.0664 119.848 20.3454 119.848 19.3916ZM131.117 19.4209C131.117 20.5635 130.827 21.4619 130.248 22.1162C129.672 22.7705 128.869 23.0977 127.841 23.0977C126.789 23.0977 125.977 22.777 125.404 22.1357C124.835 21.4912 124.55 20.583 124.55 19.4111C124.55 18.249 124.836 17.349 125.409 16.7109C125.982 16.0697 126.796 15.749 127.851 15.749C128.876 15.749 129.677 16.0745 130.253 16.7256C130.829 17.3766 131.117 18.2751 131.117 19.4209ZM125.429 19.4209C125.429 20.3877 125.634 21.1217 126.044 21.623C126.457 22.1211 127.056 22.3701 127.841 22.3701C128.632 22.3701 129.229 22.1211 129.633 21.623C130.036 21.125 130.238 20.391 130.238 19.4209C130.238 18.4606 130.036 17.7331 129.633 17.2383C129.232 16.7402 128.638 16.4912 127.851 16.4912C127.06 16.4912 126.457 16.7419 126.044 17.2432C125.634 17.7412 125.429 18.4671 125.429 19.4209ZM138.29 23H137.343L133.441 17.0088H133.402C133.454 17.7119 133.48 18.3564 133.48 18.9424V23H132.714V15.8613H133.651L137.543 21.8281H137.582C137.576 21.7402 137.561 21.4587 137.538 20.9834C137.515 20.5049 137.507 20.1631 137.514 19.958V15.8613H138.29V23ZM145.048 23H144.218V16.5986H141.957V15.8613H147.309V16.5986H145.048V23ZM153.808 23H152.978V19.6406H149.218V23H148.388V15.8613H149.218V18.8984H152.978V15.8613H153.808V23ZM159.75 23H155.771V15.8613H159.75V16.5986H156.601V18.8984H159.56V19.6309H156.601V22.2578H159.75V23Z" fill="#110744"/>
<path d="M73.5879 45L72.1621 41.0352H66.7031L65.3066 45H62.8457L68.1875 30.6641H70.7266L76.0684 45H73.5879ZM71.5469 39.0234L70.209 35.1367C70.1113 34.8763 69.9746 34.4661 69.7988 33.9062C69.6296 33.3464 69.5124 32.9362 69.4473 32.6758C69.2715 33.4766 69.0143 34.3522 68.6758 35.3027L67.3867 39.0234H71.5469ZM83.1875 45.1953C81.8203 45.1953 80.7591 44.7038 80.0039 43.7207H79.8672C79.9583 44.6322 80.0039 45.1855 80.0039 45.3809V49.8047H77.709V34.1992H79.5645C79.6165 34.401 79.724 34.8828 79.8867 35.6445H80.0039C80.7201 34.5508 81.7943 34.0039 83.2266 34.0039C84.5742 34.0039 85.6224 34.4922 86.3711 35.4688C87.1263 36.4453 87.5039 37.8158 87.5039 39.5801C87.5039 41.3444 87.1198 42.7214 86.3516 43.7109C85.5898 44.7005 84.5352 45.1953 83.1875 45.1953ZM82.6309 35.8789C81.7194 35.8789 81.0521 36.1458 80.6289 36.6797C80.2122 37.2135 80.0039 38.0664 80.0039 39.2383V39.5801C80.0039 40.8952 80.2122 41.849 80.6289 42.4414C81.0456 43.0273 81.7259 43.3203 82.6699 43.3203C83.4642 43.3203 84.0762 42.9948 84.5059 42.3438C84.9355 41.6927 85.1504 40.765 85.1504 39.5605C85.1504 38.3496 84.9355 37.4349 84.5059 36.8164C84.0827 36.1914 83.4577 35.8789 82.6309 35.8789ZM95.6484 45.1953C94.2812 45.1953 93.2201 44.7038 92.4648 43.7207H92.3281C92.4193 44.6322 92.4648 45.1855 92.4648 45.3809V49.8047H90.1699V34.1992H92.0254C92.0775 34.401 92.1849 34.8828 92.3477 35.6445H92.4648C93.181 34.5508 94.2552 34.0039 95.6875 34.0039C97.0352 34.0039 98.0833 34.4922 98.832 35.4688C99.5872 36.4453 99.9648 37.8158 99.9648 39.5801C99.9648 41.3444 99.5807 42.7214 98.8125 43.7109C98.0508 44.7005 96.9961 45.1953 95.6484 45.1953ZM95.0918 35.8789C94.1803 35.8789 93.513 36.1458 93.0898 36.6797C92.6732 37.2135 92.4648 38.0664 92.4648 39.2383V39.5801C92.4648 40.8952 92.6732 41.849 93.0898 42.4414C93.5065 43.0273 94.1868 43.3203 95.1309 43.3203C95.9251 43.3203 96.5371 42.9948 96.9668 42.3438C97.3965 41.6927 97.6113 40.765 97.6113 39.5605C97.6113 38.3496 97.3965 37.4349 96.9668 36.8164C96.5436 36.1914 95.9186 35.8789 95.0918 35.8789ZM116.303 41.123C116.303 42.3926 115.844 43.3887 114.926 44.1113C114.008 44.834 112.742 45.1953 111.127 45.1953C109.512 45.1953 108.191 44.9447 107.162 44.4434V42.2363C107.813 42.5423 108.503 42.7832 109.232 42.959C109.968 43.1348 110.652 43.2227 111.283 43.2227C112.208 43.2227 112.888 43.0469 113.324 42.6953C113.767 42.3438 113.988 41.8717 113.988 41.2793C113.988 40.7454 113.786 40.293 113.383 39.9219C112.979 39.5508 112.146 39.1113 110.883 38.6035C109.581 38.0762 108.663 37.474 108.129 36.7969C107.595 36.1198 107.328 35.306 107.328 34.3555C107.328 33.1641 107.751 32.2266 108.598 31.543C109.444 30.8594 110.58 30.5176 112.006 30.5176C113.373 30.5176 114.734 30.8171 116.088 31.416L115.346 33.3203C114.076 32.7865 112.943 32.5195 111.947 32.5195C111.192 32.5195 110.619 32.6855 110.229 33.0176C109.838 33.3431 109.643 33.776 109.643 34.3164C109.643 34.6875 109.721 35.0065 109.877 35.2734C110.033 35.5339 110.29 35.7812 110.648 36.0156C111.007 36.25 111.651 36.5592 112.582 36.9434C113.63 37.3796 114.398 37.7865 114.887 38.1641C115.375 38.5417 115.733 38.9681 115.961 39.4434C116.189 39.9186 116.303 40.4785 116.303 41.123ZM122.846 43.3398C123.406 43.3398 123.965 43.252 124.525 43.0762V44.8047C124.271 44.9154 123.943 45.0065 123.539 45.0781C123.142 45.1562 122.729 45.1953 122.299 45.1953C120.124 45.1953 119.037 44.0495 119.037 41.7578V35.9375H117.562V34.9219L119.145 34.082L119.926 31.7969H121.342V34.1992H124.418V35.9375H121.342V41.7188C121.342 42.2721 121.479 42.6823 121.752 42.9492C122.032 43.2096 122.396 43.3398 122.846 43.3398ZM136.273 39.5801C136.273 41.3444 135.821 42.7214 134.916 43.7109C134.011 44.7005 132.751 45.1953 131.137 45.1953C130.128 45.1953 129.236 44.9674 128.461 44.5117C127.686 44.056 127.09 43.4017 126.674 42.5488C126.257 41.696 126.049 40.7064 126.049 39.5801C126.049 37.8288 126.498 36.4616 127.396 35.4785C128.295 34.4954 129.561 34.0039 131.195 34.0039C132.758 34.0039 133.995 34.5085 134.906 35.5176C135.818 36.5202 136.273 37.8743 136.273 39.5801ZM128.412 39.5801C128.412 42.0736 129.333 43.3203 131.176 43.3203C132.999 43.3203 133.91 42.0736 133.91 39.5801C133.91 37.1126 132.992 35.8789 131.156 35.8789C130.193 35.8789 129.493 36.1979 129.057 36.8359C128.627 37.474 128.412 38.3887 128.412 39.5801ZM144.398 34.0039C144.861 34.0039 145.242 34.0365 145.541 34.1016L145.316 36.2402C144.991 36.1621 144.652 36.123 144.301 36.123C143.383 36.123 142.637 36.4225 142.064 37.0215C141.498 37.6204 141.215 38.3984 141.215 39.3555V45H138.92V34.1992H140.717L141.02 36.1035H141.137C141.495 35.459 141.96 34.9479 142.533 34.5703C143.113 34.1927 143.734 34.0039 144.398 34.0039ZM152.27 45.1953C150.59 45.1953 149.275 44.707 148.324 43.7305C147.38 42.7474 146.908 41.3965 146.908 39.6777C146.908 37.9134 147.348 36.5267 148.227 35.5176C149.105 34.5085 150.313 34.0039 151.85 34.0039C153.275 34.0039 154.402 34.4368 155.229 35.3027C156.055 36.1686 156.469 37.36 156.469 38.877V40.1172H149.271C149.304 41.1654 149.587 41.9727 150.121 42.5391C150.655 43.099 151.407 43.3789 152.377 43.3789C153.015 43.3789 153.607 43.3203 154.154 43.2031C154.708 43.0794 155.3 42.8776 155.932 42.5977V44.4629C155.372 44.7298 154.805 44.9186 154.232 45.0293C153.66 45.14 153.005 45.1953 152.27 45.1953ZM151.85 35.7422C151.12 35.7422 150.535 35.9733 150.092 36.4355C149.656 36.8978 149.395 37.5716 149.311 38.457H154.213C154.2 37.5651 153.985 36.8913 153.568 36.4355C153.152 35.9733 152.579 35.7422 151.85 35.7422Z" fill="#110744"/>
<path d="M46.222 30.7212C45.2524 25.9179 49.884 23.1009 49.884 23.1009C49.884 23.1009 48.0795 20.531 45.0467 19.8699C42.0155 19.2073 40.4984 20.0351 38.9842 20.656C37.4685 21.2784 36.7123 21.2784 36.7123 21.2784C34.5251 21.2784 32.9262 18.9989 28.759 20.0366C25.8881 20.7498 22.8659 24.0121 22.3198 27.9056C21.7738 31.8006 22.9521 36.7706 25.224 40.6225C27.4959 44.4774 29.8103 45.9261 31.4529 45.9677C33.0956 46.0079 34.7353 44.8094 36.7123 44.5175C38.6908 44.2287 39.9084 45.2233 41.8491 45.7608C43.7821 46.2969 44.4598 45.7995 46.6864 43.9354C48.9189 42.0712 50.9398 36.7245 50.9398 36.7245C50.9398 36.7245 47.1916 35.5274 46.222 30.7212Z" fill="#70C250"/>
<path d="M41.6527 17.277C43.848 15.206 43.1044 12 43.1044 12C43.1044 12 40.0217 12.501 37.9563 14.4904C35.8924 16.4812 36.234 19.6257 36.234 19.6257C36.234 19.6257 39.4574 19.3466 41.6527 17.277Z" fill="#70C250"/>
</svg>
