<?xml version="1.0" encoding="UTF-8"?>
<svg width="40px" height="40px" viewBox="0 0 40 40" version="1.1" xmlns="http://www.w3.org/2000/svg" xmlns:xlink="http://www.w3.org/1999/xlink">
    <title>active_sm_1</title>
    <g id="Page-1" stroke="none" stroke-width="1" fill="none" fill-rule="evenodd">
        <g id="active_sm_1" fill="#FFFFFF" fill-rule="nonzero">
            <g id="facebook-(2)">
                <path d="M19.9999637,0 C23.7250115,0.0425075185 27.0902288,0.958014544 30.0956154,2.74652108 C33.0651573,4.49932156 35.535368,6.98464779 37.2700237,9.96483041 C39.0476458,12.9883203 39.9576379,16.3739311 40,20.121663 C39.894431,25.2494687 38.277086,29.6291152 35.1479651,33.2606024 C32.0188281,36.8920978 28.0111598,39.1387466 23.8624584,40 L23.8624584,25.6232443 L27.7847272,25.6232443 L28.671733,19.9735108 L22.7325147,19.9735108 L22.7325147,16.2730887 C22.6995441,15.5059625 22.9421425,14.7523562 23.4164454,14.1485307 C23.8914253,13.5430568 24.7278393,13.2248235 25.9256872,13.1938307 L29.5121771,13.1938307 L29.5121771,8.24479327 C29.4607216,8.22823686 28.9724245,8.16276452 28.0472857,8.04837625 C26.9980909,7.92561682 25.9429927,7.86004752 24.8866717,7.85195923 C22.4958829,7.86298966 20.6050808,8.53739027 19.2142654,9.87516107 C17.823423,11.2125552 17.112944,13.1474786 17.0828283,15.6799313 L17.0828283,19.9735108 L12.5630534,19.9735108 L12.5630534,25.6232443 L17.0828283,25.6232443 L17.0828283,40 C11.9888079,39.1387466 7.98113155,36.8920978 4.85199452,33.2606024 C1.72285749,29.6291071 0.105585171,25.2494579 0,20.121663 C0.0422437535,16.3737589 0.952214343,12.9881481 2.72991177,9.96483041 C4.46459866,6.98464997 6.93482931,4.49932603 9.90438457,2.74652108 C12.9096798,0.958358908 16.2748728,0.0428518832 19.9999637,0 L19.9999637,0 Z" id="Path"></path>
            </g>
        </g>
    </g>
</svg>