<?xml version="1.0" encoding="UTF-8"?>
<svg width="41px" height="41px" viewBox="0 0 41 41" version="1.1" xmlns="http://www.w3.org/2000/svg" xmlns:xlink="http://www.w3.org/1999/xlink">
    <title>active_sm_3</title>
    <g id="Page-1" stroke="none" stroke-width="1" fill="none" fill-rule="evenodd">
        <g id="active_sm_3" transform="translate(0.000000, 0.046640)" fill="#FFFFFF" fill-rule="nonzero">
            <g id="instagram">
                <circle id="Oval" cx="20.0793189" cy="20.0793189" r="4.10713342"></circle>
                <path d="M20.0793189,0 C8.98983235,0 0,8.98983235 0,20.0793189 C0,31.1688055 8.98983235,40.1586378 20.0793189,40.1586378 C31.1688055,40.1586378 40.1586378,31.1688055 40.1586378,20.0793189 C40.1586378,8.98983235 31.1688055,0 20.0793189,0 Z M32.4849647,25.1826786 C32.388584,27.0916596 31.8521449,28.9741359 30.4609693,30.3505331 C29.0563005,31.740022 27.164909,32.2577471 25.2375353,32.353164 L14.9211828,32.353164 C12.9935682,32.2577471 11.1024177,31.7403432 9.69774882,30.3505331 C8.30649297,28.9741359 7.7701342,27.0916596 7.67375347,25.1826786 L7.67375347,14.9759592 C7.7701342,13.0669782 8.30657328,11.1845019 9.69774882,9.80802444 C11.1024177,8.41853557 12.9938092,7.90081041 14.9211828,7.8054738 L25.237455,7.8054738 C27.1650696,7.90081041 29.0562202,8.41829462 30.460889,9.80802444 C31.8521449,11.1845019 32.3885036,13.0669782 32.4849647,14.9759592 L32.4849647,25.1826786 Z" id="Shape"></path>
                <path d="M25.0739847,10.0915489 C22.5847849,10.022363 17.6025662,10.022363 15.1133664,10.0915489 C13.8180055,10.1275933 12.349516,10.4544121 11.4265883,11.4534955 C10.467539,12.4920101 10.1051308,13.7467105 10.0683728,15.1503461 C10.0037678,17.6139455 10.0683728,25.0082917 10.0683728,25.0082917 C10.1104615,26.4117661 10.467539,27.6666277 11.4265883,28.7051423 C12.349516,29.7045483 13.8180055,30.0310445 15.1133664,30.0670889 C17.6025662,30.1362749 22.5847849,30.1362749 25.0739847,30.0670889 C26.3693457,30.0310445 27.8378351,29.7042257 28.7607629,28.7051423 C29.7198121,27.6666277 30.0822204,26.4119273 30.1189784,25.0082917 L30.1189784,15.1503461 C30.0822204,13.7467105 29.7198121,12.4920101 28.7607629,11.4534955 C27.8375169,10.4540896 26.3690274,10.1275933 25.0739847,10.0915489 Z M20.0933573,26.6410956 C16.5176351,26.6410956 13.6189395,23.7032881 13.6189395,20.0793189 C13.6189395,16.4553497 16.5176351,13.5175422 20.0933573,13.5175422 C23.6690795,13.5175422 26.5677751,16.4553497 26.5677751,20.0793189 C26.5677751,21.8196103 25.8856509,23.4886239 24.6714621,24.7191957 C23.4572732,25.9497676 21.8104797,26.6410956 20.0933573,26.6410956 Z M26.5953038,14.8719897 C25.8802008,14.8718116 25.3006214,14.2841712 25.3007385,13.5594194 C25.3008557,12.8346675 25.8806251,12.2472197 26.5957281,12.2472791 C27.3108312,12.2473384 27.8905056,12.8348825 27.8905056,13.5596344 C27.8905056,13.9077485 27.7540371,14.2416001 27.5111305,14.4877238 C27.2682239,14.7338474 26.9387834,14.8720753 26.5953038,14.8719897 L26.5953038,14.8719897 Z" id="Shape"></path>
            </g>
        </g>
    </g>
</svg>