<?xml version="1.0" encoding="UTF-8"?>
<svg width="41px" height="40px" viewBox="0 0 41 40" version="1.1" xmlns="http://www.w3.org/2000/svg" xmlns:xlink="http://www.w3.org/1999/xlink">
    <title>active_sm_4</title>
    <g id="Page-1" stroke="none" stroke-width="1" fill="none" fill-rule="evenodd">
        <g id="active_sm_4" transform="translate(0.158638, 0.000000)" fill="#FFFFFF" fill-rule="nonzero">
            <path d="M20,0 C8.95432558,0 0,8.95432558 0,20 C0,31.0456744 8.95432558,40 20,40 C31.0456744,40 40,31.0456744 40,20 C40,8.95432558 31.0456744,0 20,0 Z M29.5169302,15.196093 C29.5262326,15.4030698 29.5293953,15.6124651 29.5293953,15.8217674 C29.5293953,22.2083721 24.5922791,29.5718273 15.5611163,29.5718273 C12.8971816,29.5754766 10.2869537,28.8227247 8.03404651,27.4011163 C8.42294301,27.4460191 8.8141012,27.4685058 9.2055814,27.4684651 C11.4114755,27.4736906 13.5566208,26.7460446 15.304093,25.399814 C13.2171616,25.3700044 11.3773245,24.0236638 10.7175814,22.0435349 C11.4539314,22.1823109 12.2120421,22.1540184 12.936,21.9607442 C10.6894884,21.515907 8.99683721,19.5621395 8.99683721,17.2212093 L8.99683721,17.1605581 C9.68032807,17.53406 10.442228,17.7412106 11.2207442,17.7652093 C9.86090844,16.8787757 9.03942339,15.3666808 9.03581395,13.7434419 C9.03499,12.8883448 9.26479555,12.0488524 9.70102326,11.3133953 C12.2151439,14.3432569 15.8877929,16.1758339 19.8204651,16.3627907 C19.7363768,16.0017941 19.6940218,15.6323351 19.6942326,15.2616744 C19.6942326,12.5923721 21.8924651,10.4285376 24.6032558,10.4285376 C25.9564542,10.424658 27.2518949,10.9765655 28.1865116,11.9551628 C29.2848694,11.7425067 30.3393615,11.3456568 31.3053953,10.7813953 C30.9353798,11.9059245 30.1675662,12.8566941 29.1461395,13.4551628 C30.1185174,13.3423774 31.0687926,13.0860072 31.9659535,12.6944186 C31.305098,13.6674936 30.4757302,14.5146918 29.5169302,15.196093 L29.5169302,15.196093 Z" id="Shape"></path>
        </g>
    </g>
</svg>