<?xml version="1.0" encoding="UTF-8"?>
<svg width="41px" height="40px" viewBox="0 0 41 40" version="1.1" xmlns="http://www.w3.org/2000/svg" xmlns:xlink="http://www.w3.org/1999/xlink">
    <title>active_sm_5</title>
    <g id="Page-1" stroke="none" stroke-width="1" fill="none" fill-rule="evenodd">
        <g id="active_sm_5" transform="translate(0.158638, 0.000000)" fill="#FFFFFF" fill-rule="nonzero">
            <path d="M20,0 C8.954305,0 0,8.954305 0,20 C0,31.045695 8.954305,40 20,40 C31.045695,40 40,31.045695 40,20 C40,8.954305 31.045695,0 20,0 Z M29.0157895,17.7710526 C27.2315789,17.9684211 25.7026316,17.2631579 24.1736842,16.3631579 C24.1736842,16.5105263 24.2184211,21.0789474 24.1421053,23.2578947 C24.0657895,25.4973684 23.2657895,27.4684211 21.5105263,28.9394737 C17.7894737,32.0631579 12.5078947,30.3763158 11.2473684,25.6 C10.5631579,22.9973684 11.1578947,20.6526316 13.2,18.7973684 C14.35,17.7447368 15.7684211,17.2763158 17.2894737,17.0815789 C17.6157895,17.0394737 17.9447368,17.0210526 18.2973684,16.9894737 L18.2973684,20.5263158 C17.85,20.6368421 17.3973684,20.7342105 16.9526316,20.8657895 C16.6441008,20.9548922 16.3431507,21.0684084 16.0526316,21.2052632 C15.2311427,21.5747072 14.6284439,22.305503 14.422139,23.182299 C14.2158341,24.0590949 14.4294359,24.9819614 15,25.6789474 C15.6900075,26.6330297 16.8535096,27.1239931 18.0184211,26.9526316 C19.1684211,26.8131579 19.8894737,26.0894737 20.3157895,25.05 C20.6105623,24.2273489 20.7384907,23.3542153 20.6921053,22.4815789 C20.6763158,18.1868421 20.6763158,13.8947368 20.6684211,9.6 C20.6720942,9.55583018 20.6782442,9.51190141 20.6868421,9.46842105 L24.1210526,9.46842105 C24.5052632,12.3421053 25.9631579,14.1631579 29.0157895,14.4210526 L29.0157895,17.7710526 Z" id="_77.TikTok"></path>
        </g>
    </g>
</svg>