<?xml version="1.0" encoding="UTF-8"?>
<svg width="40px" height="40px" viewBox="0 0 40 40" version="1.1" xmlns="http://www.w3.org/2000/svg" xmlns:xlink="http://www.w3.org/1999/xlink">
    <title>active_sm_2</title>
    <g id="Page-1" stroke="none" stroke-width="1" fill="none" fill-rule="evenodd">
        <g id="active_sm_2" fill="#FFFFFF" fill-rule="nonzero">
            <path d="M20,0 C8.95432558,0 0,8.95432558 0,20 C0,31.0456744 8.95432558,40 20,40 C31.0456744,40 40,31.0456744 40,20 C40,8.95432558 31.0456744,0 20,0 Z M14.472,30.3650233 L9.6347907,30.3650233 L9.6347907,16.5450233 L14.472,16.5450233 L14.472,30.3650233 Z M12.0533953,14.472 C10.7176369,14.472 9.6347907,13.3891538 9.6347907,12.0533953 C9.6347907,10.7176369 10.7176369,9.6347907 12.0533953,9.6347907 C13.3891538,9.6347907 14.472,10.7176369 14.472,12.0533953 C14.472,13.3891175 13.3892105,14.4719486 12.0534884,14.472 L12.0533953,14.472 Z M30.3650233,30.3650233 L26.2190698,30.3650233 L26.2190698,23.6312558 C26.2190698,22.0252093 26.0408372,19.9594419 23.8396279,19.9594419 C21.6046512,19.9594419 21.2628837,21.7088372 21.2628837,23.5148837 L21.2628837,30.3650233 L17.236,30.3650233 L17.236,16.5450233 L21.0891163,16.5450233 L21.0891163,18.4101395 L21.1484651,18.4101395 C21.7221395,17.3212093 23.1243721,16.5450233 25.2135814,16.5450233 C29.5606512,16.5450233 30.3650233,19.0408372 30.3650233,22.7701395 L30.3650233,30.3650233 Z" id="Shape"></path>
        </g>
    </g>
</svg>