<svg width="161" height="161" viewBox="0 0 161 161" fill="none" xmlns="http://www.w3.org/2000/svg">
<path d="M72.1989 153.478C63.2291 153.493 54.3447 151.735 46.056 148.307C37.7672 144.878 30.2374 139.846 23.8989 133.499C17.1228 126.725 11.7476 118.682 8.08025 109.829C4.41295 100.977 2.52539 91.4893 2.52539 81.9075C2.52539 72.3258 4.41295 62.8378 8.08025 53.9856C11.7476 45.1334 17.1228 37.0904 23.8989 30.3158C38.5261 15.7228 58.3443 7.52734 79.0062 7.52734C99.668 7.52734 119.486 15.7228 134.113 30.3158C149.052 45.2945 157.737 65.3923 158.409 86.5363C159.081 107.68 151.689 128.289 137.731 144.186L133.957 140.86C147.069 125.922 154.011 106.558 153.377 86.6923C152.744 66.8265 144.581 47.9446 130.544 33.8729C116.861 20.2219 98.3218 12.5554 78.9936 12.5554C59.6655 12.5554 41.1265 20.2219 27.4434 33.8729C21.1343 40.1803 16.1296 47.6688 12.715 55.9107C9.30046 64.1525 7.54299 72.9864 7.54299 81.9075C7.54299 90.8287 9.30046 99.6625 12.715 107.904C16.1296 116.146 21.1343 123.635 27.4434 129.942C39.3127 141.811 55.4108 148.479 72.1964 148.479C88.982 148.479 105.08 141.811 116.949 129.942C127.988 118.878 134.188 103.886 134.188 88.257C134.188 72.6275 127.988 57.6361 116.949 46.5718C106.645 36.291 92.6831 30.5172 78.127 30.5172C63.5709 30.5172 49.6091 36.291 39.3046 46.5718C29.7193 56.1589 24.3345 69.1607 24.3345 82.7176C24.3345 96.2745 29.7193 109.276 39.3046 118.863C46.7274 126.283 56.3937 131.043 66.8008 132.402C77.2078 133.762 87.7724 131.645 96.852 126.38L99.3828 130.732C89.3444 136.553 77.6645 138.894 66.1583 137.393C54.652 135.892 43.9639 130.632 35.7551 122.43C25.2259 111.9 19.3108 97.6189 19.3108 82.7276C19.3108 67.8364 25.2259 53.555 35.7551 43.0248C47.0034 31.8013 62.2445 25.4981 78.1345 25.4981C94.0245 25.4981 109.266 31.8013 120.514 43.0248C132.496 55.0329 139.225 71.3036 139.225 88.267C139.225 105.23 132.496 121.501 120.514 133.509C114.173 139.856 106.64 144.887 98.3488 148.314C90.0574 151.741 81.1706 153.496 72.1989 153.478Z" fill="#8F9DB3"/>
<path d="M77.9844 77.9844C81.4577 77.9844 84.2734 75.1687 84.2734 71.6953C84.2734 68.222 81.4577 65.4062 77.9844 65.4062C74.511 65.4062 71.6953 68.222 71.6953 71.6953C71.6953 75.1687 74.511 77.9844 77.9844 77.9844Z" fill="#7562E0"/>
<path d="M104.65 127.213L101.611 123.188C103.368 121.857 105.031 120.408 106.59 118.851L110.147 122.408C108.426 124.133 106.59 125.738 104.65 127.213Z" fill="#8F9DB3"/>
<path d="M109.95 73.7908C109.249 73.7965 108.564 73.5787 107.994 73.1689C107.425 72.7591 107.001 72.1787 106.783 71.5117C106.243 69.7838 105.547 68.1083 104.705 66.5056C104.384 65.8797 104.271 65.1676 104.383 64.473C104.495 63.7784 104.825 63.1377 105.327 62.6441C105.629 62.342 105.869 61.9834 106.032 61.5887C106.196 61.1939 106.28 60.7708 106.28 60.3436C106.28 59.9163 106.196 59.4932 106.032 59.0985C105.869 58.7037 105.629 58.3451 105.327 58.043L100.439 53.1552C100.137 52.853 99.7781 52.6132 99.3834 52.4497C98.9887 52.2861 98.5656 52.2019 98.1383 52.2019C97.711 52.2019 97.2879 52.2861 96.8932 52.4497C96.4985 52.6132 96.1398 52.853 95.8378 53.1552C95.3442 53.6565 94.7034 53.9871 94.0089 54.0988C93.3143 54.2106 92.6022 54.0977 91.9763 53.7765C90.3736 52.9346 88.698 52.2391 86.9702 51.6986C86.3032 51.4812 85.7227 51.057 85.3129 50.4875C84.9032 49.9181 84.6853 49.233 84.691 48.5314C84.6904 47.6692 84.3474 46.8425 83.7374 46.2331C83.1275 45.6236 82.3006 45.2813 81.4383 45.2813H74.5304C74.1031 45.2809 73.6798 45.3648 73.2849 45.5281C72.89 45.6914 72.5311 45.931 72.2288 46.2331C71.9265 46.5351 71.6867 46.8938 71.523 47.2886C71.3594 47.6834 71.2752 48.1066 71.2752 48.534V48.6044C71.2821 49.2855 71.0714 49.951 70.6736 50.504C70.2759 51.057 69.7119 51.4684 69.064 51.6785C67.3121 52.2223 65.6136 52.9254 63.99 53.779C63.364 54.1002 62.6519 54.2131 61.9574 54.1013C61.2628 53.9896 60.622 53.659 60.1285 53.1577C59.8264 52.8555 59.4678 52.6157 59.073 52.4522C58.6783 52.2886 58.2552 52.2045 57.8279 52.2045C57.4007 52.2045 56.9776 52.2886 56.5828 52.4522C56.1881 52.6157 55.8295 52.8555 55.5274 53.1577L50.6395 58.0455C50.3373 58.3476 50.0976 58.7062 49.9341 59.101C49.7705 59.4957 49.6863 59.9188 49.6863 60.3461C49.6863 60.7734 49.7705 61.1964 49.9341 61.5912C50.0976 61.9859 50.3373 62.3445 50.6395 62.6466C51.1408 63.1402 51.4714 63.7809 51.5832 64.4755C51.695 65.1701 51.582 65.8822 51.2609 66.5081C50.4189 68.1108 49.7235 69.7863 49.183 71.5142C48.9655 72.1812 48.5414 72.7617 47.9719 73.1714C47.4025 73.5812 46.7173 73.799 46.0158 73.7933C45.1536 73.794 44.3269 74.137 43.7174 74.7469C43.108 75.3569 42.7656 76.1838 42.7656 77.046V83.954C42.7653 84.3813 42.8492 84.8046 43.0125 85.1995C43.1758 85.5944 43.4154 85.9533 43.7174 86.2556C44.0195 86.5579 44.3782 86.7977 44.773 86.9613C45.1678 87.125 45.591 87.2092 46.0183 87.2092C46.7196 87.2033 47.4044 87.4208 47.9739 87.8301C48.5433 88.2394 48.9676 88.8193 49.1855 89.4858C49.7255 91.2146 50.421 92.891 51.2634 94.4944C51.5846 95.1203 51.6975 95.8325 51.5857 96.527C51.474 97.2216 51.1433 97.8623 50.642 98.3559C50.3398 98.658 50.1001 99.0166 49.9366 99.4113C49.773 99.8061 49.6888 100.229 49.6888 100.656C49.6888 101.084 49.773 101.507 49.9366 101.902C50.1001 102.296 50.3398 102.655 50.642 102.957L55.5299 107.845C55.832 108.147 56.1906 108.387 56.5853 108.55C56.9801 108.714 57.4032 108.798 57.8304 108.798C58.2577 108.798 58.6808 108.714 59.0756 108.55C59.4703 108.387 59.8289 108.147 60.131 107.845C60.6246 107.344 61.2653 107.013 61.9599 106.901C62.6544 106.789 63.3665 106.902 63.9925 107.223C65.5952 108.065 67.2707 108.761 68.9986 109.301C69.6656 109.519 70.246 109.943 70.6558 110.512C71.0656 111.082 71.2834 111.767 71.2777 112.469C71.2784 113.331 71.6214 114.157 72.2313 114.767C72.8412 115.376 73.6682 115.719 74.5304 115.719H81.4383C81.8657 115.719 82.2889 115.635 82.6839 115.472C83.0788 115.309 83.4377 115.069 83.74 114.767C84.0423 114.465 84.2821 114.106 84.4457 113.711C84.6093 113.317 84.6935 112.893 84.6935 112.466C84.6879 111.765 84.9057 111.079 85.3155 110.51C85.7252 109.94 86.3057 109.516 86.9727 109.299C88.7006 108.758 90.3761 108.063 91.9788 107.221C92.6047 106.9 93.3168 106.787 94.0114 106.899C94.706 107.01 95.3467 107.341 95.8403 107.842C96.1423 108.145 96.501 108.384 96.8957 108.548C97.2905 108.711 97.7135 108.796 98.1408 108.796C98.5681 108.796 98.9912 108.711 99.3859 108.548C99.7807 108.384 100.139 108.145 100.441 107.842L105.329 102.954C105.631 102.652 105.871 102.294 106.035 101.899C106.198 101.504 106.282 101.081 106.282 100.654C106.282 100.227 106.198 99.8036 106.035 99.4088C105.871 99.0141 105.631 98.6555 105.329 98.3534C104.828 97.8598 104.497 97.2191 104.386 96.5245C104.274 95.8299 104.387 95.1178 104.708 94.4919C105.561 92.8682 106.265 91.1698 106.808 89.4179C107.018 88.7699 107.43 88.206 107.983 87.8082C108.536 87.4105 109.201 87.1997 109.882 87.2067H109.953C110.815 87.206 111.642 86.863 112.251 86.2531C112.861 85.6431 113.203 84.8162 113.203 83.954V77.046C113.203 76.6187 113.12 76.1954 112.956 75.8005C112.793 75.4056 112.553 75.0467 112.251 74.7444C111.949 74.4421 111.591 74.2023 111.196 74.0387C110.801 73.875 110.378 73.7908 109.95 73.7908ZM77.9844 100.625C74.004 100.625 70.1131 99.4447 66.8035 97.2333C63.494 95.022 60.9145 91.8789 59.3913 88.2015C57.8681 84.5241 57.4695 80.4777 58.2461 76.5738C59.0226 72.6699 60.9393 69.084 63.7539 66.2695C66.5684 63.4549 70.1543 61.5382 74.0582 60.7617C77.9621 59.9852 82.0085 60.3837 85.6859 61.9069C89.3632 63.4301 92.5063 66.0096 94.7177 69.3192C96.9291 72.6287 98.1094 76.5197 98.1094 80.5C98.1094 85.8375 95.9891 90.9564 92.2149 94.7305C88.4407 98.5047 83.3219 100.625 77.9844 100.625Z" fill="#70C250"/>
<path d="M138.359 147.164C143.222 147.164 147.164 143.222 147.164 138.359C147.164 133.497 143.222 129.555 138.359 129.555C133.497 129.555 129.555 133.497 129.555 138.359C129.555 143.222 133.497 147.164 138.359 147.164Z" fill="#7562E0"/>
<path d="M33.9609 147.164C38.8236 147.164 42.7656 143.222 42.7656 138.359C42.7656 133.497 38.8236 129.555 33.9609 129.555C29.0982 129.555 25.1562 133.497 25.1562 138.359C25.1562 143.222 29.0982 147.164 33.9609 147.164Z" fill="#70C250"/>
<path d="M37.7344 31.4453C42.5971 31.4453 46.5391 27.5033 46.5391 22.6406C46.5391 17.7779 42.5971 13.8359 37.7344 13.8359C32.8717 13.8359 28.9297 17.7779 28.9297 22.6406C28.9297 27.5033 32.8717 31.4453 37.7344 31.4453Z" fill="#7562E0"/>
<path d="M133.957 79.2422C138.82 79.2422 142.762 75.3002 142.762 70.4375C142.762 65.5748 138.82 61.6328 133.957 61.6328C129.094 61.6328 125.152 65.5748 125.152 70.4375C125.152 75.3002 129.094 79.2422 133.957 79.2422Z" fill="#70C250"/>
<path d="M83.0156 77.9844H72.9531C71.6188 77.9844 70.339 78.5145 69.3955 79.458C68.452 80.4015 67.9219 81.6813 67.9219 83.0156V91.7272C70.6823 94.2164 74.2674 95.5941 77.9844 95.5941C81.7014 95.5941 85.2864 94.2164 88.0469 91.7272V83.0156C88.0469 81.6813 87.5168 80.4015 86.5733 79.458C85.6297 78.5145 84.35 77.9844 83.0156 77.9844Z" fill="#7562E0"/>
</svg>
