<svg width="147" height="147" viewBox="0 0 147 147" fill="none" xmlns="http://www.w3.org/2000/svg">
<g clip-path="url(#clip0)">
<path d="M131.556 71.2817H78.8558L116.121 34.0166C116.987 33.1504 116.987 31.7459 116.121 30.8794C115.254 30.0132 113.85 30.0129 112.983 30.8794L75.7182 68.1447V15.4438C75.7182 14.2187 74.7251 13.2256 73.5 13.2256C72.2749 13.2256 71.2818 14.2187 71.2818 15.4438V68.1447L34.0164 30.8794C33.1502 30.0129 31.7457 30.0129 30.8792 30.8794C30.0127 31.7456 30.0127 33.1501 30.8792 34.0166L68.1443 71.2817H15.4448C14.2197 71.2817 13.2266 72.2748 13.2266 73.4999C13.2266 74.725 14.2197 75.7181 15.4448 75.7181H68.1446L30.8803 112.983C30.0138 113.849 30.0138 115.253 30.8803 116.12C31.3136 116.553 31.8812 116.77 32.4488 116.77C33.0164 116.77 33.5843 116.553 34.0173 116.12L71.2815 78.8556V131.555C71.2815 132.78 72.2746 133.773 73.4997 133.773C74.7248 133.773 75.7179 132.78 75.7179 131.555V78.8556L112.982 116.12C113.415 116.553 113.983 116.77 114.551 116.77C115.118 116.77 115.686 116.553 116.119 116.12C116.986 115.254 116.986 113.849 116.119 112.983L78.8552 75.7181H131.556C132.781 75.7181 133.774 74.725 133.774 73.4999C133.775 72.2748 132.781 71.2817 131.556 71.2817Z" fill="#024C67"/>
<path d="M73.4989 108.615C92.8929 108.615 108.615 92.8934 108.615 73.4994C108.615 54.1053 92.8929 38.3833 73.4989 38.3833C54.1048 38.3833 38.3828 54.1053 38.3828 73.4994C38.3828 92.8934 54.1048 108.615 73.4989 108.615Z" fill="#E8E3FF"/>
<path d="M73.4997 20.7729C79.236 20.7729 83.8862 16.1228 83.8862 10.3865C83.8862 4.65018 79.236 0 73.4997 0C67.7635 0 63.1133 4.65018 63.1133 10.3865C63.1133 16.1228 67.7635 20.7729 73.4997 20.7729Z" fill="#9446CE"/>
<path d="M73.4997 146.999C79.236 146.999 83.8862 142.349 83.8862 136.613C83.8862 130.876 79.236 126.226 73.4997 126.226C67.7635 126.226 63.1133 130.876 63.1133 136.613C63.1133 142.349 67.7635 146.999 73.4997 146.999Z" fill="#9446CE"/>
<path d="M136.613 83.8862C142.349 83.8862 147 79.236 147 73.4997C147 67.7635 142.349 63.1133 136.613 63.1133C130.877 63.1133 126.227 67.7635 126.227 73.4997C126.227 79.236 130.877 83.8862 136.613 83.8862Z" fill="#7562E0"/>
<path d="M10.3865 83.8862C16.1228 83.8862 20.7729 79.236 20.7729 73.4998C20.7729 67.7635 16.1228 63.1133 10.3865 63.1133C4.65018 63.1133 0 67.7635 0 73.4998C0 79.236 4.65018 83.8862 10.3865 83.8862Z" fill="#7562E0"/>
<path d="M118.127 39.2588C123.863 39.2588 128.513 34.6086 128.513 28.8723C128.513 23.136 123.863 18.4858 118.127 18.4858C112.39 18.4858 107.74 23.136 107.74 28.8723C107.74 34.6086 112.39 39.2588 118.127 39.2588Z" fill="#70C250"/>
<path d="M28.8728 128.514C34.6091 128.514 39.2593 123.863 39.2593 118.127C39.2593 112.391 34.6091 107.741 28.8728 107.741C23.1365 107.741 18.4863 112.391 18.4863 118.127C18.4863 123.863 23.1365 128.514 28.8728 128.514Z" fill="#70C250"/>
<path d="M28.8708 39.2588C34.6071 39.2588 39.2573 34.6086 39.2573 28.8723C39.2573 23.136 34.6071 18.4858 28.8708 18.4858C23.1346 18.4858 18.4844 23.136 18.4844 28.8723C18.4844 34.6086 23.1346 39.2588 28.8708 39.2588Z" fill="#70C250"/>
<path d="M118.127 128.514C123.863 128.514 128.513 123.863 128.513 118.127C128.513 112.391 123.863 107.741 118.127 107.741C112.39 107.741 107.74 112.391 107.74 118.127C107.74 123.863 112.39 128.514 118.127 128.514Z" fill="#70C250"/>
<path d="M73.5003 36.165C52.9143 36.165 36.166 52.9133 36.166 73.4993C36.166 94.0853 52.9143 110.834 73.5003 110.834C94.0866 110.834 110.835 94.0856 110.835 73.4993C110.835 52.9133 94.0866 36.165 73.5003 36.165ZM106.321 71.2817H91.5247C91.3803 65.9911 90.724 60.905 89.6031 56.3069C92.4561 54.9414 95.1415 53.2061 97.596 51.1275C102.583 56.4947 105.802 63.524 106.321 71.2817ZM88.3599 95.0265C90.4759 96.0994 92.4822 97.4058 94.3427 98.9329C91.1693 101.538 87.5015 103.561 83.504 104.84C84.6726 103.263 85.753 101.393 86.7228 99.2421C87.3215 97.9157 87.867 96.5054 88.3599 95.0265ZM82.6786 97.4178C80.1047 103.124 76.7593 106.397 73.5003 106.397C70.2413 106.397 66.8959 103.124 64.322 97.4178C63.7394 96.1264 63.2129 94.7422 62.7394 93.2866C66.1615 92.1043 69.79 91.4881 73.5003 91.4881C77.2106 91.4881 80.8391 92.1043 84.2612 93.2866C83.7877 94.7422 83.2612 96.1264 82.6786 97.4178ZM60.2778 99.2421C61.2479 101.393 62.328 103.263 63.4965 104.84C59.4988 103.561 55.831 101.538 52.6579 98.9326C54.5186 97.4055 56.5247 96.0991 58.6407 95.0262C59.1336 96.5054 59.6794 97.9157 60.2778 99.2421ZM73.5003 87.0517C69.386 87.0517 65.361 87.7213 61.556 89.0038C60.6099 84.9185 60.0489 80.4161 59.9143 75.7178L87.086 75.7181C86.9514 80.4161 86.3906 84.9185 85.4446 89.0038C81.6396 87.7213 77.6146 87.0517 73.5003 87.0517ZM59.9143 71.2814C60.0489 66.5831 60.6097 62.0807 61.556 57.9951C65.361 59.2776 69.386 59.9472 73.5003 59.9472C77.6146 59.9472 81.6396 59.2773 85.4446 57.9951C86.3906 62.0807 86.9517 66.5831 87.0863 71.2817L59.9143 71.2814ZM58.6407 51.9721C56.5247 50.8992 54.5183 49.5929 52.6579 48.0657C55.8313 45.4605 59.4988 43.4375 63.4965 42.1584C62.328 43.735 61.2479 45.6058 60.2778 47.7562C59.6794 49.0832 59.1336 50.4932 58.6407 51.9721ZM64.322 49.5808C66.8959 43.8745 70.2413 40.6017 73.5003 40.6017C76.7593 40.6017 80.1047 43.8745 82.6786 49.5808C83.2612 50.8722 83.7874 52.2564 84.2612 53.712C80.8391 54.8943 77.2106 55.5105 73.5003 55.5105C69.79 55.5105 66.1615 54.8943 62.7394 53.712C63.2132 52.2564 63.7394 50.8725 64.322 49.5808ZM86.7228 47.7565C85.7527 45.6061 84.6726 43.7353 83.504 42.1587C87.5018 43.4378 91.1696 45.4608 94.3427 48.0657C92.4819 49.5929 90.4759 50.8992 88.3599 51.9721C87.867 50.4932 87.3215 49.0832 86.7228 47.7565ZM49.4046 51.1275C51.8591 53.2058 54.5445 54.9411 57.3975 56.3069C56.2766 60.905 55.62 65.9908 55.4758 71.2814H40.6791C41.1982 63.5237 44.4178 56.4947 49.4046 51.1275ZM40.6791 75.7178H55.4758C55.6203 81.0081 56.2766 86.0939 57.3975 90.692C54.5445 92.0575 51.8591 93.7931 49.4046 95.8714C44.4178 90.5042 41.1982 83.4752 40.6791 75.7178ZM97.596 95.8714C95.1415 93.7931 92.4561 92.0575 89.6031 90.692C90.724 86.0942 91.3806 81.0084 91.5247 75.7181H106.321C105.802 83.4755 102.583 90.5042 97.596 95.8714Z" fill="#7562E0"/>
<path d="M95.4992 132.711C95.0318 131.578 95.5733 130.283 96.7059 129.815C97.8357 129.348 99.1343 129.886 99.6017 131.019C100.069 132.152 99.5276 133.448 98.3979 133.915C98.1199 134.031 97.8331 134.084 97.552 134.084C96.6792 134.084 95.8541 133.566 95.4992 132.711ZM48.3998 133.832C47.27 133.362 46.7345 132.064 47.2048 130.933C47.678 129.801 48.9766 129.265 50.1063 129.739C51.2364 130.209 51.7716 131.507 51.3013 132.637C50.9464 133.489 50.1213 134.004 49.2516 134.004C48.968 134.004 48.6808 133.95 48.3998 133.832ZM130.918 99.824C129.785 99.3537 129.253 98.0523 129.723 96.9225C130.196 95.7927 131.495 95.2573 132.625 95.7304C133.755 96.2007 134.29 97.4993 133.82 98.6319C133.465 99.4838 132.639 99.9954 131.77 99.9954C131.486 99.9957 131.196 99.9394 130.918 99.824ZM13.0962 98.431C12.6288 97.298 13.1671 95.9997 14.3001 95.5323C15.433 95.0649 16.7284 95.6032 17.1959 96.7362C17.6633 97.8691 17.1249 99.1645 15.992 99.6348C15.717 99.7471 15.4301 99.8033 15.1462 99.8033C14.2765 99.8033 13.4482 99.2857 13.0962 98.431ZM129.777 50.1989C129.306 49.0691 129.845 47.7705 130.977 47.3002C132.107 46.8328 133.406 47.3683 133.873 48.5012H133.876C134.344 49.6341 133.805 50.9296 132.675 51.3999C132.397 51.5153 132.11 51.5687 131.826 51.5687C130.957 51.5684 130.128 51.0536 129.777 50.1989ZM14.3474 51.3347C13.2177 50.8644 12.6793 49.5661 13.1496 48.436C13.6228 47.3031 14.9214 46.7679 16.0512 47.2382C17.1809 47.7085 17.7193 49.0068 17.249 50.1369C16.8941 50.9916 16.0687 51.5064 15.1993 51.5064C14.9153 51.5064 14.6254 51.4501 14.3474 51.3347ZM96.8271 17.235C95.6973 16.7647 95.1618 15.4693 95.6293 14.3363C96.0995 13.2034 97.3978 12.6682 98.5308 13.1385C99.6606 13.6088 100.199 14.9042 99.7286 16.0372C99.3737 16.8919 98.5486 17.4067 97.6789 17.4067C97.395 17.4064 97.1053 17.3501 96.8271 17.235ZM47.3323 16.0073C46.8649 14.8775 47.4032 13.5789 48.5361 13.1115C49.6662 12.6412 50.9645 13.1796 51.4319 14.3125C51.9022 15.4423 51.3639 16.7409 50.2309 17.2112C49.953 17.3234 49.6662 17.3797 49.3851 17.3797C48.5123 17.3797 47.6872 16.8623 47.3323 16.0073Z" fill="#63ACBC"/>
</g>
<defs>
<clipPath id="clip0">
<rect width="147" height="147" fill="white"/>
</clipPath>
</defs>
</svg>
