<svg width="135" height="135" viewBox="0 0 135 135" fill="none" xmlns="http://www.w3.org/2000/svg">
<path d="M67.5 0C30.4016 0 0 30.4016 0 67.5C0 104.598 30.4016 135 67.5 135C104.598 135 135 104.598 135 67.5C135 30.4016 104.598 0 67.5 0Z" fill="#F4F4F4"/>
<path d="M135 67.5C135 104.598 104.598 135 67.5 135V0C104.598 0 135 30.4016 135 67.5Z" fill="#F4F4F4"/>
<path d="M67.5008 16.084C63.625 16.084 59.7493 16.5588 55.7942 17.4281C36.7305 21.6211 21.6219 36.7297 17.4289 55.7924C10.0729 88.6195 34.5943 118.837 67.5008 118.916H67.5801C92.3385 118.916 112.509 101.909 117.572 79.2066C125.087 45.8264 99.6162 16.084 67.5008 16.084Z" fill="#FCFCFC"/>
<path d="M117.572 79.2066C112.509 101.909 92.3377 118.916 67.5793 118.916H67.5V16.084C99.6154 16.084 125.087 45.8264 117.572 79.2066Z" fill="#FCFCFC"/>
<path d="M95.1855 55.6348V47.7246H85.6141C82.5293 40.7641 75.5688 35.8594 67.5 35.8594H47.7246V47.7246H39.8145V55.6348H47.7246V59.5898H39.8145V67.5H47.7246V99.1406H55.6348V79.3652H67.5C75.5688 79.3652 82.5293 74.4605 85.6141 67.5H95.1855V59.5898H87.2754V55.6348H95.1855ZM55.6348 43.7695H67.5C70.9803 43.7695 74.1443 45.3516 76.2805 47.7246H55.6348V43.7695ZM67.5 71.4551H55.6348V67.5H76.2805C74.1443 69.873 70.9803 71.4551 67.5 71.4551ZM79.3652 59.5898H55.6348V55.6348H79.3652V59.5898Z" fill="#F4F4F4"/>
<path d="M87.2754 55.6348V59.5898H95.1855V67.5H85.6141C82.5293 74.4605 75.5688 79.3652 67.5 79.3652V71.4551C70.9803 71.4551 74.1443 69.873 76.2805 67.5H67.5V59.5898H79.3652V55.6348H67.5V47.7246H76.2805C74.1443 45.3516 70.9803 43.7695 67.5 43.7695V35.8594C75.5688 35.8594 82.5293 40.7641 85.6141 47.7246H95.1855V55.6348H87.2754Z" fill="#F4F4F4"/>
</svg>
