<svg width="159" height="158" viewBox="0 0 159 158" fill="none" xmlns="http://www.w3.org/2000/svg">
<path d="M68.6055 56.4316H71.2257L62.4336 47.604V56.4316C62.4336 65.5635 69.863 72.9929 78.9949 72.9929V66.8211C73.2662 66.8211 68.6055 62.1604 68.6055 56.4316Z" fill="#70C250"/>
<path d="M78.9958 53.9087L33.6362 99.2683C32.4312 100.473 32.4312 102.427 33.6362 103.632L36.262 106.258L44.4342 110.049L48.3274 118.324L50.9079 120.904L68.1796 138.176C69.3846 139.381 71.3387 139.381 72.5437 138.176L78.9961 131.723L81.1563 88.96L78.9958 53.9087Z" fill="#7562E0"/>
<path d="M78.9955 63.5244L36.2617 106.258L48.3268 118.324L78.9955 87.6549L81.1559 75.1217L78.9955 63.5244Z" fill="#00347B"/>
<path d="M111.533 55.1162L104.055 51.0242L99.4678 43.0511L96.842 40.4253C95.6369 39.2202 93.6829 39.2202 92.4778 40.4253L78.9941 53.909V131.723L131.385 79.3325C132.59 78.1274 132.59 76.1734 131.385 74.9683L111.533 55.1162Z" fill="#7562E0"/>
<path d="M92.5332 90.2412L114.774 68.0008L117.698 70.925L95.4574 93.1654L92.5332 90.2412Z" fill="#002659"/>
<path d="M98.1855 95.896L120.426 73.6556L123.35 76.5798L101.11 98.8202L98.1855 95.896Z" fill="#002659"/>
<path d="M78.9941 87.6549L111.533 55.1162L99.4678 43.0508L78.9941 63.5244V87.6549Z" fill="#002659"/>
<path d="M78.9957 24.4346L81.1559 21.3502L78.9957 18.2627C74.7118 18.2627 71.2266 21.748 71.2266 26.0319C71.2266 29.2196 73.1571 31.9636 75.9098 33.1601V46.0426H78.9957L81.1559 35.4921L78.9957 27.6291C78.115 27.6291 77.3984 26.9126 77.3984 26.0319C77.3984 25.1511 78.1153 24.4346 78.9957 24.4346Z" fill="#70C250"/>
<path d="M82.0801 40.159V33.1601C84.8327 31.9636 86.7633 29.2196 86.7633 26.0319C86.7633 21.748 83.278 18.2627 78.9941 18.2627V24.4346C79.8749 24.4346 80.5914 25.1511 80.5914 26.0319C80.5914 26.9126 79.8749 27.6291 78.9941 27.6291V46.0426C84.7229 46.0426 89.3836 50.7033 89.3836 56.432C89.3836 61.6198 85.5616 65.9315 80.5856 66.6996L82.7636 72.5554C90.0847 70.844 95.5555 64.2672 95.5555 56.432C95.5555 48.3543 89.7422 41.609 82.0801 40.159Z" fill="#70C250"/>
<path d="M78.9961 104.193C78.7724 104.36 78.5542 104.539 78.3508 104.742C77.2226 105.87 65.8855 117.207 64.7573 118.336C62.4715 120.621 62.4715 124.327 64.7573 126.613C67.043 128.899 70.7489 128.899 73.0347 126.613C73.5482 126.1 76.1777 123.47 78.9961 120.652L80.6425 111.841L78.9961 104.193Z" fill="#BDEAF9"/>
<path d="M78.9941 104.193V120.652L86.6266 113.02C88.9124 110.734 88.9124 107.028 86.6266 104.742C84.5442 102.66 81.2864 102.481 78.9941 104.193Z" fill="#5ECDF3"/>
<path d="M80.5 1C37.1455 1 2 36.1455 2 79.5C2 122.854 37.1455 158 80.5 158C123.854 158 159 122.854 159 79.5C159 36.1455 123.854 1 80.5 1ZM12.129 79.5C12.1294 66.2563 15.976 53.2978 23.2015 42.1988C30.427 31.0998 40.7204 22.3382 52.831 16.9784C64.9416 11.6186 78.3482 9.89139 91.4219 12.0066C104.496 14.1218 116.674 19.9883 126.476 28.8935L29.8938 125.476C18.4205 112.918 12.0806 96.51 12.129 79.5ZM128.846 127.846C116.861 139.827 100.856 146.933 83.9306 147.784C67.0056 148.636 50.3673 143.173 37.2411 132.455L133.456 36.2402C144.174 49.3663 149.637 66.0046 148.786 82.9296C147.934 99.8546 140.829 115.861 128.847 127.845L128.846 127.846Z" fill="#FA5D3F"/>
</svg>

