<svg width="153" height="153" viewBox="0 0 153 153" fill="none" xmlns="http://www.w3.org/2000/svg">
<path d="M151.566 74.9366L144.041 76.2212V61.2021L151.566 62.4868C152.394 62.6282 153 63.3456 153 64.1857V73.2377C153 74.0778 152.394 74.7952 151.566 74.9366Z" fill="#70C250"/>
<path d="M1.43348 74.9366L8.95857 76.2212V61.2021L1.43348 62.4868C0.605426 62.6279 0 63.3456 0 64.1853V73.2374C0 74.0778 0.605426 74.7952 1.43348 74.9366Z" fill="#70C250"/>
<path d="M140.149 55.2397C135.637 50.3222 128.896 47.8291 120.114 47.8291C102.687 47.8291 84.7479 49.8746 79.8991 50.85C78.7104 51.089 77.5031 51.2091 76.2905 51.2091C75.0778 51.2091 73.8706 51.0893 72.6818 50.85C67.833 49.8746 49.8938 47.8291 32.4673 47.8291C23.6845 47.8291 16.9438 50.3222 12.4324 55.2397C6.5416 61.6607 6.89631 69.5605 7.0275 71.0791C7.52923 76.9 9.08463 85.2481 10.568 90.0843C13.8545 100.8 23.0692 105.171 42.3738 105.171C53.5266 105.171 62.7628 98.5253 69.0836 85.9524C72.2799 79.5945 73.936 73.2934 74.6466 70.0559C74.8161 69.2835 75.4998 68.7345 76.2908 68.7345C77.0818 68.7345 77.7652 69.2835 77.9349 70.0559C78.6455 73.2934 80.3016 79.5945 83.4979 85.9524C89.8187 98.525 99.0549 105.171 110.208 105.171C129.512 105.171 138.727 100.8 142.014 90.0843C143.497 85.2481 145.052 76.8997 145.554 71.0791C145.684 69.5605 146.039 61.6604 140.149 55.2397ZM66.7516 65.9375C66.7516 66.539 66.6897 67.137 66.5663 67.7257C66.0314 70.2732 64.5408 76.3729 61.5089 82.3473C56.647 91.9269 50.2091 96.7843 42.3735 96.7843C21.3949 96.7843 19.6363 91.051 18.5856 87.6252C17.2707 83.3389 15.834 75.5929 15.3824 70.3584C15.3633 70.1372 14.9572 64.8928 18.6116 60.9091C21.4693 57.7944 26.131 56.2151 32.467 56.2151C43.9107 56.2151 54.9025 56.9224 62.094 57.5141C64.727 57.7308 66.7516 59.9316 66.7516 62.5736V65.9375ZM137.198 70.3584C136.747 75.5929 135.31 83.3389 133.995 87.6252C132.944 91.051 131.186 96.7843 110.207 96.7843C102.372 96.7843 95.9336 91.9269 91.0717 82.3473C88.0386 76.3708 86.548 70.2696 86.014 67.7257C85.8903 67.137 85.8288 66.5396 85.8288 65.9381V62.5739C85.8288 59.9319 87.8533 57.7311 90.4863 57.5144C97.6779 56.9227 108.67 56.2154 120.113 56.2154C126.449 56.2154 131.111 57.7947 133.969 60.9094C137.623 64.8928 137.217 70.1372 137.198 70.3584Z" fill="#7562E0"/>
<path d="M69.5227 66.1439H13.8869C12.6115 66.1439 11.5781 65.1102 11.5781 63.8351C11.5781 62.5597 12.6118 61.5264 13.8869 61.5264H69.5227C70.7981 61.5264 71.8314 62.56 71.8314 63.8351C71.8314 65.1102 70.7981 66.1439 69.5227 66.1439Z" fill="#9080EF"/>
<path d="M67.6756 74.6243H13.8869C12.6115 74.6243 11.5781 73.5907 11.5781 72.3156C11.5781 71.0405 12.6118 70.0068 13.8869 70.0068H67.6756C68.951 70.0068 69.9844 71.0405 69.9844 72.3156C69.9844 73.5907 68.9507 74.6243 67.6756 74.6243Z" fill="#9080EF"/>
<path d="M63.982 83.1043H14.8107C13.5353 83.1043 12.502 82.0707 12.502 80.7956C12.502 79.5205 13.5356 78.4868 14.8107 78.4868H63.9817C65.2571 78.4868 66.2904 79.5205 66.2904 80.7956C66.2904 82.0707 65.2571 83.1043 63.982 83.1043Z" fill="#9080EF"/>
<path d="M59.3649 91.5843H17.5822C16.3068 91.5843 15.2734 90.5506 15.2734 89.2755C15.2734 88.0004 16.3071 86.9668 17.5822 86.9668H59.3649C60.6403 86.9668 61.6737 88.0004 61.6737 89.2755C61.6737 90.5506 60.6403 91.5843 59.3649 91.5843Z" fill="#9080EF"/>
<path d="M137.771 66.1439H83.0587C81.7834 66.1439 80.75 65.1102 80.75 63.8351C80.75 62.5597 81.7837 61.5264 83.0587 61.5264H137.771C139.047 61.5264 140.08 62.56 140.08 63.8351C140.08 65.1102 139.047 66.1439 137.771 66.1439Z" fill="#9080EF"/>
<path d="M138.695 74.6243H84.9064C83.631 74.6243 82.5977 73.5907 82.5977 72.3156C82.5977 71.0405 83.6313 70.0068 84.9064 70.0068H138.695C139.971 70.0068 141.004 71.0405 141.004 72.3156C141.004 73.5907 139.97 74.6243 138.695 74.6243Z" fill="#9080EF"/>
<path d="M137.771 83.1043H88.5998C87.3244 83.1043 86.291 82.0707 86.291 80.7956C86.291 79.5205 87.3247 78.4868 88.5998 78.4868H137.771C139.046 78.4868 140.079 79.5205 140.079 80.7956C140.079 82.0707 139.046 83.1043 137.771 83.1043Z" fill="#9080EF"/>
<path d="M135.002 91.5843H93.2189C91.9435 91.5843 90.9102 90.5506 90.9102 89.2755C90.9102 88.0004 91.9438 86.9668 93.2189 86.9668H135.002C136.277 86.9668 137.31 88.0004 137.31 89.2755C137.31 90.5506 136.277 91.5843 135.002 91.5843Z" fill="#9080EF"/>
<path d="M71.832 63.8353C71.832 65.1113 70.7981 66.1423 69.5221 66.1423H63.2168C64.4898 66.1423 65.5237 65.1113 65.5237 63.8353C65.5237 62.5593 64.4898 61.5254 63.2168 61.5254H69.5221C70.7981 61.5254 71.832 62.5593 71.832 63.8353Z" fill="#523FBD"/>
<path d="M69.9844 72.3163C69.9844 73.5893 68.9504 74.6232 67.6744 74.6232H61.3691C62.6421 74.6232 63.6761 73.5893 63.6761 72.3163C63.6761 71.0403 62.6421 70.0063 61.3691 70.0063H67.6744C68.9504 70.0063 69.9844 71.0403 69.9844 72.3163Z" fill="#523FBD"/>
<path d="M66.289 80.7943C66.289 82.0703 65.2551 83.1042 63.9821 83.1042H57.6738C58.9498 83.1042 59.9838 82.0703 59.9838 80.7943C59.9838 79.5213 58.9498 78.4873 57.6738 78.4873H63.9821C65.2551 78.4873 66.289 79.5213 66.289 80.7943Z" fill="#523FBD"/>
<path d="M61.6719 89.2742C61.6719 90.5502 60.6379 91.5842 59.3619 91.5842H53.0566C54.3326 91.5842 55.3666 90.5502 55.3666 89.2742C55.3666 87.9982 54.3326 86.9673 53.0566 86.9673H59.3619C60.6379 86.9673 61.6719 87.9982 61.6719 89.2742Z" fill="#523FBD"/>
<path d="M140.08 63.8353C140.08 65.1113 139.046 66.1423 137.773 66.1423H131.465C132.741 66.1423 133.775 65.1113 133.775 63.8353C133.775 62.5593 132.741 61.5254 131.465 61.5254H137.773C139.046 61.5254 140.08 62.5593 140.08 63.8353Z" fill="#523FBD"/>
<path d="M141.002 72.3163C141.002 73.5893 139.968 74.6232 138.695 74.6232H132.387C133.663 74.6232 134.697 73.5893 134.697 72.3163C134.697 71.0403 133.663 70.0063 132.387 70.0063H138.695C139.968 70.0063 141.002 71.0403 141.002 72.3163Z" fill="#523FBD"/>
<path d="M140.08 80.7943C140.08 82.0703 139.046 83.1042 137.773 83.1042H131.465C132.741 83.1042 133.775 82.0703 133.775 80.7943C133.775 79.5213 132.741 78.4873 131.465 78.4873H137.773C139.046 78.4873 140.08 79.5213 140.08 80.7943Z" fill="#523FBD"/>
<path d="M137.309 89.2742C137.309 90.5502 136.275 91.5842 134.999 91.5842H128.693C129.969 91.5842 131.003 90.5502 131.003 89.2742C131.003 87.9982 129.969 86.9673 128.693 86.9673H134.999C136.275 86.9673 137.309 87.9982 137.309 89.2742Z" fill="#523FBD"/>
</svg>
