<svg width="123" height="123" viewBox="0 0 123 123" fill="none" xmlns="http://www.w3.org/2000/svg">
<path d="M115.793 101.139H61.5V115.553H115.793C119.773 115.553 123 112.326 123 108.346C123 104.365 119.773 101.139 115.793 101.139Z" fill="#79CC52"/>
<path d="M21.8613 61.5H7.44727C7.44727 91.3527 31.6473 115.553 61.5 115.553L68.707 108.972L61.5 101.139C39.6432 101.139 21.8613 83.3568 21.8613 61.5Z" fill="#70C250"/>
<path d="M7.44727 61.5C7.44727 65.4804 10.6739 68.707 14.6543 68.707C18.6347 68.707 21.8613 65.4804 21.8613 61.5C21.8613 39.6432 39.6432 21.8613 61.5 21.8613V7.44727C31.6473 7.44727 7.44727 31.6473 7.44727 61.5Z" fill="#4432A6"/>
<path d="M115.553 61.5H101.139C101.139 39.6625 83.3375 21.8613 61.5 21.8613C57.5361 21.8613 54.293 18.6182 54.293 14.6543C54.293 10.6904 57.5361 7.44727 61.5 7.44727C91.3371 7.44727 115.553 31.6629 115.553 61.5Z" fill="#A0E65C"/>
<path d="M108.346 54.293C104.365 54.293 101.139 57.5196 101.139 61.5C101.139 83.3568 83.3568 101.139 61.5 101.139V115.553C91.3527 115.553 115.553 91.3527 115.553 61.5C115.553 57.5196 112.326 54.293 108.346 54.293Z" fill="#7562E0"/>
<path d="M61.5 86.7246C75.4312 86.7246 86.7246 75.4312 86.7246 61.5C86.7246 47.5688 75.4312 36.2754 61.5 36.2754C47.5688 36.2754 36.2754 47.5688 36.2754 61.5C36.2754 75.4312 47.5688 86.7246 61.5 86.7246Z" fill="#7562E0"/>
<path d="M61.5 79.5176C71.4508 79.5176 79.5176 71.4508 79.5176 61.5C79.5176 51.5492 71.4508 43.4824 61.5 43.4824C51.5492 43.4824 43.4824 51.5492 43.4824 61.5C43.4824 71.4508 51.5492 79.5176 61.5 79.5176Z" fill="#F3F5F9"/>
<path d="M72.3105 61.5C72.3105 63.5177 70.7252 65.1035 68.707 65.1035H61.5C59.4818 65.1035 57.8965 63.5177 57.8965 61.5V54.293C57.8965 52.2748 59.4818 50.6895 61.5 50.6895C63.5182 50.6895 65.1035 52.2748 65.1035 54.293V57.8965H68.707C70.7252 57.8965 72.3105 59.4818 72.3105 61.5Z" fill="#4D4D80"/>
<path d="M72.3105 61.5C72.3105 63.5177 70.7252 65.1035 68.707 65.1035H61.5V50.6895C63.5182 50.6895 65.1035 52.2748 65.1035 54.293V57.8965H68.707C70.7252 57.8965 72.3105 59.4818 72.3105 61.5Z" fill="#443D66"/>
<path d="M68.707 108.346C68.707 112.31 65.4639 115.553 61.5 115.553H3.60352C1.58531 115.553 0 113.967 0 111.949V104.742C0 102.724 1.58531 101.139 3.60352 101.139H61.5C65.4639 101.139 68.707 104.382 68.707 108.346Z" fill="#A0E187"/>
</svg>
