<svg width="142" height="142" viewBox="0 0 142 142" fill="none" xmlns="http://www.w3.org/2000/svg">
<g clip-path="url(#clip0_524:9446)">
<path d="M116.001 69.087L112.394 39.7849L105.635 40.6169L105.637 40.6122L92.533 33.2374C91.1352 32.4508 89.531 32.1086 87.9338 32.2561L67.2424 34.1698C64.6989 34.405 62.426 35.8563 61.1428 38.0651L46.559 63.1668C45.4821 65.0203 46.3274 67.3974 48.3329 68.1548L48.9294 68.38C50.0771 68.8135 51.2566 69.0645 52.4356 69.1627L50.5877 70.7721L46.8907 73.9932L36.3758 82.9624C34.504 84.5929 34.3096 87.4301 35.9401 89.3019L37.0068 90.5236C39.1007 92.9248 42.7453 93.1742 45.1509 91.0797L49.1696 95.6891C50.4762 97.1895 52.3904 97.8532 54.2295 97.6269C55.3347 97.491 56.413 97.0328 57.3135 96.2452L61.3278 100.855C62.639 102.359 64.553 103.018 66.392 102.792C67.4973 102.656 68.5758 102.202 69.4767 101.415L71.6582 103.3C73.7527 105.706 77.4014 105.954 79.8071 103.86L82.7727 101.273L107.705 81.8553L107.732 81.8306L117.568 81.8209L116.001 69.087Z" fill="#F29F5C"/>
<path d="M105.317 74.2815L105.29 74.3062L80.3577 93.7235L77.3921 96.3108C74.9867 98.4053 71.3377 98.1565 69.2432 95.7511L67.0616 93.8657C66.1608 94.6531 65.082 95.1071 63.977 95.243C62.138 95.4693 60.2243 94.8101 58.9128 93.3058L54.8985 88.6961C53.9977 89.4835 52.9194 89.9416 51.8144 90.0778C49.9754 90.3041 48.0612 89.6407 46.7546 88.14L42.7359 83.5306C40.6764 85.3239 37.711 85.3938 35.5857 83.8709C34.4958 85.5144 34.5829 87.742 35.9416 89.3018L37.0082 90.5235C39.1022 92.9247 42.7467 93.1741 45.1524 91.0796L49.1711 95.689C50.4777 97.1894 52.3919 97.8531 54.2309 97.6268C55.3361 97.4909 56.4142 97.0327 57.315 96.2451L61.3292 100.855C62.6405 102.359 64.5545 103.019 66.3935 102.792C67.4987 102.656 68.5773 102.202 69.4781 101.415L71.6597 103.3C73.7542 105.706 77.4029 105.955 79.8086 103.86L82.7742 101.273L107.706 81.8554L107.733 81.8308L117.57 81.821L116.482 72.9805L105.317 74.2815Z" fill="#D37D42"/>
<path d="M109.855 86.956L96.4971 75.4379L92.7824 72.2374L90.1243 69.9482L78.6959 60.097L80.0158 48.8619C80.4623 45.062 78.0702 41.5045 74.3827 40.4842L49.4703 33.5908C46.8345 32.8614 44.0486 34.0845 42.8016 36.5187L39.6688 42.6341L26.221 41.7214L22.7764 71.0432L21.2793 83.7857L34.3693 84.6563L34.3965 84.6809L61.743 108.253L64.7231 110.824C67.1401 112.905 70.7875 112.636 72.8686 110.219L76.8568 105.591C77.7618 106.374 78.8432 106.822 79.9492 106.952C81.7894 107.168 83.6997 106.498 85.0027 104.987L88.9914 100.355C89.8964 101.137 90.9772 101.589 92.0832 101.719C93.9234 101.936 95.834 101.261 97.1322 99.7534L101.125 95.1218C103.542 97.203 107.185 96.9334 109.266 94.5205L110.326 93.2927C111.946 91.4123 111.736 88.5762 109.855 86.956Z" fill="#F9C295"/>
<path d="M109.856 86.9561L105.787 83.4478C107.11 85.2014 107.083 87.6961 105.59 89.4284L104.465 90.7316C102.256 93.2929 98.389 93.5791 95.823 91.3698L91.5841 96.2865C90.206 97.887 88.1778 98.6026 86.2242 98.3732C85.0502 98.2354 83.9028 97.7553 82.9421 96.9247L78.7077 101.842C77.3246 103.446 75.2969 104.157 73.3433 103.928C72.1693 103.79 71.0214 103.315 70.0607 102.484L65.8268 107.397C65.0291 108.323 64.0132 108.948 62.9219 109.269L64.7243 110.825C67.1414 112.906 70.7887 112.637 72.8699 110.22L76.8581 105.592C77.763 106.374 78.8444 106.822 79.9504 106.952C81.7906 107.168 83.7009 106.499 85.0039 104.987L88.9926 100.355C89.8976 101.138 90.9784 101.59 92.0844 101.72C93.9246 101.936 95.8352 101.262 97.1335 99.7538L101.126 95.1222C103.543 97.2034 107.187 96.9338 109.267 94.5209L110.327 93.2931C111.947 91.4125 111.737 88.5764 109.856 86.9561Z" fill="#E59F6A"/>
<path d="M102.479 93.58L95.1592 87.2688C94.2897 86.5188 92.9759 86.6159 92.2254 87.4859C91.4752 88.356 91.5726 89.6694 92.4426 90.4197L99.7492 96.7198L101.126 95.1223C101.676 95.5957 102.291 95.941 102.935 96.1737C103.41 95.3281 103.241 94.2376 102.479 93.58Z" fill="#E59F6A"/>
<path d="M90.775 101.404C91.2762 100.554 91.1156 99.4421 90.3418 98.7748L83.7666 93.1057C82.8966 92.3557 81.5833 92.4528 80.8328 93.3228C80.0826 94.1929 80.18 95.5064 81.05 96.2566L87.6253 101.926C87.628 101.928 87.6308 101.93 87.6336 101.932L88.992 100.355C89.5336 100.823 90.1394 101.171 90.775 101.404Z" fill="#E59F6A"/>
<path d="M35.0522 84.6271L33.4677 86.7194C31.7424 88.9977 32.1905 92.2435 34.4689 93.9691C36.7473 95.6945 39.993 95.2463 41.7186 92.9679L43.3031 90.8756C45.0284 88.5973 44.5803 85.3515 42.3019 83.6259C40.0235 81.9006 36.7775 82.3487 35.0522 84.6271Z" fill="#F29F5C"/>
<path d="M44.7016 89.0275L41.7177 92.9677C39.9923 95.2461 40.4405 98.4918 42.7189 100.217C44.9973 101.943 48.243 101.495 49.9686 99.2162L52.9526 95.276C54.6779 92.9977 54.2297 89.7519 51.9514 88.0263C49.6727 86.3009 46.427 86.7491 44.7016 89.0275Z" fill="#F29F5C"/>
<path d="M54.0363 93.8465L49.9697 99.2164C48.2443 101.495 48.6925 104.74 50.9709 106.466C53.2492 108.191 56.495 107.743 58.2206 105.465L62.2873 100.095C64.0126 97.8166 63.5644 94.5709 61.2861 92.8453C59.0077 91.1196 55.7619 91.5681 54.0363 93.8465Z" fill="#F29F5C"/>
<path d="M62.5243 99.7834L58.2216 105.465C56.4963 107.743 56.9444 110.989 59.2228 112.714C61.5012 114.44 64.7469 113.992 66.4726 111.713L70.7753 106.032C72.5006 103.754 72.0524 100.508 69.774 98.7822C67.4954 97.0568 64.2497 97.505 62.5243 99.7834Z" fill="#F29F5C"/>
<path d="M105.637 40.6122L92.5327 33.2374C91.1349 32.4508 89.5308 32.1086 87.9335 32.2561L67.2421 34.1698C64.6986 34.405 62.4258 35.8563 61.1425 38.0651L46.5587 63.1668C45.4818 65.0206 46.3271 67.3974 48.3326 68.1548L48.9292 68.38C54.2749 70.3991 60.3121 68.6809 63.7936 64.15L69.3812 56.8781C69.3812 56.8781 82.8127 72.4295 97.6006 54.2683" fill="#F29F5C"/>
<path d="M141.984 85.7393L135.13 30.0625C135.063 29.5151 134.781 29.0167 134.346 28.6772C133.911 28.3377 133.359 28.1852 132.812 28.2523L116.785 30.2253C112.622 30.7379 109.652 34.5413 110.165 38.7037L115.669 83.4113C116.142 87.26 119.429 90.0886 123.212 90.0886C123.521 90.0886 123.833 90.0698 124.147 90.0312L140.174 88.0582C141.314 87.9176 142.125 86.8795 141.984 85.7393Z" fill="#7562E0"/>
<path d="M141.984 85.7388L141.232 79.6273C140.891 80.1279 140.346 80.4857 139.697 80.5656L122.897 82.6337C122.568 82.6742 122.24 82.6939 121.917 82.6939C119.088 82.6939 116.525 81.1846 115.107 78.8555L115.668 83.4105C116.142 87.2592 119.429 90.0878 123.212 90.0878C123.52 90.0878 123.833 90.069 124.147 90.0304L140.174 88.0574C141.314 87.9171 142.124 86.879 141.984 85.7388Z" fill="#7562E0"/>
<path d="M25.2154 30.2249L9.18834 28.2519C8.64004 28.1845 8.08896 28.3373 7.65408 28.6768C7.21921 29.0163 6.93715 29.5147 6.86976 30.0621L0.0157907 85.7392C-0.124545 86.8794 0.686128 87.9175 1.82601 88.0578L17.8531 90.0308C18.167 90.0694 18.479 90.0882 18.7877 90.0882C22.5707 90.0882 25.8577 87.2593 26.3314 83.4109L31.835 38.7033C32.3476 34.5409 29.3781 30.7375 25.2154 30.2249Z" fill="#70C250"/>
<path d="M0.015795 85.7388L0.768226 79.6273C1.10936 80.1279 1.65406 80.4857 2.30249 80.5656L19.1031 82.6337C19.432 82.6742 19.7595 82.6939 20.0829 82.6939C22.9118 82.6939 25.4747 81.1846 26.8925 78.8555L26.3317 83.4105C25.858 87.2592 22.5712 90.0878 18.788 90.0878C18.4796 90.0878 18.167 90.069 17.8534 90.0304L1.82629 88.0574C0.685855 87.9171 -0.12454 86.879 0.015795 85.7388Z" fill="#70C250"/>
<path d="M128.687 80.845C130.908 80.845 132.708 79.0448 132.708 76.8241C132.708 74.6035 130.908 72.8032 128.687 72.8032C126.466 72.8032 124.666 74.6035 124.666 76.8241C124.666 79.0448 126.466 80.845 128.687 80.845Z" fill="#EBEEF2"/>
<path d="M13.0873 80.845C15.308 80.845 17.1082 79.0448 17.1082 76.8241C17.1082 74.6035 15.308 72.8032 13.0873 72.8032C10.8666 72.8032 9.06641 74.6035 9.06641 76.8241C9.06641 79.0448 10.8666 80.845 13.0873 80.845Z" fill="#EBEEF2"/>
</g>
<defs>
<clipPath id="clip0_524:9446">
<rect width="142" height="142" fill="white"/>
</clipPath>
</defs>
</svg>
