<svg width="173" height="173" viewBox="0 0 173 173" fill="none" xmlns="http://www.w3.org/2000/svg">
<path d="M86.5 167.594C131.287 167.594 167.594 131.287 167.594 86.5C167.594 41.7132 131.287 5.40625 86.5 5.40625C41.7132 5.40625 5.40625 41.7132 5.40625 86.5C5.40625 131.287 41.7132 167.594 86.5 167.594Z" fill="#7562E0"/>
<path d="M16.802 54.932C16.608 54.932 16.4114 54.8901 16.2249 54.8016C15.5504 54.4826 15.2619 53.6764 15.5815 53.002C19.422 44.8845 24.6323 37.5056 31.0691 31.0695C36.7558 25.3828 43.2068 20.6341 50.2417 16.9558C50.9033 16.6084 51.7196 16.8659 52.0656 17.5275C52.4116 18.1891 52.1555 19.0061 51.4939 19.3514C44.7016 22.9027 38.4723 27.4885 32.9802 32.9806C26.7644 39.1971 21.7318 46.3225 18.0245 54.1582C17.7934 54.6461 17.3081 54.932 16.802 54.932ZM55.7439 17.1727C55.2228 17.1727 54.7262 16.87 54.5045 16.3618C54.2058 15.6779 54.5187 14.8811 55.2019 14.5825L55.5553 14.429C56.2419 14.1358 57.0366 14.4534 57.3299 15.1393C57.6246 15.8252 57.3063 16.6199 56.6204 16.9139L56.2838 17.0599C56.1081 17.1362 55.925 17.1727 55.7439 17.1727Z" fill="#A595FB"/>
<path d="M140.36 25.8823C153.096 40.2055 160.836 59.0679 160.836 79.7421C160.836 124.529 124.529 160.836 79.7426 160.836C59.0684 160.836 40.206 153.095 25.8828 140.36C40.7365 157.066 62.3872 167.594 86.5004 167.594C131.287 167.594 167.594 131.287 167.594 86.4999C167.594 62.3867 157.066 40.736 140.36 25.8823Z" fill="#7562E0"/>
<path d="M142.125 27.4961C155.818 42.0166 164.215 61.5872 164.215 83.121C164.215 127.908 127.908 164.215 83.121 164.215C61.5872 164.215 42.0166 155.818 27.4961 142.125C42.2829 157.804 63.2469 167.594 86.4999 167.594C131.287 167.594 167.594 131.287 167.594 86.4999C167.594 63.2469 157.804 42.2829 142.125 27.4961Z" fill="#6C2BC1"/>
<path d="M86.5 150.699C121.956 150.699 150.699 121.956 150.699 86.5C150.699 51.0437 121.956 22.3008 86.5 22.3008C51.0437 22.3008 22.3008 51.0437 22.3008 86.5C22.3008 121.956 51.0437 150.699 86.5 150.699Z" fill="#F1F2F2"/>
<path d="M130.171 39.4492C140.811 50.9064 147.32 66.2521 147.32 83.1209C147.32 118.577 118.577 147.32 83.1209 147.32C66.2521 147.32 50.9064 140.811 39.4492 130.172C51.1727 142.796 67.9125 150.699 86.4998 150.699C121.956 150.699 150.699 121.956 150.699 86.4998C150.699 67.9125 142.796 51.1727 130.171 39.4492Z" fill="#E6E7E8"/>
<path d="M86.5 133.805C112.626 133.805 133.805 112.626 133.805 86.5C133.805 60.3743 112.626 39.1953 86.5 39.1953C60.3743 39.1953 39.1953 60.3743 39.1953 86.5C39.1953 112.626 60.3743 133.805 86.5 133.805Z" fill="#7562E0"/>
<path d="M118.215 51.4053C125.802 59.7958 130.425 70.9178 130.425 83.121C130.425 109.247 109.246 130.426 83.1201 130.426C70.9168 130.426 59.7948 125.803 51.4043 118.216C60.0611 127.788 72.5765 133.805 86.499 133.805C112.625 133.805 133.804 112.626 133.804 86.4999C133.804 72.5775 127.787 60.0614 118.215 51.4053Z" fill="#7562E0"/>
<path d="M86.5 116.91C103.295 116.91 116.91 103.295 116.91 86.5C116.91 69.7049 103.295 56.0898 86.5 56.0898C69.7049 56.0898 56.0898 69.7049 56.0898 86.5C56.0898 103.295 69.7049 116.91 86.5 116.91Z" fill="#F1F2F2"/>
<path d="M106.242 63.3789C110.782 68.6926 113.531 75.5835 113.531 83.1212C113.531 99.9164 99.9157 113.531 83.1205 113.531C75.5835 113.531 68.6919 110.783 63.3789 106.242C68.9561 112.768 77.2419 116.91 86.4994 116.91C103.295 116.91 116.91 103.295 116.91 86.5001C116.91 77.2426 112.768 68.9568 106.242 63.3789Z" fill="#E6E7E8"/>
<path d="M86.5 100.016C93.9645 100.016 100.016 93.9645 100.016 86.5C100.016 79.0355 93.9645 72.9844 86.5 72.9844C79.0355 72.9844 72.9844 79.0355 72.9844 86.5C72.9844 93.9645 79.0355 100.016 86.5 100.016Z" fill="#7562E0"/>
<path d="M94.2131 75.4092C95.7377 77.5974 96.6378 80.2525 96.6378 83.1212C96.6378 90.5859 90.5869 96.6368 83.1222 96.6368C80.2535 96.6368 77.5983 95.7367 75.4102 94.2121C77.8518 97.7174 81.9058 100.016 86.5011 100.016C93.9658 100.016 100.017 93.9648 100.017 86.5001C100.017 81.9048 97.7184 77.8508 94.2131 75.4092Z" fill="#7562E0"/>
<path d="M154.987 22.8104L88.7694 89.0282C87.4779 90.3196 85.3837 90.3196 84.0916 89.0282C82.8002 87.7367 82.8002 85.6425 84.0916 84.3504L150.309 18.1326C151.601 16.8412 153.695 16.8412 154.987 18.1326C156.279 19.4247 156.279 21.519 154.987 22.8104Z" fill="#58595B"/>
<path d="M154.987 18.1323C154.751 17.8958 154.481 17.7174 154.201 17.5674C154.869 18.8189 154.69 20.403 153.636 21.4579L87.4178 87.6756C86.3629 88.7305 84.7782 88.9089 83.5273 88.2406C83.6774 88.521 83.8558 88.7907 84.0923 89.0272C85.3837 90.3186 87.478 90.3186 88.7701 89.0272L154.988 22.8094C156.279 21.5187 156.279 19.4244 154.987 18.1323Z" fill="#414042"/>
<path d="M140.749 12.0403L126.515 26.2743C126.224 26.5649 126.082 26.9717 126.128 27.3799L127.626 40.8158L144.307 24.1348L143.048 12.8459C142.923 11.72 141.55 11.2389 140.749 12.0403Z" fill="#70C250"/>
<path d="M143.048 12.8457C142.967 12.1104 142.353 11.659 141.714 11.6509L142.884 22.137C142.93 22.5451 142.787 22.952 142.497 23.2426L127.355 38.3841L127.626 40.8162L144.307 24.1346L143.048 12.8457Z" fill="#499A2A"/>
<path d="M161.079 32.37L146.844 46.6047C146.554 46.8952 146.147 47.0378 145.739 46.9919L132.303 45.493L148.984 28.812L160.273 30.0717C161.399 30.1967 161.88 31.5692 161.079 32.37Z" fill="#70C250"/>
<path d="M160.274 30.0708L160.117 30.0532C160.121 30.3931 160.006 30.7398 159.729 31.0182L145.495 45.2529C145.204 45.5435 144.797 45.6861 144.389 45.6401L133.385 44.4122L132.305 45.4928L145.741 46.9917C146.149 47.037 146.556 46.8944 146.846 46.6045L161.079 32.3698C161.881 31.569 161.4 30.1965 160.274 30.0708Z" fill="#499A2A"/>
</svg>
