<svg width="228" height="172" viewBox="0 0 228 172" fill="none" xmlns="http://www.w3.org/2000/svg">
<path d="M4.45312 155.279H223.547C226.006 155.279 228 153.285 228 150.826V5.1748C228 2.71534 226.006 0.72168 223.547 0.72168H4.45312C1.99366 0.72168 0 2.71534 0 5.1748V150.826C0 153.285 1.99366 155.279 4.45312 155.279Z" fill="#F5F8F9"/>
<path d="M206.625 150.826V5.1748C206.625 2.71534 204.631 0.72168 202.172 0.72168H223.547C226.006 0.72168 228 2.71534 228 5.1748V150.826C228 153.286 226.006 155.279 223.547 155.279H202.172C204.631 155.279 206.625 153.285 206.625 150.826Z" fill="#E8EDF2"/>
<path d="M217.312 11.4086V74.8831H162.779C158.69 74.8831 154.827 73.011 152.293 69.8016L137.95 51.6337H142.221C147.777 51.6337 152.296 47.1143 152.296 41.5585C152.296 36.0028 147.777 31.4833 142.221 31.4833H37.4615C32.0803 31.4833 27.6708 35.724 27.3996 41.0388H10.6875V11.4082H217.312V11.4086Z" fill="white"/>
<path d="M217.312 11.4092H206.625V74.8836H217.312V11.4092Z" fill="#F5F8F9"/>
<path d="M10.2422 148.6H217.758C219.722 148.6 221.32 147.002 221.32 145.038V10.9639C221.32 8.99959 219.722 7.40137 217.758 7.40137H10.2422C8.27791 7.40137 6.67969 8.99959 6.67969 10.9639V145.037C6.67969 147.002 8.27791 148.6 10.2422 148.6ZM216.867 144.147H11.1328V11.8545H216.867V144.147Z" fill="#C5D3DD"/>
<path d="M104.805 129.871C105.203 129.649 105.652 129.532 106.104 129.532C107.143 129.532 108.096 130.14 108.531 131.081L112.382 139.399C112.682 140.045 113.286 140.431 113.999 140.431C114.711 140.431 115.315 140.045 115.615 139.399L119.466 131.081C119.902 130.14 120.855 129.532 121.893 129.532C122.346 129.532 122.794 129.649 123.192 129.871L128.766 132.98V170.234C128.766 171.255 127.547 171.783 126.802 171.085L114.796 159.824C114.347 159.403 113.649 159.403 113.201 159.824L101.194 171.085C100.45 171.783 99.2307 171.255 99.2307 170.234V132.98L104.805 129.871Z" fill="#7562E0"/>
<path d="M121.893 129.532C122.346 129.532 122.794 129.649 123.192 129.871L128.766 132.98V170.234C128.766 171.255 127.547 171.783 126.802 171.085L119.932 164.641V130.395C120.43 129.857 121.138 129.532 121.893 129.532V129.532Z" fill="#7562E0"/>
<path d="M111.978 76.2433L108.127 84.5604C107.583 85.7361 106.153 86.2005 105.022 85.5695L97.0171 81.1044C95.3605 80.1803 93.3811 81.6187 93.748 83.4797L95.5208 92.4723C95.7715 93.7432 94.888 94.9594 93.602 95.1135L84.502 96.2063C82.6188 96.4325 81.8626 98.7592 83.2534 100.049L89.9731 106.282C90.923 107.163 90.923 108.666 89.9731 109.547L83.2534 115.78C81.8626 117.07 82.6188 119.397 84.502 119.623L93.602 120.716C94.8885 120.871 95.7715 122.087 95.5208 123.357L93.748 132.35C93.3811 134.211 95.3605 135.649 97.0171 134.725L105.022 130.26C106.153 129.629 107.582 130.094 108.127 131.269L111.978 139.586C112.775 141.308 115.222 141.308 116.019 139.586L119.871 131.269C120.415 130.094 121.844 129.629 122.976 130.26L130.98 134.725C132.637 135.649 134.616 134.211 134.249 132.35L132.476 123.357C132.226 122.087 133.109 120.87 134.395 120.716L143.495 119.623C145.378 119.397 146.135 117.07 144.744 115.78L138.024 109.547C137.074 108.667 137.074 107.164 138.024 106.282L144.744 100.049C146.135 98.7592 145.378 96.4325 143.495 96.2063L134.395 95.1135C133.109 94.9589 132.226 93.7432 132.476 92.4723L134.249 83.4797C134.616 81.6187 132.637 80.1803 130.98 81.1044L122.976 85.5695C121.844 86.2005 120.415 85.7361 119.871 84.5604L116.019 76.2433C115.222 74.5218 112.775 74.5218 111.978 76.2433Z" fill="#FAC600"/>
<path d="M93.7481 132.349L94.8137 126.944C95.3418 126.97 95.8735 126.984 96.4088 126.984C103.804 126.984 110.59 124.387 115.913 120.06L122.153 123.34C123.34 123.964 124.727 122.956 124.5 121.635L123.087 113.393C122.997 112.868 123.171 112.333 123.552 111.961L129.54 106.124C130.5 105.188 129.97 103.558 128.644 103.365L126.548 103.061C127.072 100.802 127.358 98.453 127.358 96.0349C127.358 91.9153 126.546 87.9868 125.085 84.3918L130.98 81.1036C132.637 80.1796 134.616 81.6179 134.249 83.4789L132.476 92.4715C132.226 93.7424 133.109 94.9586 134.395 95.1127L143.495 96.2055C145.378 96.4317 146.135 98.7584 144.744 100.049L138.024 106.282C137.074 107.162 137.074 108.665 138.024 109.547L144.744 115.78C146.135 117.07 145.378 119.396 143.495 119.623L134.395 120.715C133.109 120.87 132.226 122.086 132.476 123.357L134.249 132.349C134.616 134.21 132.637 135.649 130.98 134.725L122.976 130.26C121.844 129.629 120.415 130.093 119.871 131.269L116.019 139.586C115.222 141.307 112.775 141.307 111.978 139.586L108.127 131.269C107.583 130.093 106.153 129.629 105.022 130.26L97.0171 134.725C95.3605 135.648 93.3811 134.21 93.7481 132.349V132.349Z" fill="#E8B800"/>
<path d="M112.549 93.7797L108.848 101.279C108.612 101.756 108.157 102.087 107.63 102.164L99.3546 103.366C98.028 103.559 97.4981 105.189 98.4582 106.125L104.446 111.962C104.827 112.333 105.002 112.869 104.912 113.393L103.498 121.635C103.272 122.957 104.658 123.964 105.845 123.34L113.247 119.449C113.718 119.202 114.281 119.202 114.752 119.449L122.154 123.34C123.341 123.964 124.728 122.957 124.501 121.635L123.088 113.393C122.998 112.869 123.172 112.334 123.553 111.962L129.541 106.125C130.501 105.189 129.971 103.559 128.645 103.366L120.369 102.164C119.842 102.087 119.387 101.756 119.151 101.279L115.45 93.7797C114.856 92.5773 113.142 92.5773 112.549 93.7797V93.7797Z" fill="#FEE97D"/>
<path d="M116.483 119.227L115.07 110.985C114.98 110.46 115.154 109.925 115.535 109.553L121.523 103.716C121.906 103.343 122.049 102.86 122.002 102.401L128.643 103.366C129.969 103.559 130.499 105.189 129.539 106.125L123.551 111.962C123.17 112.334 122.996 112.869 123.086 113.394L124.499 121.636C124.726 122.957 123.339 123.965 122.152 123.341L116.311 120.27C116.475 119.97 116.55 119.613 116.483 119.227V119.227Z" fill="#FEDF30"/>
<path d="M158.531 108.281H194.602C195.831 108.281 196.828 107.284 196.828 106.055C196.828 104.825 195.831 103.828 194.602 103.828H158.531C157.302 103.828 156.305 104.825 156.305 106.055C156.305 107.284 157.302 108.281 158.531 108.281Z" fill="#B6C4CF"/>
<path d="M158.531 117.633H194.602C195.831 117.633 196.828 116.636 196.828 115.406C196.828 114.177 195.831 113.18 194.602 113.18H158.531C157.302 113.18 156.305 114.177 156.305 115.406C156.305 116.636 157.302 117.633 158.531 117.633Z" fill="#B6C4CF"/>
<path d="M158.531 92.25H194.602C195.831 92.25 196.828 91.2529 196.828 90.0234C196.828 88.7939 195.831 87.7969 194.602 87.7969H158.531C157.302 87.7969 156.305 88.7939 156.305 90.0234C156.305 91.2529 157.302 92.25 158.531 92.25Z" fill="#B6C4CF"/>
<path d="M158.531 126.984H194.602C195.831 126.984 196.828 125.987 196.828 124.758C196.828 123.528 195.831 122.531 194.602 122.531H158.531C157.302 122.531 156.305 123.528 156.305 124.758C156.305 125.987 157.302 126.984 158.531 126.984Z" fill="#B6C4CF"/>
<path d="M37.4619 52.0791H142.222C148.032 52.0791 152.742 47.369 152.742 41.5586C152.742 35.7482 148.032 31.0381 142.222 31.0381H37.4619C31.6515 31.0381 26.9414 35.7482 26.9414 41.5586C26.9414 47.3686 31.6515 52.0791 37.4619 52.0791Z" fill="#C5D3DD"/>
<path d="M125.801 41.5586C125.801 35.7482 121.091 31.0381 115.28 31.0381H142.222C148.032 31.0381 152.742 35.7482 152.742 41.5586C152.742 47.369 148.032 52.0791 142.222 52.0791H115.28C121.091 52.0791 125.801 47.3686 125.801 41.5586Z" fill="#B6C4CF"/>
<path d="M39.968 43.7852H103.564C104.794 43.7852 105.791 42.7881 105.791 41.5586C105.791 40.3291 104.794 39.332 103.564 39.332H39.968C38.7381 39.332 37.7415 40.3291 37.7415 41.5586C37.7415 42.7881 38.7381 43.7852 39.968 43.7852Z" fill="white"/>
<path d="M113.581 43.7852H139.717C140.946 43.7852 141.943 42.7881 141.943 41.5586C141.943 40.3291 140.946 39.332 139.717 39.332H113.581C112.352 39.332 111.355 40.3291 111.355 41.5586C111.355 42.7881 112.352 43.7852 113.581 43.7852Z" fill="white"/>
<path d="M181.02 61.5977C169.952 61.5977 160.98 52.6259 160.98 41.5586C160.98 30.4913 169.952 21.5195 181.02 21.5195C192.087 21.5195 201.059 30.4913 201.059 41.5586C201.059 52.6259 192.087 61.5977 181.02 61.5977Z" fill="#70C250"/>
<path d="M181.02 52.6914C174.871 52.6914 169.887 47.7071 169.887 41.5586C169.887 35.4101 174.871 30.4258 181.02 30.4258C187.168 30.4258 192.152 35.4101 192.152 41.5586C192.152 47.7071 187.168 52.6914 181.02 52.6914Z" fill="#97DD7C"/>
<path d="M31.8398 127.875H68.8008C70.0303 127.875 71.0273 126.878 71.0273 125.648V109.617C71.0273 108.388 70.0303 107.391 68.8008 107.391H31.8398C30.6103 107.391 29.6133 108.388 29.6133 109.617V125.648C29.6133 126.878 30.6103 127.875 31.8398 127.875Z" fill="#70C250"/>
<path d="M56.5547 125.648V109.617C56.5547 108.388 55.5576 107.391 54.3281 107.391H68.8008C70.0303 107.391 71.0273 108.388 71.0273 109.617V125.648C71.0273 126.878 70.0303 127.875 68.8008 127.875H54.3281C55.5576 127.875 56.5547 126.878 56.5547 125.648Z" fill="#54AC31"/>
<path d="M31.6172 69.0938H58.3359C59.5659 69.0938 60.5625 68.0967 60.5625 66.8672C60.5625 65.6377 59.5659 64.6406 58.3359 64.6406H31.6172C30.3872 64.6406 29.3906 65.6377 29.3906 66.8672C29.3906 68.0967 30.3872 69.0938 31.6172 69.0938Z" fill="#B6C4CF"/>
<path d="M31.6172 77.5547H76.1484C77.3784 77.5547 78.375 76.5576 78.375 75.3281C78.375 74.0986 77.3784 73.1016 76.1484 73.1016H31.6172C30.3872 73.1016 29.3906 74.0986 29.3906 75.3281C29.3906 76.5576 30.3872 77.5547 31.6172 77.5547Z" fill="#B6C4CF"/>
<path d="M31.6172 86.0156H76.1484C77.3784 86.0156 78.375 85.0186 78.375 83.7891C78.375 82.5596 77.3784 81.5625 76.1484 81.5625H31.6172C30.3872 81.5625 29.3906 82.5596 29.3906 83.7891C29.3906 85.0186 30.3872 86.0156 31.6172 86.0156Z" fill="#B6C4CF"/>
</svg>
