<svg width="130" height="187" viewBox="0 0 130 187" fill="none" xmlns="http://www.w3.org/2000/svg">
<path d="M18.5724 186.277H117.62C124.458 186.277 130.001 180.733 130.001 173.896V31.5147C130.001 24.677 124.458 19.1338 117.62 19.1338H18.5724C11.7346 19.1338 6.19141 24.677 6.19141 31.5147V173.896C6.19141 180.733 11.7346 186.277 18.5724 186.277Z" fill="#7562E0"/>
<path d="M12.381 186.277H111.429C118.266 186.277 123.81 180.733 123.81 173.896V31.5147C123.81 24.677 118.266 19.1338 111.429 19.1338H12.381C5.54318 19.1338 0 24.677 0 31.5147V173.896C0 180.733 5.54318 186.277 12.381 186.277Z" fill="#7562E0"/>
<path d="M15.5882 177H114.412C118.051 177 121 174.221 121 170.792V34.2083C121 30.7794 118.051 28 114.412 28H15.5882C11.9495 28 9 30.7794 9 34.2083V170.792C9 174.221 11.9495 177 15.5882 177Z" fill="#F2F2F2"/>
<path d="M68.0961 68.6573H24.7627C21.3437 68.6573 18.5723 65.8859 18.5723 62.4668C18.5723 59.0478 21.3437 56.2764 24.7627 56.2764H68.0961C71.5152 56.2764 74.2866 59.0478 74.2866 62.4668C74.2866 65.8859 71.5152 68.6573 68.0961 68.6573Z" fill="#3D2AA9"/>
<path d="M92.8575 74.8478C99.6953 74.8478 105.238 69.3047 105.238 62.4669C105.238 55.6291 99.6953 50.0859 92.8575 50.0859C86.0197 50.0859 80.4766 55.6291 80.4766 62.4669C80.4766 69.3047 86.0197 74.8478 92.8575 74.8478Z" fill="#3D2AA9"/>
<path d="M68.0961 111.991H24.7627C21.3437 111.991 18.5723 109.219 18.5723 105.8C18.5723 102.381 21.3437 99.6099 24.7627 99.6099H68.0961C71.5152 99.6099 74.2866 102.381 74.2866 105.8C74.2866 109.219 71.5152 111.991 68.0961 111.991Z" fill="#3D2AA9"/>
<path d="M92.8575 118.181C99.6953 118.181 105.238 112.638 105.238 105.8C105.238 98.9626 99.6953 93.4194 92.8575 93.4194C86.0197 93.4194 80.4766 98.9626 80.4766 105.8C80.4766 112.638 86.0197 118.181 92.8575 118.181Z" fill="#3D2AA9"/>
<path d="M68.0961 155.324H24.7627C21.3437 155.324 18.5723 152.553 18.5723 149.134C18.5723 145.715 21.3437 142.943 24.7627 142.943H68.0961C71.5152 142.943 74.2866 145.715 74.2866 149.134C74.2866 152.553 71.5152 155.324 68.0961 155.324Z" fill="#3D2AA9"/>
<path d="M92.8575 161.515C99.6953 161.515 105.238 155.972 105.238 149.134C105.238 142.296 99.6953 136.753 92.8575 136.753C86.0197 136.753 80.4766 142.296 80.4766 149.134C80.4766 155.972 86.0197 161.515 92.8575 161.515Z" fill="#3D2AA9"/>
<path d="M92.8587 65.5618C92.0667 65.5618 91.2744 65.2597 90.67 64.6553L87.5748 61.5601C86.3657 60.351 86.3657 58.3917 87.5748 57.1826C88.7835 55.9743 90.7431 55.9743 91.9518 57.1826L92.8584 58.0895L99.9554 50.9922C101.164 49.7839 103.124 49.7839 104.332 50.9922C105.541 52.2012 105.541 54.1605 104.332 55.3696L95.0467 64.6553C94.4431 65.2597 93.6507 65.5618 92.8587 65.5618Z" fill="#70C250"/>
<path d="M92.8587 108.895C92.0667 108.895 91.2744 108.593 90.67 107.989L87.5748 104.894C86.3657 103.685 86.3657 101.725 87.5748 100.516C88.7835 99.3078 90.7431 99.3078 91.9518 100.516L92.8584 101.423L99.9554 94.3257C101.164 93.1174 103.124 93.1174 104.332 94.3257C105.541 95.5347 105.541 97.494 104.332 98.7031L95.0467 107.989C94.4431 108.593 93.6507 108.895 92.8587 108.895Z" fill="#70C250"/>
<path d="M92.8587 152.228C92.0667 152.228 91.2744 151.926 90.67 151.322L87.5748 148.227C86.3657 147.018 86.3657 145.058 87.5748 143.849C88.7835 142.641 90.7431 142.641 91.9518 143.849L92.8584 144.756L99.9554 137.659C101.164 136.45 103.124 136.45 104.332 137.659C105.541 138.868 105.541 140.827 104.332 142.036L95.0467 151.322C94.4431 151.926 93.6507 152.228 92.8587 152.228Z" fill="#70C250"/>
<path d="M86.6674 12.9435H74.2865C74.2865 6.10568 68.7433 0.5625 61.9055 0.5625C55.0677 0.5625 49.5246 6.10568 49.5246 12.9435H37.1436C33.7249 12.9435 30.9531 15.7152 30.9531 19.1339V31.5149C30.9531 34.9336 33.7249 37.7054 37.1436 37.7054H86.6674C90.0861 37.7054 92.8579 34.9336 92.8579 31.5149V19.1339C92.8579 15.7152 90.0861 12.9435 86.6674 12.9435ZM61.9055 19.1339C58.4864 19.1339 55.715 16.3625 55.715 12.9435C55.715 9.52437 58.4864 6.75298 61.9055 6.75298C65.3246 6.75298 68.096 9.52476 68.096 12.9435C68.096 16.3621 65.3246 19.1339 61.9055 19.1339Z" fill="#555A6E"/>
</svg>
