<svg width="170" height="170" viewBox="0 0 170 170" fill="none" xmlns="http://www.w3.org/2000/svg">
<path d="M135.068 8.77686C144.261 9.55314 153.113 15.7067 157.521 25.4435C162.021 35.3845 160.659 46.3415 154.88 53.7744" fill="#A596FD"/>
<path d="M11.7539 85.4209L35.1986 74.818L39.997 85.4282L16.5523 96.031L11.7539 85.4209Z" fill="#A596FD"/>
<path d="M0.818312 90.2647L5.70847 101.067C7.07411 104.084 10.6272 105.422 13.644 104.056C16.6609 102.691 17.9996 99.1376 16.6336 96.1208L11.7435 85.3188C10.3775 82.302 6.82476 80.9632 3.80759 82.3292C0.791085 83.6948 -0.547333 87.2479 0.818312 90.2647Z" fill="#70C250"/>
<path d="M58.5237 81.9872L36.3447 92.0282C33.8883 93.1402 30.9953 92.0504 29.8834 89.5941L25.0998 79.0278C23.9878 76.5715 25.0775 73.6785 27.5339 72.5665L49.7129 62.5256C52.1693 61.4136 55.0623 62.5033 56.1743 64.9597L60.9578 75.5259C62.0701 77.9823 60.9801 80.8753 58.5237 81.9872Z" fill="#7562E0"/>
<path d="M58.5237 81.9872L36.3447 92.0282C33.8883 93.1402 30.9953 92.0504 29.8834 89.5941L25.0998 79.0278C23.9878 76.5715 25.0775 73.6785 27.5339 72.5665L49.7129 62.5256C52.1693 61.4136 55.0623 62.5033 56.1743 64.9597L60.9578 75.5259C62.0701 77.9823 60.9801 80.8753 58.5237 81.9872Z" fill="#7562E0"/>
<path d="M60.9572 75.526L56.1736 64.9598C55.6394 63.7801 54.6927 62.9198 53.5824 62.4629L55.6493 67.0283C56.7613 69.4847 55.6716 72.3777 53.2152 73.4897L31.0362 83.5306C29.7595 84.1083 28.367 84.0874 27.166 83.5934L29.8827 89.5945C30.9947 92.0509 33.8877 93.1406 36.344 92.0286L58.523 81.9873C60.9794 80.875 62.0695 77.9824 60.9572 75.526Z" fill="#5845C4"/>
<path d="M108.088 69.4238L68.2468 87.4607C65.5474 88.6829 62.3685 87.4853 61.1463 84.7859L49.3403 58.7082C48.1181 56.0087 49.3157 52.8299 52.0151 51.6077L91.8562 33.5707C94.5556 32.3485 97.7345 33.5462 98.9567 36.2456L110.763 62.3233C111.985 65.0227 110.787 68.2019 108.088 69.4238Z" fill="#A596FD"/>
<path d="M110.764 62.3233L98.9579 36.2456C97.7357 33.5462 94.5568 32.3485 91.8574 33.5707L69.5871 43.6529C71.1048 42.9659 72.8918 43.6393 73.5788 45.1566L81.0837 61.7343C81.7706 63.2517 81.0976 65.039 79.5799 65.726L59.8692 74.6496C58.3518 75.3366 56.5645 74.6633 55.8775 73.1459L53.1094 67.0312L61.1475 84.7859C62.3697 87.4853 65.5486 88.6829 68.248 87.4607L108.089 69.4238C110.788 68.2019 111.986 65.0227 110.764 62.3233Z" fill="#9182E1"/>
<path d="M149.371 56.1561L102.566 77.5502C99.2054 79.0716 95.2479 77.5808 93.7266 74.2203L78.7759 41.1965C77.2545 37.836 78.7453 33.8785 82.1058 32.3575L128.911 10.9634C132.272 9.44198 136.229 10.9328 137.75 14.2933L152.701 47.3171C154.222 50.6776 152.731 54.6348 149.371 56.1561Z" fill="#7562E0"/>
<path d="M152.7 47.3174L137.75 14.2936C136.228 10.9334 132.271 9.44261 128.911 10.9636L113.291 18.1033C115.461 17.5133 117.845 18.6498 118.853 20.8758L129.781 45.0135C130.893 47.4698 129.907 50.315 127.58 51.3685L95.1687 66.1914C92.8414 67.2449 90.0534 66.1081 88.9414 63.652L93.726 74.2206C95.2473 77.5807 99.2048 79.0719 102.565 77.5505L149.371 56.1564C152.731 54.6351 154.222 50.6776 152.7 47.3174Z" fill="#5845C4"/>
<path d="M153.981 61.8698C151.034 63.2769 147.369 61.6765 145.849 58.3184L125.116 12.5229C123.634 9.24945 124.748 5.52771 127.621 4.15609C130.568 2.74894 134.232 4.34933 135.753 7.7075L156.485 53.5029C157.967 56.7764 156.853 60.4981 153.981 61.8698Z" fill="#70C250"/>
<path d="M41.2873 164.18H25.7051L74.4024 86.6504H89.9847L41.2873 164.18Z" fill="#7562E0"/>
<path d="M122.536 164.18H138.118L89.7033 86.5933H74.1211L122.536 164.18Z" fill="#7562E0"/>
<path d="M42.3691 170H29.6371C25.9326 170 22.9297 166.997 22.9297 163.292C22.9297 159.588 25.9326 156.585 29.6371 156.585H42.3691C46.0736 156.585 49.0765 159.588 49.0765 163.292C49.0765 166.997 46.0736 170 42.3691 170Z" fill="#70C250"/>
<path d="M121.453 170H134.186C137.89 170 140.893 166.997 140.893 163.292C140.893 159.588 137.89 156.585 134.186 156.585H121.453C117.749 156.585 114.746 159.588 114.746 163.292C114.746 166.997 117.749 170 121.453 170Z" fill="#70C250"/>
<path d="M101.804 105.987L90.6638 113.104L82.0449 99.2923L92.83 91.5142L101.804 105.987Z" fill="#44359A"/>
<path d="M62.3457 105.719L73.4863 112.837L82.0444 99.2923L70.7202 92.7622L62.3457 105.719Z" fill="#44359A"/>
<path d="M81.911 100.009C89.2886 100.009 95.2693 94.0279 95.2693 86.6503C95.2693 79.2727 89.2886 73.292 81.911 73.292C74.5334 73.292 68.5527 79.2727 68.5527 86.6503C68.5527 94.0279 74.5334 100.009 81.911 100.009Z" fill="#70C250"/>
<path d="M86.192 86.6502C86.192 89.0142 84.2755 90.9307 81.9114 90.9307C79.5473 90.9307 77.6309 89.0142 77.6309 86.6502C77.6309 84.2861 79.5473 82.3696 81.9114 82.3696C84.2755 82.37 86.192 84.2865 86.192 86.6502Z" fill="#4AA228"/>
<path d="M111.036 36.1857C109.701 36.1857 108.421 35.4297 107.816 34.1407C106.982 32.3637 107.746 30.2473 109.523 29.4133L110.476 28.966C112.253 28.1309 114.37 28.8963 115.204 30.6733C116.038 32.4503 115.274 34.5667 113.497 35.4008C112.769 35.7514 111.847 36.2322 111.036 36.1857Z" fill="white"/>
<path d="M93.665 44.3396C92.3296 44.3396 91.0502 43.5836 90.4453 42.295C89.6109 40.5183 90.3752 38.4016 92.1519 37.5672L100.201 33.789C101.977 32.9546 104.095 33.719 104.929 35.4963C105.763 37.2734 104.999 39.3897 103.222 40.2238L95.1731 44.002C94.6847 44.2311 94.1707 44.3396 93.665 44.3396Z" fill="white"/>
</svg>
