<svg width="652" height="493" viewBox="0 0 652 493" fill="none" xmlns="http://www.w3.org/2000/svg">
<g clip-path="url(#clip0)">
<path d="M121.143 38.2893L185.866 63.6392L113.548 79.1771L118.948 61.0916L110.268 50.9264L165.049 59.1242L119.175 47.4455L117.383 43.0314L114.355 35.5903L121.143 38.2893Z" fill="#70C250"/>
<path fill-rule="evenodd" clip-rule="evenodd" d="M91.8739 47.7231L91.6973 49.7663L95.0785 50.0942L95.3056 48.0763C94.1701 47.9249 93.0346 47.824 91.8739 47.7231Z" fill="white"/>
<path fill-rule="evenodd" clip-rule="evenodd" d="M101.438 48.8339L98.0316 48.3799L97.7793 50.3978L101.161 50.8518L101.438 48.8339Z" fill="white"/>
<path fill-rule="evenodd" clip-rule="evenodd" d="M107.52 49.817L104.139 49.2368L103.811 51.2547L107.167 51.8096L107.52 49.817Z" fill="white"/>
<path fill-rule="evenodd" clip-rule="evenodd" d="M76.787 49.0348V46.9917L73.3301 47.0421L73.3805 49.0853L76.787 49.0348Z" fill="white"/>
<path fill-rule="evenodd" clip-rule="evenodd" d="M82.9668 47.1187C81.806 47.1187 80.6705 47.1187 79.5098 47.1187V49.1618C80.6453 49.1618 81.7808 49.1618 82.9163 49.1618L82.9668 47.1187Z" fill="white"/>
<path fill-rule="evenodd" clip-rule="evenodd" d="M85.666 47.27V49.3132C86.8015 49.3132 87.937 49.4393 89.0472 49.5402L89.2239 47.497C87.9622 47.5222 86.8267 47.3205 85.666 47.27Z" fill="white"/>
<path fill-rule="evenodd" clip-rule="evenodd" d="M58.1897 48.6064C57.0542 48.8587 55.9187 49.0857 54.7832 49.3884L55.2879 51.3559C56.3729 51.0784 57.5084 50.8766 58.5934 50.6244L58.1897 48.6064Z" fill="white"/>
<path fill-rule="evenodd" clip-rule="evenodd" d="M60.9883 48.1269L61.3163 50.1448C62.4266 49.943 63.5621 49.8421 64.6723 49.6908L64.4452 47.6729C63.2088 47.799 62.0733 47.9251 60.9883 48.1269Z" fill="white"/>
<path fill-rule="evenodd" clip-rule="evenodd" d="M70.6534 49.2121L70.5272 47.1689C69.3918 47.1689 68.231 47.3203 67.0703 47.396L67.2469 49.4391C68.3824 49.3634 69.5179 49.2373 70.6534 49.2121Z" fill="white"/>
<path fill-rule="evenodd" clip-rule="evenodd" d="M42.0641 57.6111L40.7772 56.022C39.8688 56.8039 38.9857 57.6615 38.2539 58.5444L39.7679 59.9065C40.4239 58.9732 41.2314 58.1912 42.0641 57.6111Z" fill="white"/>
<path fill-rule="evenodd" clip-rule="evenodd" d="M47.1097 54.3068L46.2013 52.4907C45.1415 52.9952 44.1322 53.651 43.0977 54.2312L44.2079 55.9464C45.1668 55.3914 46.1004 54.7861 47.1097 54.3068Z" fill="white"/>
<path fill-rule="evenodd" clip-rule="evenodd" d="M52.6883 52.0868L52.0827 50.1445L48.752 51.3301L49.5089 53.2218L52.6883 52.0868Z" fill="white"/>
<path fill-rule="evenodd" clip-rule="evenodd" d="M32.8516 73.0737C32.8516 74.2592 33.003 75.4448 33.0787 76.6303L35.0973 76.4033C35.0973 75.2934 34.9459 74.1836 34.8954 73.0737H32.8516Z" fill="white"/>
<path fill-rule="evenodd" clip-rule="evenodd" d="M35.757 67.196L33.7889 66.6411L33.4104 68.432C33.2669 69.0199 33.174 69.6191 33.1328 70.2229L35.1767 70.4247C35.2094 69.8798 35.2938 69.3392 35.429 68.8104L35.757 67.196Z" fill="white"/>
<path fill-rule="evenodd" clip-rule="evenodd" d="M37.2201 63.2862L38.0275 61.8484L36.3369 60.7134L35.4285 62.3025C35.0995 62.8174 34.8287 63.3673 34.6211 63.942L36.5136 64.7492C36.6976 64.2383 36.9344 63.748 37.2201 63.2862Z" fill="white"/>
<path fill-rule="evenodd" clip-rule="evenodd" d="M37.5195 91.335C38.0242 92.3692 38.4784 93.4538 39.0588 94.4375L40.8755 93.5043C40.2952 92.5205 39.8662 91.4863 39.3615 90.4521L37.5195 91.335Z" fill="white"/>
<path fill-rule="evenodd" clip-rule="evenodd" d="M35.1484 85.5341L36.3849 88.7879L38.2773 88.006L37.0914 84.853L35.1484 85.5341Z" fill="white"/>
<path fill-rule="evenodd" clip-rule="evenodd" d="M35.5519 79.0513L33.5332 79.4296L33.8612 81.1701L34.3659 82.86L36.3341 82.3304L35.8547 80.716L35.5519 79.0513Z" fill="white"/>
<path fill-rule="evenodd" clip-rule="evenodd" d="M47.2871 107.227L49.3815 109.976L50.9964 108.69L48.9273 105.991L47.2871 107.227Z" fill="white"/>
<path fill-rule="evenodd" clip-rule="evenodd" d="M43.7051 102.156L45.6733 105.006L47.3387 103.821L45.3957 101.021L43.7051 102.156Z" fill="white"/>
<path fill-rule="evenodd" clip-rule="evenodd" d="M40.4219 96.9097C40.9518 97.9186 41.6078 98.8771 42.2134 99.8608L43.9545 98.7762C43.3741 97.8177 42.7181 96.8844 42.1882 95.8755L40.4219 96.9097Z" fill="white"/>
<path fill-rule="evenodd" clip-rule="evenodd" d="M60.811 119.939L59.3223 121.351L61.7194 123.823L63.1829 122.386L60.811 119.939Z" fill="white"/>
<path fill-rule="evenodd" clip-rule="evenodd" d="M55.1328 116.811C55.8898 117.694 56.6721 118.526 57.4543 119.334L58.9682 117.946C58.186 117.114 57.4038 116.281 56.672 115.424L55.1328 116.811Z" fill="white"/>
<path fill-rule="evenodd" clip-rule="evenodd" d="M51.1465 112.12C51.853 113.002 52.5848 113.91 53.3418 114.642L54.9062 113.305C54.1492 112.473 53.4427 111.565 52.7109 110.783L51.1465 112.12Z" fill="white"/>
<path fill-rule="evenodd" clip-rule="evenodd" d="M73.9817 132.728L72.6191 134.241L75.1677 136.537L76.5303 135.023L73.9817 132.728Z" fill="white"/>
<path fill-rule="evenodd" clip-rule="evenodd" d="M69.4931 128.591L68.0801 130.08L70.6034 132.425L71.9912 130.912L69.4931 128.591Z" fill="white"/>
<path fill-rule="evenodd" clip-rule="evenodd" d="M65.1024 124.353L63.6641 125.791L66.1369 128.212L67.55 126.724L65.1024 124.353Z" fill="white"/>
<path fill-rule="evenodd" clip-rule="evenodd" d="M87.9627 144.659L86.6758 146.248L89.3757 148.392L90.6374 146.777L87.9627 144.659Z" fill="white"/>
<path fill-rule="evenodd" clip-rule="evenodd" d="M83.2457 140.774L81.9336 142.338L84.5831 144.533L85.87 142.944L83.2457 140.774Z" fill="white"/>
<path fill-rule="evenodd" clip-rule="evenodd" d="M78.5991 136.814L77.2617 138.353L79.8607 140.598L81.1729 139.034L78.5991 136.814Z" fill="white"/>
<path fill-rule="evenodd" clip-rule="evenodd" d="M102.549 155.858L101.338 157.498L104.139 159.516L105.325 157.851L102.549 155.858Z" fill="white"/>
<path fill-rule="evenodd" clip-rule="evenodd" d="M97.6544 152.2L96.418 153.815L99.1684 155.883L100.38 154.243L97.6544 152.2Z" fill="white"/>
<path fill-rule="evenodd" clip-rule="evenodd" d="M92.8066 148.493L91.5449 150.107L94.2701 152.201L95.5065 150.562L92.8066 148.493Z" fill="white"/>
<path fill-rule="evenodd" clip-rule="evenodd" d="M120.489 168.243L117.637 166.376L116.502 168.092L119.379 169.958L120.489 168.243Z" fill="white"/>
<path fill-rule="evenodd" clip-rule="evenodd" d="M112.565 162.945L111.404 164.635L114.23 166.578L115.391 164.862L112.565 162.945Z" fill="white"/>
<path fill-rule="evenodd" clip-rule="evenodd" d="M107.569 159.465L106.383 161.13L109.184 163.097L110.344 161.407L107.569 159.465Z" fill="white"/>
<path d="M325.987 492.976C506.025 492.976 651.975 481.378 651.975 467.071C651.975 452.764 506.025 441.166 325.987 441.166C145.949 441.166 0 452.764 0 467.071C0 481.378 145.949 492.976 325.987 492.976Z" fill="#F4F4F4"/>
<path d="M243.122 19.3974L252.66 24.5935L243.122 29.8148L237.923 39.3495L232.7 29.8148L223.162 24.5935L232.7 19.3974L237.923 9.86279L243.122 19.3974Z" fill="white"/>
<path d="M266.235 36.3224L271.761 39.3492L266.235 42.3509L263.207 47.8749L260.204 42.3509L254.678 39.3492L260.204 36.3224L263.207 30.7983L266.235 36.3224Z" fill="white"/>
<path d="M364.141 24.8204H359.22C358.662 24.8221 358.117 24.6474 357.664 24.3213C357.211 23.9951 356.872 23.5342 356.697 23.0043C356.366 21.944 355.944 20.9144 355.435 19.927C355.18 19.4292 355.088 18.8633 355.175 18.3104C355.261 17.7576 355.52 17.2462 355.915 16.8497L359.397 13.3688C359.891 12.8683 360.169 12.1931 360.169 11.4896C360.169 10.7861 359.891 10.1109 359.397 9.61044L357.277 7.49164C356.777 6.99718 356.101 6.71989 355.397 6.71989C354.693 6.71989 354.018 6.99718 353.517 7.49164L350.035 10.9725C349.653 11.3894 349.142 11.6658 348.583 11.7573C348.025 11.8488 347.452 11.7501 346.957 11.477C345.973 10.971 344.953 10.541 343.904 10.1906C343.358 10.038 342.879 9.70621 342.545 9.24863C342.211 8.79105 342.041 8.23435 342.062 7.66821V2.62344C342.065 2.27351 341.999 1.9264 341.867 1.60215C341.735 1.27791 341.541 0.982948 341.295 0.734334C341.048 0.48572 340.755 0.288371 340.432 0.153696C340.109 0.0190219 339.762 -0.0503088 339.412 -0.050293H336.409C335.724 -0.0176891 335.079 0.279132 334.608 0.777759C334.138 1.27639 333.879 1.93798 333.886 2.62344V7.66821C333.908 8.23106 333.742 8.78522 333.412 9.24236C333.083 9.6995 332.61 10.0333 332.069 10.1906C331.012 10.5409 329.983 10.9709 328.991 11.477C328.498 11.7437 327.931 11.8389 327.378 11.7476C326.825 11.6562 326.318 11.3835 325.938 10.9725L322.43 7.49164C321.929 6.99718 321.254 6.71989 320.55 6.71989C319.846 6.71989 319.171 6.99718 318.67 7.49164L316.551 9.61044C316.056 10.1109 315.779 10.7861 315.779 11.4896C315.779 12.1931 316.056 12.8683 316.551 13.3688L320.058 16.8497C320.453 17.2462 320.712 17.7576 320.798 18.3104C320.884 18.8633 320.793 19.4292 320.538 19.927C320.031 20.9187 319.601 21.9474 319.251 23.0043C319.093 23.5452 318.759 24.0179 318.302 24.347C317.845 24.6762 317.29 24.8428 316.727 24.8204H311.807C311.459 24.8035 311.111 24.8553 310.783 24.9729C310.455 25.0906 310.153 25.2718 309.896 25.5061C309.638 25.7404 309.429 26.0232 309.28 26.3384C309.132 26.6535 309.047 26.9949 309.031 27.3428V30.3697C309.064 31.0544 309.361 31.6998 309.86 32.1702C310.358 32.6406 311.02 32.8993 311.706 32.892H316.626C317.193 32.8711 317.75 33.0414 318.207 33.3754C318.665 33.7094 318.997 34.1878 319.15 34.7334C319.5 35.782 319.931 36.8024 320.437 37.7855C320.713 38.278 320.816 38.849 320.729 39.4069C320.642 39.9648 320.37 40.4775 319.957 40.8628L316.45 44.3437C315.955 44.8441 315.678 45.5193 315.678 46.2228C315.678 46.9264 315.955 47.6016 316.45 48.102L318.569 50.2208C319.07 50.7153 319.746 50.9926 320.449 50.9926C321.153 50.9926 321.829 50.7153 322.329 50.2208L325.938 46.866C326.321 46.4591 326.829 46.1912 327.382 46.1045C327.935 46.0177 328.501 46.117 328.991 46.3868C329.978 46.8953 331.009 47.3173 332.069 47.648C332.599 47.8234 333.06 48.1618 333.387 48.6148C333.713 49.0677 333.888 49.6122 333.886 50.1704V55.2152C333.886 55.8841 334.152 56.5257 334.625 56.9987C335.098 57.4718 335.74 57.7375 336.409 57.7375H339.412C339.754 57.7546 340.096 57.702 340.417 57.583C340.737 57.4639 341.031 57.2808 341.278 57.0449C341.526 56.8089 341.724 56.525 341.858 56.2105C341.993 55.8959 342.062 55.5573 342.062 55.2152V50.1704C342.041 49.6042 342.211 49.0475 342.545 48.59C342.879 48.1324 343.358 47.8006 343.904 47.648C344.956 47.3171 345.978 46.8951 346.957 46.3868C347.45 46.1107 348.021 46.0079 348.579 46.0948C349.137 46.1817 349.65 46.4533 350.035 46.866L353.517 50.347C354.018 50.8414 354.693 51.1187 355.397 51.1187C356.101 51.1187 356.777 50.8414 357.277 50.347L359.397 48.2281C359.891 47.7277 360.169 47.0525 360.169 46.349C360.169 45.6454 359.891 44.9703 359.397 44.4698L355.915 40.9889C355.502 40.6036 355.23 40.091 355.143 39.533C355.056 38.9751 355.159 38.4042 355.435 37.9116C355.944 36.9328 356.366 35.9116 356.697 34.8595C356.868 34.3249 357.205 33.8585 357.658 33.5275C358.112 33.1965 358.659 33.0182 359.22 33.0182H364.141C364.482 33.0353 364.824 32.9827 365.145 32.8636C365.466 32.7445 365.759 32.5614 366.007 32.3255C366.255 32.0895 366.452 31.8056 366.587 31.4911C366.721 31.1765 366.791 30.8379 366.79 30.4958V27.3428C366.791 27.0007 366.721 26.662 366.587 26.3475C366.452 26.0329 366.255 25.749 366.007 25.5131C365.759 25.2771 365.466 25.094 365.145 24.975C364.824 24.8559 364.482 24.8033 364.141 24.8204ZM347.941 30.975C347.561 32.7848 346.697 34.4576 345.441 35.8151C344.185 37.1726 342.584 38.1638 340.809 38.683C339.033 39.2023 337.15 39.23 335.36 38.7634C333.57 38.2968 331.94 37.3532 330.645 36.0334C329.349 34.7135 328.436 33.0669 328.003 31.2691C327.57 29.4714 327.634 27.5898 328.187 25.8252C328.739 24.0606 329.761 22.479 331.143 21.2493C332.524 20.0195 334.214 19.1876 336.031 18.8424C337.672 18.5403 339.363 18.6437 340.955 19.1436C342.548 19.6436 343.994 20.5249 345.168 21.7109C346.342 22.8969 347.208 24.3516 347.691 25.9486C348.175 27.5456 348.26 29.2365 347.941 30.8741V30.975Z" fill="#70C250"/>
<path d="M563.938 408.071C566.26 412.359 571.281 409.358 571.281 409.358C571.281 409.358 571.003 407.945 568.758 406.835C567.118 406.238 565.312 406.292 563.711 406.987H560.935L559.093 407.138C566.966 404.363 563.257 395.056 563.257 395.056C562.211 395.264 561.22 395.69 560.351 396.307C559.481 396.925 558.751 397.719 558.21 398.637C556.116 401.437 556.948 406.205 557.176 407.365C554.077 407.817 551.033 408.586 548.092 409.66C548.47 409.307 548.849 408.878 549.252 408.424C552.255 404.817 550.918 398.007 550.918 398.007C540.168 399.394 542.313 409.509 542.944 411.83C539.55 413.481 536.301 415.413 533.229 417.606C534.213 416.191 534.931 414.61 535.349 412.939C536.711 407.895 532.144 401.563 532.144 401.563C521.622 408.197 529.192 417.782 530.681 419.498C528.788 420.961 527.047 422.424 525.483 423.836C523.918 425.249 522.202 426.939 520.764 428.427C521.503 426.227 521.685 423.878 521.294 421.591C520.562 415.916 513.295 411.502 513.295 411.502C505.725 422.373 516.626 428.83 519.2 430.142C516.399 433.128 513.811 436.305 511.453 439.651L512.387 440.282C512.387 440.282 514.279 437.533 517.559 433.699C521.622 446.588 535.652 440.03 535.652 440.03C535.652 440.03 535.298 436.524 530.1 433.068C526.744 430.848 521.773 431.428 519.073 431.958C521.357 429.426 523.765 427.01 526.29 424.719C527.199 423.887 528.183 423.054 529.192 422.197C532.8 434.354 545.821 428.275 545.821 428.275C545.821 428.275 545.518 425.047 540.774 421.894C537.709 420.371 534.197 420.004 530.883 420.86C534.046 418.327 537.423 416.073 540.976 414.125C543.196 425.627 555.46 420.986 555.46 420.986C555.236 419.755 554.756 418.585 554.052 417.551C553.348 416.517 552.435 415.642 551.372 414.982C548.65 413.384 545.44 412.828 542.338 413.419C546.49 411.273 550.925 409.728 555.51 408.828C555.308 419.271 566.613 417.253 566.613 417.253C566.625 416.174 566.406 415.104 565.971 414.117C565.536 413.129 564.894 412.246 564.089 411.527C561.793 409.622 558.869 408.642 555.889 408.777C557.555 408.467 559.242 408.273 560.935 408.197L563.938 408.071Z" fill="#70C250"/>
<path d="M472.693 470.072C472.693 470.072 449.226 417.102 466.208 367.991C483.19 318.88 524.244 304.452 524.244 304.452C524.244 304.452 499.919 332.602 514.024 376.491C527.398 418.035 501.938 470.072 501.938 470.072H472.693Z" fill="#70C250"/>
<path d="M480.97 470.071C480.97 470.071 474.965 362.416 500.375 334.115C477.261 369.781 486.9 470.071 486.9 470.071H480.97Z" fill="#579E3B"/>
<path d="M521.269 470.072H496.188C498.456 459.876 503.118 450.366 509.788 442.326C512.851 438.791 516.653 435.971 520.926 434.066C525.199 432.161 529.839 431.218 534.517 431.303C529.334 437.899 526.312 445.932 525.862 454.307C525.309 459.799 523.752 465.142 521.269 470.072Z" fill="#579E3B"/>
<path d="M463.253 411.527C481.522 435.338 485.61 466.363 485.963 470.071H450.561C441.578 461.772 430.551 448.379 430.375 432.235C430.223 403.455 416.85 386.378 416.85 386.378C425.953 386.926 434.825 389.461 442.842 393.806C450.86 398.151 457.827 404.2 463.253 411.527Z" fill="#70C250"/>
<path d="M504.31 470.072H502.418C506.001 461.9 515.035 442.73 523.639 438.845C515.186 444.445 507.616 461.774 504.31 470.072Z" fill="#70C250"/>
<path d="M474.812 470.072H471.128C466.788 455.77 453.591 415.992 436.912 402.85C454.172 412.385 470.245 456.552 474.812 470.072Z" fill="#70C250"/>
<path d="M430.049 474.258H535.877V470.071H430.049V474.258Z" fill="#7562E0"/>
<path d="M169.77 86.1396C165.074 86.1395 160.568 87.9957 157.235 91.3034C153.903 94.6111 152.014 99.1019 151.98 103.796C151.98 113.608 164.345 139.311 169.77 139.311C175.195 139.311 187.559 113.608 187.559 103.796C187.559 101.467 187.098 99.1606 186.203 97.0101C185.307 94.8597 183.995 92.9076 182.341 91.2663C180.688 89.6251 178.726 88.3272 176.568 87.4473C174.41 86.5674 172.1 86.123 169.77 86.1396ZM169.77 115.727C167.669 115.727 165.615 115.104 163.868 113.938C162.121 112.771 160.759 111.112 159.955 109.172C159.151 107.231 158.941 105.096 159.351 103.036C159.761 100.976 160.772 99.0841 162.258 97.599C163.744 96.1139 165.637 95.1025 167.697 94.6928C169.758 94.283 171.894 94.4933 173.835 95.2971C175.776 96.1008 177.435 97.4619 178.603 99.2082C179.77 100.955 180.393 103.008 180.393 105.108C180.366 107.907 179.236 110.582 177.246 112.552C175.257 114.521 172.57 115.626 169.77 115.626V115.727Z" fill="white"/>
<path d="M510.526 302.563C524.574 291.72 527.168 271.546 516.321 257.503C505.474 243.461 485.293 240.867 471.245 251.71C457.197 262.553 454.602 282.727 465.449 296.77C476.296 310.813 496.478 313.406 510.526 302.563Z" fill="#70C250"/>
<path d="M518.1 276.889C518.13 282.243 516.569 287.486 513.615 291.952C510.661 296.419 506.447 299.908 501.506 301.978C496.566 304.048 491.123 304.605 485.866 303.579C480.609 302.553 475.775 299.989 471.976 296.214C468.178 292.438 465.587 287.62 464.531 282.371C463.475 277.122 464.002 271.677 466.044 266.727C468.087 261.778 471.554 257.546 476.006 254.568C480.457 251.59 485.693 250 491.05 250C498.2 249.993 505.061 252.819 510.131 257.859C515.201 262.899 518.066 269.741 518.1 276.889Z" fill="#70C250"/>
<g clip-path="url(#clip1)">
<path d="M333.064 258.201C338.631 253.903 339.659 245.905 335.36 240.337C331.062 234.77 323.064 233.742 317.496 238.041C311.929 242.339 310.901 250.337 315.2 255.905C319.498 261.472 327.496 262.5 333.064 258.201Z" fill="#F7931E"/>
<path d="M336.469 246.75C336.481 248.873 335.862 250.951 334.692 252.722C333.521 254.493 331.851 255.876 329.893 256.697C327.935 257.517 325.778 257.738 323.695 257.331C321.611 256.924 319.696 255.908 318.19 254.411C316.685 252.914 315.658 251.004 315.24 248.923C314.821 246.842 315.03 244.684 315.84 242.721C316.649 240.759 318.023 239.081 319.787 237.901C321.551 236.72 323.626 236.09 325.749 236.09C328.583 236.087 331.302 237.208 333.311 239.206C335.32 241.204 336.456 243.916 336.469 246.75Z" fill="#FBBE17"/>
<path d="M329 248.56C329.008 248.958 328.933 249.353 328.78 249.72C328.629 250.056 328.407 250.356 328.13 250.6C327.836 250.859 327.497 251.062 327.13 251.2C326.71 251.358 326.268 251.456 325.82 251.49V253.09C325.829 253.123 325.829 253.157 325.82 253.19C325.795 253.223 325.76 253.248 325.72 253.26C325.659 253.285 325.596 253.302 325.53 253.31C325.427 253.321 325.323 253.321 325.22 253.31H324.83L324.6 253.25C324.555 253.227 324.519 253.188 324.5 253.14C324.486 253.091 324.486 253.039 324.5 252.99V251.47L323.89 251.36C323.717 251.317 323.547 251.264 323.38 251.2L322.98 251.03C322.886 250.982 322.798 250.922 322.72 250.85C322.663 250.776 322.622 250.691 322.6 250.6C322.586 250.434 322.586 250.266 322.6 250.1C322.6 249.93 322.6 249.79 322.6 249.68C322.607 249.595 322.624 249.511 322.65 249.43C322.669 249.38 322.7 249.335 322.74 249.3C322.783 249.29 322.828 249.29 322.87 249.3C322.974 249.315 323.073 249.352 323.16 249.41C323.313 249.506 323.474 249.589 323.64 249.66C323.866 249.761 324.1 249.842 324.34 249.9C324.666 249.987 325.003 250.028 325.34 250.02C325.798 250.053 326.254 249.937 326.64 249.69C326.777 249.593 326.886 249.464 326.96 249.314C327.033 249.163 327.068 248.997 327.06 248.83C327.07 248.619 327.006 248.41 326.88 248.24C326.745 248.073 326.578 247.934 326.39 247.83C326.17 247.707 325.939 247.603 325.7 247.52L324.91 247.22C324.639 247.119 324.375 246.998 324.12 246.86C323.864 246.725 323.631 246.549 323.43 246.34C323.22 246.128 323.054 245.876 322.94 245.6C322.811 245.262 322.75 244.902 322.76 244.54C322.759 244.199 322.82 243.86 322.94 243.54C323.068 243.242 323.251 242.97 323.48 242.74C323.73 242.502 324.021 242.312 324.34 242.18C324.712 242.031 325.102 241.933 325.5 241.89V240.47C325.495 240.437 325.495 240.403 325.5 240.37C325.526 240.342 325.557 240.318 325.59 240.3C325.657 240.292 325.724 240.292 325.79 240.3H326.1C326.227 240.289 326.354 240.289 326.48 240.3C326.563 240.304 326.645 240.325 326.72 240.36C326.72 240.36 326.81 240.42 326.82 240.47C326.832 240.519 326.832 240.571 326.82 240.62V241.95L327.26 242.03L327.69 242.15L328.06 242.3C328.139 242.337 328.213 242.384 328.28 242.44C328.321 242.478 328.354 242.521 328.38 242.57C328.404 242.621 328.421 242.675 328.43 242.73C328.436 242.803 328.436 242.877 328.43 242.95C328.43 243.04 328.43 243.14 328.43 243.26C328.43 243.38 328.43 243.54 328.43 243.64C328.435 243.713 328.435 243.787 328.43 243.86C328.417 243.902 328.393 243.94 328.36 243.97C328.331 243.979 328.3 243.979 328.27 243.97C328.169 243.96 328.07 243.929 327.98 243.88C327.833 243.797 327.679 243.727 327.52 243.67C327.32 243.584 327.112 243.513 326.9 243.46C326.645 243.395 326.383 243.361 326.12 243.36C325.894 243.358 325.669 243.385 325.45 243.44C325.289 243.481 325.136 243.553 325 243.65C324.893 243.735 324.807 243.845 324.75 243.97C324.697 244.1 324.67 244.239 324.67 244.38C324.663 244.593 324.73 244.802 324.86 244.97C324.993 245.14 325.16 245.279 325.35 245.38C325.575 245.501 325.809 245.604 326.05 245.69L326.85 245.99C327.13 246.1 327.39 246.22 327.65 246.35C327.907 246.485 328.143 246.657 328.35 246.86C328.561 247.07 328.731 247.317 328.85 247.59C328.959 247.901 329.01 248.23 329 248.56Z" fill="white"/>
</g>
<path d="M430.074 73.5776H221.925C211.181 73.5776 202.471 82.2846 202.471 93.0252V454.811C202.471 465.551 211.181 474.258 221.925 474.258H430.074C440.819 474.258 449.529 465.551 449.529 454.811V93.0252C449.529 82.2846 440.819 73.5776 430.074 73.5776Z" fill="#7562E0"/>
<path d="M280.213 87.703C280.213 88.4364 279.996 89.1533 279.588 89.763C279.181 90.3728 278.601 90.848 277.924 91.1287C277.246 91.4093 276.5 91.4828 275.781 91.3397C275.061 91.1966 274.4 90.8435 273.881 90.3249C273.363 89.8063 273.009 89.1457 272.866 88.4264C272.723 87.7071 272.797 86.9616 273.077 86.2841C273.358 85.6065 273.833 85.0274 274.443 84.62C275.053 84.2126 275.771 83.9951 276.504 83.9951C276.991 83.9951 277.474 84.091 277.924 84.2774C278.374 84.4637 278.783 84.7368 279.127 85.0811C279.471 85.4255 279.745 85.8342 279.931 86.2841C280.117 86.7339 280.213 87.2161 280.213 87.703Z" fill="white"/>
<path d="M367.825 91.1336H288.239C287.77 91.1369 287.305 91.0473 286.87 90.8701C286.436 90.6929 286.04 90.4314 285.707 90.1008C285.374 89.7702 285.11 89.377 284.93 88.9439C284.749 88.5107 284.656 88.0462 284.656 87.577C284.653 87.1057 284.743 86.6384 284.922 86.2023C285.101 85.7663 285.365 85.3701 285.698 85.0368C286.032 84.7035 286.428 84.4398 286.864 84.261C287.3 84.0822 287.768 83.9919 288.239 83.9952H367.825C368.292 83.9985 368.754 84.0938 369.184 84.2756C369.615 84.4573 370.005 84.7221 370.333 85.0547C370.661 85.3873 370.921 85.7813 371.096 86.214C371.272 86.6468 371.361 87.1099 371.357 87.577C371.357 88.5159 370.986 89.4167 370.324 90.083C369.663 90.7493 368.764 91.1269 367.825 91.1336Z" fill="white"/>
<path d="M211.1 97.1367V454.634C211.1 457.404 212.2 460.06 214.159 462.018C216.118 463.977 218.776 465.077 221.546 465.077H430.426C433.197 465.077 435.854 463.977 437.813 462.018C439.772 460.06 440.873 457.404 440.873 454.634V97.1367H211.1Z" fill="#D7E4FF"/>
<path d="M423.387 332.526V316.988H234.365V332.526H423.387Z" fill="#B8C6F4"/>
<path d="M237.039 327.607V479.203V479.505V479.808L243.953 484.752L250.993 479.707L258.033 484.752L265.149 479.657L272.265 484.752L279.128 479.833L286.017 484.752L293.132 479.657L300.248 484.752L307.288 479.707L314.303 484.752L314.328 484.727L314.354 484.752L321.444 479.682L328.56 484.752L328.585 484.727L328.61 484.752L335.625 479.707L342.665 484.752L349.781 479.657L356.897 484.752L363.785 479.833L370.649 484.752L377.764 479.657L384.88 484.752L391.92 479.707L398.96 484.752L406.076 479.657L413.192 484.752L420.535 479.505H420.711V327.607H237.039Z" fill="#B8C6F4"/>
<path d="M402.822 474.864L409.711 479.808L416.827 474.713H417.003V327.607H239.135V474.41V474.713V474.99L245.822 479.808L252.635 474.915L259.447 479.808L266.336 474.864L273.225 479.808L279.886 475.041L286.548 479.808L293.437 474.864L300.35 479.808L307.138 474.915L313.951 479.808L313.976 479.783L314.002 479.808L320.89 474.889L327.754 479.808L327.779 479.783L327.804 479.808L334.617 474.915L341.43 479.808L348.319 474.864L355.207 479.808L361.869 475.041L368.53 479.808L375.419 474.864L382.308 479.808L389.121 474.915L395.934 479.808L402.822 474.864Z" fill="white"/>
<path d="M405.496 437.205V432.362H330.402V437.205H405.496Z" fill="#E0EDFE"/>
<path d="M405.496 424.82V422.398H254.072V424.82H405.496Z" fill="#E0EDFE"/>
<path d="M405.496 416.874V412.031H330.402V416.874H405.496Z" fill="#E0EDFE"/>
<path d="M405.523 404.49V402.069H254.099V404.49H405.523Z" fill="#E0EDFE"/>
<path d="M405.496 394.527V389.684H330.402V394.527H405.496Z" fill="#E0EDFE"/>
<path d="M405.523 382.141V379.72H254.099V382.141H405.523Z" fill="#E0EDFE"/>
<path d="M405.496 373.187V368.344H330.402V373.187H405.496Z" fill="#E0EDFE"/>
<path d="M405.496 360.777V358.355H254.072V360.777H405.496Z" fill="#E0EDFE"/>
<path d="M542.765 159.339H469.109C466.823 159.339 464.971 161.191 464.971 163.476V212.334C464.971 214.619 466.823 216.471 469.109 216.471H542.765C545.05 216.471 546.903 214.619 546.903 212.334V163.476C546.903 161.191 545.05 159.339 542.765 159.339Z" fill="#826EF6"/>
<path d="M501.282 194.046H460.657C459.166 194.046 457.957 195.255 457.957 196.745V207.768C457.957 209.259 459.166 210.467 460.657 210.467H501.282C502.774 210.467 503.982 209.259 503.982 207.768V196.745C503.982 195.255 502.774 194.046 501.282 194.046Z" fill="#7562E0"/>
<path d="M531.815 175.18H469.893L498.532 173.364L520.208 147.837L543.17 175.432L531.815 175.18Z" fill="#EAEAEA"/>
<path d="M42.1149 444.192L39.4401 443.637L39.2383 444.646L41.9382 445.201L42.1149 444.192Z" fill="white"/>
<path d="M41.7875 445.982L39.2642 445.452L39.0371 446.436L41.6361 446.991L41.7875 445.982Z" fill="white"/>
<path d="M41.5107 447.672L39.063 447.142L38.8359 448.151L41.334 448.681L41.5107 447.672Z" fill="white"/>
<path d="M260.129 166.073L60.0549 135.628C58.4955 135.392 56.9048 135.466 55.374 135.846C53.8432 136.225 52.4024 136.903 51.1342 137.841C49.866 138.778 48.7954 139.956 47.9836 141.308C47.1718 142.66 46.635 144.158 46.4037 145.718L44.5364 157.901L40.8019 182.671L29.3461 257.787C29.1099 259.346 29.1838 260.936 29.5636 262.466C29.9433 263.997 30.6215 265.437 31.5591 266.705C32.4968 267.972 33.6756 269.043 35.0278 269.854C36.3801 270.666 37.8792 271.202 39.4394 271.433L239.538 301.879C241.097 302.118 242.687 302.046 244.218 301.668C245.748 301.289 247.189 300.611 248.455 299.673C249.722 298.735 250.791 297.555 251.599 296.202C252.407 294.849 252.939 293.349 253.164 291.789L264.62 216.672L268.405 191.852L270.247 179.669C270.476 178.112 270.396 176.526 270.011 175C269.626 173.474 268.945 172.039 268.005 170.776C267.065 169.514 265.886 168.449 264.535 167.642C263.183 166.835 261.686 166.302 260.129 166.073Z" fill="#7562E0"/>
<path d="M76.8093 183.227L77.6924 177.349L72.1916 176.517L71.2832 182.52C72.2702 182.255 73.3026 182.203 74.3112 182.369C75.1908 182.494 76.0387 182.785 76.8093 183.227Z" fill="#70C250"/>
<path d="M79.5367 190.792C79.7272 189.534 79.5402 188.248 78.9992 187.096C78.4582 185.944 77.5876 184.979 76.4976 184.322C75.4075 183.664 74.147 183.345 72.8754 183.404C71.6038 183.464 70.3784 183.899 69.3541 184.654C68.3299 185.41 67.5528 186.452 67.1213 187.649C66.6897 188.846 66.6231 190.144 66.9298 191.379C67.2365 192.614 67.9028 193.731 68.8443 194.587C69.7858 195.443 70.9602 196.001 72.219 196.19C73.9043 196.437 75.6187 196.008 76.9891 194.997C78.3595 193.986 79.2752 192.475 79.5367 190.792Z" fill="#70C250"/>
<path d="M69.4917 196.342L68.7852 200.983L74.286 201.816L75.0177 197.074C73.1505 197.555 71.1694 197.292 69.4917 196.342Z" fill="#70C250"/>
<path d="M91.0139 195.181L91.8466 189.683L80.4917 187.967C80.7424 188.948 80.7939 189.968 80.6431 190.969C80.4911 191.849 80.2016 192.701 79.7852 193.491L91.0139 195.181Z" fill="#70C250"/>
<path d="M77.8184 183.881C78.7936 184.649 79.5648 185.646 80.0641 186.782L92.0247 188.573L92.9078 182.771C93.032 181.973 92.837 181.158 92.3649 180.502C91.8927 179.846 91.1814 179.401 90.3845 179.265L78.8781 177.525L77.8184 183.881Z" fill="#70C250"/>
<path d="M68.5595 195.737C67.6232 194.97 66.88 193.994 66.3894 192.887L55.6401 191.248L54.9335 195.838C54.816 196.636 55.0136 197.448 55.4846 198.102C55.9556 198.757 56.663 199.202 57.4569 199.344L67.7268 200.883L68.5595 195.737Z" fill="#70C250"/>
<path d="M79.1077 194.502C78.3392 195.477 77.3427 196.248 76.2059 196.747L75.3984 202.069L86.6019 203.759C87.4008 203.883 88.2164 203.688 88.8727 203.216C89.529 202.744 89.9731 202.033 90.1093 201.237L90.8411 196.343L79.1077 194.502Z" fill="#70C250"/>
<path d="M56.5222 184.639L55.6895 190.163L65.7827 191.702C65.532 190.721 65.4805 189.701 65.6313 188.7C65.7658 187.815 66.0563 186.961 66.4893 186.178L56.5222 184.639Z" fill="#70C250"/>
<path d="M67.2468 185.144C68.022 184.192 69.0064 183.433 70.1234 182.924L71.1075 176.34L61.1657 174.827C60.3668 174.703 59.5512 174.898 58.8949 175.37C58.2386 175.842 57.7944 176.553 57.6582 177.349L56.7246 183.479L67.2468 185.144Z" fill="#70C250"/>
<path d="M233.215 267.864L190.653 261.414C187.581 260.949 184.712 263.061 184.246 266.133L182.824 275.51C182.359 278.581 184.472 281.448 187.545 281.914L230.106 288.364C233.179 288.829 236.047 286.717 236.513 283.645L237.935 274.268C238.401 271.197 236.287 268.33 233.215 267.864Z" fill="#70C250"/>
<path d="M93.7918 220.884L54.7056 214.957C53.1916 214.73 51.829 215.31 51.6776 216.268L50.6935 222.877C50.5421 223.836 51.6524 224.794 53.2168 225.021L92.3282 230.949C93.8422 231.176 95.1796 230.596 95.331 229.637L96.3403 223.028C96.4917 222.07 95.3562 221.111 93.7918 220.884Z" fill="white"/>
<path d="M142.493 228.251L103.407 222.323C101.893 222.096 100.53 222.701 100.404 223.66L99.3947 230.243C99.2433 231.202 100.354 232.186 101.918 232.413L141.004 238.34C142.518 238.567 143.881 237.962 144.032 237.003L145.016 230.42C145.142 229.461 144.032 228.478 142.493 228.251Z" fill="white"/>
<path d="M191.166 235.641L152.08 229.714C150.541 229.487 149.204 230.067 149.052 231.025L148.043 237.634C147.891 238.592 149.027 239.551 150.566 239.778L189.678 245.706C191.192 245.933 192.554 245.353 192.706 244.394L193.715 237.785C193.791 236.827 192.68 235.868 191.166 235.641Z" fill="white"/>
<path d="M239.815 243.006L200.729 237.078C199.215 236.851 197.852 237.456 197.701 238.415L196.691 244.998C196.691 245.957 197.676 246.941 199.215 247.168L238.301 253.095C239.84 253.322 241.178 252.717 241.329 251.758L242.338 245.175C242.464 244.267 241.329 243.233 239.815 243.006Z" fill="white"/>
<path d="M372.163 282.506H279.81C274.763 282.506 270.902 279.505 270.902 275.797V236.044C270.902 232.362 274.889 229.36 279.81 229.36H372.163C377.084 229.36 381.07 232.362 381.07 236.044V275.797C381.07 279.581 377.084 282.506 372.163 282.506Z" fill="#7562E0"/>
<path d="M313.749 250.976C313.771 252.373 313.522 253.76 313.017 255.063C312.568 256.216 311.85 257.245 310.922 258.064C309.941 258.92 308.788 259.556 307.541 259.931C306.01 260.383 304.418 260.595 302.823 260.561H300.526V269.314C300.526 269.451 300.482 269.583 300.4 269.692C300.276 269.824 300.119 269.92 299.946 269.97C299.666 270.054 299.379 270.113 299.088 270.146H297.725H296.388C296.097 270.115 295.81 270.056 295.53 269.97C295.357 269.92 295.2 269.824 295.076 269.692C295.037 269.569 295.037 269.437 295.076 269.314V244.645C295.046 244.385 295.073 244.121 295.156 243.873C295.239 243.624 295.376 243.397 295.556 243.207C295.737 243.017 295.957 242.869 296.201 242.773C296.445 242.677 296.707 242.636 296.968 242.652H303.226C303.882 242.652 304.513 242.652 305.093 242.652C305.798 242.717 306.497 242.827 307.188 242.98C308.068 243.147 308.919 243.445 309.711 243.863C310.517 244.29 311.243 244.853 311.856 245.528C312.468 246.216 312.932 247.024 313.219 247.899C313.568 248.887 313.747 249.928 313.749 250.976ZM307.92 251.38C307.95 250.557 307.767 249.741 307.39 249.009C307.108 248.452 306.681 247.981 306.153 247.647C305.678 247.347 305.145 247.15 304.589 247.067C304.026 247.028 303.461 247.028 302.898 247.067H300.526V256.374H303.05C303.816 256.398 304.579 256.269 305.295 255.996C305.859 255.786 306.362 255.439 306.759 254.987C307.164 254.546 307.465 254.02 307.642 253.448C307.851 252.78 307.945 252.08 307.92 251.38Z" fill="white"/>
<path d="M337.592 268.004C337.729 268.397 337.831 268.802 337.895 269.214C337.928 269.329 337.93 269.451 337.898 269.567C337.867 269.682 337.805 269.787 337.719 269.87C337.49 270.054 337.204 270.152 336.911 270.148C336.365 270.177 335.817 270.177 335.271 270.148H333.505C333.199 270.132 332.895 270.09 332.596 270.021C332.417 269.985 332.256 269.887 332.142 269.744C332.05 269.614 331.982 269.469 331.94 269.315L330.098 263.791H319.778L318.037 269.164C317.989 269.339 317.922 269.509 317.835 269.668C317.713 269.808 317.556 269.913 317.381 269.971C317.101 270.057 316.814 270.116 316.523 270.148H315.034H313.52C313.24 270.139 312.972 270.032 312.763 269.845C312.685 269.747 312.63 269.632 312.604 269.51C312.578 269.387 312.58 269.26 312.612 269.139C312.677 268.735 312.778 268.338 312.914 267.953L321.368 243.637C321.447 243.434 321.549 243.239 321.67 243.057C321.815 242.886 322.009 242.763 322.225 242.704C322.555 242.614 322.893 242.563 323.235 242.553H326.969C327.36 242.563 327.749 242.614 328.13 242.704C328.358 242.751 328.564 242.876 328.71 243.057C328.849 243.251 328.959 243.463 329.038 243.688L337.592 268.004ZM324.976 247.825L321.09 259.478H328.862L324.976 247.825Z" fill="white"/>
<path d="M348.974 259.679V269.315C348.976 269.385 348.964 269.455 348.938 269.52C348.912 269.585 348.873 269.644 348.822 269.693C348.708 269.836 348.547 269.934 348.368 269.971C348.089 270.057 347.801 270.116 347.51 270.147H346.173H344.81C344.52 270.113 344.233 270.054 343.952 269.971C343.773 269.934 343.613 269.836 343.498 269.693C343.459 269.57 343.459 269.438 343.498 269.315V259.679L335.928 244.747C335.707 244.356 335.529 243.941 335.398 243.511C335.341 243.411 335.311 243.298 335.311 243.183C335.311 243.068 335.341 242.955 335.398 242.855C335.666 242.672 335.983 242.575 336.307 242.578H338.124H339.688C339.996 242.591 340.301 242.642 340.596 242.729C340.789 242.782 340.964 242.886 341.101 243.032C341.219 243.189 341.32 243.358 341.404 243.536L344.457 250.271C344.76 250.927 345.037 251.608 345.34 252.314L346.223 254.584C346.476 253.827 346.753 253.096 347.031 252.365C347.308 251.633 347.586 250.952 347.864 250.296L350.866 243.612C350.927 243.42 351.021 243.241 351.144 243.082C351.261 242.92 351.43 242.804 351.623 242.754C351.897 242.646 352.187 242.586 352.481 242.578H353.945H355.812C356.143 242.581 356.467 242.677 356.746 242.855C356.811 242.957 356.846 243.075 356.846 243.196C356.846 243.316 356.811 243.435 356.746 243.536C356.609 243.952 356.44 244.357 356.241 244.747L348.974 259.679Z" fill="white"/>
<path d="M294.32 147.257C294.32 147.257 299.19 181.612 305.776 190.138C312.362 198.664 324.979 203.734 324.979 203.734C324.979 203.734 337.595 198.689 344.181 190.138C350.767 181.587 355.637 147.257 355.637 147.257L324.979 136.184L294.32 147.257Z" fill="#70C250"/>
<path d="M324.976 140.977L298.684 150.486C298.684 150.486 302.847 179.973 308.499 187.288C314.151 194.602 324.976 198.966 324.976 198.966C324.976 198.966 335.802 194.628 341.454 187.288C347.106 179.947 351.295 150.486 351.295 150.486L324.976 140.977Z" fill="white"/>
<path d="M337.923 166.704C337.923 169.264 337.163 171.765 335.741 173.893C334.319 176.021 332.297 177.68 329.932 178.659C327.566 179.639 324.964 179.895 322.453 179.396C319.942 178.896 317.635 177.664 315.825 175.854C314.014 174.045 312.781 171.739 312.282 169.229C311.782 166.719 312.039 164.117 313.019 161.753C313.998 159.388 315.657 157.367 317.786 155.945C319.915 154.524 322.418 153.765 324.978 153.765C328.411 153.765 331.704 155.128 334.131 157.555C336.559 159.981 337.923 163.273 337.923 166.704Z" fill="#70C250"/>
<path d="M321.774 173.111C321.669 173.201 321.535 173.251 321.396 173.251C321.257 173.251 321.123 173.201 321.017 173.111L315.365 167.46L317.106 165.695L321.093 169.655C321.142 169.705 321.201 169.745 321.266 169.773C321.331 169.8 321.401 169.814 321.472 169.814C321.542 169.814 321.612 169.8 321.677 169.773C321.742 169.745 321.801 169.705 321.85 169.655L332.726 159.565L334.416 161.382L321.774 173.111Z" fill="white"/>
<path d="M445.214 123.849L435.676 129.071L445.214 134.292L450.412 143.827L455.635 134.292L465.173 129.071L455.635 123.849L450.412 114.34L445.214 123.849Z" fill="#EAEAEA"/>
<path d="M422.1 140.799L416.574 143.826L422.1 146.828L425.128 152.352L428.131 146.828L433.657 143.826L428.131 140.799L425.128 135.275L422.1 140.799Z" fill="white"/>
</g>
<defs>
<clipPath id="clip0">
<rect width="652" height="493" fill="white"/>
</clipPath>
<clipPath id="clip1">
<rect width="25.51" height="25.51" fill="white" transform="translate(313 234)"/>
</clipPath>
</defs>
</svg>
