<svg width="100%" height="100%" viewBox="0 0 843 78" fill="none" xmlns="http://www.w3.org/2000/svg">
<path d="M817.703 49.9492V47.3477C817.703 45.0977 818.184 43.1406 819.145 41.4766C820.105 39.8125 821.863 38.043 824.418 36.168C826.879 34.4102 828.496 32.9805 829.27 31.8789C830.066 30.7773 830.465 29.5469 830.465 28.1875C830.465 26.6641 829.902 25.5039 828.777 24.707C827.652 23.9102 826.082 23.5117 824.066 23.5117C820.551 23.5117 816.543 24.6602 812.043 26.957L808.211 19.2578C813.438 16.3281 818.98 14.8633 824.84 14.8633C829.668 14.8633 833.5 16.0234 836.336 18.3438C839.195 20.6641 840.625 23.7578 840.625 27.625C840.625 30.2031 840.039 32.4297 838.867 34.3047C837.695 36.1797 835.469 38.2891 832.188 40.6328C829.938 42.2969 828.508 43.5625 827.898 44.4297C827.312 45.2969 827.02 46.4336 827.02 47.8398V49.9492H817.703ZM816.578 61.9727C816.578 60.0039 817.105 58.5156 818.16 57.5078C819.215 56.5 820.75 55.9961 822.766 55.9961C824.711 55.9961 826.211 56.5117 827.266 57.543C828.344 58.5742 828.883 60.0508 828.883 61.9727C828.883 63.8242 828.344 65.2891 827.266 66.3672C826.188 67.4219 824.688 67.9492 822.766 67.9492C820.797 67.9492 819.273 67.4336 818.195 66.4023C817.117 65.3477 816.578 63.8711 816.578 61.9727Z" fill="#70C250"/>
<path opacity="0.8" d="M53.3906 65H41.6699L35.0957 39.5C34.8522 38.5924 34.4316 36.722 33.834 33.8887C33.2585 31.0332 32.9264 29.1185 32.8379 28.1445C32.7051 29.3398 32.373 31.2656 31.8418 33.9219C31.3105 36.556 30.901 38.4375 30.6133 39.5664L24.0723 65H12.3848L0 16.457H10.127L16.3359 42.9531C17.4206 47.8451 18.2064 52.084 18.6934 55.6699C18.8262 54.4082 19.125 52.4603 19.5898 49.8262C20.0768 47.1699 20.5306 45.1113 20.9512 43.6504L28.0234 16.457H37.752L44.8242 43.6504C45.1341 44.8678 45.5215 46.7272 45.9863 49.2285C46.4512 51.7298 46.8053 53.877 47.0488 55.6699C47.2702 53.9434 47.6243 51.7962 48.1113 49.2285C48.5983 46.6387 49.041 44.5469 49.4395 42.9531L55.6152 16.457H65.7422L53.3906 65ZM110.269 65H100.009V44.0488H80.7845V65H70.4916V16.457H80.7845V35.4824H100.009V16.457H110.269V65ZM150.911 65L147.391 53.4453H129.694L126.175 65H115.085L132.217 16.2578H144.801L162.001 65H150.911ZM144.934 44.8125C141.68 34.3424 139.843 28.4212 139.423 27.0488C139.024 25.6764 138.736 24.5918 138.559 23.7949C137.829 26.6283 135.737 33.6341 132.284 44.8125H144.934ZM185.51 65H175.217V25.0234H162.035V16.457H198.691V25.0234H185.51V65ZM221.106 65V16.457H231.399V65H221.106ZM270.912 51.5195C270.912 55.9023 269.33 59.3555 266.164 61.8789C263.021 64.4023 258.638 65.6641 253.016 65.6641C247.836 65.6641 243.254 64.6901 239.27 62.7422V53.1797C242.546 54.6406 245.313 55.6699 247.57 56.2676C249.85 56.8652 251.931 57.1641 253.813 57.1641C256.07 57.1641 257.797 56.7324 258.992 55.8691C260.21 55.0059 260.819 53.722 260.819 52.0176C260.819 51.0658 260.553 50.2246 260.022 49.4941C259.49 48.7415 258.705 48.0221 257.664 47.3359C256.646 46.6497 254.554 45.554 251.389 44.0488C248.423 42.6543 246.198 41.3151 244.715 40.0312C243.232 38.7474 242.048 37.2533 241.162 35.5488C240.277 33.8444 239.834 31.8522 239.834 29.5723C239.834 25.278 241.284 21.9023 244.184 19.4453C247.106 16.9883 251.134 15.7598 256.27 15.7598C258.793 15.7598 261.195 16.0586 263.475 16.6562C265.777 17.2539 268.179 18.0951 270.68 19.1797L267.36 27.1816C264.77 26.1191 262.623 25.3776 260.918 24.957C259.236 24.5365 257.576 24.3262 255.938 24.3262C253.99 24.3262 252.496 24.7799 251.455 25.6875C250.415 26.5951 249.895 27.7793 249.895 29.2402C249.895 30.1478 250.105 30.9447 250.526 31.6309C250.946 32.2949 251.61 32.9479 252.518 33.5898C253.447 34.2096 255.628 35.3385 259.059 36.9766C263.597 39.1458 266.707 41.3262 268.389 43.5176C270.071 45.6868 270.912 48.3542 270.912 51.5195Z" fill="#70C250"/>
<path d="M388.095 19.0079H349.137V65.8574H358.527V50.6917H388.084C389.742 50.7266 391.381 50.2833 392.857 49.4014C394.332 48.5194 395.598 47.2261 396.541 45.6365C398.553 42.5454 399.601 38.7474 399.512 34.8688C399.587 30.9693 398.541 27.1526 396.541 24.0253C395.598 22.442 394.332 21.1554 392.859 20.28C391.385 19.4046 389.748 18.9676 388.095 19.0079ZM388.095 39.6966H358.537V29.9399H388.095C389.461 29.9399 390.133 31.5702 390.133 34.8561C390.133 38.1421 389.461 39.6966 388.095 39.6966Z" fill="#7562E0"/>
<path d="M491.046 19.0081H464.448C462.898 18.9557 461.357 19.3127 459.941 20.0524C458.525 20.7921 457.271 21.8955 456.273 23.2798C454.167 26.0989 453.035 29.7291 453.096 33.4661V65.8576H462.486V33.4788C462.486 31.1281 463.136 29.9401 464.448 29.9401H491.046C492.401 29.9401 493.084 31.1281 493.084 33.4914V40.0632H468.406V50.9952H493.128V65.8576H502.507V33.4661C502.571 29.7305 501.443 26.1001 499.34 23.2798C498.326 21.8817 497.052 20.7707 495.615 20.0307C494.178 19.2906 492.616 18.941 491.046 19.0081Z" fill="#7562E0"/>
<path d="M549.553 33.4906C549.553 35.8034 548.903 36.9661 547.601 36.9661H521.004C519.703 36.9661 519.042 35.8034 519.042 33.4906V19.0073H509.663V33.4906C509.579 37.1751 510.695 40.7599 512.785 43.5253C513.782 44.9321 515.039 46.0566 516.463 46.8141C517.887 47.5716 519.44 47.9423 521.004 47.8981H529.678V65.8568H539.079V47.8981H547.558C549.133 47.9364 550.695 47.5636 552.13 46.8069C553.566 46.0503 554.837 44.9291 555.853 43.5253C557.898 40.7348 558.984 37.1596 558.9 33.4906V19.0073H549.51L549.553 33.4906Z" fill="#7562E0"/>
<path d="M747.922 19.0073V29.9393H766.073V65.8568H775.463V29.9393H793.613V19.0073H747.922Z" fill="#7562E0"/>
<path d="M417.355 57.6674V19.0073H405.623V60.4477C405.621 61.802 406.054 63.1082 406.836 64.1093C407.619 65.1103 408.695 65.7337 409.852 65.8568H445.915V57.6674H417.355Z" fill="#7562E0"/>
<path d="M299 60.3836C299 61.835 299.495 63.2269 300.375 64.2531C301.256 65.2794 302.45 65.8559 303.695 65.8559H341.883V54.9239H308.39V47.8971H341.948V36.9146H299V60.3836Z" fill="#7562E0"/>
<path d="M299 19.0059V29.9378H308.39H341.948V19.0059H299Z" fill="#70C250"/>
<path d="M640.363 60.3836C640.362 61.1017 640.482 61.8129 640.717 62.4768C640.951 63.1407 641.296 63.744 641.731 64.2523C642.166 64.7607 642.683 65.1639 643.252 65.4391C643.821 65.7143 644.431 65.8559 645.047 65.8559H683.236V54.9239H649.753V47.8971H683.236V36.9146H640.363V60.3836Z" fill="#7562E0"/>
<path d="M640.363 19.0073V29.9393H649.753H683.311V19.0073H640.363Z" fill="#7562E0"/>
<path d="M738.023 23.2787C737.016 21.8855 735.752 20.7771 734.324 20.0371C732.897 19.2971 731.344 18.9448 729.782 19.007H703.174C701.625 18.9546 700.085 19.3117 698.671 20.0515C697.257 20.7913 696.005 21.8946 695.009 23.2787C692.904 26.0978 691.772 29.728 691.832 33.465V65.8565H701.222V33.4777C701.222 31.127 701.884 29.939 703.174 29.939H729.782C731.137 29.939 731.82 31.127 731.82 33.4903V65.8565H741.21V33.465C741.272 29.7255 740.136 26.0934 738.023 23.2787Z" fill="#7562E0"/>
<path d="M629.131 23.2785C628.122 21.8858 626.855 20.7779 625.426 20.038C623.997 19.2981 622.442 18.9455 620.88 19.0068H606.036C603.639 18.9244 601.293 19.8182 599.4 21.5344C597.485 19.8137 595.116 18.9205 592.699 19.0068H577.834C576.283 18.9553 574.742 19.3127 573.327 20.0524C571.911 20.7921 570.657 21.8949 569.658 23.2785C567.563 26.1038 566.436 29.7308 566.492 33.4648V65.8563H575.882V33.4775C575.882 31.1268 576.533 29.9388 577.834 29.9388H592.699C594 29.9388 594.651 31.0636 594.705 33.2374C594.705 33.3132 594.705 33.3764 594.705 33.4648V65.8563H604.127V33.4648C604.127 33.4648 604.127 33.3511 604.127 33.2753C604.127 31.0762 604.8 29.9388 606.057 29.9388H620.901C622.267 29.9388 622.94 31.1268 622.94 33.4901V65.8563H632.329V33.4648C632.39 29.7234 631.249 26.0907 629.131 23.2785Z" fill="#7562E0"/>
</svg>
