<svg width="100%" height="100%" viewBox="0 0 365 89" fill="none" xmlns="http://www.w3.org/2000/svg">
<path opacity="0.8" d="M128.547 32H120.963L116.709 15.5C116.551 14.9128 116.279 13.7025 115.893 11.8691C115.52 10.0215 115.305 8.78255 115.248 8.15234C115.162 8.92578 114.947 10.1719 114.604 11.8906C114.26 13.5951 113.995 14.8125 113.809 15.543L109.576 32H102.014L94 0.589844H100.553L104.57 17.7344C105.272 20.8997 105.781 23.6426 106.096 25.9629C106.182 25.1465 106.375 23.8861 106.676 22.1816C106.991 20.4629 107.285 19.1309 107.557 18.1855L112.133 0.589844H118.428L123.004 18.1855C123.204 18.9733 123.455 20.1764 123.756 21.7949C124.057 23.4134 124.286 24.8027 124.443 25.9629C124.587 24.8457 124.816 23.4564 125.131 21.7949C125.446 20.1191 125.732 18.7656 125.99 17.7344L129.986 0.589844H136.539L128.547 32ZM165.35 32H158.712V18.4434H146.272V32H139.612V0.589844H146.272V12.9004H158.712V0.589844H165.35V32ZM191.648 32L189.371 24.5234H177.92L175.642 32H168.467L179.552 0.460938H187.695L198.824 32H191.648ZM187.781 18.9375C185.676 12.1628 184.487 8.33138 184.215 7.44336C183.957 6.55534 183.771 5.85352 183.656 5.33789C183.183 7.17122 181.83 11.7044 179.595 18.9375H187.781ZM214.036 32H207.376V6.13281H198.846V0.589844H222.565V6.13281H214.036V32ZM237.069 32V0.589844H243.729V32H237.069ZM269.296 23.2773C269.296 26.1133 268.272 28.3477 266.224 29.9805C264.19 31.6133 261.354 32.4297 257.716 32.4297C254.365 32.4297 251.4 31.7995 248.822 30.5391V24.3516C250.941 25.2969 252.732 25.9629 254.193 26.3496C255.668 26.7363 257.014 26.9297 258.232 26.9297C259.693 26.9297 260.81 26.6504 261.583 26.0918C262.371 25.5332 262.765 24.7025 262.765 23.5996C262.765 22.9837 262.593 22.4395 262.249 21.9668C261.906 21.4798 261.397 21.0143 260.724 20.5703C260.065 20.1263 258.712 19.4173 256.663 18.4434C254.744 17.541 253.305 16.6745 252.345 15.8438C251.385 15.013 250.619 14.0462 250.046 12.9434C249.473 11.8405 249.187 10.5514 249.187 9.07617C249.187 6.29753 250.125 4.11328 252.001 2.52344C253.892 0.933594 256.499 0.138672 259.822 0.138672C261.454 0.138672 263.008 0.332031 264.484 0.71875C265.973 1.10547 267.527 1.64974 269.146 2.35156L266.997 7.5293C265.322 6.8418 263.932 6.36198 262.829 6.08984C261.741 5.81771 260.667 5.68164 259.607 5.68164C258.346 5.68164 257.38 5.97526 256.706 6.5625C256.033 7.14974 255.697 7.91602 255.697 8.86133C255.697 9.44857 255.833 9.96419 256.105 10.4082C256.377 10.8379 256.807 11.2604 257.394 11.6758C257.995 12.0768 259.406 12.8073 261.626 13.8672C264.562 15.2708 266.575 16.6816 267.663 18.0996C268.752 19.5033 269.296 21.2292 269.296 23.2773Z" fill="#70C250"/>
<path d="M348.906 72.5391V70.9492C348.906 69.5742 349.2 68.3783 349.787 67.3613C350.374 66.3444 351.449 65.263 353.01 64.1172C354.514 63.043 355.502 62.1693 355.975 61.4961C356.462 60.8229 356.705 60.071 356.705 59.2402C356.705 58.3092 356.361 57.6003 355.674 57.1133C354.986 56.6263 354.027 56.3828 352.795 56.3828C350.646 56.3828 348.197 57.0846 345.447 58.4883L343.105 53.7832C346.299 51.9928 349.687 51.0977 353.268 51.0977C356.218 51.0977 358.56 51.8066 360.293 53.2246C362.04 54.6426 362.914 56.5332 362.914 58.8965C362.914 60.472 362.556 61.8327 361.84 62.9785C361.124 64.1243 359.763 65.4134 357.758 66.8457C356.383 67.8626 355.509 68.6361 355.137 69.166C354.779 69.696 354.6 70.3906 354.6 71.25V72.5391H348.906ZM348.219 79.8867C348.219 78.6836 348.541 77.7741 349.186 77.1582C349.83 76.5423 350.768 76.2344 352 76.2344C353.189 76.2344 354.105 76.5495 354.75 77.1797C355.409 77.8099 355.738 78.7122 355.738 79.8867C355.738 81.0182 355.409 81.9134 354.75 82.5723C354.091 83.2168 353.174 83.5391 352 83.5391C350.797 83.5391 349.866 83.224 349.207 82.5938C348.548 81.9492 348.219 81.0469 348.219 79.8867Z" fill="#70C250"/>
<path d="M60.4237 50.7869H34.3145V82.1849H40.6074V72.021H60.4165C61.5276 72.0444 62.6264 71.7473 63.6153 71.1562C64.6042 70.5652 65.4524 69.6984 66.0845 68.633C67.4328 66.5614 68.1351 64.016 68.0756 61.4166C68.1256 58.8032 67.4248 56.2453 66.0845 54.1494C65.452 53.0883 64.6041 52.2261 63.6165 51.6394C62.6288 51.0527 61.532 50.7598 60.4237 50.7869V50.7869ZM60.4237 64.6522H40.6147V58.1134H60.4237C61.3393 58.1134 61.7899 59.206 61.7899 61.4082C61.7899 63.6104 61.3393 64.6522 60.4237 64.6522Z" fill="#7562E0"/>
<path d="M129.419 50.7867H111.594C110.555 50.7515 109.522 50.9908 108.573 51.4866C107.624 51.9823 106.784 52.7218 106.115 53.6495C104.704 55.5388 103.945 57.9718 103.986 60.4763V82.1847H110.279V60.4848C110.279 58.9094 110.715 58.1132 111.594 58.1132H129.419C130.328 58.1132 130.786 58.9094 130.786 60.4933V64.8976H114.247V72.2241H130.815V82.1847H137.1V60.4763C137.144 57.9727 136.388 55.5397 134.978 53.6495C134.299 52.7125 133.445 51.9679 132.482 51.472C131.519 50.976 130.472 50.7417 129.419 50.7867V50.7867Z" fill="#7562E0"/>
<path d="M168.63 60.4937C168.63 62.0437 168.194 62.8229 167.322 62.8229H149.496C148.624 62.8229 148.181 62.0437 148.181 60.4937V50.7871H141.895V60.4937C141.84 62.9629 142.587 65.3654 143.988 67.2188C144.656 68.1616 145.499 68.9152 146.453 69.4229C147.407 69.9306 148.448 70.179 149.496 70.1494H155.31V82.1851H161.61V70.1494H167.293C168.348 70.175 169.395 69.9252 170.357 69.4181C171.319 68.911 172.171 68.1596 172.852 67.2188C174.223 65.3486 174.95 62.9526 174.894 60.4937V50.7871H168.601L168.63 60.4937Z" fill="#7562E0"/>
<path d="M301.574 50.7871V58.1136H313.739V82.1851H320.032V58.1136H332.196V50.7871H301.574Z" fill="#7562E0"/>
<path d="M80.0345 76.6966V50.7871H72.1719V78.56C72.1705 79.4677 72.4605 80.343 72.985 81.0139C73.5095 81.6848 74.2304 82.1026 75.0059 82.1851H99.175V76.6966H80.0345Z" fill="#7562E0"/>
<path d="M0.712891 78.5139C0.712891 79.4865 1.04439 80.4194 1.63447 81.1072C2.22455 81.795 3.02486 82.1813 3.85936 82.1813H29.4527V74.8548H7.00586V70.1455H29.4963V62.7852H0.712891V78.5139Z" fill="#7562E0"/>
<path d="M0.712891 50.7832V58.1097H7.00586H29.4963V50.7832H0.712891Z" fill="#70C250"/>
<path d="M229.49 78.5139C229.489 78.9951 229.57 79.4718 229.727 79.9167C229.884 80.3616 230.115 80.766 230.407 81.1067C230.699 81.4473 231.045 81.7176 231.426 81.902C231.808 82.0864 232.217 82.1813 232.629 82.1813H258.223V74.8548H235.783V70.1455H258.223V62.7852H229.49V78.5139Z" fill="#7562E0"/>
<path d="M229.49 50.7871V58.1136H235.783H258.274V50.7871H229.49Z" fill="#7562E0"/>
<path d="M294.944 53.6488C294.27 52.7151 293.422 51.9722 292.465 51.4763C291.509 50.9804 290.468 50.7443 289.421 50.7859H271.589C270.551 50.7508 269.519 50.9902 268.571 51.486C267.624 51.9818 266.785 52.7212 266.117 53.6488C264.706 55.5381 263.947 57.971 263.988 60.4755V82.184H270.281V60.484C270.281 58.9086 270.724 58.1125 271.589 58.1125H289.421C290.33 58.1125 290.787 58.9086 290.787 60.4925V82.184H297.08V60.4755C297.122 57.9694 296.36 55.5352 294.944 53.6488V53.6488Z" fill="#7562E0"/>
<path d="M221.962 53.6487C221.285 52.7153 220.436 51.9728 219.479 51.4769C218.521 50.981 217.479 50.7447 216.432 50.7858H206.483C204.877 50.7306 203.305 51.3296 202.036 52.4798C200.753 51.3266 199.165 50.7279 197.545 50.7858H187.583C186.543 50.7513 185.511 50.9908 184.562 51.4866C183.613 51.9823 182.773 52.7214 182.104 53.6487C180.699 55.5421 179.944 57.9729 179.982 60.4754V82.1839H186.275V60.4839C186.275 58.9085 186.711 58.1123 187.583 58.1123H197.545C198.417 58.1123 198.853 58.8661 198.89 60.323C198.89 60.3738 198.89 60.4161 198.89 60.4754V82.1839H205.205V60.4754C205.205 60.4754 205.205 60.3992 205.205 60.3484C205.205 58.8746 205.655 58.1123 206.498 58.1123H216.446C217.362 58.1123 217.812 58.9085 217.812 60.4924V82.1839H224.105V60.4754C224.145 57.968 223.381 55.5334 221.962 53.6487V53.6487Z" fill="#7562E0"/>
</svg>

