<svg width="478" height="627" viewBox="0 0 478 627" fill="none" xmlns="http://www.w3.org/2000/svg">
<path opacity="0.7" d="M177.056 55.484C177.051 58.7485 176.078 61.9383 174.261 64.6501C172.443 67.3619 169.863 69.4741 166.845 70.7198C163.828 71.9654 160.508 72.2886 157.307 71.6485C154.106 71.0084 151.167 69.4337 148.86 67.1235C146.553 64.8133 144.983 61.8711 144.349 58.6689C143.714 55.4667 144.042 52.1481 145.293 49.1326C146.543 46.117 148.659 43.5398 151.374 41.7267C154.089 39.9135 157.28 38.9458 160.545 38.9458C162.715 38.9458 164.865 39.3738 166.87 40.2052C168.875 41.0367 170.696 42.2553 172.23 43.7913C173.763 45.3274 174.979 47.1508 175.807 49.1571C176.635 51.1634 177.06 53.3134 177.056 55.484V55.484Z" stroke="#70C250" stroke-width="0.76" stroke-miterlimit="10"/>
<path opacity="0.7" d="M169.016 55.4838C169.017 57.1582 168.522 58.7955 167.594 60.1885C166.665 61.5815 165.343 62.6678 163.797 63.3097C162.25 63.9517 160.548 64.1206 158.906 63.795C157.264 63.4694 155.755 62.664 154.57 61.4807C153.385 60.2973 152.578 58.7892 152.251 57.1471C151.924 55.5051 152.091 53.8028 152.731 52.2557C153.372 50.7087 154.456 49.3863 155.849 48.4558C157.241 47.5254 158.877 47.0288 160.552 47.0288C162.795 47.0288 164.946 47.9193 166.533 49.5047C168.121 51.0901 169.013 53.2406 169.016 55.4838Z" fill="#70C250"/>
<path opacity="0.7" d="M139.544 58.397L127.627 62.5492L101.129 60.2031V63.9215L128.973 72.9785L144.059 69.4106" stroke="#70C250" stroke-width="1.14" stroke-miterlimit="10"/>
<path opacity="0.7" d="M127.633 62.5493L128.979 72.9786" stroke="#70C250" stroke-width="0.76" stroke-miterlimit="10"/>
<path opacity="0.7" d="M180.41 46.967L187.661 48.1976L216.7 30.0127V36.3871L187.661 63.9213L180.764 63.0625" stroke="#70C250" stroke-width="1.14" stroke-miterlimit="10"/>
<path opacity="0.7" d="M216.699 34.041V42.4252L190.015 70.9332L177.664 68.6224" stroke="#70C250" stroke-width="1.14" stroke-miterlimit="10"/>
<path opacity="0.7" d="M187.664 48.4634V63.9214" stroke="#70C250" stroke-width="0.76" stroke-miterlimit="10"/>
<path opacity="0.7" d="M157.894 76.8909C158.018 77.1299 159.912 78.9803 156.548 91.5167C150.475 114.19 129.147 138.608 112.325 155.102C103.524 164.07 96.5188 174.639 91.688 186.239C85.1365 202.264 85.0479 216.704 91.4224 227.974C99.054 241.467 115.008 249.178 138.841 250.896C142.27 251.144 145.877 251.268 149.66 251.268C173.865 251.268 205.437 246.248 243.781 236.305L238.725 216.828C196.521 227.78 163.401 232.49 140.284 230.834C128.775 230.002 114.052 227.124 108.934 218.076C106.686 214.083 105.092 206.646 110.316 193.853C114.106 184.79 119.569 176.521 126.42 169.48C155.123 141.335 173.485 115.828 176.884 92.9421C179.452 75.7488 177.717 71.8356 176.513 70.0029" stroke="#70C250" stroke-width="1.52" stroke-miterlimit="10"/>
<path opacity="0.7" d="M182.139 55.7155C182.281 43.7906 172.729 34.0088 160.804 33.8673C148.879 33.7258 139.097 43.2781 138.955 55.203C138.814 67.1279 148.366 76.9097 160.291 77.0512C172.216 77.1927 181.998 67.6404 182.139 55.7155Z" stroke="#70C250" stroke-width="1.14" stroke-miterlimit="10"/>
<path opacity="0.7" d="M169.417 35.7585L164.149 16.9361L129.993 1L120.936 6.86981L146.301 26.3296V39.229" stroke="#70C250" stroke-width="1.14" stroke-miterlimit="10"/>
<path opacity="0.7" d="M126.551 3.21387L160.548 19.6192L164.151 34.1654" stroke="#70C250" stroke-width="1.14" stroke-miterlimit="10"/>
<path opacity="0.7" d="M146.299 26.3291L160.544 19.6182" stroke="#70C250" stroke-width="0.76" stroke-miterlimit="10"/>
<path opacity="0.7" d="M158.041 84.6997C158.041 84.6997 170.515 87.1787 178.067 80.8042" stroke="#70C250" stroke-width="0.76" stroke-miterlimit="10"/>
<path opacity="0.7" d="M145.021 116.165C145.021 116.165 151.015 125.691 165.243 122.796" stroke="#70C250" stroke-width="0.76" stroke-miterlimit="10"/>
<path opacity="0.7" d="M137.531 126.913C137.531 126.913 142.1 138.015 156.123 136.341" stroke="#70C250" stroke-width="0.76" stroke-miterlimit="10"/>
<path opacity="0.7" d="M129.801 136.51C131.316 140.048 133.966 142.98 137.333 144.844C140.699 146.708 144.591 147.399 148.393 146.807" stroke="#70C250" stroke-width="0.76" stroke-miterlimit="10"/>
<path opacity="0.7" d="M120.9 146.967C120.9 146.967 122.91 158.883 138.094 158.166" stroke="#70C250" stroke-width="0.76" stroke-miterlimit="10"/>
<path opacity="0.7" d="M111.518 156.518C111.518 156.518 113.217 167.797 126.675 169.798" stroke="#70C250" stroke-width="0.76" stroke-miterlimit="10"/>
<path opacity="0.7" d="M101.43 168.321C101.43 168.321 105.122 179.635 118.428 179.122" stroke="#70C250" stroke-width="0.76" stroke-miterlimit="10"/>
<path opacity="0.7" d="M92.8672 182.292C92.8672 182.292 99.7551 194.076 111.937 190.198" stroke="#70C250" stroke-width="0.76" stroke-miterlimit="10"/>
<path opacity="0.7" d="M87.9902 197.909C87.9902 197.909 98.9242 206.62 107.919 200.999" stroke="#70C250" stroke-width="0.76" stroke-miterlimit="10"/>
<path opacity="0.7" d="M86.7012 213.96C86.7012 213.96 101.106 222.007 107.064 212.534" stroke="#70C250" stroke-width="0.76" stroke-miterlimit="10"/>
<path opacity="0.7" d="M94.8066 232.242C94.8066 232.242 106.316 236.341 114.532 223.867" stroke="#70C250" stroke-width="0.76" stroke-miterlimit="10"/>
<path opacity="0.7" d="M113.031 245.584C113.031 245.584 126.559 241.591 125.01 228.373" stroke="#70C250" stroke-width="0.76" stroke-miterlimit="10"/>
<path opacity="0.7" d="M363.361 73.084C361.797 75.9508 361.118 79.2171 361.41 82.4699C361.702 85.7227 362.952 88.8159 365.002 91.3582C367.052 93.9004 369.81 95.7776 372.927 96.7524C376.044 97.7271 379.381 97.7556 382.514 96.8342C385.647 95.9128 388.437 94.0829 390.53 91.576C392.623 89.0691 393.926 85.9977 394.273 82.7504C394.621 79.503 393.998 76.2256 392.482 73.3325C390.967 70.4394 388.628 68.0606 385.761 66.497C383.857 65.4579 381.768 64.804 379.612 64.5727C377.457 64.3414 375.276 64.5372 373.196 65.1489C371.116 65.7606 369.177 66.7763 367.489 68.1378C365.802 69.4993 364.399 71.1801 363.361 73.084V73.084Z" stroke="#70C250" stroke-width="0.76" stroke-miterlimit="10"/>
<path opacity="0.7" d="M370.434 76.9357C369.634 78.4049 369.288 80.0779 369.439 81.7437C369.589 83.4094 370.23 84.9932 371.28 86.295C372.331 87.5968 373.743 88.5583 375.339 89.0581C376.935 89.5579 378.644 89.5736 380.249 89.1032C381.854 88.6328 383.283 87.6974 384.357 86.4151C385.431 85.1328 386.101 83.561 386.282 81.8983C386.463 80.2356 386.148 78.5565 385.376 77.0729C384.604 75.5893 383.409 74.3678 381.943 73.5626C380.966 73.0261 379.893 72.6877 378.786 72.567C377.678 72.4462 376.557 72.5453 375.488 72.8587C374.418 73.1721 373.421 73.6936 372.554 74.3932C371.687 75.0929 370.966 75.9569 370.434 76.9357Z" fill="#70C250"/>
<path opacity="0.7" d="M394.886 93.624L403.359 102.973L427.741 113.606L425.962 116.864L397.188 111.481L385.652 101.132" stroke="#70C250" stroke-width="1.52" stroke-miterlimit="10"/>
<path opacity="0.7" d="M403.362 102.973L397.191 111.481" stroke="#70C250" stroke-width="0.76" stroke-miterlimit="10"/>
<path opacity="0.7" d="M425.964 116.864L419.554 120.21L395.385 117.598L378.209 102.583" stroke="#70C250" stroke-width="1.52" stroke-miterlimit="10"/>
<path opacity="0.7" d="M364.49 64.0186L357.531 61.6282L340.754 31.7656L337.699 37.361L350.005 75.4306L356.468 77.9893" stroke="#70C250" stroke-width="1.52" stroke-miterlimit="10"/>
<path opacity="0.7" d="M338.82 35.2974L334.801 42.6545L344.575 80.4586L356.527 84.3453" stroke="#70C250" stroke-width="1.52" stroke-miterlimit="10"/>
<path opacity="0.7" d="M357.403 61.8579L350.002 75.4302" stroke="#70C250" stroke-width="0.76" stroke-miterlimit="10"/>
<path opacity="0.7" d="M262.279 211.906C281.128 227.293 297.693 238.263 311.672 244.664C322.146 249.436 336.462 253.969 345.315 248.471C349.211 246.054 354.169 240.281 355.709 226.55C356.72 216.778 355.885 206.903 353.248 197.44C341.5 158.963 337.613 127.781 345.581 106.055C351.566 89.7379 354.957 87.135 356.896 86.0991" stroke="#70C250" stroke-width="1.52" stroke-miterlimit="10"/>
<path opacity="0.7" d="M369.926 101.079C369.696 101.229 367.146 101.964 364.101 114.562C358.576 137.378 365.606 169.029 372.476 191.587C375.908 203.664 376.999 216.285 375.69 228.771C373.76 245.982 366.925 258.696 355.938 265.54C342.773 273.729 325.075 272.861 303.331 262.954C300.209 261.532 296.983 259.912 293.654 258.094C280.463 250.905 265.695 240.644 249.484 227.426C248.767 226.832 248.041 226.248 247.324 225.655" stroke="#70C250" stroke-width="1.52" stroke-miterlimit="10"/>
<path opacity="0.7" d="M358.862 70.6421C356.814 74.3926 355.924 78.6664 356.305 82.9227C356.686 87.1791 358.321 91.2268 361.003 94.5538C363.685 97.8808 367.293 100.338 371.372 101.614C375.45 102.889 379.815 102.927 383.915 101.721C388.015 100.516 391.665 98.1214 394.404 94.8409C397.143 91.5605 398.847 87.5415 399.301 83.2923C399.755 79.0431 398.939 74.7547 396.955 70.9696C394.972 67.1844 391.91 64.0726 388.158 62.0277C383.13 59.2879 377.22 58.6562 371.727 60.2715C366.234 61.8868 361.606 65.6168 358.862 70.6421V70.6421Z" stroke="#70C250" stroke-width="1.52" stroke-miterlimit="10"/>
<path opacity="0.7" d="M379.508 59.4499L393.142 45.4438L430.76 47.8166L435.895 57.2986L404.315 62.2388L398.135 73.5623" stroke="#70C250" stroke-width="1.52" stroke-miterlimit="10"/>
<path opacity="0.7" d="M432.72 51.4023L395.022 49.5254L384.902 60.5656" stroke="#70C250" stroke-width="1.52" stroke-miterlimit="10"/>
<path opacity="0.7" d="M404.314 62.2389L395.018 49.5254" stroke="#70C250" stroke-width="0.76" stroke-miterlimit="10"/>
<path opacity="0.7" d="M366.07 107.835C366.07 107.835 353.932 104.037 350.355 94.8291" stroke="#70C250" stroke-width="0.76" stroke-miterlimit="10"/>
<path opacity="0.7" d="M363.291 118.599C363.291 118.599 349.046 115.27 345.115 107.691" stroke="#70C250" stroke-width="0.76" stroke-miterlimit="10"/>
<path opacity="0.7" d="M428.806 337.43C425.565 337.832 422.278 337.264 419.359 335.798C416.441 334.332 414.023 332.034 412.411 329.193C410.799 326.353 410.066 323.098 410.304 319.841C410.542 316.584 411.74 313.47 413.748 310.894C415.755 308.318 418.482 306.395 421.582 305.369C424.683 304.342 428.018 304.259 431.166 305.128C434.314 305.997 437.134 307.78 439.268 310.252C441.403 312.724 442.756 315.773 443.158 319.014C443.696 323.359 442.486 327.74 439.795 331.194C437.104 334.647 433.151 336.89 428.806 337.43V337.43Z" stroke="#70C250" stroke-width="0.76" stroke-miterlimit="10"/>
<path opacity="0.7" d="M427.768 329.443C426.107 329.65 424.422 329.358 422.926 328.607C421.43 327.855 420.19 326.677 419.364 325.221C418.538 323.765 418.162 322.096 418.284 320.426C418.406 318.757 419.021 317.161 420.05 315.84C421.08 314.52 422.477 313.534 424.067 313.009C425.656 312.483 427.366 312.44 428.98 312.886C430.593 313.332 432.039 314.246 433.133 315.513C434.227 316.781 434.92 318.344 435.126 320.006C435.401 322.233 434.78 324.478 433.401 326.248C432.021 328.017 429.995 329.167 427.768 329.443Z" fill="#70C250"/>
<path opacity="0.7" d="M421.216 300.564L415.63 289.258L414.7 262.671L411.008 263.132L405.457 291.87L410.849 306.407" stroke="#70C250" stroke-width="1.52" stroke-miterlimit="10"/>
<path opacity="0.7" d="M415.63 289.257L405.457 291.869" stroke="#70C250" stroke-width="0.76" stroke-miterlimit="10"/>
<path opacity="0.7" d="M411.009 263.131L405.547 267.868L399.102 291.312L406.76 312.799" stroke="#70C250" stroke-width="1.52" stroke-miterlimit="10"/>
<path opacity="0.6" d="M437.596 339.714L437.269 347.072L458.889 373.641L452.567 374.429L421.669 349.01L421.66 342.052" stroke="#70C250" stroke-width="1.52" stroke-miterlimit="10"/>
<path opacity="0.6" d="M454.9 374.135L446.578 375.171L414.998 352.197L415.777 339.66" stroke="#70C250" stroke-width="1.52" stroke-miterlimit="10"/>
<path opacity="0.6" d="M437.006 347.106L421.672 349.009" stroke="#70C250" stroke-width="0.76" stroke-miterlimit="10"/>
<path opacity="0.7" d="M276.215 418.474C260.146 377.943 251.425 345.655 250.203 322.512C249.601 311.002 250.646 296.022 259.004 289.834C262.678 287.098 269.867 284.61 283.2 288.214C292.661 290.858 301.54 295.261 309.371 301.193C340.845 326.212 368.414 341.29 391.548 341.865C408.927 342.299 412.593 340.095 414.266 338.669" stroke="#70C250" stroke-width="1.52" stroke-miterlimit="10"/>
<path opacity="0.7" d="M429.381 342.485C425.139 343.012 420.836 342.269 417.016 340.35C413.197 338.431 410.033 335.422 407.924 331.703C405.816 327.985 404.858 323.724 405.172 319.461C405.486 315.198 407.057 311.124 409.687 307.755C412.318 304.385 415.889 301.872 419.948 300.533C424.007 299.194 428.373 299.089 432.492 300.232C436.611 301.375 440.298 303.714 443.087 306.954C445.876 310.193 447.641 314.187 448.159 318.43C448.852 324.109 447.264 329.831 443.744 334.341C440.223 338.85 435.058 341.779 429.381 342.485Z" stroke="#70C250" stroke-width="1.52" stroke-miterlimit="10"/>
<path opacity="0.7" d="M447.367 327.425L465.393 319.873L476.999 284.025L470.058 275.756L453.874 303.317L441.072 304.911" stroke="#70C250" stroke-width="1.52" stroke-miterlimit="10"/>
<path opacity="0.7" d="M474.381 280.883L462.287 316.642L448.299 321.998" stroke="#70C250" stroke-width="1.52" stroke-miterlimit="10"/>
<path opacity="0.7" d="M453.877 303.318L462.288 316.642" stroke="#70C250" stroke-width="0.76" stroke-miterlimit="10"/>
<path opacity="0.7" d="M43.834 318.208C47.0208 318.925 50.3485 318.679 53.396 317.504C56.4435 316.329 59.074 314.276 60.9547 311.606C62.8354 308.935 63.8817 305.767 63.9614 302.501C64.0411 299.236 63.1506 296.021 61.4025 293.261C59.6543 290.502 57.1271 288.324 54.1406 287.001C51.154 285.679 47.8423 285.271 44.6244 285.831C41.4064 286.391 38.4268 287.893 36.0625 290.147C33.6982 292.4 32.0554 295.304 31.3419 298.492C30.8673 300.607 30.8139 302.794 31.1849 304.93C31.5559 307.065 32.3439 309.107 33.5039 310.938C34.664 312.769 36.1733 314.353 37.9458 315.6C39.7182 316.848 41.7191 317.734 43.834 318.208V318.208Z" stroke="#70C250" stroke-width="0.76" stroke-miterlimit="10"/>
<path opacity="0.7" d="M45.5947 310.356C47.2285 310.724 48.9346 310.599 50.4973 309.997C52.0599 309.395 53.4088 308.343 54.3733 306.974C55.3378 305.605 55.8745 303.98 55.9155 302.306C55.9564 300.632 55.4999 298.983 54.6035 297.569C53.7072 296.154 52.4114 295.037 50.88 294.36C49.3487 293.682 47.6507 293.473 46.001 293.761C44.3512 294.048 42.8238 294.819 41.612 295.975C40.4003 297.131 39.5587 298.62 39.1937 300.254C38.7051 302.443 39.1046 304.735 40.3047 306.629C41.5048 308.523 43.4074 309.864 45.5947 310.356Z" fill="#70C250"/>
<path opacity="0.7" d="M54.9199 282.255L61.5777 271.534L65.0836 245.168L68.7135 245.983L71.4581 275.128L64.6764 289.073" stroke="#70C250" stroke-width="1.52" stroke-miterlimit="10"/>
<path opacity="0.7" d="M61.5762 271.533L71.4566 275.128" stroke="#70C250" stroke-width="0.76" stroke-miterlimit="10"/>
<path opacity="0.7" d="M68.7065 245.983L73.6909 251.224L77.8255 275.181L68.1133 295.828" stroke="#70C250" stroke-width="1.52" stroke-miterlimit="10"/>
<path opacity="0.6" d="M34.8117 319.625L34.431 326.974L10.332 351.321L16.5471 352.72L49.7651 330.418L50.4468 323.494" stroke="#70C250" stroke-width="1.52" stroke-miterlimit="10"/>
<path opacity="0.6" d="M14.2617 352.206L22.4423 354.039L56.0941 334.243L56.5456 321.688" stroke="#70C250" stroke-width="1.52" stroke-miterlimit="10"/>
<path opacity="0.6" d="M34.6895 327.036L49.7668 330.418" stroke="#70C250" stroke-width="0.76" stroke-miterlimit="10"/>
<path opacity="0.7" d="M68.9506 304.202C69.1543 304.379 70.5443 306.628 83.5145 306.097C106.967 305.123 135.457 289.656 155.227 276.88C165.902 270.245 177.749 265.716 190.127 263.538C207.206 260.661 221.309 263.724 230.915 272.392C242.407 282.812 246.426 300.068 242.885 323.742C242.371 327.141 241.701 330.683 240.875 334.366C235.563 357.987 223.761 387.707 205.674 422.9L187.772 413.701C207.692 374.914 219.538 343.635 222.982 320.74C224.682 309.364 225.098 294.339 217.396 287.363C213.996 284.291 207.09 281.112 193.492 283.405C183.816 285.118 174.55 288.638 166.179 293.782C132.43 315.632 103.523 327.965 80.4424 326.282C63.1074 325.025 59.6723 322.476 58.1406 320.9" stroke="#70C250" stroke-width="1.52" stroke-miterlimit="10"/>
<path opacity="0.7" d="M42.7136 323.176C46.8807 324.11 51.2314 323.788 55.2155 322.25C59.1997 320.713 62.6383 318.028 65.0966 314.536C67.555 311.043 68.9226 306.901 69.0266 302.631C69.1305 298.362 67.9662 294.158 65.6807 290.55C63.3953 286.942 60.0914 284.093 56.1869 282.363C52.2823 280.633 47.9524 280.1 43.7448 280.831C39.5371 281.561 35.6406 283.523 32.5479 286.469C29.4553 289.414 27.3054 293.21 26.3702 297.377C25.1183 302.965 26.1367 308.822 29.2013 313.659C32.266 318.497 37.1262 321.92 42.7136 323.176Z" stroke="#70C250" stroke-width="1.52" stroke-miterlimit="10"/>
<path opacity="0.7" d="M26.2853 306.443L9.07431 297.183L1 260.37L8.71132 252.818L22.1419 281.822L34.7315 284.646" stroke="#70C250" stroke-width="1.52" stroke-miterlimit="10"/>
<path opacity="0.7" d="M3.91211 257.493L12.4734 294.261L25.8774 300.954" stroke="#70C250" stroke-width="1.52" stroke-miterlimit="10"/>
<path opacity="0.7" d="M22.1445 281.822L12.4766 294.261" stroke="#70C250" stroke-width="0.76" stroke-miterlimit="10"/>
<path opacity="0.7" d="M76.5009 306.035C76.5009 306.035 76.191 318.749 68.3203 324.716" stroke="#70C250" stroke-width="0.76" stroke-miterlimit="10"/>
<path opacity="0.7" d="M87.6189 305.779C87.6189 305.779 88.3361 320.396 82.1387 326.257" stroke="#70C250" stroke-width="0.76" stroke-miterlimit="10"/>
<path opacity="0.7" d="M98.6295 303.778C98.6295 303.778 104.039 315.863 96.9297 324.743" stroke="#70C250" stroke-width="0.76" stroke-miterlimit="10"/>
<path opacity="0.7" d="M110.084 300.237C110.084 300.237 118.052 308.205 112.129 321.423" stroke="#70C250" stroke-width="0.76" stroke-miterlimit="10"/>
<path opacity="0.7" d="M101.129 63.9209L105.157 69.9324L127.627 79.2107L149.902 74.2528" stroke="#70C250" stroke-width="1.14" stroke-miterlimit="10"/>
<path opacity="0.7" d="M155.338 95.4659C155.338 95.4659 169.441 99.3614 176.524 94.5806" stroke="#70C250" stroke-width="0.76" stroke-miterlimit="10"/>
<path opacity="0.7" d="M150.979 105.762C150.979 105.762 161.603 113.73 171.811 108.693" stroke="#70C250" stroke-width="0.76" stroke-miterlimit="10"/>
<path opacity="0.7" d="M132.295 250.259C132.295 250.259 142.441 248.09 138.731 230.71" stroke="#70C250" stroke-width="0.76" stroke-miterlimit="10"/>
<path opacity="0.7" d="M152.305 251.243C152.305 251.243 160.175 245.683 154.137 231.092" stroke="#70C250" stroke-width="0.76" stroke-miterlimit="10"/>
<path opacity="0.7" d="M171.066 229.95C171.066 229.95 176.927 241.875 171.066 250.153" stroke="#70C250" stroke-width="0.76" stroke-miterlimit="10"/>
<path opacity="0.7" d="M350.895 267.665C350.895 267.665 338.793 265.744 337.615 250.844" stroke="#70C250" stroke-width="0.76" stroke-miterlimit="10"/>
<path opacity="0.7" d="M328.532 270.622C328.532 270.622 318.563 260.644 326.257 249.781" stroke="#70C250" stroke-width="0.76" stroke-miterlimit="10"/>
<path opacity="0.7" d="M362.174 129.729C362.174 129.729 349.062 131.624 342.484 122.328" stroke="#70C250" stroke-width="0.76" stroke-miterlimit="10"/>
<path opacity="0.7" d="M362.406 141.716C362.406 141.716 352.579 147.205 341.477 137.856" stroke="#70C250" stroke-width="0.76" stroke-miterlimit="10"/>
<path opacity="0.7" d="M363.882 154.748C363.882 154.748 354.55 162.318 343.059 154.137" stroke="#70C250" stroke-width="0.76" stroke-miterlimit="10"/>
<path opacity="0.7" d="M366.043 166.869C363.02 169.249 359.291 170.554 355.443 170.58C351.596 170.605 347.85 169.35 344.795 167.011" stroke="#70C250" stroke-width="0.76" stroke-miterlimit="10"/>
<path opacity="0.7" d="M368.84 180.317C368.84 180.317 361.377 189.826 348.389 181.929" stroke="#70C250" stroke-width="0.76" stroke-miterlimit="10"/>
<path opacity="0.7" d="M372.512 193.19C372.512 193.19 365.615 202.274 352.857 197.555" stroke="#70C250" stroke-width="0.76" stroke-miterlimit="10"/>
<path opacity="0.7" d="M375.684 208.374C375.684 208.374 367.017 216.545 355.596 209.719" stroke="#70C250" stroke-width="0.76" stroke-miterlimit="10"/>
<path opacity="0.7" d="M376.568 224.743C376.568 224.743 364.882 231.826 356.037 222.548" stroke="#70C250" stroke-width="0.76" stroke-miterlimit="10"/>
<path opacity="0.7" d="M373.345 240.786C373.345 240.786 359.569 243.194 354.363 233.951" stroke="#70C250" stroke-width="0.76" stroke-miterlimit="10"/>
<path opacity="0.7" d="M366.769 255.517C366.769 255.517 350.275 255.686 349.566 244.513" stroke="#70C250" stroke-width="0.76" stroke-miterlimit="10"/>
<path opacity="0.7" d="M309.39 265.522C309.39 265.522 301.51 258.758 313.09 245.274" stroke="#70C250" stroke-width="0.76" stroke-miterlimit="10"/>
<path opacity="0.7" d="M291.347 256.819C291.347 256.819 287.097 248.161 299.386 238.227" stroke="#70C250" stroke-width="0.76" stroke-miterlimit="10"/>
<path opacity="0.7" d="M405.125 321.086C404.903 321.245 403.31 323.353 390.446 321.555C367.197 318.315 340.344 300.157 321.903 285.504C311.921 277.87 300.57 272.217 288.463 268.851C271.748 264.327 257.414 266.018 247.012 273.729C234.564 282.963 228.871 299.749 230.102 323.609C230.285 327.039 230.609 330.633 231.076 334.393C234.033 358.377 226.95 343.22 241.531 380.059" stroke="#70C250" stroke-width="1.52" stroke-miterlimit="10"/>
<path opacity="0.6" d="M397.431 322.166C397.431 322.166 396.502 334.844 403.761 341.555" stroke="#70C250" stroke-width="0.76" stroke-miterlimit="10"/>
<path opacity="0.6" d="M386.382 320.811C386.382 320.811 384.257 335.251 389.853 341.723" stroke="#70C250" stroke-width="0.76" stroke-miterlimit="10"/>
<path opacity="0.6" d="M375.625 317.749C375.625 317.749 369.074 329.258 375.289 338.784" stroke="#70C250" stroke-width="0.76" stroke-miterlimit="10"/>
<path opacity="0.7" d="M364.565 313.118C364.565 313.118 355.853 320.201 360.475 334.003" stroke="#70C250" stroke-width="0.76" stroke-miterlimit="10"/>
<path opacity="0.7" d="M352.986 306.974C352.986 306.974 342.521 312.87 345.903 326.566" stroke="#70C250" stroke-width="0.76" stroke-miterlimit="10"/>
<path opacity="0.7" d="M342.504 300.521C339.187 302.458 336.609 305.443 335.175 309.006C333.741 312.568 333.531 316.507 334.58 320.202" stroke="#70C250" stroke-width="0.76" stroke-miterlimit="10"/>
<path opacity="0.7" d="M331.038 292.977C331.038 292.977 319.449 296.439 322.034 311.41" stroke="#70C250" stroke-width="0.76" stroke-miterlimit="10"/>
<path opacity="0.7" d="M320.395 284.839C320.395 284.839 309.408 287.92 309.125 301.51" stroke="#70C250" stroke-width="0.76" stroke-miterlimit="10"/>
<path opacity="0.7" d="M292.524 269.506C292.524 269.506 281.67 277.784 287.026 289.399" stroke="#70C250" stroke-width="0.76" stroke-miterlimit="10"/>
<path opacity="0.7" d="M276.431 266.583C276.431 266.583 269.127 278.518 275.82 286.752" stroke="#70C250" stroke-width="0.76" stroke-miterlimit="10"/>
<path opacity="0.7" d="M260.308 267.293C260.308 267.293 254.111 282.574 264.239 287.337" stroke="#70C250" stroke-width="0.76" stroke-miterlimit="10"/>
<path opacity="0.7" d="M122.209 295.252C122.209 295.252 132.045 302.14 127.344 315.438" stroke="#70C250" stroke-width="0.76" stroke-miterlimit="10"/>
<path opacity="0.7" d="M133.27 289.842C136.383 292.092 138.66 295.314 139.742 299.001C140.824 302.687 140.649 306.628 139.246 310.205" stroke="#70C250" stroke-width="0.76" stroke-miterlimit="10"/>
<path opacity="0.7" d="M145.418 283.45C145.418 283.45 156.609 288.018 152.58 302.67" stroke="#70C250" stroke-width="0.76" stroke-miterlimit="10"/>
<path opacity="0.7" d="M156.783 276.386C156.783 276.386 167.407 280.512 166.389 294.093" stroke="#70C250" stroke-width="0.76" stroke-miterlimit="10"/>
<path opacity="0.7" d="M170.516 269.135C170.516 269.135 180.75 275.208 177.333 288.072" stroke="#70C250" stroke-width="0.76" stroke-miterlimit="10"/>
<path opacity="0.7" d="M186.016 263.821C186.016 263.821 196.011 273.117 189.557 284.184" stroke="#70C250" stroke-width="0.76" stroke-miterlimit="10"/>
<path opacity="0.7" d="M202.321 262.485C202.321 262.485 208.43 275.066 200.967 282.609" stroke="#70C250" stroke-width="0.76" stroke-miterlimit="10"/>
<path opacity="0.7" d="M218.297 264.751C218.297 264.751 222.999 280.564 212.445 284.326" stroke="#70C250" stroke-width="0.76" stroke-miterlimit="10"/>
<path opacity="0.7" d="M285.073 229.135C285.073 229.135 274.218 236.793 275.396 246.842" stroke="#70C250" stroke-width="0.76" stroke-miterlimit="10"/>
<path opacity="0.7" d="M307.442 276.288C307.442 276.288 296.668 281.343 298.819 294.481" stroke="#70C250" stroke-width="0.76" stroke-miterlimit="10"/>
<path d="M221.921 538.704H202.594V574.375H221.921V538.704Z" fill="url(#paint0_linear_524:8915)"/>
<path d="M226.949 567.743C226.949 567.743 235.254 570.089 231.376 582.67C231.376 582.67 227.135 587.477 227.542 597.287C227.542 597.287 233.793 622.404 204.78 625.945C204.78 625.945 187.551 628.716 182.824 617.641C182.824 617.641 177.512 608.884 187.569 602.386L201.079 601.731L226.949 567.743Z" fill="#2E2454"/>
<path d="M195.804 576.11C194.582 583.636 191.572 596.836 185.994 604.999C185.994 604.999 177.76 618.279 198.053 620.2C198.053 620.2 228.924 621.263 224.613 588.815C224.613 588.815 223.727 583.866 227.012 576.624C227.012 576.624 230.208 574.517 224.064 560.289C224.064 560.289 222.382 555.783 222.337 560.599C222.337 560.599 219.416 567.469 214.839 566.026C214.839 566.026 205.1 552.162 197.645 561.006C197.619 561.015 196.415 572.356 195.804 576.11Z" fill="#A7A9AC"/>
<path d="M197.668 561.015C199.881 558.359 201.98 557.526 203.927 557.686C208.549 558.049 212.312 564.158 214.852 566.026C218.73 568.859 222.36 560.599 222.36 560.599C222.549 560.152 222.625 559.665 222.581 559.182" stroke="#2E2454" stroke-width="3.41" stroke-miterlimit="10" stroke-linecap="round"/>
<path d="M196.847 567.743C196.546 566.114 195.899 562.263 196.342 560.66C197.103 557.898 200.822 556.544 203.256 556.234C210.561 555.286 209.171 564.034 208.772 569C208.418 573.427 207.497 577.854 207.214 582.334C206.913 587.141 207.63 590.302 206.966 594.967C206.762 596.375 202.15 595.853 199.751 595.853C197.351 595.853 193.854 596.18 192.624 594.773C191.251 593.206 192.818 589.345 193.509 587.088C194.662 583.061 195.476 578.944 195.944 574.782C196.245 572.692 196.51 571.143 196.625 569.346C196.717 568.83 196.779 568.31 196.811 567.787" fill="url(#paint1_linear_524:8915)"/>
<path d="M208.799 567.301C208.799 567.301 215.227 578.907 217.493 575.428L224.337 563.033L226.488 570.16C226.488 570.16 218.98 589.133 215.439 584.644L207.701 576.313L208.799 567.301Z" fill="#70C250"/>
<path d="M184.891 614.552C184.891 614.552 186.555 614.074 188.875 609.913C188.875 609.913 196.542 612.276 201.526 611.586C201.526 611.586 199.835 621.387 205.953 619.262L201.871 622.732L193.487 621.573C193.487 621.573 185.44 618.332 184.891 614.552Z" fill="#2E2454"/>
<path d="M212.119 587.274C212.119 587.274 215.785 595.454 220.38 589.045C220.38 589.045 223.788 598.314 216.112 608.522C216.112 608.522 216.36 601.192 208.463 596.951C208.463 596.995 211.013 596.145 212.119 587.274Z" fill="white"/>
<path d="M191.225 597.861C191.225 597.861 195.785 601.916 205.833 599.136C205.833 599.136 212.828 605.573 211.455 611.301C211.455 611.301 202.257 619.437 203.08 609.574C203.08 609.574 192.863 610.106 189.552 607.025C189.552 607.051 187.002 605.28 191.225 597.861Z" fill="white"/>
<path d="M196.473 571.55C196.473 571.55 198.474 568.124 208.717 571.284" stroke="white" stroke-width="2.65" stroke-miterlimit="10" stroke-linecap="round"/>
<path d="M194.904 577.658C194.904 577.658 199.207 575.09 207.166 577.507" stroke="white" stroke-width="2.75" stroke-miterlimit="10" stroke-linecap="round"/>
<path d="M193.535 584.034C193.535 584.034 198.945 582.033 206.868 584.202" stroke="white" stroke-width="2.65" stroke-miterlimit="10" stroke-linecap="round"/>
<path d="M275.179 538.704H255.852V574.375H275.179V538.704Z" fill="url(#paint2_linear_524:8915)"/>
<path d="M250.853 567.743C250.853 567.743 242.548 570.089 246.426 582.67C246.426 582.67 250.676 587.477 250.26 597.287C250.26 597.287 244.018 622.404 273.031 625.945C273.031 625.945 290.259 628.716 294.987 617.641C294.987 617.641 300.299 608.884 290.242 602.386L276.66 601.74L250.853 567.743Z" fill="#2E2454"/>
<path d="M281.982 576.11C283.203 583.636 286.213 596.836 291.791 604.999C291.791 604.999 300.016 618.279 279.733 620.2C279.733 620.2 248.861 621.263 253.173 588.815C253.173 588.815 254.058 583.866 250.782 576.624C250.782 576.624 247.586 574.517 253.73 560.289C253.73 560.289 255.412 555.783 255.448 560.599C255.448 560.599 258.378 567.469 262.956 566.026C262.956 566.026 272.65 552.162 280.149 561.006C280.167 561.015 281.371 572.356 281.982 576.11Z" fill="#A7A9AC"/>
<path d="M280.124 561.014C272.634 552.161 266.543 563.378 262.931 566.025C259.062 568.858 255.432 560.598 255.432 560.598C255.241 560.152 255.162 559.665 255.202 559.182" stroke="#2E2454" stroke-width="3.41" stroke-miterlimit="10" stroke-linecap="round"/>
<path d="M268.988 567.301C268.988 567.301 262.56 578.907 260.294 575.428L253.45 563.033L251.299 570.16C251.299 570.16 258.824 589.133 262.366 584.644L270.103 576.313L268.988 567.301Z" fill="#70C250"/>
<path d="M292.888 614.552C292.888 614.552 291.224 614.074 288.904 609.913C288.904 609.913 281.237 612.276 276.244 611.586C276.244 611.586 277.944 621.387 271.861 619.262L275.934 622.732L284.327 621.573C284.327 621.573 292.339 618.332 292.888 614.552Z" fill="#2E2454"/>
<path d="M265.664 587.274C265.664 587.274 261.99 595.454 257.404 589.045C257.404 589.045 253.995 598.314 261.662 608.522C261.662 608.522 261.414 601.192 269.32 596.951C269.32 596.995 266.788 596.145 265.664 587.274Z" fill="white"/>
<path d="M286.557 597.861C286.557 597.861 281.997 601.916 271.949 599.136C271.949 599.136 264.946 605.573 266.327 611.301C266.327 611.301 275.517 619.437 274.702 609.574C274.702 609.574 284.919 610.106 288.23 607.025C288.23 607.051 290.771 605.28 286.557 597.861Z" fill="white"/>
<path d="M280.903 567.743C281.204 566.114 281.851 562.263 281.399 560.66C280.646 557.898 276.928 556.544 274.493 556.234C267.18 555.286 268.579 564.034 268.978 569C269.332 573.427 270.253 577.854 270.527 582.334C270.828 587.141 270.12 590.302 270.784 594.967C270.987 596.375 275.591 595.853 277.999 595.853C280.407 595.853 283.896 596.18 285.082 594.773C286.454 593.206 284.887 589.345 284.197 587.088C283.044 583.061 282.23 578.944 281.762 574.782C281.461 572.692 281.195 571.143 281.08 569.346C280.989 568.83 280.927 568.31 280.894 567.787" fill="url(#paint3_linear_524:8915)"/>
<path d="M282.573 578.882C282.355 578.882 282.141 578.824 281.953 578.714C281.873 578.714 277.889 576.483 270.665 578.714C270.512 578.76 270.351 578.776 270.192 578.761C270.033 578.745 269.879 578.698 269.738 578.623C269.597 578.548 269.472 578.446 269.371 578.322C269.269 578.199 269.193 578.056 269.146 577.904C269.1 577.751 269.084 577.59 269.1 577.431C269.115 577.272 269.162 577.118 269.237 576.977C269.312 576.836 269.414 576.711 269.538 576.609C269.661 576.508 269.804 576.432 269.956 576.385C278.332 573.835 283.006 576.536 283.237 576.651C283.513 576.818 283.712 577.088 283.79 577.402C283.868 577.715 283.819 578.047 283.653 578.324C283.538 578.505 283.378 578.651 283.188 578.749C282.998 578.847 282.786 578.893 282.573 578.882Z" fill="white"/>
<path d="M282.088 572.214C281.87 572.215 281.656 572.157 281.469 572.046C281.389 572.002 277.405 569.815 270.18 572.046C270.028 572.093 269.867 572.109 269.708 572.093C269.549 572.078 269.394 572.031 269.253 571.956C269.112 571.88 268.988 571.778 268.886 571.655C268.785 571.531 268.709 571.389 268.662 571.236C268.616 571.083 268.6 570.923 268.615 570.764C268.631 570.605 268.677 570.45 268.753 570.309C268.828 570.168 268.93 570.043 269.054 569.942C269.177 569.84 269.319 569.764 269.472 569.718C277.847 567.168 282.513 569.868 282.752 569.983C282.979 570.121 283.155 570.329 283.254 570.576C283.352 570.822 283.367 571.094 283.297 571.35C283.227 571.606 283.076 571.833 282.866 571.995C282.655 572.157 282.398 572.247 282.133 572.25L282.088 572.214Z" fill="white"/>
<path d="M269.781 585.388C269.498 585.386 269.224 585.281 269.012 585.094C268.799 584.906 268.661 584.648 268.624 584.367C268.586 584.086 268.651 583.801 268.807 583.564C268.962 583.327 269.198 583.154 269.471 583.077C277.661 580.837 283.282 582.856 283.513 582.944C283.781 583.068 283.993 583.289 284.107 583.562C284.22 583.834 284.227 584.14 284.125 584.418C284.024 584.695 283.822 584.925 283.559 585.06C283.296 585.196 282.992 585.227 282.707 585.149C282.636 585.149 277.492 583.316 270.091 585.344C269.99 585.371 269.886 585.386 269.781 585.388Z" fill="white"/>
<path opacity="0.7" d="M206.766 223.867C206.766 223.867 210.599 232.119 207.81 244.097" stroke="#70C250" stroke-width="0.64" stroke-miterlimit="10"/>
<path opacity="0.7" d="M219.086 221.874C219.086 221.874 225.708 232.259 221.512 241.83" stroke="#70C250" stroke-width="0.76" stroke-miterlimit="10"/>
<path opacity="0.7" d="M243.202 277.581C243.202 277.581 240.546 289.542 253.942 296.128" stroke="#70C250" stroke-width="0.76" stroke-miterlimit="10"/>
<path opacity="0.7" d="M232.207 297.304C232.207 297.304 237.829 310.239 250.755 307.043" stroke="#70C250" stroke-width="0.76" stroke-miterlimit="10"/>
<path opacity="0.6" d="M229.949 317.004C229.949 317.004 233.349 326.805 250.144 320.988" stroke="#70C250" stroke-width="0.76" stroke-miterlimit="10"/>
<path opacity="0.6" d="M231.428 337.022C231.428 337.022 237.917 344.149 251.649 336.367" stroke="#70C250" stroke-width="0.76" stroke-miterlimit="10"/>
<path opacity="0.6" d="M254.871 352.958C254.871 352.958 243.76 360.236 234.818 355.446" stroke="#70C250" stroke-width="0.76" stroke-miterlimit="10"/>
<path opacity="0.7" d="M234.337 276.65C234.337 276.65 235.815 288.815 221.854 294.074" stroke="#70C250" stroke-width="0.76" stroke-miterlimit="10"/>
<path opacity="0.7" d="M243.37 297.357C243.37 297.357 236.517 309.681 223.963 305.272" stroke="#70C250" stroke-width="0.76" stroke-miterlimit="10"/>
<path opacity="0.6" d="M243.706 317.172C243.706 317.172 239.367 326.601 223.219 319.182" stroke="#70C250" stroke-width="0.76" stroke-miterlimit="10"/>
<path opacity="0.6" d="M240.298 336.916C240.298 336.916 233.145 343.379 220.236 334.26" stroke="#70C250" stroke-width="0.76" stroke-miterlimit="10"/>
<path opacity="0.6" d="M215.443 350.559C215.443 350.559 225.793 358.89 235.151 354.986" stroke="#70C250" stroke-width="0.76" stroke-miterlimit="10"/>
<path d="M121.229 374.845C119.547 376.323 116.802 380.387 117.156 382.813C121.494 383.176 125.124 380.041 127.169 376.615C127.231 377.934 126.638 379.121 126.806 380.458C129.799 380.608 131.676 376.199 133.287 374.712L141.255 365.469L134.234 366.168L125.514 367.841L121.229 374.845Z" fill="#AC7E96"/>
<path d="M148.319 349.93C146.991 353.985 146.026 359.27 146.832 363.52C147.071 364.768 147.531 366.247 147.053 367.468C146.265 369.505 143.601 370.673 142.175 372.231C139.971 374.64 139.811 376.977 139.431 380.049C139.298 381.12 139.147 382.608 137.784 382.802C135.039 383.21 134.039 378.712 133.977 376.853C133.724 374.307 134.026 371.737 134.862 369.319C135.287 368.247 136.084 367.265 135.925 366.096C129.037 371.585 120.759 377.605 111.604 377.712C109.577 377.712 106.195 378.349 106.54 375.348C106.806 373.064 109.825 372.107 111.746 371.32C119.431 368.168 125.743 363.236 132.312 358.137C134.269 356.623 136.279 355.197 138.315 353.71C139.616 352.825 141.653 350.665 143.202 350.213C145.185 349.638 145.716 351.913 147.39 352.807" fill="#E4B0C9"/>
<path d="M356.024 374.845C357.697 376.323 360.45 380.387 360.096 382.813C355.749 383.176 352.128 380.041 350.074 376.615C350.021 377.934 350.605 379.121 350.437 380.458C347.453 380.608 345.568 376.199 343.956 374.712L335.988 365.469L343.009 366.168L351.739 367.841L356.024 374.845Z" fill="#AC7E96"/>
<path d="M328.916 349.93C330.244 353.985 331.209 359.27 330.403 363.52C330.173 364.768 329.713 366.247 330.182 367.468C330.979 369.505 333.644 370.673 335.069 372.231C337.274 374.64 337.433 376.977 337.814 380.049C337.946 381.12 338.088 382.608 339.452 382.802C342.196 383.21 343.197 378.712 343.267 376.853C343.511 374.307 343.209 371.739 342.382 369.319C341.957 368.247 341.151 367.265 341.311 366.096C348.208 371.585 356.486 377.605 365.64 377.712C367.667 377.712 371.041 378.349 370.695 375.348C370.438 373.064 367.411 372.107 365.489 371.32C357.805 368.168 351.501 363.236 344.923 358.137C342.966 356.623 340.957 355.197 338.92 353.71C337.628 352.825 335.591 350.665 334.033 350.213C332.059 349.638 331.519 351.913 329.854 352.807" fill="#E4B0C9"/>
<path d="M238.857 294.261C239.048 295.163 239.048 296.095 238.857 296.996V294.261Z" fill="#231F20"/>
<path d="M238.857 294.261C239.048 295.163 239.048 296.095 238.857 296.996" stroke="white" stroke-width="0.38" stroke-miterlimit="10"/>
<path d="M317.679 296.013C317.05 293.615 315.65 291.49 313.695 289.966C312.004 288.434 309.268 283.928 306.568 278.102L279.193 218.953C275.51 209.896 264.142 209.904 258.565 208.444C245.346 205 246.329 197.04 246.329 197.04L246.736 186.779H231.491L231.898 197.04C231.898 197.04 232.881 205.008 219.663 208.444C214.076 209.904 201.726 209.896 198.034 218.953L170.686 278.102C167.95 283.928 165.25 288.434 163.55 289.966C161.6 291.495 160.201 293.618 159.566 296.013L139.105 353.56L147.729 357.491L179.07 305.778C179.273 305.495 179.477 305.194 179.654 304.893C180.902 303.02 181.606 300.838 181.69 298.589C182.71 294.889 184.034 291.279 185.648 287.797L207.312 242.786C211.579 254.481 215.82 267.576 216.387 274.525C216.936 281.13 212.279 300.687 212.279 300.687C212.279 300.687 220.539 302.21 238.742 303.343V303.379H239.114H239.494V303.334C257.688 302.219 264.886 300.811 264.886 300.811C264.886 300.811 261.035 281.13 261.637 274.534C262.265 267.682 266.205 254.933 270.198 243.379L291.588 287.788C293.202 291.269 294.522 294.879 295.536 298.58C295.619 300.831 296.327 303.013 297.582 304.884C297.767 305.185 297.962 305.486 298.175 305.769L329.516 357.482L338.139 353.551L317.679 296.013Z" fill="url(#paint4_linear_524:8915)"/>
<path d="M208.939 291.676C208.939 291.676 233.959 283.548 268.762 291.729L265.566 303.38L214.136 314.004L208.939 291.676Z" fill="#2E2454"/>
<path d="M216.26 278.933C216.26 278.933 224.697 273.178 238.394 272.337C244.954 271.93 252.816 273.913 261.678 278.375C261.678 278.375 264.609 299.181 265.857 300.677C267.105 302.173 264.609 299.181 264.609 299.181L241.864 314.001L210.559 303.377L216.26 278.933Z" fill="url(#paint5_linear_524:8915)"/>
<path d="M227.181 274.243C226.376 274.128 225.313 274.837 224.277 275.129C221.484 276.115 218.797 277.379 216.256 278.9L212.998 292.871L231.502 298.803C223.534 294.323 227.181 274.208 227.181 274.208" fill="#E39FB8"/>
<path opacity="0.3" d="M251.075 274.101C251.88 273.995 253.359 274.871 254.395 275.19C256.907 276.022 259.334 277.089 261.646 278.377L264.134 292.906L245.621 298.838C253.589 294.358 251.101 274.101 251.101 274.101" fill="white"/>
<path d="M188.532 239.511C189.473 241.377 189.963 243.437 189.963 245.527C189.963 247.616 189.473 249.677 188.532 251.543L173.888 283.07C172.945 284.253 171.744 285.205 170.377 285.854C169.01 286.503 167.513 286.832 166 286.815L188.532 239.511Z" fill="#572188"/>
<path d="M205.424 246.716C203.345 247.124 201.395 248.023 199.734 249.338C198.074 250.653 196.753 252.347 195.88 254.277C195.88 254.277 188.549 268.318 186.619 273.214C185.822 275.242 185.247 277.712 188.594 281.687L205.424 246.716Z" fill="#572188"/>
<path d="M187.776 285.592C187.776 285.592 184.854 282.192 184.482 278.509C184.482 278.509 184.341 277.951 183.685 279.014C183.685 279.014 181.268 282.945 186.439 289.275L187.776 285.592Z" fill="#572188"/>
<path d="M185.568 290.506C185.568 290.506 182.647 287.106 182.275 283.423C182.275 283.423 182.133 282.866 181.478 283.919C181.478 283.919 179.212 287.921 184.391 294.242L185.568 290.506Z" fill="#572188"/>
<path d="M193.209 229.363C193.209 229.363 222.071 228.628 221.398 207.937C221.398 207.937 196.618 206.176 193.209 229.363Z" fill="#2E2454"/>
<path d="M284.007 229.363C284.007 229.363 255.145 228.628 255.818 207.937C255.818 207.937 280.599 206.176 284.007 229.363Z" fill="#2E2454"/>
<path d="M288.647 239.36C287.655 241.231 287.12 243.31 287.086 245.428C287.052 247.545 287.52 249.641 288.452 251.542L303.096 283.069C304.106 284.243 305.357 285.185 306.764 285.832C308.171 286.478 309.701 286.813 311.25 286.814L288.647 239.36Z" fill="#572188"/>
<path d="M271.814 246.602C273.852 247.067 275.753 248.003 277.364 249.334C278.975 250.665 280.252 252.356 281.093 254.269C281.093 254.269 288.423 268.311 290.362 273.207C291.159 275.234 291.735 277.704 288.379 281.679L271.814 246.602Z" fill="#572188"/>
<path d="M289.189 285.592C289.189 285.592 292.111 282.192 292.492 278.509C292.492 278.509 292.633 277.951 293.28 279.014C293.28 279.014 295.706 282.945 290.526 289.275L289.189 285.592Z" fill="#572188"/>
<path d="M291.406 290.506C291.406 290.506 294.337 287.106 294.709 283.423C294.709 283.423 294.85 282.866 295.497 283.919C295.497 283.919 297.763 287.921 292.593 294.242L291.406 290.506Z" fill="#572188"/>
<path opacity="0.8" d="M265.296 387.646C265.296 387.646 257.585 392.463 245.35 391.188" stroke="#70C250" stroke-width="0.64" stroke-miterlimit="10"/>
<path d="M268.782 399.625C268.782 399.625 259.3 407.478 249.305 404.495" stroke="#70C250" stroke-width="0.76" stroke-miterlimit="10"/>
<path opacity="0.8" d="M201.664 384.051C201.664 384.051 208.871 389.602 221.142 389.496" stroke="#70C250" stroke-width="0.64" stroke-miterlimit="10"/>
<path d="M197.018 395.642C197.018 395.642 205.703 404.371 215.955 402.379" stroke="#70C250" stroke-width="0.76" stroke-miterlimit="10"/>
<path d="M303.307 483.883C298.562 470.116 294.79 434.72 291.665 418.934C293.515 364.362 273.418 301.804 273.418 301.804C273.103 299.655 272.336 297.597 271.169 295.766L271.098 295.606C270.744 294.721 269.46 292.003 268.752 291.72C267.557 291.215 264.981 292.605 263.768 292.915L263.98 292.986C258.146 293.172 250.116 296.022 246.999 298.191C237.172 302.804 223.29 296.199 213.445 293.056C212.56 292.791 209.842 291.56 208.93 291.666C207.602 291.808 206.008 295.642 205.911 296.722C205.224 297.907 204.612 299.134 204.078 300.396C201.36 306.717 198.084 312.534 196.048 318.74C187.888 343.188 182.487 368.471 179.944 394.118C178.43 410.532 183.485 448.646 182.724 464.795C182.166 476.756 174.038 485.477 174.676 497.092C174.862 500.35 176.19 502.404 176.021 505.158C175.8 508.699 172.861 509.239 171.975 512.293C170.647 516.818 170.391 522.537 169.983 526.99C168.54 542.714 176.933 542.236 189.284 544.228C194.667 545.113 224.768 548.77 229.381 541.412C233.418 539.473 237.889 535.817 238.341 533.117C239.022 529.044 235.499 528.238 235.561 524.989C235.561 523.068 237.907 520.456 238.305 518.42C239.412 512.727 237.278 506.911 236.8 501.545C235.747 489.691 238.288 477.579 238.288 465.007C238.288 450.771 231.143 435.605 232.922 422.237C233.994 414.269 236.331 406.717 236.26 398.722C236.193 395.212 235.467 391.746 234.118 388.505C237.22 386.179 240.979 384.893 244.857 384.831C244.857 385.344 244.804 385.867 244.759 386.371C242.103 397.465 239.616 406.619 239.616 419.288C239.614 436.217 240.747 453.126 243.006 469.903C243.847 476.313 243.051 482.086 244.476 488.31C245.149 491.231 246.388 492.037 246.335 495.649C246.335 498.066 243.971 500.501 244.264 502.971C244.653 506.22 247.212 506.096 247.159 509.018C247.159 511.072 244.751 514.436 244.308 516.915C243.484 521.554 243.422 530.771 245.636 534.551C247.991 538.517 257.942 542.218 262.626 543.767C268.938 547.955 278.216 549.805 284.688 549.212C326.388 545.379 310.062 503.467 303.307 483.883Z" fill="url(#paint6_linear_524:8915)"/>
<path d="M234.808 415.96C234.808 415.96 239.385 400.422 234.117 388.514C234.117 388.514 242.971 384.087 244.857 384.831C244.857 384.831 219.536 371.011 212.984 365.203C212.984 365.203 227.814 410.152 234.295 414.145" fill="#1D183A"/>
<path d="M235.103 489.859C228.109 504.91 212.323 526.955 181.451 528.699C181.451 528.699 207.418 546.069 237.024 528.531C237.024 528.531 234.474 525.565 237.024 521.35C237.024 521.35 241.176 517.473 237.024 501.82C237.024 501.82 235.891 490.08 237.228 483.484C237.228 483.484 235.802 488.336 235.103 489.859Z" fill="url(#paint7_linear_524:8915)"/>
<path d="M235.107 414.809L217.1 399.625C217.1 399.625 225.953 428.93 233.089 434.968C233.089 434.968 233.558 417.014 235.107 414.809Z" fill="#1D183A"/>
<path d="M181.451 472.222C181.451 472.222 201.814 457.171 210.34 431.151C210.34 431.151 186.436 460.004 182.443 459.34L181.451 472.222Z" fill="url(#paint8_linear_524:8915)"/>
<path d="M258.42 307.47C258.42 307.47 252.453 316.429 245.344 316.854L240.997 375.977L235.109 311.41C235.109 311.41 255.809 311.294 258.42 307.47Z" fill="url(#paint9_linear_524:8915)"/>
<path d="M311.235 530.071C311.235 530.071 281.602 541.846 260.699 532.116C260.699 532.116 297.83 523.395 299.167 505.626L284.24 511.992L302.833 481.474C302.833 481.474 315.936 517.994 311.235 530.071Z" fill="url(#paint10_linear_524:8915)"/>
<path d="M291.866 410.886C292.158 402.112 289.874 380.059 289.874 380.059L281.02 390.576L277.027 487.176L298.488 458.668C298.488 458.668 294.531 432.967 291.866 410.886Z" fill="url(#paint11_linear_524:8915)"/>
<path d="M187.109 497.907C187.109 497.907 222.877 479.793 227.835 464.371C227.835 464.371 229.739 500.484 187.109 497.907Z" fill="url(#paint12_linear_524:8915)"/>
<path d="M248.719 514.808C248.719 514.808 271.826 508.743 282.875 494.445C282.875 494.436 275.226 519.907 248.719 514.808Z" fill="url(#paint13_linear_524:8915)"/>
<path d="M312.192 516.87C296.336 532.47 263.18 527.91 263.18 527.91V478.136C263.18 460.554 263.18 444.945 263.18 431.151C263.251 365.636 263.861 341.263 263.861 341.263L276.256 316.668" stroke="#5F578C" stroke-width="1.14" stroke-linejoin="round"/>
<path d="M273.419 301.804C273.419 301.804 271.073 306.744 266.168 307.577C266.168 307.577 266.602 336.527 284.132 344.221C284.132 344.221 275.677 306.275 273.419 301.804Z" fill="url(#paint14_linear_524:8915)"/>
<path d="M203.041 302.671C203.041 302.671 211.425 309.249 214.612 310.002C214.612 310.002 197.109 339.66 189.256 341.723C189.282 341.723 196.029 310.692 203.041 302.671Z" fill="url(#paint15_linear_524:8915)"/>
<path d="M170.475 521.235C183.904 527.009 198.522 529.48 213.104 528.442L210.315 478.137C210.315 460.554 210.359 444.945 210.315 431.151C210.244 365.636 209.633 341.263 209.633 341.263L197.238 316.668" stroke="#5F578C" stroke-width="1.14" stroke-linejoin="round"/>
<mask id="mask0_524:8915" style="mask-type:alpha" maskUnits="userSpaceOnUse" x="169" y="291" width="144" height="259">
<path d="M303.307 483.883C298.562 470.116 294.79 434.72 291.665 418.934C293.515 364.362 273.418 301.804 273.418 301.804C273.103 299.655 272.336 297.597 271.169 295.766L271.098 295.606C270.744 294.721 269.46 292.003 268.752 291.72C267.557 291.215 264.981 292.605 263.768 292.915L263.98 292.986C258.146 293.172 250.116 296.022 246.999 298.191C237.172 302.804 223.29 296.199 213.445 293.056C212.56 292.791 209.842 291.56 208.93 291.666C207.602 291.808 206.008 295.642 205.911 296.722C205.224 297.907 204.612 299.134 204.078 300.396C201.36 306.717 198.084 312.534 196.048 318.74C187.888 343.188 182.487 368.471 179.944 394.118C178.43 410.532 183.485 448.646 182.724 464.795C182.166 476.756 174.038 485.477 174.676 497.092C174.862 500.35 176.19 502.404 176.021 505.158C175.8 508.699 172.861 509.239 171.975 512.293C170.647 516.818 170.391 522.537 169.983 526.99C168.54 542.714 176.933 542.236 189.284 544.228C194.667 545.113 224.768 548.77 229.381 541.412C233.418 539.473 237.889 535.817 238.341 533.117C239.022 529.044 235.499 528.238 235.561 524.989C235.561 523.068 237.907 520.456 238.305 518.42C239.412 512.727 237.278 506.911 236.8 501.545C235.747 489.691 238.288 477.579 238.288 465.007C238.288 450.771 231.143 435.605 232.922 422.237C233.994 414.269 236.331 406.717 236.26 398.722C236.193 395.212 235.467 391.746 234.118 388.505C237.22 386.179 240.979 384.893 244.857 384.831C244.857 385.344 244.804 385.867 244.759 386.371C242.103 397.465 239.616 406.619 239.616 419.288C239.614 436.217 240.747 453.126 243.006 469.903C243.847 476.313 243.051 482.086 244.476 488.31C245.149 491.231 246.388 492.037 246.335 495.649C246.335 498.066 243.971 500.501 244.264 502.971C244.653 506.22 247.212 506.096 247.159 509.018C247.159 511.072 244.751 514.436 244.308 516.915C243.484 521.554 243.422 530.771 245.636 534.551C247.991 538.517 257.942 542.218 262.626 543.767C268.938 547.955 278.216 549.805 284.688 549.212C326.388 545.379 310.062 503.467 303.307 483.883Z" fill="url(#paint16_linear_524:8915)"/>
</mask>
<g mask="url(#mask0_524:8915)">
<path d="M163.689 431.612L200.13 468.052V345.167L184.318 314.003C165.699 343.874 163.689 431.612 163.689 431.612Z" stroke="#5F578C" stroke-width="4.92" stroke-linejoin="round"/>
<path d="M289.126 314.003L273.322 345.167V468.052L309.754 431.62C309.754 431.62 307.744 343.874 289.126 314.003Z" stroke="#5F578C" stroke-width="4.92" stroke-linejoin="round"/>
</g>
<path d="M208.932 298.112C208.932 298.112 233.385 316.704 268.754 299.227" stroke="#5F578C" stroke-width="3.41" stroke-linejoin="round"/>
<path d="M256.659 189.278C255.331 188.773 253.392 189.526 252.179 189.942C249.993 190.608 247.754 191.087 245.486 191.376C245.716 189.88 245.38 188.322 245.486 186.781C245.592 185.241 249.09 183.328 249.7 181.885C251.232 178.344 253.507 175.148 255.544 171.863C256.819 169.809 257.961 167.065 259.97 165.586C261.015 164.798 261.927 164.984 263.211 165.294C264.831 165.683 267.85 166.179 268.567 167.95C269.382 169.995 268.664 172.988 267.682 174.847C266.259 177.59 264.55 180.175 262.582 182.558C260.723 184.895 258.696 186.985 256.827 189.242" fill="#683199"/>
<path d="M220.02 190.119C221.341 190.567 222.752 190.682 224.128 190.455C224.133 190.126 224.112 189.798 224.066 189.472C224.712 191.092 230.086 191.827 231.892 191.42C231.892 189.366 231.83 188.215 230.608 186.781C225.968 181.185 221.785 175.225 218.099 168.959C215.124 164.072 213.096 159.309 212.636 153.244C212.37 149.703 214.849 148.083 216.381 145.214C218.878 140.566 223.411 133.103 214.088 134.51C210.343 135.077 208.678 138.273 207.138 141.593C204.845 146.462 204.845 151.279 204.526 156.502C203.915 166.524 203.366 179.123 212.539 185.718C214.92 187.436 217.975 188.242 220.347 189.915" fill="#683199"/>
<path d="M261.062 129.853C262.744 135.005 265.727 138.848 268.383 143.602C271.278 148.781 271.464 154.571 274.023 159.919C275.263 162.522 276.945 164.85 276.75 167.843C276.582 170.437 275.059 172.561 274.767 175.164C274.306 179.228 276.874 184.168 279.733 186.815C276.192 188.683 266.356 191.189 265.754 185.842C265.75 187.285 265.977 188.72 266.427 190.091C262.655 191.03 257.954 189.347 254.324 189.268C257.627 185.576 259.247 183.283 260.84 178.192C262.912 171.588 264.638 164.027 263.709 157.148C263.054 152.376 260.61 148.879 259.76 144.257C259.25 141.687 259.033 139.067 259.114 136.448C259.273 134.146 260.256 132.73 260.77 130.596" fill="#A96AD8"/>
<path d="M231.553 188.701L231.739 199.051C233.881 200.464 236.364 201.274 238.928 201.397C238.928 201.397 243.487 201.743 246.471 199.388L246.984 184.673L233.244 183.292L231.553 188.701Z" fill="#2E2454"/>
<path d="M270.87 159.689C271.038 161.322 270.716 162.969 269.945 164.419C269.174 165.869 267.989 167.056 266.54 167.83C265.092 168.604 263.445 168.929 261.812 168.763C260.178 168.598 258.63 167.95 257.366 166.902C256.102 165.853 255.178 164.452 254.713 162.877C254.248 161.302 254.263 159.625 254.755 158.058C255.247 156.491 256.195 155.106 257.477 154.08C258.759 153.054 260.318 152.433 261.954 152.296C264.116 152.096 266.269 152.763 267.941 154.149C269.612 155.535 270.665 157.527 270.87 159.689Z" fill="#E39FB8"/>
<path d="M264.21 137.643C259.987 128.976 244.537 127.258 234.347 128.108C230.827 128.4 227.414 129.464 224.351 131.224C221.289 132.984 218.651 135.397 216.627 138.292C214.603 141.187 213.241 144.492 212.639 147.973C212.037 151.454 212.209 155.024 213.143 158.431L215.436 171.862C216.588 175.41 218.467 178.678 220.953 181.459C223.439 184.239 226.479 186.471 229.876 188.01C231.296 188.732 232.777 189.325 234.303 189.781C234.881 189.978 235.473 190.135 236.074 190.25C237.24 190.47 238.431 190.533 239.615 190.436C240.996 190.317 242.35 189.979 243.626 189.436L243.758 189.374C244.059 189.241 244.36 189.09 244.644 188.94C245.815 188.348 246.948 187.683 248.035 186.948C251.332 184.891 254.144 182.141 256.273 178.889C258.403 175.638 259.8 171.962 260.367 168.117L263.555 155.076C263.624 153.26 263.591 151.442 263.457 149.631C263.174 146.559 265.485 140.246 264.21 137.643Z" fill="url(#paint17_linear_524:8915)"/>
<path d="M229.014 168.056C229.014 168.056 222.153 170.083 218.673 170.287C218.673 170.287 225.8 185.55 231.582 188.569C232.556 189.074 233.609 189.198 234.016 189.454C236.044 190.57 231.706 188.897 231.706 188.897C231.706 188.897 219.222 184.204 215.929 173.368L215.601 172.482L214.973 167.799C219.612 168.61 224.349 168.696 229.014 168.056Z" fill="url(#paint18_linear_524:8915)"/>
<path d="M261.103 146.551L255.038 134.333H248.841L250.16 138.813L253.993 143.541C253.993 143.541 244.706 144.957 243.75 146.993C243.75 146.993 251.718 144.798 254.755 146.993" fill="url(#paint19_linear_524:8915)"/>
<path d="M245.418 156.582C245.418 156.582 245.427 156.565 245.418 156.582V156.582Z" fill="#231F20"/>
<path d="M246.548 157.998C246.489 157.807 246.441 157.611 246.407 157.414C246.293 156.401 246.433 155.376 246.814 154.43L247.38 154.174C248.022 153.461 248.912 153.02 249.868 152.943H250.107H250.338H251.825L251.48 152.739L249.08 152.872L246.194 154.838L245.096 156.413L244.742 158.441C245.503 159.176 246.407 159.746 247.398 160.114C247.023 159.442 246.726 158.729 246.513 157.989L246.548 157.998Z" fill="white"/>
<path d="M256.632 156.919L256.243 155.529L252.932 153.599C253.583 154.315 253.951 155.243 253.967 156.21C253.967 156.308 253.967 156.396 253.967 156.494C254.057 157.582 253.849 158.675 253.365 159.654C254.648 159.003 255.765 158.067 256.632 156.919Z" fill="white"/>
<path d="M252.921 153.589L252.036 152.952H251.814L252.93 153.598L252.921 153.589Z" fill="#231F20"/>
<path d="M254.003 156.493C254.003 156.396 254.003 156.307 254.003 156.21C253.986 155.242 253.618 154.314 252.967 153.598L251.851 152.952H250.364H250.134H249.895C248.939 153.029 248.048 153.469 247.407 154.182L246.84 154.439C246.459 155.384 246.319 156.41 246.433 157.423C246.468 157.62 246.515 157.815 246.575 158.007C246.788 158.747 247.085 159.46 247.46 160.132C248.441 160.508 249.496 160.651 250.541 160.548C251.557 160.445 252.544 160.144 253.445 159.663C253.915 158.676 254.108 157.581 254.003 156.493Z" fill="#2E2454"/>
<path d="M244.059 158.104C244.055 157.058 244.229 156.02 244.572 155.032C244.862 154.063 245.411 153.191 246.16 152.511C246.909 151.831 247.829 151.368 248.822 151.172L248.928 151.694C248.023 151.872 247.185 152.297 246.507 152.922C245.828 153.547 245.337 154.348 245.086 155.236C244.761 156.163 244.594 157.139 244.59 158.122L244.059 158.104Z" fill="#2E2454"/>
<path d="M226.684 159.654C226.702 159.456 226.702 159.258 226.684 159.06C226.631 158.045 226.327 157.06 225.798 156.192L225.196 156.024C224.441 155.437 223.494 155.153 222.54 155.227H222.31L222.098 155.271L220.637 155.537L220.938 155.28L223.346 154.988L226.515 156.449L227.835 157.839L228.525 159.786C227.895 160.636 227.096 161.347 226.179 161.876C226.426 161.147 226.592 160.392 226.675 159.627L226.684 159.654Z" fill="white"/>
<path d="M216.564 160.274L216.715 158.84L219.654 156.378C219.127 157.196 218.919 158.179 219.07 159.141C219.07 159.229 219.07 159.327 219.07 159.424C219.162 160.511 219.551 161.553 220.194 162.434C218.834 162.004 217.591 161.265 216.564 160.274Z" fill="white"/>
<path d="M219.663 156.378L220.433 155.599L220.646 155.563L219.654 156.378H219.663Z" fill="#231F20"/>
<path d="M219.076 159.423C219.076 159.326 219.076 159.228 219.076 159.14C218.924 158.179 219.132 157.195 219.66 156.378L220.652 155.563L222.112 155.298L222.325 155.253H222.555C223.509 155.179 224.456 155.463 225.211 156.05L225.813 156.218C226.342 157.086 226.646 158.072 226.698 159.087C226.716 159.284 226.716 159.483 226.698 159.68C226.616 160.445 226.45 161.2 226.203 161.929C225.289 162.448 224.268 162.75 223.219 162.814C222.203 162.877 221.184 162.745 220.218 162.425C219.569 161.548 219.174 160.509 219.076 159.423Z" fill="#2E2454"/>
<path d="M228.983 159.423H228.452C228.54 157.859 228.023 156.32 227.007 155.127C225.992 153.934 224.556 153.177 222.998 153.013L223.078 152.482C229.284 153.412 228.983 159.37 228.983 159.423Z" fill="#2E2454"/>
<path d="M235.846 168.711L233.703 166.941C234.888 165.081 235.301 162.832 234.854 160.672C234.854 160.672 236.837 166.409 235.846 168.711Z" fill="white"/>
<path d="M239.492 168.055C239.544 167.928 239.623 167.813 239.722 167.719C239.827 167.62 239.943 167.534 240.068 167.462C240.22 167.384 240.385 167.333 240.555 167.312H240.82C240.905 167.316 240.989 167.334 241.068 167.365L241.281 167.453C241.351 167.453 241.396 167.533 241.449 167.568C241.552 167.66 241.647 167.761 241.732 167.869C241.732 167.869 241.564 167.825 241.351 167.745C241.299 167.717 241.242 167.699 241.183 167.692C241.121 167.701 241.059 167.701 240.997 167.692C240.926 167.692 240.864 167.692 240.794 167.692H240.59C240.455 167.699 240.321 167.722 240.192 167.763C240.076 167.825 239.935 167.843 239.846 167.905L239.492 168.055Z" fill="white"/>
<path d="M246.422 172.535C246.148 173.107 245.766 173.621 245.298 174.049C244.259 173.071 242.935 172.45 241.518 172.279C241.285 172.224 241.048 172.189 240.809 172.172C240.294 172.122 239.774 172.207 239.3 172.418C238.827 172.629 238.416 172.959 238.109 173.376C237.641 173.156 237.119 173.074 236.606 173.142C236.092 173.209 235.609 173.423 235.214 173.757C232.974 175.165 232.354 176.758 232.195 177.653C231.692 177.535 231.22 177.308 230.814 176.989L230.088 177.768C230.799 178.345 231.658 178.71 232.567 178.821C234.745 182.938 240.234 180.981 240.234 180.981C244.979 180.008 245.546 176.351 245.705 175.138C246.41 174.564 246.983 173.845 247.387 173.031L246.422 172.535Z" fill="#2E2454"/>
<path d="M236.527 177.325C236.527 177.325 238.032 174.961 241.326 176.218C240.745 176.885 239.968 177.35 239.106 177.549C238.244 177.748 237.342 177.669 236.527 177.325Z" fill="white"/>
<path d="M258.31 149.021C258.186 148.897 258.071 148.774 257.938 148.658L257.549 148.304C257.416 148.189 257.274 148.092 257.133 147.986L256.92 147.826L256.699 147.685C256.548 147.587 256.407 147.49 256.247 147.401C256.088 147.313 255.84 147.18 255.628 147.083C253.213 145.931 250.513 145.513 247.863 145.878C247.234 145.925 246.61 146.02 245.995 146.162C244.423 146.529 242.981 147.319 241.825 148.446L241.781 148.499C241.389 148.884 241.05 149.319 240.771 149.792L240.639 149.96L240.771 150.057C240.82 150.102 240.873 150.141 240.931 150.172L241.126 150.305C241.189 150.353 241.258 150.394 241.329 150.429L241.524 150.535L241.737 150.624L241.949 150.704C242.02 150.735 242.094 150.759 242.17 150.774L242.401 150.828C242.477 150.837 242.554 150.837 242.631 150.828H242.87H243.109C243.265 150.836 243.422 150.836 243.578 150.828L244.03 150.739H244.18L244.348 150.615L244.702 150.349L245.092 150.075C245.358 149.898 245.623 149.73 245.906 149.57C246.19 149.411 246.455 149.252 246.739 149.101L247.164 148.88L247.597 148.676C247.89 148.543 248.182 148.419 248.483 148.313C248.784 148.207 249.085 148.092 249.368 148.003C249.519 147.95 249.673 147.905 249.829 147.871L250.289 147.755L250.749 147.667L251.219 147.596C251.528 147.596 251.847 147.525 252.157 147.516C252.313 147.507 252.47 147.507 252.626 147.516C252.782 147.507 252.939 147.507 253.095 147.516L253.565 147.561L254.034 147.64L254.485 147.747L254.716 147.809L254.937 147.879C255.239 147.976 255.535 148.091 255.822 148.225L256.238 148.446L256.451 148.561L256.654 148.694C256.787 148.782 256.92 148.862 257.053 148.959L257.434 149.252C257.566 149.349 257.682 149.455 257.805 149.561L258.16 149.889L258.655 149.429L258.31 149.021Z" fill="#2E2454"/>
<path d="M264.92 154.891C262.264 155.865 261.423 162.159 261.379 162.425L262.043 162.505C262.23 161.146 262.55 159.808 262.999 158.512C263.199 158.501 263.399 158.53 263.587 158.597C263.775 158.664 263.949 158.767 264.097 158.901C264.593 159.362 265.088 160.451 264.717 163.071L265.381 163.169C265.717 160.822 265.434 159.22 264.548 158.405C264.194 158.083 263.742 157.887 263.265 157.848C263.569 156.86 264.241 156.026 265.142 155.519C265.832 155.271 266.629 155.563 267.514 156.405L267.966 155.918C266.895 154.882 265.903 154.545 264.92 154.891Z" fill="#2E2454"/>
<path d="M245.418 156.582C245.418 156.582 245.427 156.565 245.418 156.582V156.582Z" fill="#2E2454"/>
<path d="M250.966 152.199C250.851 152.19 250.735 152.19 250.621 152.199H250.196C250.054 152.199 249.921 152.199 249.779 152.27C249.229 152.371 248.694 152.54 248.186 152.775C247.697 153.018 247.237 153.315 246.814 153.66C246.418 153.967 246.059 154.317 245.742 154.705C245.462 155.057 245.213 155.433 244.999 155.829C244.946 155.918 244.91 156.006 244.866 156.086C244.851 156.13 244.83 156.171 244.804 156.21V156.272C244.733 156.449 244.662 156.608 244.609 156.768C244.556 156.927 244.538 157.015 244.503 157.131C244.428 157.42 244.386 157.717 244.379 158.016L244.866 158.432C244.87 158.37 244.87 158.308 244.866 158.246V158.025C244.862 157.981 244.862 157.936 244.866 157.892C244.866 157.848 244.866 157.795 244.866 157.741C244.866 157.688 244.919 157.529 244.954 157.405C244.99 157.281 245.052 157.148 245.096 157.007C245.14 156.865 245.229 156.723 245.291 156.573V156.511L245.539 156.413C245.583 156.334 245.627 156.236 245.671 156.166C245.878 155.829 246.115 155.511 246.38 155.218C246.671 154.885 247.001 154.588 247.363 154.333C247.747 154.067 248.16 153.844 248.593 153.669C249.038 153.483 249.505 153.358 249.983 153.297H250.337H250.7C250.936 153.283 251.173 153.283 251.409 153.297C252.297 153.4 253.151 153.702 253.905 154.182L254.153 154.351L254.277 154.43L254.383 154.519L254.605 154.696L254.808 154.882C254.912 154.975 255.01 155.076 255.1 155.183C255.407 155.705 255.569 156.299 255.569 156.905C255.569 157.51 255.407 158.105 255.1 158.627C255.346 158.484 255.578 158.318 255.791 158.131C256.823 157.363 257.59 156.292 257.987 155.068C254.392 151.624 250.966 152.199 250.966 152.199Z" fill="#2E2454"/>
<path d="M228.62 158.538L228.452 158.21C228.372 158.06 228.275 157.909 228.177 157.75V157.688L228.097 157.582L227.832 157.299C227.567 156.945 227.27 156.616 226.946 156.316C226.575 155.974 226.165 155.677 225.725 155.43C225.251 155.172 224.749 154.97 224.228 154.828C223.67 154.691 223.095 154.629 222.52 154.643C222.378 154.643 222.236 154.643 222.095 154.643H221.873H221.679C221.399 154.672 221.121 154.717 220.846 154.775H220.758C219.569 154.97 218.431 155.402 217.412 156.045C216.392 156.688 215.513 157.53 214.826 158.52C215.39 159.653 216.294 160.582 217.411 161.176C217.713 161.388 218.04 161.561 218.385 161.69C217.994 161.228 217.733 160.671 217.627 160.076C217.521 159.48 217.575 158.867 217.783 158.299C217.86 158.18 217.943 158.065 218.031 157.954L218.19 157.741L218.385 157.529L218.474 157.422L218.58 157.325L218.801 157.121C219.125 156.841 219.475 156.592 219.846 156.378C220.253 156.164 220.68 155.992 221.121 155.864C221.347 155.8 221.578 155.753 221.812 155.723H222.006H222.166H222.529C223.01 155.704 223.493 155.749 223.963 155.855C224.419 155.957 224.862 156.111 225.282 156.316C225.682 156.503 226.059 156.735 226.406 157.006C226.727 157.252 227.024 157.528 227.292 157.83C227.354 157.892 227.407 157.971 227.469 158.042L227.549 158.157V158.21C227.644 158.338 227.733 158.471 227.814 158.609L228.018 158.981C228.08 159.096 228.124 159.202 228.168 159.299L228.23 159.432L228.283 159.565L228.354 159.777C228.398 159.893 228.416 159.955 228.416 159.955L228.832 159.459C228.796 159.145 228.725 158.836 228.62 158.538Z" fill="#2E2454"/>
<path d="M223.919 146.072C223.388 145.877 222.892 145.726 222.441 145.602C221.406 145.305 220.329 145.182 219.254 145.239H218.97C218.795 145.25 218.62 145.274 218.448 145.31L218.191 145.354L217.943 145.425L217.695 145.496H217.571L217.447 145.54L216.969 145.735L216.518 145.974L216.297 146.089L216.084 146.231L215.659 146.514L215.27 146.824L215.075 146.983L214.889 147.152L214.552 147.559C214.437 147.674 214.331 147.798 214.216 147.922L214.048 148.099L213.968 148.196H213.924C213.924 148.196 213.924 148.196 213.995 148.338L214.464 148.772C214.579 148.851 214.597 148.851 214.606 148.834H214.65L214.729 148.754L214.889 148.595C215.004 148.488 215.101 148.373 215.216 148.276L215.562 147.984L215.73 147.833L215.916 147.709L216.279 147.444C216.394 147.364 216.527 147.293 216.651 147.222L216.837 147.107L217.04 147.01L217.43 146.833L217.837 146.691H217.934H218.041L218.244 146.638H218.448H218.66C218.799 146.625 218.938 146.625 219.076 146.638C219.218 146.638 219.36 146.638 219.501 146.638H219.918L220.334 146.718C220.475 146.718 220.608 146.789 220.741 146.824C221.017 146.903 221.286 147.004 221.547 147.125C221.68 147.183 221.81 147.248 221.936 147.32L222.122 147.417L222.317 147.532C222.445 147.603 222.569 147.679 222.689 147.763C222.804 147.851 222.928 147.922 223.043 148.019C223.158 148.117 223.512 148.382 223.742 148.577C223.972 148.772 224.141 148.94 224.335 149.135H224.291H224.335C224.512 149.303 226.239 151.083 226.248 151.091C226.86 151.613 227.538 152.051 228.266 152.393C228.789 152.566 229.355 152.566 229.878 152.393C230.263 152.242 230.607 152.004 230.884 151.696C231.161 151.389 231.362 151.021 231.471 150.622C231.055 149.516 229.426 147.895 223.919 146.072Z" fill="#2E2454"/>
<path d="M268.22 151.986C268.105 141.141 265.466 133.81 261.712 128.87L261.633 128.773C259.611 126.126 257.049 123.941 254.116 122.363C243.837 116.466 231.885 118.157 231.885 118.157C227.141 118.689 222.578 120.279 218.531 122.81C214.484 125.342 211.057 128.75 208.503 132.783C206.148 136.623 204.606 140.904 203.971 145.364C203.766 146.438 203.665 147.529 203.669 148.622C203.669 148.817 203.669 148.914 203.669 148.914C203.669 149.357 203.67 149.799 203.731 150.251C204.289 156.838 198.712 163.425 196.649 169.613C195.082 174.297 198.419 177.457 198.322 182.345C198.242 185.328 197.569 187.347 195.666 189.268C197.511 190.639 199.742 191.392 202.04 191.419C205.484 191.419 206.52 190.888 207.963 188.471C207.95 189.274 208.031 190.077 208.202 190.862C212.381 191.508 217.056 190.614 221.483 190.348C215.923 186.656 216.25 178.458 215.684 172.491C215.197 167.391 213.913 163.487 213.231 158.476C212.939 156.351 211.841 152.951 212.505 149.622C212.873 147.964 213.377 146.338 214.01 144.762C214.488 143.531 214.975 142.424 215.321 141.415C217.808 141.026 220.048 140.53 220.048 140.53L221.173 135.439L221.589 140.406C224.785 140.849 235.754 140.105 235.754 140.105L235.161 133.022L237.18 139.999C239.172 139.653 244.023 139.423 244.023 139.423L242.678 133.288L244.918 139.352L255.701 138.467C255.701 138.467 262.049 145.399 260.269 158.254C260.269 158.254 261.394 152.101 264.997 152.694L265.245 151.862L268.22 151.986Z" fill="url(#paint20_linear_524:8915)"/>
<path d="M264.967 166.24C264.967 166.48 264.896 166.715 264.762 166.914C264.629 167.114 264.44 167.269 264.218 167.361C263.996 167.453 263.753 167.477 263.517 167.43C263.282 167.383 263.066 167.268 262.896 167.098C262.727 166.928 262.611 166.712 262.564 166.477C262.518 166.242 262.542 165.998 262.633 165.776C262.725 165.554 262.881 165.365 263.08 165.232C263.28 165.098 263.514 165.027 263.754 165.027C264.076 165.027 264.384 165.155 264.612 165.383C264.839 165.61 264.967 165.919 264.967 166.24Z" fill="#70C250"/>
<path d="M266.894 165.028C266.894 165.177 266.85 165.323 266.767 165.447C266.684 165.57 266.567 165.667 266.429 165.724C266.292 165.781 266.14 165.796 265.994 165.766C265.848 165.737 265.714 165.666 265.609 165.561C265.504 165.455 265.432 165.321 265.403 165.175C265.374 165.029 265.389 164.878 265.446 164.74C265.503 164.603 265.599 164.485 265.723 164.403C265.847 164.32 265.992 164.276 266.141 164.276C266.341 164.276 266.532 164.355 266.673 164.496C266.814 164.637 266.894 164.829 266.894 165.028Z" fill="#2E2454"/>
<path d="M270.894 156.245C270.2 156.873 269.387 157.358 268.504 157.67" stroke="#70C250" stroke-width="1.52" stroke-miterlimit="10"/>
<path opacity="0.3" d="M236.015 149.073C224.922 149.958 209.207 150.065 209.207 150.065L211.217 165.797C215.342 170.365 231.58 167.718 231.58 167.718L233.244 161.751C234.085 158.812 235.838 158.21 236.785 158.13C237.733 158.05 239.565 158.334 240.902 161.078L243.558 166.674C243.558 166.674 260.008 166.479 263.284 161.264L262.549 145.417C262.549 145.417 247.091 148.064 236.015 149.073Z" fill="white"/>
<path d="M233.459 161.937C234.265 158.581 236.018 157.926 237 157.829C237.983 157.731 239.789 158.103 241.161 161.264" stroke="#683199" stroke-width="1.52" stroke-miterlimit="10" stroke-linecap="round"/>
<path d="M209.238 150.869C209.238 150.869 239.809 151.294 262.616 146.23" stroke="#683199" stroke-width="2.27" stroke-miterlimit="10" stroke-linecap="round"/>
<path d="M262.881 228.56C265.325 220.361 266.069 209.879 266.104 209.365C266.138 208.878 265.977 208.397 265.657 208.029C265.336 207.66 264.883 207.434 264.395 207.4C263.908 207.366 263.427 207.527 263.059 207.847C262.69 208.168 262.464 208.621 262.43 209.109C261.973 215.082 261.011 221.005 259.553 226.816C258.567 226.505 257.54 226.349 256.507 226.355H221.279C220.441 226.353 219.605 226.454 218.791 226.656C217.362 220.902 216.417 215.038 215.967 209.126C215.903 208.662 215.664 208.24 215.3 207.945C214.936 207.649 214.473 207.503 214.006 207.536C213.538 207.568 213.101 207.777 212.781 208.12C212.461 208.463 212.284 208.914 212.284 209.383C212.284 209.897 213.046 220.069 215.401 228.214C209.203 232.517 207.309 242.796 207.309 242.796L213.382 260.883C213.382 260.883 215.33 258.838 238.889 258.812C262.448 258.785 264.564 260.883 264.564 260.883L270.451 242.752C270.451 242.752 268.689 233.057 262.881 228.56Z" fill="#70C250"/>
<path d="M245.059 238.404H244.589L244.182 238.812L244.014 238.971H236.188L235.94 239.219L235.647 239.502H243.483L242.509 240.476L241.686 241.291L240.8 242.176L240.632 242.344H231.991L229.193 245.124H231.132C231.579 245.116 232.006 244.939 232.327 244.628L233.408 243.539H240.225C240.921 243.537 241.589 243.26 242.084 242.769L245.484 239.361C245.565 239.281 245.621 239.178 245.642 239.067C245.664 238.955 245.65 238.839 245.604 238.735C245.558 238.63 245.481 238.543 245.383 238.484C245.286 238.425 245.172 238.397 245.059 238.404Z" fill="white"/>
<path d="M237.543 234.049L235.861 235.713H246.326L248.008 234.049H237.543Z" fill="white"/>
<path d="M231.67 241.76H240.223L241.108 240.875L241.923 240.06H234.114L234.716 239.458L235.991 238.192H243.817L245.499 236.519H235.044L231.121 240.415C231.007 240.522 230.928 240.662 230.895 240.816C230.861 240.97 230.875 241.13 230.935 241.276C230.994 241.421 231.096 241.545 231.227 241.632C231.359 241.718 231.513 241.763 231.67 241.76Z" fill="white"/>
<path d="M228.105 251.268C216.914 249.143 212.443 231.021 212.443 231.021C208.902 234.695 206.928 243.575 206.928 243.575L213.382 260.883L222.519 259.334L217.986 251.826L228.105 251.268Z" fill="#339F28"/>
<path d="M249.672 251.268C260.871 249.143 265.342 231.021 265.342 231.021C268.884 234.695 270.477 242.778 270.477 242.778L264.404 260.883L255.276 259.334L259.809 251.826L249.672 251.268Z" fill="#84EF84"/>
<path d="M152.765 317.945L148.406 326.266L162.844 333.83L167.203 325.509L152.765 317.945Z" fill="#70C250"/>
<path d="M136.713 340.306L148.709 344.627C149.407 344.855 150.162 344.833 150.846 344.565C151.529 344.296 152.098 343.799 152.454 343.157L168.019 313.631C168.187 313.341 168.289 313.018 168.316 312.684C168.344 312.351 168.296 312.015 168.178 311.702C168.059 311.389 167.872 311.106 167.63 310.875C167.388 310.643 167.097 310.469 166.779 310.364L154.783 306.035" fill="#63676B"/>
<path d="M166.425 313.056C166.594 312.767 166.695 312.444 166.723 312.11C166.75 311.776 166.703 311.441 166.584 311.127C166.465 310.814 166.278 310.532 166.036 310.3C165.794 310.069 165.504 309.894 165.186 309.789L153.189 305.469C152.491 305.242 151.734 305.265 151.051 305.535C150.367 305.805 149.799 306.304 149.444 306.948L133.88 336.465C133.712 336.755 133.61 337.08 133.583 337.415C133.556 337.75 133.605 338.086 133.724 338.4C133.844 338.714 134.032 338.997 134.275 339.229C134.518 339.461 134.809 339.636 135.128 339.741L147.116 344.052C147.814 344.28 148.569 344.258 149.252 343.99C149.936 343.722 150.504 343.224 150.861 342.583L166.425 313.056Z" fill="#A7A9AC"/>
<path d="M152.077 338.838L136.371 333.181L148.173 310.808L163.879 316.465L152.077 338.838Z" fill="#2E2454"/>
<path d="M159.084 310.462C158.92 310.758 158.658 310.987 158.343 311.11C158.027 311.233 157.679 311.242 157.358 311.135C157.211 311.087 157.077 311.007 156.965 310.901C156.853 310.795 156.766 310.664 156.711 310.52C156.656 310.376 156.634 310.221 156.646 310.067C156.658 309.913 156.705 309.764 156.783 309.63C156.95 309.326 157.22 309.091 157.544 308.968C157.869 308.845 158.226 308.841 158.553 308.957C158.696 309.01 158.826 309.093 158.933 309.202C159.04 309.31 159.122 309.441 159.173 309.585C159.224 309.729 159.242 309.882 159.227 310.034C159.211 310.185 159.163 310.332 159.084 310.462Z" fill="#70C250"/>
<path d="M145.069 324.229L145.387 324.353L145.768 324.175L145.927 324.105L146.069 324.158L151.284 326.07L151.514 325.964L151.78 325.84L147.353 324.22L146.406 323.874L147.291 323.449L148.061 323.095L148.884 322.715L149.044 322.644L149.185 322.697L154.56 324.662L154.958 324.813L157.57 323.609L156.242 323.122C155.938 322.998 155.598 322.998 155.294 323.122L154.285 323.6L149.699 321.971C149.462 321.884 149.21 321.845 148.958 321.856C148.706 321.866 148.458 321.927 148.229 322.033L145.033 323.52C144.97 323.557 144.918 323.61 144.883 323.675C144.847 323.739 144.831 323.812 144.834 323.885C144.838 323.958 144.862 324.029 144.903 324.09C144.945 324.15 145.002 324.198 145.069 324.229Z" fill="#9446CE"/>
<path d="M149.133 329.116L150.7 328.39L143.52 325.761L141.953 326.487L149.133 329.116Z" fill="#70C250"/>
<path d="M155.103 325.292L154.598 325.115L149.224 323.141L148.392 323.522L147.631 323.876L152.465 325.647L153.005 325.841L152.438 326.107L151.243 326.656L145.869 324.682L144.293 325.408L151.473 328.064L155.147 326.381C155.259 326.338 155.355 326.261 155.421 326.16C155.487 326.06 155.52 325.941 155.515 325.821C155.51 325.701 155.468 325.585 155.394 325.491C155.32 325.396 155.218 325.326 155.103 325.292Z" fill="#70C250"/>
<defs>
<linearGradient id="paint0_linear_524:8915" x1="202.594" y1="556.544" x2="221.921" y2="556.544" gradientUnits="userSpaceOnUse">
<stop stop-color="#6C28A5"/>
<stop offset="1" stop-color="#A96AD8"/>
</linearGradient>
<linearGradient id="paint1_linear_524:8915" x1="192.101" y1="576.021" x2="209.171" y2="576.021" gradientUnits="userSpaceOnUse">
<stop stop-color="#1D183A" stop-opacity="0.2"/>
<stop offset="1" stop-color="#1D183A"/>
</linearGradient>
<linearGradient id="paint2_linear_524:8915" x1="6453.06" y1="25827.3" x2="6874.97" y2="25827.3" gradientUnits="userSpaceOnUse">
<stop stop-color="#6C28A5"/>
<stop offset="1" stop-color="#A96AD8"/>
</linearGradient>
<linearGradient id="paint3_linear_524:8915" x1="167353" y1="29636.9" x2="167025" y2="29636.9" gradientUnits="userSpaceOnUse">
<stop stop-color="#1D183A" stop-opacity="0.2"/>
<stop offset="1" stop-color="#1D183A"/>
</linearGradient>
<linearGradient id="paint4_linear_524:8915" x1="37710.7" y1="66373.3" x2="82457.4" y2="66373.3" gradientUnits="userSpaceOnUse">
<stop stop-color="#6C28A5"/>
<stop offset="1" stop-color="#A96AD8"/>
</linearGradient>
<linearGradient id="paint5_linear_524:8915" x1="210.559" y1="293.134" x2="266.176" y2="293.134" gradientUnits="userSpaceOnUse">
<stop stop-color="#CE7E9B"/>
<stop offset="0.27" stop-color="#D48CA9"/>
<stop offset="0.66" stop-color="#DB99B7"/>
<stop offset="1" stop-color="#DD9EBC"/>
</linearGradient>
<linearGradient id="paint6_linear_524:8915" x1="169.815" y1="420.466" x2="312.178" y2="420.466" gradientUnits="userSpaceOnUse">
<stop stop-color="#1D183A"/>
<stop offset="0.16" stop-color="#221B41"/>
<stop offset="0.61" stop-color="#2B224F"/>
<stop offset="1" stop-color="#2E2454"/>
</linearGradient>
<linearGradient id="paint7_linear_524:8915" x1="13767.2" y1="35191.9" x2="17491.4" y2="35191.9" gradientUnits="userSpaceOnUse">
<stop stop-color="#1D183A" stop-opacity="0.2"/>
<stop offset="1" stop-color="#1D183A"/>
</linearGradient>
<linearGradient id="paint8_linear_524:8915" x1="7016.8" y1="24684.4" x2="7959.44" y2="24684.4" gradientUnits="userSpaceOnUse">
<stop stop-color="#1D183A" stop-opacity="0.2"/>
<stop offset="1" stop-color="#1D183A"/>
</linearGradient>
<linearGradient id="paint9_linear_524:8915" x1="235.109" y1="341.724" x2="258.42" y2="341.724" gradientUnits="userSpaceOnUse">
<stop stop-color="#1D183A" stop-opacity="0.5"/>
<stop offset="1" stop-color="#1D183A"/>
</linearGradient>
<linearGradient id="paint10_linear_524:8915" x1="17073.3" y1="36170.4" x2="20075.3" y2="36170.4" gradientUnits="userSpaceOnUse">
<stop stop-color="#1D183A" stop-opacity="0.2"/>
<stop offset="1" stop-color="#1D183A"/>
</linearGradient>
<linearGradient id="paint11_linear_524:8915" x1="7671.73" y1="61448.8" x2="8191.93" y2="61448.8" gradientUnits="userSpaceOnUse">
<stop stop-color="#1D183A" stop-opacity="0.5"/>
<stop offset="1" stop-color="#1D183A"/>
</linearGradient>
<linearGradient id="paint12_linear_524:8915" x1="10088.2" y1="21468.3" x2="11960.5" y2="21468.3" gradientUnits="userSpaceOnUse">
<stop stop-color="#1D183A" stop-opacity="0.2"/>
<stop offset="1" stop-color="#1D183A"/>
</linearGradient>
<linearGradient id="paint13_linear_524:8915" x1="10925.7" y1="14183.5" x2="12243.5" y2="14183.5" gradientUnits="userSpaceOnUse">
<stop stop-color="#1D183A" stop-opacity="0.2"/>
<stop offset="1" stop-color="#1D183A"/>
</linearGradient>
<linearGradient id="paint14_linear_524:8915" x1="6235.46" y1="19184.9" x2="6599.95" y2="19184.9" gradientUnits="userSpaceOnUse">
<stop stop-color="#1D183A" stop-opacity="0.5"/>
<stop offset="1" stop-color="#1D183A"/>
</linearGradient>
<linearGradient id="paint15_linear_524:8915" x1="6413.19" y1="17652.1" x2="7139.39" y2="17652.1" gradientUnits="userSpaceOnUse">
<stop stop-color="#1D183A" stop-opacity="0.5"/>
<stop offset="1" stop-color="#1D183A"/>
</linearGradient>
<linearGradient id="paint16_linear_524:8915" x1="169.815" y1="420.466" x2="312.178" y2="420.466" gradientUnits="userSpaceOnUse">
<stop stop-color="#1D183A"/>
<stop offset="0.16" stop-color="#221B41"/>
<stop offset="0.61" stop-color="#2B224F"/>
<stop offset="1" stop-color="#2E2454"/>
</linearGradient>
<linearGradient id="paint17_linear_524:8915" x1="238.446" y1="127.913" x2="238.446" y2="190.454" gradientUnits="userSpaceOnUse">
<stop stop-color="#F2B7CC"/>
<stop offset="1" stop-color="#ECB7D0"/>
</linearGradient>
<linearGradient id="paint18_linear_524:8915" x1="5806.61" y1="6114.34" x2="5806.61" y2="6662.89" gradientUnits="userSpaceOnUse">
<stop stop-color="#E0A2B8"/>
<stop offset="1" stop-color="#DD9EBC"/>
</linearGradient>
<linearGradient id="paint19_linear_524:8915" x1="252.435" y1="134.333" x2="252.435" y2="146.993" gradientUnits="userSpaceOnUse">
<stop stop-color="#CE7E9B"/>
<stop offset="0.09" stop-color="#D388A6"/>
<stop offset="0.27" stop-color="#D995B3"/>
<stop offset="0.5" stop-color="#DC9CBA"/>
<stop offset="1" stop-color="#DD9EBC"/>
</linearGradient>
<linearGradient id="paint20_linear_524:8915" x1="18524.2" y1="18856.3" x2="24474.3" y2="18856.3" gradientUnits="userSpaceOnUse">
<stop stop-color="#6C28A5"/>
<stop offset="1" stop-color="#A96AD8"/>
</linearGradient>
</defs>
</svg>
