<svg width="414" height="729" viewBox="0 0 414 729" fill="none" xmlns="http://www.w3.org/2000/svg">
<path d="M218.855 403.368C230.696 382.859 254.136 387.072 271.136 412.557L418.63 635.363L505.065 485.653L357.527 262.924C271.939 134.239 153.937 113.325 94.5099 216.255L-10.1078 397.458L114.281 584.494L218.855 403.368Z" fill="#7562E0"/>
<path opacity="0.7" d="M149.266 40.583C149.262 42.9546 148.555 45.2719 147.235 47.242C145.915 49.212 144.04 50.7465 141.848 51.6515C139.656 52.5564 137.244 52.7912 134.919 52.3262C132.593 51.8612 130.458 50.7172 128.782 49.0388C127.106 47.3605 125.966 45.2231 125.504 42.8968C125.043 40.5704 125.282 38.1596 126.19 35.9688C127.099 33.7781 128.636 31.9058 130.608 30.5886C132.581 29.2714 134.899 28.5684 137.271 28.5684C138.848 28.5684 140.409 28.8793 141.866 29.4833C143.322 30.0873 144.645 30.9726 145.76 32.0885C146.874 33.2044 147.757 34.5291 148.358 35.9866C148.96 37.4442 149.269 39.0061 149.266 40.583V40.583Z" stroke="#70C250" stroke-width="0.76" stroke-miterlimit="10"/>
<path opacity="0.7" d="M143.425 40.5799C143.426 41.7963 143.066 42.9857 142.391 43.9977C141.717 45.0097 140.757 45.7989 139.633 46.2652C138.51 46.7316 137.273 46.8543 136.08 46.6178C134.887 46.3812 133.791 45.7961 132.93 44.9365C132.07 44.0768 131.483 42.9812 131.246 41.7883C131.008 40.5953 131.129 39.3587 131.594 38.2348C132.06 37.1108 132.848 36.1501 133.859 35.4742C134.87 34.7983 136.059 34.4375 137.276 34.4375C138.905 34.4375 140.468 35.0844 141.621 36.2362C142.774 37.3879 143.423 38.9502 143.425 40.5799Z" fill="#70C250"/>
<path opacity="0.7" d="M122.013 42.6953L113.356 45.7118L94.1055 44.0074V46.7088L114.334 53.2885L125.293 50.6965" stroke="#70C250" stroke-width="1.14" stroke-miterlimit="10"/>
<path opacity="0.7" d="M113.359 45.7129L114.337 53.2896" stroke="#70C250" stroke-width="0.76" stroke-miterlimit="10"/>
<path opacity="0.7" d="M151.703 34.3931L156.971 35.2871L178.067 22.0762V26.7071L156.971 46.71L151.96 46.0861" stroke="#70C250" stroke-width="1.14" stroke-miterlimit="10"/>
<path opacity="0.7" d="M178.063 25.002V31.0929L158.677 51.8033L149.705 50.1246" stroke="#70C250" stroke-width="1.14" stroke-miterlimit="10"/>
<path opacity="0.7" d="M156.973 35.4805V46.7104" stroke="#70C250" stroke-width="0.76" stroke-miterlimit="10"/>
<path opacity="0.7" d="M135.345 56.1329C135.435 56.3065 136.811 57.6508 134.367 66.7582C129.955 83.2301 114.46 100.969 102.24 112.951C95.8459 119.467 90.757 127.145 87.2475 135.572C82.4879 147.214 82.4236 157.704 87.0545 165.892C92.5987 175.694 104.189 181.296 121.503 182.544C123.995 182.724 126.614 182.814 129.363 182.814C146.948 182.814 169.883 179.167 197.74 171.944L194.067 157.794C163.407 165.75 139.345 169.172 122.552 167.969C114.19 167.365 103.494 165.274 99.7766 158.701C98.1429 155.8 96.9852 150.397 100.78 141.104C103.534 134.519 107.503 128.512 112.479 123.397C133.331 102.95 146.671 84.42 149.141 67.7937C151.006 55.3032 149.745 52.4603 148.871 51.1289" stroke="#70C250" stroke-width="1.52" stroke-miterlimit="10"/>
<path opacity="0.7" d="M152.959 40.7488C153.062 32.0856 146.122 24.9793 137.459 24.8765C128.796 24.7737 121.689 31.7132 121.587 40.3764C121.484 49.0396 128.423 56.1459 137.086 56.2487C145.75 56.3515 152.856 49.412 152.959 40.7488Z" stroke="#70C250" stroke-width="1.14" stroke-miterlimit="10"/>
<path opacity="0.7" d="M143.719 26.2513L139.892 12.5773L115.078 1L108.498 5.26429L126.925 19.4014V28.7726" stroke="#70C250" stroke-width="1.14" stroke-miterlimit="10"/>
<path opacity="0.7" d="M112.574 2.60938L137.272 14.5275L139.89 25.095" stroke="#70C250" stroke-width="1.14" stroke-miterlimit="10"/>
<path opacity="0.7" d="M126.92 19.3988L137.269 14.5234" stroke="#70C250" stroke-width="0.76" stroke-miterlimit="10"/>
<path opacity="0.7" d="M135.453 61.8046C135.453 61.8046 144.516 63.6055 150.002 58.9746" stroke="#70C250" stroke-width="0.76" stroke-miterlimit="10"/>
<path opacity="0.7" d="M125.992 84.666C125.992 84.666 130.347 91.5866 140.682 89.4834" stroke="#70C250" stroke-width="0.76" stroke-miterlimit="10"/>
<path opacity="0.7" d="M120.555 92.4707C120.555 92.4707 123.874 100.536 134.061 99.3206" stroke="#70C250" stroke-width="0.76" stroke-miterlimit="10"/>
<path opacity="0.7" d="M114.936 99.4453C116.037 102.015 117.962 104.145 120.407 105.5C122.853 106.854 125.68 107.356 128.442 106.926" stroke="#70C250" stroke-width="0.76" stroke-miterlimit="10"/>
<path opacity="0.7" d="M108.471 107.043C108.471 107.043 109.931 115.7 120.961 115.179" stroke="#70C250" stroke-width="0.76" stroke-miterlimit="10"/>
<path opacity="0.7" d="M101.652 113.98C101.652 113.98 102.887 122.175 112.664 123.628" stroke="#70C250" stroke-width="0.76" stroke-miterlimit="10"/>
<path opacity="0.7" d="M94.3262 122.555C94.3262 122.555 97.0082 130.775 106.675 130.401" stroke="#70C250" stroke-width="0.76" stroke-miterlimit="10"/>
<path opacity="0.7" d="M88.1055 132.705C88.1055 132.705 93.1094 141.266 101.96 138.449" stroke="#70C250" stroke-width="0.76" stroke-miterlimit="10"/>
<path opacity="0.7" d="M84.5605 144.049C84.5605 144.049 92.5038 150.378 99.0386 146.294" stroke="#70C250" stroke-width="0.76" stroke-miterlimit="10"/>
<path opacity="0.7" d="M83.625 155.711C83.625 155.711 94.0896 161.558 98.4182 154.676" stroke="#70C250" stroke-width="0.76" stroke-miterlimit="10"/>
<path opacity="0.7" d="M89.5137 168.991C89.5137 168.991 97.875 171.969 103.844 162.906" stroke="#70C250" stroke-width="0.76" stroke-miterlimit="10"/>
<path opacity="0.7" d="M102.752 178.685C102.752 178.685 112.58 175.784 111.454 166.182" stroke="#70C250" stroke-width="0.76" stroke-miterlimit="10"/>
<path opacity="0.7" d="M284.612 53.3669C283.476 55.4496 282.982 57.8225 283.195 60.1856C283.407 62.5487 284.315 64.7958 285.804 66.6427C287.294 68.4896 289.297 69.8534 291.562 70.5615C293.826 71.2696 296.25 71.2903 298.526 70.6209C300.802 69.9515 302.829 68.6222 304.349 66.801C305.87 64.9798 306.817 62.7485 307.069 60.3894C307.322 58.0302 306.869 55.6492 305.768 53.5474C304.667 51.4457 302.968 49.7175 300.885 48.5816C299.502 47.8267 297.984 47.3517 296.418 47.1837C294.852 47.0156 293.268 47.1579 291.757 47.6023C290.246 48.0467 288.837 48.7845 287.611 49.7736C286.385 50.7628 285.366 51.9838 284.612 53.3669V53.3669Z" stroke="#70C250" stroke-width="0.76" stroke-miterlimit="10"/>
<path opacity="0.7" d="M289.75 56.1671C289.169 57.2344 288.917 58.4498 289.027 59.66C289.136 60.8701 289.602 62.0206 290.365 62.9664C291.128 63.9121 292.154 64.6106 293.313 64.9737C294.473 65.3368 295.714 65.3482 296.88 65.0065C298.046 64.6647 299.085 63.9852 299.865 63.0536C300.645 62.122 301.132 60.9802 301.263 59.7723C301.395 58.5644 301.166 57.3445 300.605 56.2667C300.044 55.1889 299.176 54.3015 298.111 53.7165C297.402 53.3268 296.622 53.081 295.817 52.9933C295.012 52.9055 294.198 52.9775 293.421 53.2052C292.645 53.4329 291.92 53.8117 291.29 54.32C290.66 54.8283 290.137 55.456 289.75 56.1671Z" fill="#70C250"/>
<path opacity="0.7" d="M307.515 68.291L313.67 75.083L331.383 82.8076L330.091 85.1745L309.187 81.264L300.807 73.7452" stroke="#70C250" stroke-width="1.52" stroke-miterlimit="10"/>
<path opacity="0.7" d="M313.672 75.0801L309.189 81.261" stroke="#70C250" stroke-width="0.76" stroke-miterlimit="10"/>
<path opacity="0.7" d="M330.094 85.1714L325.437 87.6026L307.878 85.7052L295.4 74.7969" stroke="#70C250" stroke-width="1.52" stroke-miterlimit="10"/>
<path opacity="0.7" d="M285.433 46.7807L280.378 45.0441L268.19 23.3496L265.971 27.4145L274.911 55.0713L279.606 56.9301" stroke="#70C250" stroke-width="1.52" stroke-miterlimit="10"/>
<path opacity="0.7" d="M266.785 25.916L263.865 31.2608L270.966 58.7247L279.649 61.5483" stroke="#70C250" stroke-width="1.52" stroke-miterlimit="10"/>
<path opacity="0.7" d="M280.285 45.2109L274.908 55.0709" stroke="#70C250" stroke-width="0.76" stroke-miterlimit="10"/>
<path opacity="0.7" d="M211.18 154.22C224.873 165.399 236.907 173.368 247.063 178.018C254.672 181.485 265.072 184.778 271.504 180.784C274.334 179.028 277.935 174.834 279.055 164.858C279.789 157.759 279.182 150.586 277.267 143.711C268.732 115.758 265.908 93.1052 271.697 77.3215C276.045 65.4677 278.508 63.5767 279.916 62.8242" stroke="#70C250" stroke-width="1.52" stroke-miterlimit="10"/>
<path opacity="0.7" d="M289.382 73.707C289.215 73.8164 287.363 74.3502 285.15 83.5027C281.137 100.077 286.243 123.071 291.235 139.459C293.728 148.233 294.52 157.402 293.569 166.473C292.167 178.977 287.202 188.213 279.22 193.184C269.656 199.134 256.799 198.503 241.002 191.306C238.734 190.273 236.39 189.096 233.972 187.775C224.389 182.553 213.66 175.098 201.884 165.495C201.363 165.064 200.835 164.64 200.314 164.209" stroke="#70C250" stroke-width="1.52" stroke-miterlimit="10"/>
<path opacity="0.7" d="M281.346 51.5933C279.858 54.318 279.211 57.4228 279.488 60.515C279.765 63.6071 280.953 66.5477 282.901 68.9647C284.85 71.3817 287.471 73.1665 290.434 74.0934C293.397 75.0203 296.568 75.0475 299.547 74.1717C302.525 73.2959 305.177 71.5564 307.166 69.1733C309.156 66.7901 310.394 63.8704 310.724 60.7835C311.054 57.6965 310.461 54.5811 309.02 51.8312C307.579 49.0814 305.355 46.8207 302.629 45.3352C298.976 43.3448 294.683 42.8859 290.692 44.0593C286.701 45.2328 283.34 47.9426 281.346 51.5933V51.5933Z" stroke="#70C250" stroke-width="1.52" stroke-miterlimit="10"/>
<path opacity="0.7" d="M296.344 43.4603L306.249 33.2852L333.578 35.0089L337.308 41.8974L314.366 45.4863L309.876 53.7126" stroke="#70C250" stroke-width="1.52" stroke-miterlimit="10"/>
<path opacity="0.7" d="M335 37.6135L307.613 36.25L300.262 44.2705" stroke="#70C250" stroke-width="1.52" stroke-miterlimit="10"/>
<path opacity="0.7" d="M314.365 45.4861L307.611 36.25" stroke="#70C250" stroke-width="0.76" stroke-miterlimit="10"/>
<path opacity="0.7" d="M286.582 78.6163C286.582 78.6163 277.764 75.8571 275.166 69.168" stroke="#70C250" stroke-width="0.76" stroke-miterlimit="10"/>
<path opacity="0.7" d="M284.562 86.4318C284.562 86.4318 274.213 84.0134 271.357 78.5078" stroke="#70C250" stroke-width="0.76" stroke-miterlimit="10"/>
<path opacity="0.7" d="M332.157 245.409C329.803 245.701 327.414 245.289 325.294 244.224C323.174 243.159 321.417 241.489 320.246 239.425C319.075 237.362 318.543 234.998 318.715 232.631C318.888 230.265 319.759 228.003 321.217 226.132C322.676 224.26 324.657 222.863 326.909 222.118C329.161 221.372 331.584 221.311 333.871 221.942C336.159 222.574 338.207 223.869 339.758 225.665C341.308 227.461 342.292 229.676 342.583 232.031C342.974 235.187 342.095 238.37 340.14 240.879C338.185 243.387 335.314 245.017 332.157 245.409V245.409Z" stroke="#70C250" stroke-width="0.76" stroke-miterlimit="10"/>
<path opacity="0.7" d="M331.402 239.608C330.195 239.758 328.971 239.547 327.884 239.001C326.798 238.454 325.897 237.598 325.297 236.541C324.697 235.483 324.424 234.271 324.512 233.058C324.601 231.845 325.048 230.685 325.795 229.726C326.543 228.767 327.559 228.051 328.713 227.669C329.868 227.287 331.11 227.256 332.283 227.579C333.455 227.903 334.505 228.568 335.299 229.488C336.094 230.409 336.598 231.545 336.747 232.752C336.947 234.37 336.497 236.001 335.494 237.287C334.492 238.572 333.02 239.407 331.402 239.608Z" fill="#70C250"/>
<path opacity="0.7" d="M326.644 218.624L322.585 210.41L321.91 191.096L319.228 191.43L315.195 212.308L319.112 222.869" stroke="#70C250" stroke-width="1.52" stroke-miterlimit="10"/>
<path opacity="0.7" d="M322.585 210.414L315.195 212.311" stroke="#70C250" stroke-width="0.76" stroke-miterlimit="10"/>
<path opacity="0.7" d="M319.227 191.434L315.259 194.875L310.576 211.906L316.14 227.516" stroke="#70C250" stroke-width="1.52" stroke-miterlimit="10"/>
<path opacity="0.6" d="M338.542 247.066L338.304 252.411L354.011 271.713L349.418 272.286L326.971 253.82L326.965 248.764" stroke="#70C250" stroke-width="1.52" stroke-miterlimit="10"/>
<path opacity="0.6" d="M351.115 272.075L345.069 272.827L322.127 256.137L322.693 247.029" stroke="#70C250" stroke-width="1.52" stroke-miterlimit="10"/>
<path opacity="0.6" d="M338.116 252.438L326.977 253.82" stroke="#70C250" stroke-width="0.76" stroke-miterlimit="10"/>
<path opacity="0.7" d="M221.304 304.288C209.63 274.843 203.295 251.386 202.407 234.573C201.97 226.212 202.729 215.329 208.8 210.833C211.469 208.846 216.692 207.039 226.378 209.656C233.252 211.577 239.702 214.776 245.391 219.085C268.256 237.262 288.285 248.215 305.091 248.633C317.716 248.948 320.379 247.347 321.595 246.311" stroke="#70C250" stroke-width="1.52" stroke-miterlimit="10"/>
<path opacity="0.7" d="M332.573 249.084C329.491 249.467 326.365 248.927 323.591 247.533C320.816 246.139 318.517 243.952 316.985 241.251C315.454 238.55 314.758 235.455 314.986 232.358C315.214 229.261 316.355 226.301 318.266 223.853C320.177 221.405 322.771 219.579 325.72 218.606C328.67 217.634 331.841 217.557 334.833 218.388C337.826 219.218 340.504 220.918 342.53 223.271C344.556 225.624 345.839 228.526 346.215 231.609C346.719 235.734 345.565 239.891 343.008 243.167C340.45 246.443 336.698 248.571 332.573 249.084Z" stroke="#70C250" stroke-width="1.52" stroke-miterlimit="10"/>
<path opacity="0.7" d="M345.643 238.14L358.739 232.653L367.171 206.611L362.128 200.604L350.371 220.626L341.07 221.783" stroke="#70C250" stroke-width="1.52" stroke-miterlimit="10"/>
<path opacity="0.7" d="M365.264 204.33L356.479 230.308L346.316 234.199" stroke="#70C250" stroke-width="1.52" stroke-miterlimit="10"/>
<path opacity="0.7" d="M350.371 220.629L356.481 230.309" stroke="#70C250" stroke-width="0.76" stroke-miterlimit="10"/>
<path opacity="0.7" d="M52.4834 231.445C54.7985 231.965 57.216 231.787 59.43 230.933C61.6439 230.079 63.5549 228.588 64.9212 226.648C66.2874 224.708 67.0476 222.406 67.1055 220.034C67.1634 217.662 66.5165 215.326 65.2465 213.321C63.9765 211.317 62.1405 209.734 59.9709 208.773C57.8012 207.813 55.3953 207.517 53.0576 207.924C50.7198 208.33 48.5552 209.421 46.8376 211.059C45.1199 212.696 43.9265 214.806 43.4081 217.121C43.0633 218.658 43.0246 220.247 43.2941 221.798C43.5636 223.35 44.1361 224.833 44.9788 226.163C45.8215 227.493 46.9181 228.644 48.2057 229.55C49.4934 230.457 50.9469 231.1 52.4834 231.445V231.445Z" stroke="#70C250" stroke-width="0.76" stroke-miterlimit="10"/>
<path opacity="0.7" d="M53.7629 225.739C54.9497 226.006 56.1892 225.916 57.3245 225.478C58.4597 225.041 59.4396 224.276 60.1403 223.282C60.841 222.287 61.2309 221.107 61.2607 219.891C61.2904 218.675 60.9587 217.477 60.3076 216.449C59.6564 215.422 58.715 214.61 57.6025 214.118C56.4901 213.626 55.2565 213.474 54.058 213.683C52.8595 213.892 51.7498 214.452 50.8695 215.291C49.9892 216.131 49.3778 217.213 49.1127 218.401C48.7577 219.99 49.048 221.656 49.9198 223.032C50.7916 224.408 52.1738 225.381 53.7629 225.739Z" fill="#70C250"/>
<path opacity="0.7" d="M60.5371 205.328L65.3738 197.539L67.9208 178.385L70.5579 178.977L72.5517 200.15L67.625 210.28" stroke="#70C250" stroke-width="1.52" stroke-miterlimit="10"/>
<path opacity="0.7" d="M65.375 197.535L72.5529 200.146" stroke="#70C250" stroke-width="0.76" stroke-miterlimit="10"/>
<path opacity="0.7" d="M70.554 178.975L74.1751 182.782L77.1787 200.187L70.123 215.186" stroke="#70C250" stroke-width="1.52" stroke-miterlimit="10"/>
<path opacity="0.6" d="M45.9285 232.475L45.6519 237.813L28.1445 255.5L32.6597 256.517L56.7918 240.315L57.2871 235.285" stroke="#70C250" stroke-width="1.52" stroke-miterlimit="10"/>
<path opacity="0.6" d="M31 256.143L36.943 257.475L61.3903 243.093L61.7183 233.973" stroke="#70C250" stroke-width="1.52" stroke-miterlimit="10"/>
<path opacity="0.6" d="M45.8418 237.857L56.7952 240.314" stroke="#70C250" stroke-width="0.76" stroke-miterlimit="10"/>
<path opacity="0.7" d="M70.7302 221.269C70.8781 221.398 71.8879 223.031 81.3105 222.645C98.3484 221.938 119.046 210.702 133.408 201.42C141.163 196.6 149.77 193.31 158.762 191.728C171.169 189.637 181.415 191.863 188.394 198.16C196.742 205.73 199.662 218.265 197.09 235.464C196.717 237.934 196.23 240.507 195.63 243.182C191.77 260.342 183.197 281.934 170.057 307.5L157.052 300.818C171.523 272.64 180.129 249.916 182.631 233.284C183.866 225.019 184.168 214.104 178.572 209.036C176.103 206.804 171.086 204.495 161.206 206.161C154.178 207.405 147.446 209.962 141.364 213.699C116.846 229.572 95.8464 238.532 79.0787 237.31C66.4852 236.397 63.9897 234.544 62.877 233.399" stroke="#70C250" stroke-width="1.52" stroke-miterlimit="10"/>
<path opacity="0.7" d="M51.6687 235.053C54.6961 235.732 57.8567 235.498 60.7511 234.381C63.6455 233.263 66.1436 231.313 67.9295 228.776C69.7155 226.239 70.709 223.229 70.7845 220.128C70.8601 217.026 70.0142 213.972 68.3539 211.351C66.6936 208.73 64.2934 206.66 61.4568 205.403C58.6202 204.147 55.4747 203.759 52.4179 204.29C49.3611 204.821 46.5304 206.246 44.2836 208.386C42.0369 210.525 40.4751 213.283 39.7956 216.31C38.8862 220.37 39.626 224.625 41.8524 228.139C44.0788 231.654 47.6096 234.14 51.6687 235.053Z" stroke="#70C250" stroke-width="1.52" stroke-miterlimit="10"/>
<path opacity="0.7" d="M39.7345 222.899L27.231 216.171L21.3652 189.428L26.9673 183.941L36.7244 205.012L45.8704 207.064" stroke="#70C250" stroke-width="1.52" stroke-miterlimit="10"/>
<path opacity="0.7" d="M23.4824 187.336L29.702 214.047L39.4397 218.91" stroke="#70C250" stroke-width="1.52" stroke-miterlimit="10"/>
<path opacity="0.7" d="M36.7267 205.012L29.7031 214.048" stroke="#70C250" stroke-width="0.76" stroke-miterlimit="10"/>
<path opacity="0.7" d="M76.2164 222.604C76.2164 222.604 75.9913 231.84 70.2734 236.175" stroke="#70C250" stroke-width="0.76" stroke-miterlimit="10"/>
<path opacity="0.7" d="M84.2918 222.416C84.2918 222.416 84.8128 233.035 80.3105 237.293" stroke="#70C250" stroke-width="0.76" stroke-miterlimit="10"/>
<path opacity="0.7" d="M92.2896 220.961C92.2896 220.961 96.2194 229.74 91.0547 236.191" stroke="#70C250" stroke-width="0.76" stroke-miterlimit="10"/>
<path opacity="0.7" d="M100.613 218.389C100.613 218.389 106.402 224.177 102.099 233.78" stroke="#70C250" stroke-width="0.76" stroke-miterlimit="10"/>
<path opacity="0.7" d="M94.1055 46.7109L97.0319 51.0781L113.356 57.8187L129.538 54.2169" stroke="#70C250" stroke-width="1.14" stroke-miterlimit="10"/>
<path opacity="0.7" d="M133.488 69.6276C133.488 69.6276 143.734 72.4576 148.88 68.9844" stroke="#70C250" stroke-width="0.76" stroke-miterlimit="10"/>
<path opacity="0.7" d="M130.318 77.1074C130.318 77.1074 138.037 82.8961 145.452 79.2364" stroke="#70C250" stroke-width="0.76" stroke-miterlimit="10"/>
<path opacity="0.7" d="M116.746 182.082C116.746 182.082 124.117 180.507 121.422 167.881" stroke="#70C250" stroke-width="0.76" stroke-miterlimit="10"/>
<path opacity="0.7" d="M131.287 182.795C131.287 182.795 137.005 178.756 132.618 168.156" stroke="#70C250" stroke-width="0.76" stroke-miterlimit="10"/>
<path opacity="0.7" d="M144.916 167.326C144.916 167.326 149.174 175.99 144.916 182.004" stroke="#70C250" stroke-width="0.76" stroke-miterlimit="10"/>
<path opacity="0.7" d="M275.558 194.726C275.558 194.726 266.766 193.331 265.91 182.506" stroke="#70C250" stroke-width="0.76" stroke-miterlimit="10"/>
<path opacity="0.7" d="M259.308 196.877C259.308 196.877 252.066 189.628 257.655 181.736" stroke="#70C250" stroke-width="0.76" stroke-miterlimit="10"/>
<path opacity="0.7" d="M283.752 94.5176C283.752 94.5176 274.226 95.894 269.447 89.1406" stroke="#70C250" stroke-width="0.76" stroke-miterlimit="10"/>
<path opacity="0.7" d="M283.918 103.226C283.918 103.226 276.778 107.214 268.713 100.422" stroke="#70C250" stroke-width="0.76" stroke-miterlimit="10"/>
<path opacity="0.7" d="M284.991 112.692C284.991 112.692 278.212 118.191 269.863 112.248" stroke="#70C250" stroke-width="0.76" stroke-miterlimit="10"/>
<path opacity="0.7" d="M286.561 121.5C284.365 123.229 281.656 124.177 278.861 124.196C276.066 124.214 273.344 123.302 271.125 121.603" stroke="#70C250" stroke-width="0.76" stroke-miterlimit="10"/>
<path opacity="0.7" d="M288.594 131.27C288.594 131.27 283.172 138.177 273.736 132.44" stroke="#70C250" stroke-width="0.76" stroke-miterlimit="10"/>
<path opacity="0.7" d="M291.259 140.621C291.259 140.621 286.249 147.22 276.98 143.792" stroke="#70C250" stroke-width="0.76" stroke-miterlimit="10"/>
<path opacity="0.7" d="M293.564 151.652C293.564 151.652 287.268 157.589 278.971 152.63" stroke="#70C250" stroke-width="0.76" stroke-miterlimit="10"/>
<path opacity="0.7" d="M294.208 163.544C294.208 163.544 285.718 168.69 279.293 161.949" stroke="#70C250" stroke-width="0.76" stroke-miterlimit="10"/>
<path opacity="0.7" d="M291.866 175.2C291.866 175.2 281.858 176.949 278.076 170.234" stroke="#70C250" stroke-width="0.76" stroke-miterlimit="10"/>
<path opacity="0.7" d="M287.089 185.901C287.089 185.901 275.106 186.023 274.592 177.906" stroke="#70C250" stroke-width="0.76" stroke-miterlimit="10"/>
<path opacity="0.7" d="M245.404 193.169C245.404 193.169 239.68 188.255 248.092 178.459" stroke="#70C250" stroke-width="0.76" stroke-miterlimit="10"/>
<path opacity="0.7" d="M232.297 186.847C232.297 186.847 229.21 180.556 238.137 173.34" stroke="#70C250" stroke-width="0.76" stroke-miterlimit="10"/>
<path opacity="0.7" d="M314.953 233.536C314.793 233.652 313.635 235.183 304.289 233.877C287.399 231.523 267.892 218.331 254.494 207.687C247.243 202.141 238.997 198.034 230.201 195.588C218.058 192.302 207.645 193.53 200.088 199.132C191.044 205.841 186.909 218.035 187.803 235.369C187.936 237.86 188.172 240.472 188.51 243.203C190.659 260.627 185.513 249.616 196.106 276.378" stroke="#70C250" stroke-width="1.52" stroke-miterlimit="10"/>
<path opacity="0.6" d="M309.366 234.32C309.366 234.32 308.691 243.531 313.965 248.406" stroke="#70C250" stroke-width="0.76" stroke-miterlimit="10"/>
<path opacity="0.6" d="M301.336 233.336C301.336 233.336 299.793 243.826 303.858 248.528" stroke="#70C250" stroke-width="0.76" stroke-miterlimit="10"/>
<path opacity="0.6" d="M293.522 231.111C293.522 231.111 288.762 239.473 293.277 246.393" stroke="#70C250" stroke-width="0.76" stroke-miterlimit="10"/>
<path opacity="0.7" d="M285.485 227.748C285.485 227.748 279.156 232.893 282.513 242.921" stroke="#70C250" stroke-width="0.76" stroke-miterlimit="10"/>
<path opacity="0.7" d="M277.074 223.281C277.074 223.281 269.471 227.565 271.928 237.515" stroke="#70C250" stroke-width="0.76" stroke-miterlimit="10"/>
<path opacity="0.7" d="M269.461 218.596C267.052 220.003 265.179 222.172 264.137 224.76C263.095 227.348 262.943 230.209 263.705 232.894" stroke="#70C250" stroke-width="0.76" stroke-miterlimit="10"/>
<path opacity="0.7" d="M261.131 213.113C261.131 213.113 252.712 215.628 254.59 226.504" stroke="#70C250" stroke-width="0.76" stroke-miterlimit="10"/>
<path opacity="0.7" d="M253.399 207.203C253.399 207.203 245.417 209.441 245.211 219.314" stroke="#70C250" stroke-width="0.76" stroke-miterlimit="10"/>
<path opacity="0.7" d="M233.151 196.064C233.151 196.064 225.266 202.078 229.157 210.517" stroke="#70C250" stroke-width="0.76" stroke-miterlimit="10"/>
<path opacity="0.7" d="M221.46 193.939C221.46 193.939 216.154 202.61 221.017 208.591" stroke="#70C250" stroke-width="0.76" stroke-miterlimit="10"/>
<path opacity="0.7" d="M209.746 194.455C209.746 194.455 205.244 205.556 212.602 209.017" stroke="#70C250" stroke-width="0.76" stroke-miterlimit="10"/>
<path opacity="0.7" d="M109.422 214.768C109.422 214.768 116.568 219.772 113.152 229.432" stroke="#70C250" stroke-width="0.76" stroke-miterlimit="10"/>
<path opacity="0.7" d="M117.455 210.838C119.717 212.473 121.371 214.813 122.157 217.492C122.943 220.17 122.816 223.033 121.797 225.631" stroke="#70C250" stroke-width="0.76" stroke-miterlimit="10"/>
<path opacity="0.7" d="M126.281 206.193C126.281 206.193 134.411 209.512 131.485 220.157" stroke="#70C250" stroke-width="0.76" stroke-miterlimit="10"/>
<path opacity="0.7" d="M134.537 201.061C134.537 201.061 142.255 204.058 141.516 213.924" stroke="#70C250" stroke-width="0.76" stroke-miterlimit="10"/>
<path opacity="0.7" d="M144.514 195.795C144.514 195.795 151.949 200.207 149.466 209.553" stroke="#70C250" stroke-width="0.76" stroke-miterlimit="10"/>
<path opacity="0.7" d="M155.775 191.936C155.775 191.936 163.037 198.689 158.348 206.729" stroke="#70C250" stroke-width="0.76" stroke-miterlimit="10"/>
<path opacity="0.7" d="M167.621 190.963C167.621 190.963 172.059 200.103 166.637 205.582" stroke="#70C250" stroke-width="0.76" stroke-miterlimit="10"/>
<path opacity="0.7" d="M179.228 192.611C179.228 192.611 182.643 204.099 174.977 206.832" stroke="#70C250" stroke-width="0.76" stroke-miterlimit="10"/>
<path opacity="0.7" d="M227.737 166.736C227.737 166.736 219.852 172.3 220.707 179.6" stroke="#70C250" stroke-width="0.76" stroke-miterlimit="10"/>
<path opacity="0.7" d="M243.99 200.99C243.99 200.99 236.163 204.663 237.726 214.208" stroke="#70C250" stroke-width="0.76" stroke-miterlimit="10"/>
<path d="M181.859 391.631H167.818V417.545H181.859V391.631Z" fill="url(#paint0_linear_835:17083)"/>
<path d="M185.512 412.727C185.512 412.727 191.545 414.431 188.728 423.571C188.728 423.571 185.647 427.063 185.943 434.19C185.943 434.19 190.484 452.437 169.407 455.009C169.407 455.009 156.89 457.022 153.456 448.976C153.456 448.976 149.597 442.615 156.903 437.894L166.718 437.418L185.512 412.727Z" fill="#2E2454"/>
<path d="M162.887 418.805C162 424.272 159.813 433.862 155.761 439.792C155.761 439.792 149.779 449.44 164.521 450.835C164.521 450.835 186.949 451.607 183.817 428.035C183.817 428.035 183.173 424.439 185.56 419.178C185.56 419.178 187.881 417.647 183.418 407.311C183.418 407.311 182.196 404.038 182.164 407.537C182.164 407.537 180.041 412.528 176.716 411.479C176.716 411.479 169.641 401.407 164.225 407.832C164.206 407.839 163.331 416.078 162.887 418.805Z" fill="#A7A9AC"/>
<path d="M164.24 407.838C165.848 405.909 167.373 405.304 168.788 405.42C172.145 405.684 174.878 410.122 176.724 411.479C179.542 413.537 182.179 407.536 182.179 407.536C182.316 407.211 182.371 406.858 182.339 406.507" stroke="#2E2454" stroke-width="3.41" stroke-miterlimit="10" stroke-linecap="round"/>
<path d="M163.642 412.727C163.423 411.544 162.954 408.746 163.275 407.582C163.828 405.575 166.53 404.591 168.299 404.366C173.605 403.678 172.595 410.033 172.306 413.641C172.048 416.857 171.379 420.073 171.174 423.327C170.955 426.82 171.476 429.116 170.993 432.505C170.846 433.528 167.495 433.148 165.752 433.148C164.009 433.148 161.468 433.386 160.574 432.364C159.577 431.225 160.715 428.421 161.217 426.781C162.055 423.855 162.646 420.865 162.986 417.841C163.205 416.323 163.398 415.197 163.481 413.892C163.547 413.517 163.593 413.139 163.616 412.76" fill="url(#paint1_linear_835:17083)"/>
<path d="M172.327 412.403C172.327 412.403 176.996 420.835 178.643 418.307L183.615 409.303L185.178 414.48C185.178 414.48 179.723 428.264 177.151 425.003L171.529 418.95L172.327 412.403Z" fill="#70C250"/>
<path d="M154.957 446.734C154.957 446.734 156.166 446.386 157.851 443.363C157.851 443.363 163.421 445.081 167.042 444.579C167.042 444.579 165.814 451.699 170.258 450.155L167.293 452.677L161.202 451.834C161.202 451.834 155.356 449.48 154.957 446.734Z" fill="#2E2454"/>
<path d="M174.736 426.914C174.736 426.914 177.399 432.857 180.737 428.2C180.737 428.2 183.214 434.935 177.637 442.35C177.637 442.35 177.817 437.025 172.08 433.944C172.08 433.976 173.932 433.359 174.736 426.914Z" fill="white"/>
<path d="M159.559 434.609C159.559 434.609 162.871 437.555 170.171 435.536C170.171 435.536 175.253 440.211 174.256 444.373C174.256 444.373 167.573 450.284 168.171 443.119C168.171 443.119 160.749 443.505 158.343 441.266C158.343 441.286 156.491 439.999 159.559 434.609Z" fill="white"/>
<path d="M163.371 415.492C163.371 415.492 164.825 413.003 172.266 415.299" stroke="white" stroke-width="2.65" stroke-miterlimit="10" stroke-linecap="round"/>
<path d="M162.232 419.929C162.232 419.929 165.358 418.064 171.14 419.819" stroke="white" stroke-width="2.75" stroke-miterlimit="10" stroke-linecap="round"/>
<path d="M161.238 424.561C161.238 424.561 165.168 423.107 170.925 424.683" stroke="white" stroke-width="2.65" stroke-miterlimit="10" stroke-linecap="round"/>
<path d="M220.552 391.631H206.512V417.545H220.552V391.631Z" fill="url(#paint2_linear_835:17083)"/>
<path d="M202.877 412.727C202.877 412.727 196.844 414.431 199.661 423.571C199.661 423.571 202.749 427.063 202.446 434.19C202.446 434.19 197.912 452.437 218.989 455.009C218.989 455.009 231.505 457.022 234.94 448.976C234.94 448.976 238.799 442.615 231.493 437.894L221.626 437.425L202.877 412.727Z" fill="#2E2454"/>
<path d="M225.492 418.805C226.38 424.272 228.566 433.862 232.618 439.792C232.618 439.792 238.594 449.44 223.858 450.835C223.858 450.835 201.431 451.607 204.563 428.035C204.563 428.035 205.206 424.439 202.826 419.178C202.826 419.178 200.504 417.647 204.968 407.311C204.968 407.311 206.19 404.038 206.216 407.537C206.216 407.537 208.345 412.528 211.67 411.479C211.67 411.479 218.713 401.407 224.161 407.832C224.173 407.839 225.048 416.078 225.492 418.805Z" fill="#A7A9AC"/>
<path d="M224.14 407.839C218.699 401.407 214.274 409.556 211.65 411.48C208.839 413.538 206.202 407.537 206.202 407.537C206.063 407.213 206.006 406.859 206.035 406.508" stroke="#2E2454" stroke-width="3.41" stroke-miterlimit="10" stroke-linecap="round"/>
<path d="M216.052 412.403C216.052 412.403 211.382 420.835 209.736 418.307L204.764 409.303L203.201 414.48C203.201 414.48 208.668 428.264 211.241 425.003L216.862 418.95L216.052 412.403Z" fill="#70C250"/>
<path d="M233.416 446.734C233.416 446.734 232.207 446.386 230.522 443.363C230.522 443.363 224.952 445.081 221.324 444.579C221.324 444.579 222.559 451.699 218.141 450.155L221.099 452.677L227.197 451.834C227.197 451.834 233.017 449.48 233.416 446.734Z" fill="#2E2454"/>
<path d="M213.637 426.914C213.637 426.914 210.968 432.857 207.636 428.2C207.636 428.2 205.16 434.935 210.73 442.35C210.73 442.35 210.55 437.025 216.294 433.944C216.294 433.976 214.454 433.359 213.637 426.914Z" fill="white"/>
<path d="M228.814 434.609C228.814 434.609 225.502 437.555 218.202 435.536C218.202 435.536 213.114 440.211 214.117 444.373C214.117 444.373 220.794 450.284 220.202 443.119C220.202 443.119 227.624 443.505 230.03 441.266C230.03 441.286 231.876 439.999 228.814 434.609Z" fill="white"/>
<path d="M224.709 412.727C224.928 411.544 225.398 408.746 225.07 407.582C224.523 405.575 221.822 404.591 220.053 404.366C214.74 403.678 215.756 410.033 216.046 413.641C216.303 416.857 216.972 420.073 217.171 423.327C217.39 426.82 216.876 429.116 217.358 432.505C217.506 433.528 220.85 433.148 222.6 433.148C224.349 433.148 226.883 433.386 227.745 432.364C228.742 431.225 227.604 428.421 227.102 426.781C226.265 423.855 225.673 420.865 225.333 417.841C225.115 416.323 224.922 415.197 224.838 413.892C224.772 413.517 224.727 413.139 224.703 412.76" fill="url(#paint3_linear_835:17083)"/>
<path d="M225.921 420.818C225.763 420.818 225.607 420.776 225.471 420.696C225.413 420.696 222.519 419.075 217.27 420.696C217.159 420.729 217.043 420.741 216.927 420.73C216.811 420.718 216.699 420.684 216.597 420.63C216.494 420.575 216.404 420.501 216.33 420.411C216.256 420.322 216.201 420.218 216.167 420.107C216.133 419.996 216.122 419.879 216.133 419.764C216.144 419.648 216.178 419.536 216.233 419.434C216.288 419.331 216.362 419.241 216.452 419.167C216.541 419.093 216.645 419.038 216.756 419.004C222.84 417.152 226.236 419.113 226.403 419.197C226.604 419.318 226.749 419.515 226.806 419.742C226.862 419.97 226.826 420.211 226.706 420.413C226.623 420.544 226.506 420.65 226.368 420.722C226.23 420.793 226.076 420.826 225.921 420.818Z" fill="white"/>
<path d="M225.569 415.976C225.411 415.976 225.256 415.934 225.119 415.854C225.061 415.822 222.167 414.233 216.919 415.854C216.808 415.888 216.691 415.899 216.575 415.888C216.46 415.877 216.348 415.843 216.245 415.788C216.143 415.733 216.052 415.659 215.978 415.569C215.905 415.48 215.849 415.376 215.816 415.265C215.782 415.154 215.77 415.038 215.782 414.922C215.793 414.807 215.827 414.694 215.881 414.592C215.936 414.489 216.01 414.399 216.1 414.325C216.19 414.251 216.293 414.196 216.404 414.162C222.489 412.31 225.878 414.272 226.052 414.355C226.217 414.455 226.345 414.606 226.416 414.785C226.488 414.965 226.499 415.162 226.448 415.348C226.397 415.534 226.287 415.699 226.134 415.817C225.981 415.935 225.795 416 225.602 416.002L225.569 415.976Z" fill="white"/>
<path d="M216.63 425.545C216.424 425.543 216.225 425.467 216.071 425.331C215.916 425.195 215.816 425.007 215.789 424.803C215.761 424.599 215.809 424.392 215.922 424.22C216.035 424.048 216.206 423.922 216.404 423.866C222.354 422.239 226.438 423.705 226.605 423.77C226.8 423.86 226.954 424.02 227.037 424.218C227.119 424.416 227.124 424.638 227.05 424.84C226.977 425.042 226.83 425.208 226.639 425.307C226.448 425.405 226.227 425.428 226.02 425.371C225.969 425.371 222.232 424.04 216.855 425.513C216.781 425.532 216.706 425.543 216.63 425.545Z" fill="white"/>
<path opacity="0.7" d="M170.848 162.91C170.848 162.91 173.633 168.905 171.607 177.607" stroke="#70C250" stroke-width="0.64" stroke-miterlimit="10"/>
<path opacity="0.7" d="M179.795 161.461C179.795 161.461 184.606 169.005 181.557 175.958" stroke="#70C250" stroke-width="0.76" stroke-miterlimit="10"/>
<path opacity="0.7" d="M197.32 201.932C197.32 201.932 195.39 210.621 205.121 215.406" stroke="#70C250" stroke-width="0.76" stroke-miterlimit="10"/>
<path opacity="0.7" d="M189.33 216.262C189.33 216.262 193.414 225.659 202.805 223.337" stroke="#70C250" stroke-width="0.76" stroke-miterlimit="10"/>
<path opacity="0.6" d="M187.689 230.572C187.689 230.572 190.159 237.692 202.36 233.467" stroke="#70C250" stroke-width="0.76" stroke-miterlimit="10"/>
<path opacity="0.6" d="M188.764 245.115C188.764 245.115 193.478 250.292 203.454 244.639" stroke="#70C250" stroke-width="0.76" stroke-miterlimit="10"/>
<path opacity="0.6" d="M205.797 256.693C205.797 256.693 197.725 261.98 191.229 258.501" stroke="#70C250" stroke-width="0.76" stroke-miterlimit="10"/>
<path opacity="0.7" d="M190.875 201.258C190.875 201.258 191.95 210.095 181.807 213.916" stroke="#70C250" stroke-width="0.76" stroke-miterlimit="10"/>
<path opacity="0.7" d="M197.44 216.301C197.44 216.301 192.462 225.254 183.342 222.051" stroke="#70C250" stroke-width="0.76" stroke-miterlimit="10"/>
<path opacity="0.6" d="M197.682 230.695C197.682 230.695 194.53 237.545 182.799 232.155" stroke="#70C250" stroke-width="0.76" stroke-miterlimit="10"/>
<path opacity="0.6" d="M195.207 245.037C195.207 245.037 190.01 249.732 180.633 243.107" stroke="#70C250" stroke-width="0.76" stroke-miterlimit="10"/>
<path opacity="0.6" d="M177.15 254.949C177.15 254.949 184.669 261.002 191.468 258.165" stroke="#70C250" stroke-width="0.76" stroke-miterlimit="10"/>
<path d="M108.706 272.593C107.484 273.667 105.49 276.619 105.747 278.381C108.899 278.645 111.536 276.368 113.022 273.879C113.067 274.837 112.636 275.699 112.758 276.67C114.932 276.78 116.295 273.577 117.466 272.496L123.255 265.781L118.154 266.289L111.819 267.505L108.706 272.593Z" fill="#AC7E96"/>
<path d="M128.387 254.49C127.422 257.436 126.721 261.276 127.307 264.363C127.48 265.27 127.815 266.344 127.467 267.232C126.895 268.711 124.959 269.56 123.923 270.692C122.322 272.441 122.206 274.139 121.93 276.371C121.833 277.15 121.724 278.23 120.733 278.372C118.739 278.667 118.013 275.4 117.968 274.049C117.784 272.2 118.003 270.333 118.611 268.576C118.919 267.798 119.498 267.084 119.383 266.235C114.379 270.222 108.365 274.596 101.714 274.673C100.242 274.673 97.7846 275.136 98.0354 272.956C98.2283 271.297 100.422 270.602 101.817 270.029C107.4 267.74 111.986 264.157 116.758 260.453C118.18 259.353 119.64 258.317 121.119 257.237C122.065 256.593 123.544 255.024 124.67 254.696C126.11 254.278 126.496 255.931 127.712 256.581" fill="#E4B0C9"/>
<path d="M279.278 272.593C280.493 273.667 282.494 276.619 282.236 278.381C279.078 278.645 276.448 276.368 274.956 273.879C274.917 274.837 275.342 275.699 275.219 276.67C273.052 276.78 271.682 273.577 270.511 272.496L264.723 265.781L269.823 266.289L276.165 267.505L279.278 272.593Z" fill="#AC7E96"/>
<path d="M259.584 254.49C260.549 257.436 261.25 261.276 260.665 264.363C260.497 265.27 260.163 266.344 260.504 267.232C261.083 268.711 263.019 269.56 264.054 270.692C265.656 272.441 265.771 274.139 266.048 276.371C266.144 277.15 266.247 278.23 267.238 278.372C269.232 278.667 269.958 275.4 270.01 274.049C270.187 272.2 269.968 270.334 269.367 268.576C269.058 267.798 268.473 267.084 268.589 266.235C273.599 270.222 279.613 274.596 286.263 274.673C287.736 274.673 290.187 275.136 289.936 272.956C289.749 271.297 287.55 270.602 286.154 270.029C280.571 267.74 275.992 264.157 271.213 260.453C269.791 259.353 268.331 258.317 266.852 257.237C265.913 256.593 264.434 255.024 263.302 254.696C261.867 254.278 261.475 255.931 260.266 256.581" fill="#E4B0C9"/>
<path d="M194.16 214.051C194.299 214.706 194.299 215.383 194.16 216.038V214.051Z" fill="#231F20"/>
<path d="M194.16 214.051C194.299 214.706 194.299 215.383 194.16 216.038" stroke="white" stroke-width="0.38" stroke-miterlimit="10"/>
<path d="M251.423 215.322C250.966 213.58 249.949 212.037 248.529 210.93C247.3 209.817 245.313 206.543 243.351 202.311L223.464 159.34C220.788 152.76 212.53 152.767 208.478 151.705C198.875 149.203 199.589 143.421 199.589 143.421L199.885 135.967H188.809L189.105 143.421C189.105 143.421 189.819 149.21 180.216 151.705C176.158 152.767 167.186 152.76 164.503 159.34L144.636 202.311C142.648 206.543 140.687 209.817 139.452 210.93C138.035 212.041 137.019 213.583 136.557 215.322L121.693 257.129L127.958 259.985L150.727 222.417C150.874 222.211 151.022 221.992 151.151 221.774C152.057 220.413 152.569 218.828 152.63 217.194C153.371 214.506 154.333 211.884 155.505 209.354L171.244 176.654C174.344 185.151 177.425 194.664 177.837 199.712C178.235 204.511 174.852 218.718 174.852 218.718C174.852 218.718 180.853 219.825 194.077 220.648V220.674H194.347H194.624V220.642C207.841 219.831 213.07 218.809 213.07 218.809C213.07 218.809 210.272 204.511 210.71 199.719C211.166 194.741 214.028 185.479 216.929 177.085L232.468 209.347C233.641 211.877 234.6 214.499 235.337 217.188C235.397 218.823 235.912 220.408 236.823 221.767C236.958 221.986 237.099 222.205 237.254 222.41L260.022 259.979L266.287 257.123L251.423 215.322Z" fill="url(#paint4_linear_835:17083)"/>
<path d="M172.426 212.171C172.426 212.171 190.602 206.267 215.886 212.21L213.564 220.674L176.201 228.392L172.426 212.171Z" fill="#2E2454"/>
<path d="M177.744 202.913C177.744 202.913 183.873 198.733 193.823 198.122C198.589 197.826 204.301 199.267 210.739 202.508C210.739 202.508 212.868 217.623 213.775 218.71C214.682 219.797 212.868 217.623 212.868 217.623L196.344 228.39L173.602 220.672L177.744 202.913Z" fill="url(#paint5_linear_835:17083)"/>
<path d="M185.679 199.508C185.093 199.425 184.322 199.939 183.569 200.151C181.54 200.868 179.588 201.786 177.742 202.891L175.375 213.041L188.818 217.35C183.029 214.095 185.679 199.482 185.679 199.482" fill="#E39FB8"/>
<path opacity="0.3" d="M203.036 199.403C203.622 199.326 204.696 199.963 205.448 200.194C207.273 200.799 209.037 201.574 210.716 202.51L212.523 213.064L199.074 217.373C204.863 214.119 203.056 199.403 203.056 199.403" fill="white"/>
<path d="M157.603 174.275C158.287 175.631 158.643 177.128 158.643 178.646C158.643 180.164 158.287 181.661 157.603 183.016L146.965 205.92C146.28 206.78 145.408 207.472 144.414 207.943C143.421 208.415 142.334 208.653 141.234 208.641L157.603 174.275Z" fill="#572188"/>
<path d="M169.872 179.51C168.362 179.806 166.945 180.459 165.739 181.415C164.533 182.37 163.573 183.6 162.939 185.003C162.939 185.003 157.613 195.203 156.211 198.76C155.632 200.233 155.214 202.028 157.646 204.915L169.872 179.51Z" fill="#572188"/>
<path d="M157.051 207.75C157.051 207.75 154.929 205.28 154.659 202.604C154.659 202.604 154.556 202.199 154.08 202.971C154.08 202.971 152.324 205.827 156.08 210.425L157.051 207.75Z" fill="#572188"/>
<path d="M155.447 211.323C155.447 211.323 153.325 208.853 153.055 206.177C153.055 206.177 152.952 205.772 152.476 206.538C152.476 206.538 150.829 209.445 154.592 214.037L155.447 211.323Z" fill="#572188"/>
<path d="M161 166.902C161 166.902 181.968 166.368 181.479 151.337C181.479 151.337 163.476 150.057 161 166.902Z" fill="#2E2454"/>
<path d="M226.962 166.902C226.962 166.902 205.994 166.368 206.483 151.337C206.483 151.337 224.486 150.057 226.962 166.902Z" fill="#2E2454"/>
<path d="M230.333 174.164C229.612 175.523 229.223 177.034 229.199 178.572C229.174 180.11 229.514 181.633 230.191 183.014L240.83 205.918C241.563 206.771 242.472 207.455 243.495 207.925C244.517 208.394 245.628 208.638 246.753 208.639L230.333 174.164Z" fill="#572188"/>
<path d="M218.104 179.426C219.584 179.764 220.965 180.443 222.135 181.41C223.306 182.378 224.233 183.606 224.844 184.996C224.844 184.996 230.17 195.197 231.578 198.753C232.157 200.226 232.575 202.021 230.137 204.909L218.104 179.426Z" fill="#572188"/>
<path d="M230.725 207.75C230.725 207.75 232.847 205.28 233.124 202.604C233.124 202.604 233.227 202.199 233.696 202.971C233.696 202.971 235.458 205.827 231.696 210.425L230.725 207.75Z" fill="#572188"/>
<path d="M232.336 211.323C232.336 211.323 234.465 208.853 234.735 206.177C234.735 206.177 234.838 205.772 235.307 206.538C235.307 206.538 236.954 209.445 233.198 214.037L232.336 211.323Z" fill="#572188"/>
<path opacity="0.8" d="M213.368 281.891C213.368 281.891 207.766 285.39 198.877 284.463" stroke="#70C250" stroke-width="0.64" stroke-miterlimit="10"/>
<path d="M215.904 290.594C215.904 290.594 209.015 296.299 201.754 294.131" stroke="#70C250" stroke-width="0.76" stroke-miterlimit="10"/>
<path opacity="0.8" d="M167.143 279.277C167.143 279.277 172.378 283.31 181.293 283.233" stroke="#70C250" stroke-width="0.64" stroke-miterlimit="10"/>
<path d="M163.766 287.697C163.766 287.697 170.075 294.039 177.523 292.592" stroke="#70C250" stroke-width="0.76" stroke-miterlimit="10"/>
<path d="M240.984 351.803C237.536 341.801 234.796 316.087 232.526 304.619C233.87 264.973 219.27 219.526 219.27 219.526C219.041 217.965 218.484 216.47 217.636 215.14L217.585 215.024C217.327 214.381 216.395 212.406 215.88 212.2C215.012 211.834 213.14 212.844 212.259 213.069L212.413 213.12C208.175 213.255 202.341 215.326 200.077 216.902C192.938 220.253 182.853 215.455 175.701 213.172C175.057 212.979 173.083 212.085 172.42 212.162C171.456 212.265 170.298 215.05 170.227 215.834C169.728 216.696 169.284 217.587 168.896 218.504C166.921 223.096 164.541 227.322 163.062 231.83C157.134 249.591 153.21 267.958 151.363 286.591C150.263 298.515 153.935 326.204 153.382 337.936C152.977 346.625 147.073 352.961 147.536 361.399C147.671 363.766 148.636 365.258 148.513 367.259C148.353 369.831 146.217 370.224 145.574 372.443C144.609 375.729 144.423 379.884 144.127 383.119C143.078 394.542 149.176 394.195 158.148 395.642C162.059 396.285 183.927 398.942 187.278 393.597C190.211 392.188 193.459 389.532 193.787 387.57C194.282 384.612 191.722 384.026 191.767 381.666C191.767 380.27 193.472 378.373 193.761 376.893C194.565 372.758 193.015 368.532 192.668 364.634C191.902 356.022 193.748 347.223 193.748 338.09C193.748 327.748 188.558 316.73 189.851 307.018C190.629 301.23 192.327 295.743 192.275 289.935C192.227 287.385 191.699 284.868 190.719 282.513C192.973 280.823 195.704 279.889 198.521 279.844C198.521 280.217 198.482 280.596 198.45 280.963C196.52 289.022 194.713 295.673 194.713 304.876C194.712 317.175 195.535 329.459 197.176 341.647C197.787 346.304 197.209 350.497 198.244 355.019C198.733 357.141 199.633 357.727 199.595 360.351C199.595 362.107 197.878 363.875 198.09 365.67C198.373 368.03 200.232 367.94 200.193 370.063C200.193 371.555 198.444 373.999 198.122 375.8C197.524 379.17 197.479 385.866 199.087 388.612C200.798 391.494 208.027 394.182 211.429 395.308C216.015 398.35 222.756 399.694 227.457 399.263C257.751 396.478 245.891 366.03 240.984 351.803Z" fill="url(#paint6_linear_835:17083)"/>
<path d="M191.22 302.458C191.22 302.458 194.545 291.17 190.718 282.519C190.718 282.519 197.15 279.303 198.52 279.843C198.52 279.843 180.125 269.803 175.365 265.584C175.365 265.584 186.139 298.238 190.847 301.139" fill="#1D183A"/>
<path d="M191.434 356.143C186.353 367.077 174.885 383.092 152.457 384.359C152.457 384.359 171.322 396.978 192.83 384.237C192.83 384.237 190.977 382.082 192.83 379.021C192.83 379.021 195.846 376.203 192.83 364.832C192.83 364.832 192.006 356.303 192.977 351.512C192.977 351.512 191.942 355.036 191.434 356.143Z" fill="url(#paint7_linear_835:17083)"/>
<path d="M191.438 301.624L178.355 290.594C178.355 290.594 184.787 311.883 189.971 316.27C189.971 316.27 190.312 303.226 191.438 301.624Z" fill="#1D183A"/>
<path d="M152.457 343.329C152.457 343.329 167.25 332.395 173.444 313.492C173.444 313.492 156.078 334.453 153.177 333.971L152.457 343.329Z" fill="url(#paint8_linear_835:17083)"/>
<path d="M208.374 223.645C208.374 223.645 204.039 230.154 198.875 230.462L195.717 273.414L191.439 226.507C191.439 226.507 206.477 226.423 208.374 223.645Z" fill="url(#paint9_linear_835:17083)"/>
<path d="M246.742 385.359C246.742 385.359 225.215 393.913 210.029 386.845C210.029 386.845 237.004 380.509 237.976 367.601L227.131 372.225L240.638 350.055C240.638 350.055 250.157 376.586 246.742 385.359Z" fill="url(#paint10_linear_835:17083)"/>
<path d="M232.672 298.773C232.885 292.399 231.225 276.377 231.225 276.377L224.793 284.018L221.893 354.195L237.483 333.485C237.483 333.485 234.608 314.813 232.672 298.773Z" fill="url(#paint11_linear_835:17083)"/>
<path d="M156.57 361.991C156.57 361.991 182.555 348.831 186.157 337.627C186.157 337.627 187.539 363.862 156.57 361.991Z" fill="url(#paint12_linear_835:17083)"/>
<path d="M201.326 374.268C201.326 374.268 218.113 369.862 226.14 359.475C226.14 359.468 220.583 377.972 201.326 374.268Z" fill="url(#paint13_linear_835:17083)"/>
<path d="M247.439 375.769C235.919 387.102 211.832 383.789 211.832 383.789V347.63C211.832 334.856 211.832 323.517 211.832 313.496C211.883 265.901 212.327 248.194 212.327 248.194L221.332 230.326" stroke="#5F578C" stroke-width="1.14" stroke-linejoin="round"/>
<path d="M219.27 219.525C219.27 219.525 217.565 223.114 214.002 223.719C214.002 223.719 214.317 244.751 227.052 250.34C227.052 250.34 220.91 222.773 219.27 219.525Z" fill="url(#paint14_linear_835:17083)"/>
<path d="M168.141 220.158C168.141 220.158 174.232 224.937 176.548 225.484C176.548 225.484 163.832 247.03 158.127 248.529C158.146 248.529 163.047 225.985 168.141 220.158Z" fill="url(#paint15_linear_835:17083)"/>
<path d="M144.482 378.94C154.239 383.134 164.858 384.93 175.452 384.175L173.426 347.63C173.426 334.856 173.458 323.517 173.426 313.496C173.374 265.901 172.93 248.194 172.93 248.194L163.926 230.326" stroke="#5F578C" stroke-width="1.14" stroke-linejoin="round"/>
<mask id="mask0_835:17083" style="mask-type:alpha" maskUnits="userSpaceOnUse" x="144" y="212" width="104" height="188">
<path d="M240.984 351.803C237.536 341.801 234.796 316.087 232.526 304.619C233.87 264.973 219.27 219.526 219.27 219.526C219.041 217.965 218.484 216.47 217.636 215.14L217.585 215.024C217.327 214.381 216.395 212.406 215.88 212.2C215.012 211.834 213.14 212.844 212.259 213.069L212.413 213.12C208.175 213.255 202.341 215.326 200.077 216.902C192.938 220.253 182.853 215.455 175.701 213.172C175.057 212.979 173.083 212.085 172.42 212.162C171.456 212.265 170.298 215.05 170.227 215.834C169.728 216.696 169.284 217.587 168.896 218.504C166.921 223.096 164.541 227.322 163.062 231.83C157.134 249.591 153.21 267.958 151.363 286.591C150.263 298.515 153.935 326.204 153.382 337.936C152.977 346.625 147.073 352.961 147.536 361.399C147.671 363.766 148.636 365.258 148.513 367.259C148.353 369.831 146.217 370.224 145.574 372.443C144.609 375.729 144.423 379.884 144.127 383.119C143.078 394.542 149.176 394.195 158.148 395.642C162.059 396.285 183.927 398.942 187.278 393.597C190.211 392.188 193.459 389.532 193.787 387.57C194.282 384.612 191.722 384.026 191.767 381.666C191.767 380.27 193.472 378.373 193.761 376.893C194.565 372.758 193.015 368.532 192.668 364.634C191.902 356.022 193.748 347.223 193.748 338.09C193.748 327.748 188.558 316.73 189.851 307.018C190.629 301.23 192.327 295.743 192.275 289.935C192.227 287.385 191.699 284.868 190.719 282.513C192.973 280.823 195.704 279.889 198.521 279.844C198.521 280.217 198.482 280.596 198.45 280.963C196.52 289.022 194.713 295.673 194.713 304.876C194.712 317.175 195.535 329.459 197.176 341.647C197.787 346.304 197.209 350.497 198.244 355.019C198.733 357.141 199.633 357.727 199.595 360.351C199.595 362.107 197.878 363.875 198.09 365.67C198.373 368.03 200.232 367.94 200.193 370.063C200.193 371.555 198.444 373.999 198.122 375.8C197.524 379.17 197.479 385.866 199.087 388.612C200.798 391.494 208.027 394.182 211.429 395.308C216.015 398.35 222.756 399.694 227.457 399.263C257.751 396.478 245.891 366.03 240.984 351.803Z" fill="url(#paint16_linear_835:17083)"/>
</mask>
<g mask="url(#mask0_835:17083)">
<path d="M139.553 313.829L166.026 340.302V251.029L154.539 228.389C141.013 250.09 139.553 313.829 139.553 313.829Z" stroke="#5F578C" stroke-width="4.92" stroke-linejoin="round"/>
<path d="M230.68 228.389L219.199 251.029V340.302L245.666 313.835C245.666 313.835 244.206 250.09 230.68 228.389Z" stroke="#5F578C" stroke-width="4.92" stroke-linejoin="round"/>
</g>
<path d="M172.424 216.846C172.424 216.846 190.188 230.353 215.884 217.656" stroke="#5F578C" stroke-width="3.41" stroke-linejoin="round"/>
<path d="M207.101 137.78C206.136 137.413 204.728 137.96 203.847 138.262C202.258 138.746 200.632 139.094 198.984 139.304C199.152 138.217 198.907 137.085 198.984 135.966C199.061 134.847 201.602 133.457 202.046 132.409C203.159 129.836 204.811 127.514 206.291 125.128C207.217 123.636 208.047 121.642 209.507 120.568C210.266 119.996 210.928 120.131 211.861 120.356C213.038 120.639 215.231 120.999 215.752 122.285C216.344 123.771 215.823 125.945 215.109 127.296C214.075 129.289 212.833 131.167 211.404 132.898C210.053 134.596 208.581 136.114 207.223 137.754" fill="#683199"/>
<path d="M180.48 138.39C181.44 138.715 182.465 138.799 183.465 138.634C183.469 138.395 183.454 138.157 183.42 137.92C183.889 139.097 187.793 139.631 189.105 139.335C189.105 137.843 189.06 137.007 188.173 135.965C184.802 131.9 181.762 127.57 179.085 123.018C176.924 119.467 175.451 116.007 175.116 111.601C174.923 109.029 176.724 107.852 177.837 105.768C179.651 102.391 182.944 96.9689 176.171 97.9916C173.45 98.4032 172.241 100.725 171.122 103.137C169.456 106.675 169.456 110.173 169.225 113.968C168.781 121.249 168.382 130.401 175.045 135.193C176.776 136.441 178.995 137.026 180.718 138.242" fill="#683199"/>
<path d="M210.297 94.6094C211.519 98.3527 213.687 101.144 215.616 104.598C217.719 108.361 217.854 112.567 219.713 116.452C220.614 118.343 221.836 120.034 221.694 122.208C221.572 124.093 220.466 125.636 220.253 127.527C219.919 130.48 221.784 134.069 223.862 135.992C221.289 137.349 214.143 139.169 213.706 135.284C213.703 136.333 213.868 137.375 214.195 138.371C211.455 139.053 208.039 137.831 205.402 137.773C207.801 135.091 208.978 133.425 210.136 129.727C211.641 124.929 212.895 119.436 212.22 114.439C211.744 110.972 209.969 108.431 209.351 105.074C208.981 103.207 208.823 101.304 208.882 99.4011C208.998 97.7288 209.712 96.6997 210.085 95.1496" fill="#A96AD8"/>
<path d="M188.861 137.361L188.996 144.88C190.553 145.907 192.357 146.495 194.219 146.585C194.219 146.585 197.531 146.836 199.699 145.125L200.072 134.435L190.09 133.432L188.861 137.361Z" fill="#2E2454"/>
<path d="M217.42 116.284C217.543 117.471 217.309 118.667 216.749 119.721C216.189 120.774 215.327 121.637 214.275 122.199C213.223 122.761 212.027 122.997 210.84 122.877C209.653 122.757 208.529 122.286 207.61 121.525C206.692 120.763 206.021 119.745 205.683 118.601C205.346 117.457 205.356 116.238 205.714 115.1C206.071 113.962 206.76 112.956 207.691 112.21C208.622 111.465 209.755 111.013 210.944 110.914C212.514 110.769 214.078 111.253 215.293 112.26C216.507 113.267 217.272 114.714 217.42 116.284Z" fill="#E39FB8"/>
<path d="M212.584 100.27C209.516 93.9728 198.292 92.725 190.889 93.3424C188.332 93.5544 185.853 94.3272 183.628 95.6059C181.403 96.8846 179.487 98.6378 178.016 100.741C176.546 102.844 175.556 105.245 175.119 107.774C174.682 110.303 174.807 112.897 175.485 115.371L177.151 125.128C177.988 127.706 179.353 130.081 181.159 132.101C182.965 134.121 185.173 135.742 187.641 136.86C188.673 137.384 189.749 137.815 190.857 138.146C191.278 138.29 191.707 138.404 192.144 138.487C192.991 138.647 193.857 138.693 194.716 138.622C195.72 138.536 196.703 138.291 197.63 137.896L197.726 137.851C197.945 137.754 198.164 137.645 198.37 137.535C199.221 137.106 200.043 136.622 200.833 136.088C203.229 134.594 205.271 132.596 206.818 130.234C208.365 127.872 209.38 125.201 209.793 122.408L212.108 112.934C212.158 111.615 212.134 110.294 212.037 108.978C211.831 106.746 213.51 102.16 212.584 100.27Z" fill="url(#paint17_linear_835:17083)"/>
<path d="M187.015 122.362C187.015 122.362 182.031 123.835 179.503 123.983C179.503 123.983 184.681 135.072 188.881 137.265C189.588 137.631 190.353 137.721 190.649 137.908C192.122 138.718 188.971 137.503 188.971 137.503C188.971 137.503 179.902 134.094 177.509 126.221L177.271 125.578L176.814 122.176C180.185 122.765 183.626 122.828 187.015 122.362Z" fill="url(#paint18_linear_835:17083)"/>
<path d="M210.325 106.741L205.919 97.8652H201.417L202.375 101.12L205.16 104.554C205.16 104.554 198.413 105.583 197.719 107.063C197.719 107.063 203.507 105.468 205.713 107.063" fill="url(#paint19_linear_835:17083)"/>
<path d="M198.934 114.03C198.934 114.03 198.941 114.015 198.934 114.03V114.03Z" fill="#231F20"/>
<path d="M199.754 115.057C199.71 114.918 199.676 114.776 199.651 114.632C199.568 113.896 199.67 113.152 199.946 112.465L200.358 112.278C200.824 111.76 201.471 111.44 202.165 111.384H202.339H202.506H203.587L203.336 111.236L201.593 111.333L199.496 112.761L198.699 113.906L198.441 115.378C198.994 115.912 199.651 116.326 200.371 116.594C200.098 116.106 199.882 115.588 199.728 115.05L199.754 115.057Z" fill="white"/>
<path d="M207.081 114.271L206.798 113.262L204.393 111.859C204.866 112.379 205.133 113.054 205.145 113.757C205.145 113.827 205.145 113.892 205.145 113.963C205.21 114.753 205.059 115.547 204.708 116.259C205.64 115.785 206.451 115.106 207.081 114.271Z" fill="white"/>
<path d="M204.384 111.856L203.741 111.393H203.58L204.39 111.862L204.384 111.856Z" fill="#231F20"/>
<path d="M205.17 113.965C205.17 113.895 205.17 113.83 205.17 113.759C205.158 113.057 204.89 112.382 204.417 111.862L203.607 111.393H202.526H202.359H202.185C201.491 111.449 200.844 111.769 200.378 112.287L199.966 112.473C199.689 113.16 199.588 113.905 199.671 114.641C199.696 114.784 199.73 114.926 199.773 115.065C199.928 115.603 200.144 116.121 200.417 116.609C201.129 116.882 201.895 116.986 202.655 116.911C203.393 116.836 204.11 116.618 204.764 116.268C205.106 115.551 205.246 114.755 205.17 113.965Z" fill="#2E2454"/>
<path d="M197.943 115.134C197.941 114.374 198.067 113.62 198.316 112.902C198.527 112.198 198.926 111.565 199.47 111.07C200.014 110.576 200.683 110.24 201.404 110.098L201.481 110.477C200.823 110.606 200.215 110.915 199.722 111.369C199.229 111.823 198.872 112.405 198.689 113.05C198.454 113.724 198.332 114.433 198.329 115.147L197.943 115.134Z" fill="#2E2454"/>
<path d="M185.323 116.259C185.336 116.115 185.336 115.971 185.323 115.828C185.285 115.09 185.064 114.374 184.679 113.744L184.242 113.622C183.693 113.195 183.005 112.989 182.313 113.043H182.145L181.991 113.075L180.93 113.268L181.148 113.081L182.898 112.869L185.2 113.93L186.159 114.94L186.66 116.355C186.202 116.973 185.622 117.489 184.956 117.873C185.135 117.343 185.256 116.796 185.316 116.239L185.323 116.259Z" fill="white"/>
<path d="M177.971 116.711L178.08 115.669L180.215 113.881C179.832 114.475 179.681 115.189 179.791 115.888C179.791 115.952 179.791 116.023 179.791 116.093C179.858 116.883 180.14 117.64 180.608 118.28C179.619 117.968 178.717 117.431 177.971 116.711Z" fill="white"/>
<path d="M180.223 113.877L180.783 113.311L180.937 113.285L180.217 113.877H180.223Z" fill="#231F20"/>
<path d="M179.795 116.091C179.795 116.02 179.795 115.949 179.795 115.885C179.685 115.186 179.836 114.472 180.219 113.878L180.94 113.286L182.001 113.093L182.155 113.061H182.323C183.015 113.007 183.703 113.214 184.252 113.64L184.689 113.762C185.074 114.393 185.295 115.109 185.333 115.846C185.346 115.989 185.346 116.134 185.333 116.277C185.273 116.833 185.152 117.381 184.972 117.911C184.308 118.288 183.567 118.508 182.805 118.554C182.067 118.6 181.327 118.504 180.625 118.271C180.154 117.634 179.867 116.88 179.795 116.091Z" fill="#2E2454"/>
<path d="M186.994 116.093H186.608C186.673 114.957 186.297 113.839 185.559 112.972C184.822 112.105 183.779 111.555 182.646 111.437L182.704 111.051C187.213 111.726 186.994 116.055 186.994 116.093Z" fill="#2E2454"/>
<path d="M191.98 122.84L190.424 121.554C191.285 120.202 191.584 118.569 191.26 117C191.26 117 192.701 121.168 191.98 122.84Z" fill="white"/>
<path d="M194.627 122.361C194.665 122.268 194.722 122.185 194.794 122.116C194.87 122.044 194.954 121.982 195.045 121.93C195.156 121.873 195.275 121.836 195.399 121.82H195.592C195.653 121.823 195.714 121.836 195.772 121.859L195.926 121.923C195.978 121.923 196.01 121.981 196.048 122.007C196.124 122.073 196.192 122.146 196.254 122.226C196.254 122.226 196.132 122.193 195.978 122.135C195.94 122.115 195.898 122.102 195.855 122.097C195.811 122.103 195.765 122.103 195.72 122.097C195.669 122.097 195.624 122.097 195.572 122.097H195.424C195.326 122.102 195.229 122.119 195.135 122.148C195.051 122.193 194.949 122.206 194.884 122.251L194.627 122.361Z" fill="white"/>
<path d="M199.662 125.618C199.462 126.033 199.185 126.406 198.845 126.718C198.09 126.007 197.128 125.556 196.098 125.431C195.929 125.392 195.757 125.366 195.584 125.354C195.209 125.317 194.831 125.379 194.487 125.532C194.144 125.686 193.845 125.926 193.622 126.229C193.282 126.068 192.903 126.009 192.53 126.058C192.157 126.107 191.806 126.262 191.519 126.505C189.892 127.528 189.441 128.686 189.326 129.335C188.96 129.25 188.618 129.085 188.322 128.853L187.795 129.419C188.311 129.838 188.936 130.104 189.596 130.184C191.178 133.175 195.166 131.754 195.166 131.754C198.613 131.046 199.025 128.39 199.141 127.509C199.652 127.091 200.069 126.569 200.363 125.978L199.662 125.618Z" fill="#2E2454"/>
<path d="M192.475 129.095C192.475 129.095 193.568 127.378 195.961 128.291C195.538 128.775 194.974 129.114 194.348 129.258C193.722 129.403 193.066 129.345 192.475 129.095Z" fill="white"/>
<path d="M208.299 108.535C208.209 108.445 208.125 108.355 208.029 108.271L207.746 108.014C207.649 107.93 207.546 107.859 207.443 107.782L207.289 107.667L207.128 107.564C207.019 107.493 206.916 107.422 206.8 107.358C206.684 107.293 206.504 107.197 206.35 107.126C204.596 106.29 202.635 105.986 200.709 106.252C200.252 106.286 199.799 106.354 199.352 106.457C198.21 106.724 197.162 107.298 196.323 108.117L196.291 108.155C196.006 108.435 195.76 108.751 195.557 109.094L195.461 109.217L195.557 109.287C195.593 109.32 195.631 109.348 195.673 109.371L195.815 109.467C195.861 109.502 195.911 109.532 195.963 109.557L196.104 109.635L196.258 109.699L196.413 109.757C196.464 109.78 196.518 109.797 196.574 109.808L196.741 109.847C196.796 109.854 196.853 109.854 196.908 109.847H197.082H197.255C197.369 109.853 197.483 109.853 197.596 109.847L197.924 109.783H198.034L198.156 109.693L198.413 109.5L198.696 109.3C198.889 109.172 199.082 109.049 199.288 108.934C199.494 108.818 199.687 108.702 199.892 108.593L200.201 108.432L200.516 108.284C200.729 108.188 200.941 108.097 201.16 108.02C201.378 107.943 201.597 107.859 201.803 107.795C201.912 107.756 202.024 107.724 202.137 107.699L202.472 107.615L202.806 107.551L203.147 107.499C203.372 107.499 203.604 107.448 203.829 107.441C203.942 107.435 204.056 107.435 204.17 107.441C204.283 107.435 204.397 107.435 204.511 107.441L204.851 107.474L205.192 107.531L205.52 107.609L205.688 107.654L205.848 107.705C206.068 107.775 206.283 107.859 206.491 107.956L206.794 108.117L206.948 108.2L207.096 108.297C207.193 108.361 207.289 108.419 207.386 108.49L207.662 108.702C207.759 108.773 207.842 108.85 207.932 108.927L208.189 109.165L208.55 108.831L208.299 108.535Z" fill="#2E2454"/>
<path d="M213.1 112.798C211.171 113.506 210.56 118.079 210.527 118.272L211.01 118.33C211.146 117.342 211.378 116.371 211.704 115.429C211.849 115.421 211.995 115.442 212.131 115.491C212.268 115.539 212.394 115.614 212.502 115.712C212.862 116.046 213.222 116.837 212.952 118.741L213.435 118.812C213.679 117.108 213.473 115.943 212.83 115.352C212.572 115.118 212.244 114.975 211.897 114.946C212.119 114.229 212.607 113.623 213.261 113.255C213.763 113.075 214.341 113.287 214.985 113.898L215.313 113.544C214.534 112.792 213.814 112.547 213.1 112.798Z" fill="#2E2454"/>
<path d="M198.934 114.03C198.934 114.03 198.941 114.015 198.934 114.03V114.03Z" fill="#2E2454"/>
<path d="M202.965 110.845C202.881 110.838 202.798 110.838 202.714 110.845H202.405C202.302 110.845 202.206 110.845 202.103 110.896C201.703 110.969 201.314 111.092 200.945 111.263C200.59 111.44 200.256 111.655 199.948 111.906C199.661 112.129 199.4 112.383 199.17 112.665C198.967 112.921 198.786 113.194 198.63 113.482C198.591 113.546 198.566 113.61 198.533 113.668C198.522 113.7 198.507 113.73 198.488 113.758V113.803C198.437 113.932 198.386 114.048 198.347 114.163C198.308 114.279 198.295 114.343 198.27 114.427C198.215 114.637 198.185 114.853 198.18 115.07L198.533 115.373C198.536 115.328 198.536 115.283 198.533 115.238V115.077C198.53 115.045 198.53 115.012 198.533 114.98C198.533 114.948 198.533 114.909 198.533 114.871C198.533 114.832 198.572 114.717 198.598 114.626C198.623 114.536 198.669 114.44 198.701 114.337C198.733 114.234 198.797 114.131 198.842 114.022V113.977L199.022 113.906C199.054 113.848 199.087 113.777 199.119 113.726C199.269 113.481 199.441 113.251 199.633 113.038C199.845 112.796 200.084 112.58 200.347 112.395C200.626 112.201 200.926 112.039 201.241 111.912C201.564 111.777 201.904 111.687 202.251 111.642H202.508H202.772C202.943 111.632 203.115 111.632 203.287 111.642C203.932 111.717 204.552 111.937 205.1 112.285L205.28 112.408L205.37 112.465L205.448 112.53L205.608 112.658L205.756 112.793C205.832 112.861 205.903 112.935 205.969 113.012C206.191 113.391 206.309 113.823 206.309 114.263C206.309 114.703 206.191 115.135 205.969 115.514C206.147 115.411 206.315 115.29 206.47 115.154C207.22 114.596 207.778 113.818 208.065 112.928C205.454 110.427 202.965 110.845 202.965 110.845Z" fill="#2E2454"/>
<path d="M186.728 115.449L186.606 115.211C186.548 115.101 186.477 114.992 186.406 114.876V114.831L186.348 114.754L186.155 114.548C185.963 114.291 185.748 114.052 185.512 113.834C185.242 113.586 184.944 113.37 184.625 113.191C184.28 113.004 183.916 112.857 183.538 112.754C183.132 112.654 182.714 112.608 182.296 112.619C182.193 112.619 182.09 112.619 181.988 112.619H181.827H181.685C181.482 112.64 181.28 112.672 181.081 112.715H181.016C180.152 112.856 179.326 113.17 178.585 113.637C177.845 114.105 177.206 114.716 176.707 115.436C177.117 116.259 177.773 116.933 178.585 117.365C178.804 117.519 179.042 117.645 179.293 117.738C179.009 117.403 178.819 116.998 178.742 116.566C178.665 116.133 178.704 115.688 178.855 115.275C178.911 115.188 178.971 115.105 179.035 115.024L179.151 114.87L179.293 114.715L179.357 114.638L179.434 114.567L179.595 114.419C179.83 114.215 180.084 114.035 180.354 113.879C180.649 113.724 180.96 113.599 181.28 113.506C181.445 113.459 181.612 113.425 181.782 113.403H181.923H182.039H182.303C182.653 113.39 183.003 113.422 183.345 113.5C183.676 113.573 183.998 113.686 184.303 113.834C184.593 113.97 184.867 114.138 185.12 114.336C185.353 114.514 185.568 114.714 185.763 114.934C185.808 114.979 185.847 115.037 185.892 115.088L185.95 115.172V115.211C186.019 115.304 186.083 115.4 186.143 115.5L186.29 115.77C186.335 115.854 186.368 115.931 186.4 116.002L186.445 116.098L186.483 116.195L186.535 116.349C186.567 116.433 186.58 116.478 186.58 116.478L186.882 116.117C186.856 115.889 186.804 115.665 186.728 115.449Z" fill="#2E2454"/>
<path d="M183.316 106.392C182.93 106.25 182.57 106.141 182.242 106.051C181.49 105.835 180.708 105.746 179.927 105.787H179.721C179.593 105.795 179.466 105.812 179.341 105.839L179.155 105.871L178.975 105.922L178.795 105.974H178.705L178.615 106.006L178.267 106.147L177.939 106.321L177.778 106.405L177.624 106.508L177.315 106.713L177.032 106.939L176.891 107.054L176.756 107.177L176.511 107.472C176.428 107.556 176.351 107.646 176.267 107.736L176.145 107.865L176.087 107.936H176.055C176.055 107.936 176.055 107.936 176.106 108.038L176.447 108.354C176.531 108.411 176.543 108.411 176.55 108.399H176.582L176.64 108.341L176.756 108.225C176.839 108.148 176.91 108.064 176.994 107.993L177.245 107.781L177.367 107.672L177.502 107.582L177.766 107.389C177.849 107.331 177.946 107.279 178.036 107.228L178.171 107.144L178.319 107.074L178.602 106.945L178.898 106.842H178.968H179.045L179.193 106.804H179.341H179.496C179.596 106.794 179.697 106.794 179.798 106.804C179.901 106.804 180.004 106.804 180.107 106.804H180.409L180.711 106.861C180.814 106.861 180.911 106.913 181.007 106.939C181.208 106.996 181.403 107.069 181.592 107.157C181.689 107.199 181.784 107.246 181.875 107.299L182.011 107.37L182.152 107.453C182.245 107.504 182.335 107.56 182.422 107.62C182.506 107.685 182.596 107.736 182.679 107.807C182.763 107.878 183.02 108.071 183.188 108.212C183.355 108.354 183.477 108.476 183.618 108.617H183.586H183.618C183.747 108.74 185.001 110.032 185.008 110.039C185.452 110.418 185.945 110.736 186.474 110.984C186.854 111.11 187.265 111.11 187.645 110.984C187.925 110.875 188.175 110.701 188.376 110.478C188.577 110.255 188.723 109.988 188.803 109.698C188.5 108.894 187.317 107.717 183.316 106.392Z" fill="#2E2454"/>
<path d="M215.496 110.688C215.412 102.809 213.496 97.4839 210.768 93.8949L210.711 93.8242C209.242 91.9017 207.38 90.3143 205.25 89.1675C197.783 84.884 189.1 86.1124 189.1 86.1124C185.653 86.4984 182.338 87.6536 179.398 89.4927C176.458 91.3317 173.968 93.8077 172.113 96.7378C170.402 99.5272 169.281 102.638 168.82 105.877C168.672 106.658 168.598 107.45 168.601 108.244C168.601 108.386 168.601 108.457 168.601 108.457C168.601 108.778 168.601 109.1 168.646 109.428C169.052 114.213 165 118.998 163.501 123.494C162.363 126.897 164.787 129.193 164.717 132.743C164.659 134.911 164.17 136.377 162.787 137.773C164.127 138.769 165.748 139.316 167.418 139.336C169.92 139.336 170.673 138.95 171.721 137.194C171.711 137.778 171.77 138.36 171.895 138.93C174.93 139.4 178.326 138.75 181.542 138.557C177.503 135.875 177.741 129.92 177.329 125.584C176.976 121.88 176.043 119.043 175.548 115.403C175.336 113.859 174.538 111.389 175.02 108.971C175.288 107.766 175.654 106.585 176.114 105.44C176.461 104.546 176.815 103.742 177.066 103.009C178.873 102.726 180.5 102.366 180.5 102.366L181.317 98.6673L181.619 102.276C183.941 102.597 191.91 102.057 191.91 102.057L191.479 96.9115L192.946 101.98C194.393 101.729 197.918 101.562 197.918 101.562L196.94 97.1044L198.567 101.51L206.401 100.867C206.401 100.867 211.013 105.903 209.72 115.242C209.72 115.242 210.537 110.772 213.155 111.203L213.335 110.598L215.496 110.688Z" fill="url(#paint20_linear_835:17083)"/>
<path d="M213.137 121.043C213.137 121.218 213.086 121.388 212.989 121.533C212.892 121.678 212.754 121.791 212.593 121.857C212.432 121.924 212.255 121.941 212.084 121.907C211.913 121.873 211.756 121.79 211.633 121.666C211.51 121.543 211.426 121.386 211.392 121.215C211.358 121.044 211.375 120.867 211.442 120.706C211.509 120.545 211.622 120.407 211.767 120.311C211.912 120.214 212.082 120.162 212.256 120.162C212.49 120.162 212.714 120.255 212.879 120.42C213.044 120.585 213.137 120.81 213.137 121.043Z" fill="#70C250"/>
<path d="M214.535 120.162C214.535 120.27 214.503 120.376 214.443 120.466C214.383 120.556 214.297 120.626 214.197 120.667C214.097 120.708 213.988 120.719 213.881 120.698C213.775 120.677 213.678 120.625 213.602 120.549C213.525 120.472 213.473 120.375 213.452 120.269C213.431 120.163 213.442 120.053 213.483 119.953C213.524 119.853 213.594 119.767 213.684 119.707C213.774 119.647 213.88 119.615 213.988 119.615C214.133 119.615 214.272 119.673 214.375 119.775C214.477 119.878 214.535 120.017 214.535 120.162Z" fill="#2E2454"/>
<path d="M217.442 113.783C216.937 114.24 216.347 114.592 215.705 114.819" stroke="#70C250" stroke-width="1.52" stroke-miterlimit="10"/>
<path opacity="0.3" d="M192.099 108.568C184.04 109.212 172.623 109.289 172.623 109.289L174.083 120.718C177.08 124.037 188.876 122.114 188.876 122.114L190.085 117.779C190.696 115.643 191.97 115.206 192.658 115.148C193.346 115.09 194.678 115.296 195.649 117.29L197.578 121.355C197.578 121.355 209.529 121.213 211.909 117.425L211.375 105.912C211.375 105.912 200.145 107.835 192.099 108.568Z" fill="white"/>
<path d="M190.242 117.918C190.827 115.48 192.101 115.004 192.815 114.933C193.529 114.863 194.841 115.133 195.838 117.429" stroke="#683199" stroke-width="1.52" stroke-miterlimit="10" stroke-linecap="round"/>
<path d="M172.645 109.876C172.645 109.876 194.854 110.185 211.422 106.506" stroke="#683199" stroke-width="2.27" stroke-miterlimit="10" stroke-linecap="round"/>
<path d="M211.617 166.319C213.392 160.363 213.932 152.748 213.958 152.374C213.983 152.021 213.866 151.671 213.633 151.403C213.4 151.136 213.07 150.971 212.716 150.947C212.362 150.922 212.013 151.039 211.745 151.272C211.478 151.504 211.313 151.834 211.289 152.188C210.957 156.527 210.258 160.831 209.198 165.052C208.483 164.826 207.736 164.713 206.986 164.717H181.394C180.784 164.716 180.177 164.789 179.586 164.936C178.547 160.756 177.861 156.496 177.534 152.201C177.487 151.864 177.314 151.557 177.05 151.342C176.785 151.128 176.449 151.022 176.11 151.045C175.77 151.069 175.452 151.221 175.22 151.47C174.988 151.719 174.859 152.047 174.859 152.387C174.859 152.76 175.412 160.151 177.123 166.068C172.621 169.194 171.244 176.661 171.244 176.661L175.656 189.801C175.656 189.801 177.071 188.315 194.186 188.296C211.301 188.277 212.839 189.801 212.839 189.801L217.116 176.629C217.116 176.629 215.836 169.586 211.617 166.319Z" fill="#70C250"/>
<path d="M198.668 173.472H198.327L198.032 173.767L197.909 173.883H192.224L192.044 174.063L191.831 174.269H197.524L196.816 174.977L196.218 175.568L195.575 176.211L195.452 176.334H189.175L187.143 178.353H188.551C188.876 178.347 189.186 178.218 189.419 177.993L190.204 177.202H195.157C195.663 177.2 196.148 176.999 196.507 176.642L198.977 174.166C199.036 174.108 199.077 174.034 199.092 173.953C199.108 173.871 199.098 173.787 199.065 173.711C199.031 173.636 198.975 173.572 198.904 173.529C198.833 173.486 198.751 173.466 198.668 173.472Z" fill="white"/>
<path d="M193.21 170.309L191.988 171.518H199.591L200.813 170.309H193.21Z" fill="white"/>
<path d="M188.944 175.907H195.157L195.8 175.264L196.392 174.672H190.719L191.156 174.235L192.082 173.315H197.768L198.99 172.1H191.394L188.545 174.93C188.462 175.008 188.404 175.11 188.38 175.221C188.356 175.333 188.366 175.449 188.409 175.555C188.452 175.661 188.526 175.751 188.622 175.814C188.717 175.877 188.829 175.909 188.944 175.907Z" fill="white"/>
<path d="M186.354 182.815C178.224 181.271 174.976 168.105 174.976 168.105C172.403 170.775 170.969 177.226 170.969 177.226L175.658 189.8L182.295 188.674L179.002 183.22L186.354 182.815Z" fill="#339F28"/>
<path d="M202.021 182.815C210.158 181.271 213.406 168.105 213.406 168.105C215.979 170.775 217.136 176.647 217.136 176.647L212.724 189.8L206.093 188.674L209.386 183.22L202.021 182.815Z" fill="#84EF84"/>
<path d="M131.624 231.254L128.457 237.299L138.946 242.794L142.113 236.749L131.624 231.254Z" fill="#70C250"/>
<path d="M119.961 247.501L128.676 250.64C129.183 250.805 129.732 250.79 130.228 250.595C130.725 250.4 131.138 250.038 131.397 249.572L142.704 228.122C142.826 227.912 142.9 227.677 142.92 227.434C142.94 227.192 142.906 226.948 142.819 226.721C142.733 226.493 142.597 226.288 142.421 226.12C142.246 225.952 142.034 225.825 141.803 225.749L133.088 222.604" fill="#63676B"/>
<path d="M141.546 227.703C141.668 227.493 141.742 227.258 141.762 227.015C141.782 226.773 141.748 226.529 141.661 226.302C141.575 226.074 141.439 225.869 141.263 225.701C141.087 225.532 140.876 225.406 140.645 225.329L131.93 222.191C131.423 222.026 130.873 222.043 130.377 222.239C129.88 222.435 129.467 222.797 129.21 223.265L117.902 244.709C117.78 244.92 117.707 245.155 117.687 245.399C117.667 245.642 117.702 245.886 117.789 246.114C117.876 246.342 118.013 246.548 118.189 246.717C118.366 246.885 118.577 247.012 118.809 247.088L127.518 250.221C128.025 250.386 128.574 250.37 129.07 250.176C129.567 249.981 129.98 249.619 130.239 249.153L141.546 227.703Z" fill="#A7A9AC"/>
<path d="M131.123 246.433L119.713 242.323L128.286 226.07L139.697 230.18L131.123 246.433Z" fill="#2E2454"/>
<path d="M136.213 225.819C136.094 226.034 135.903 226.2 135.674 226.289C135.445 226.379 135.192 226.385 134.959 226.308C134.852 226.273 134.755 226.215 134.674 226.138C134.592 226.06 134.529 225.966 134.489 225.861C134.449 225.756 134.433 225.644 134.442 225.532C134.451 225.42 134.485 225.311 134.541 225.214C134.663 224.993 134.859 224.823 135.094 224.733C135.33 224.644 135.59 224.641 135.828 224.726C135.931 224.764 136.026 224.824 136.104 224.903C136.181 224.982 136.241 225.077 136.278 225.182C136.315 225.286 136.328 225.397 136.317 225.507C136.306 225.618 136.27 225.724 136.213 225.819Z" fill="#70C250"/>
<path d="M126.03 235.819L126.261 235.909L126.538 235.78L126.654 235.729L126.757 235.767L130.545 237.157L130.712 237.079L130.905 236.989L127.689 235.812L127.001 235.562L127.644 235.253L128.204 234.996L128.802 234.719L128.918 234.668L129.021 234.706L132.925 236.134L133.214 236.243L135.112 235.369L134.147 235.015C133.926 234.925 133.679 234.925 133.459 235.015L132.725 235.362L129.394 234.179C129.222 234.116 129.039 234.087 128.855 234.095C128.672 234.103 128.492 234.146 128.326 234.224L126.004 235.304C125.958 235.331 125.92 235.37 125.895 235.417C125.869 235.463 125.857 235.516 125.86 235.569C125.862 235.623 125.88 235.674 125.91 235.718C125.94 235.762 125.981 235.797 126.03 235.819Z" fill="#9446CE"/>
<path d="M128.984 239.369L130.122 238.842L124.906 236.932L123.768 237.459L128.984 239.369Z" fill="#70C250"/>
<path d="M133.322 236.592L132.955 236.464L129.051 235.029L128.447 235.306L127.894 235.563L131.405 236.849L131.798 236.991L131.386 237.184L130.518 237.583L126.614 236.148L125.469 236.676L130.685 238.605L133.354 237.383C133.436 237.352 133.505 237.296 133.553 237.223C133.601 237.15 133.625 237.064 133.622 236.976C133.618 236.889 133.587 236.805 133.533 236.736C133.48 236.667 133.406 236.617 133.322 236.592Z" fill="#70C250"/>
<defs>
<linearGradient id="paint0_linear_835:17083" x1="167.818" y1="404.591" x2="181.859" y2="404.591" gradientUnits="userSpaceOnUse">
<stop stop-color="#6C28A5"/>
<stop offset="1" stop-color="#A96AD8"/>
</linearGradient>
<linearGradient id="paint1_linear_835:17083" x1="160.194" y1="418.741" x2="172.595" y2="418.741" gradientUnits="userSpaceOnUse">
<stop stop-color="#1D183A" stop-opacity="0.2"/>
<stop offset="1" stop-color="#1D183A"/>
</linearGradient>
<linearGradient id="paint2_linear_835:17083" x1="4708.65" y1="18763.2" x2="5015.16" y2="18763.2" gradientUnits="userSpaceOnUse">
<stop stop-color="#6C28A5"/>
<stop offset="1" stop-color="#A96AD8"/>
</linearGradient>
<linearGradient id="paint3_linear_835:17083" x1="121599" y1="21530.9" x2="121361" y2="21530.9" gradientUnits="userSpaceOnUse">
<stop stop-color="#1D183A" stop-opacity="0.2"/>
<stop offset="1" stop-color="#1D183A"/>
</linearGradient>
<linearGradient id="paint4_linear_835:17083" x1="27416.6" y1="48219.1" x2="59924.1" y2="48219.1" gradientUnits="userSpaceOnUse">
<stop stop-color="#6C28A5"/>
<stop offset="1" stop-color="#A96AD8"/>
</linearGradient>
<linearGradient id="paint5_linear_835:17083" x1="173.602" y1="213.23" x2="214.006" y2="213.23" gradientUnits="userSpaceOnUse">
<stop stop-color="#CE7E9B"/>
<stop offset="0.27" stop-color="#D48CA9"/>
<stop offset="0.66" stop-color="#DB99B7"/>
<stop offset="1" stop-color="#DD9EBC"/>
</linearGradient>
<linearGradient id="paint6_linear_835:17083" x1="144.005" y1="305.732" x2="247.428" y2="305.732" gradientUnits="userSpaceOnUse">
<stop stop-color="#1D183A"/>
<stop offset="0.16" stop-color="#221B41"/>
<stop offset="0.61" stop-color="#2B224F"/>
<stop offset="1" stop-color="#2E2454"/>
</linearGradient>
<linearGradient id="paint7_linear_835:17083" x1="10022.2" y1="25566.4" x2="12727.7" y2="25566.4" gradientUnits="userSpaceOnUse">
<stop stop-color="#1D183A" stop-opacity="0.2"/>
<stop offset="1" stop-color="#1D183A"/>
</linearGradient>
<linearGradient id="paint8_linear_835:17083" x1="5118.19" y1="17932.9" x2="5803" y2="17932.9" gradientUnits="userSpaceOnUse">
<stop stop-color="#1D183A" stop-opacity="0.2"/>
<stop offset="1" stop-color="#1D183A"/>
</linearGradient>
<linearGradient id="paint9_linear_835:17083" x1="191.439" y1="248.529" x2="208.374" y2="248.529" gradientUnits="userSpaceOnUse">
<stop stop-color="#1D183A" stop-opacity="0.5"/>
<stop offset="1" stop-color="#1D183A"/>
</linearGradient>
<linearGradient id="paint10_linear_835:17083" x1="12424" y1="26277.3" x2="14604.9" y2="26277.3" gradientUnits="userSpaceOnUse">
<stop stop-color="#1D183A" stop-opacity="0.2"/>
<stop offset="1" stop-color="#1D183A"/>
</linearGradient>
<linearGradient id="paint11_linear_835:17083" x1="5593.98" y1="44641.5" x2="5971.9" y2="44641.5" gradientUnits="userSpaceOnUse">
<stop stop-color="#1D183A" stop-opacity="0.5"/>
<stop offset="1" stop-color="#1D183A"/>
</linearGradient>
<linearGradient id="paint12_linear_835:17083" x1="7349.49" y1="15596.5" x2="8709.71" y2="15596.5" gradientUnits="userSpaceOnUse">
<stop stop-color="#1D183A" stop-opacity="0.2"/>
<stop offset="1" stop-color="#1D183A"/>
</linearGradient>
<linearGradient id="paint13_linear_835:17083" x1="7957.92" y1="10304.3" x2="8915.24" y2="10304.3" gradientUnits="userSpaceOnUse">
<stop stop-color="#1D183A" stop-opacity="0.2"/>
<stop offset="1" stop-color="#1D183A"/>
</linearGradient>
<linearGradient id="paint14_linear_835:17083" x1="4550.57" y1="13937.7" x2="4815.35" y2="13937.7" gradientUnits="userSpaceOnUse">
<stop stop-color="#1D183A" stop-opacity="0.5"/>
<stop offset="1" stop-color="#1D183A"/>
</linearGradient>
<linearGradient id="paint15_linear_835:17083" x1="4679.68" y1="12824.1" x2="5207.25" y2="12824.1" gradientUnits="userSpaceOnUse">
<stop stop-color="#1D183A" stop-opacity="0.5"/>
<stop offset="1" stop-color="#1D183A"/>
</linearGradient>
<linearGradient id="paint16_linear_835:17083" x1="144.005" y1="305.732" x2="247.428" y2="305.732" gradientUnits="userSpaceOnUse">
<stop stop-color="#1D183A"/>
<stop offset="0.16" stop-color="#221B41"/>
<stop offset="0.61" stop-color="#2B224F"/>
<stop offset="1" stop-color="#2E2454"/>
</linearGradient>
<linearGradient id="paint17_linear_835:17083" x1="193.867" y1="93.2009" x2="193.867" y2="138.635" gradientUnits="userSpaceOnUse">
<stop stop-color="#F2B7CC"/>
<stop offset="1" stop-color="#ECB7D0"/>
</linearGradient>
<linearGradient id="paint18_linear_835:17083" x1="4239.02" y1="4442.21" x2="4239.02" y2="4840.72" gradientUnits="userSpaceOnUse">
<stop stop-color="#E0A2B8"/>
<stop offset="1" stop-color="#DD9EBC"/>
</linearGradient>
<linearGradient id="paint19_linear_835:17083" x1="204.028" y1="97.8652" x2="204.028" y2="107.063" gradientUnits="userSpaceOnUse">
<stop stop-color="#CE7E9B"/>
<stop offset="0.09" stop-color="#D388A6"/>
<stop offset="0.27" stop-color="#D995B3"/>
<stop offset="0.5" stop-color="#DC9CBA"/>
<stop offset="1" stop-color="#DD9EBC"/>
</linearGradient>
<linearGradient id="paint20_linear_835:17083" x1="13478.1" y1="13699" x2="17800.7" y2="13699" gradientUnits="userSpaceOnUse">
<stop stop-color="#6C28A5"/>
<stop offset="1" stop-color="#A96AD8"/>
</linearGradient>
</defs>
</svg>
