<svg width="78" height="85" viewBox="0 0 78 85" fill="none" xmlns="http://www.w3.org/2000/svg">
<circle cx="39" cy="39" r="39" fill="#F2F2F2"/>
<mask id="mask0_524:9583" style="mask-type:alpha" maskUnits="userSpaceOnUse" x="9" y="9" width="60" height="60">
<path d="M39 69C55.5685 69 69 55.5685 69 39C69 22.4315 55.5685 9 39 9C22.4315 9 9 22.4315 9 39C9 55.5685 22.4315 69 39 69Z" fill="#221F3E"/>
<path d="M39 69C55.5685 69 69 55.5685 69 39C69 22.4315 55.5685 9 39 9C22.4315 9 9 22.4315 9 39C9 55.5685 22.4315 69 39 69Z" fill="white"/>
</mask>
<g mask="url(#mask0_524:9583)">
<path d="M39 69.0044C55.5685 69.0044 69 55.5729 69 39.0044C69 22.4359 55.5685 9.00439 39 9.00439C22.4315 9.00439 9 22.4359 9 39.0044C9 55.5729 22.4315 69.0044 39 69.0044Z" fill="#221F3E"/>
<path d="M39 69.0044C55.5685 69.0044 69 55.5729 69 39.0044C69 22.4359 55.5685 9.00439 39 9.00439C22.4315 9.00439 9 22.4359 9 39.0044C9 55.5729 22.4315 69.0044 39 69.0044Z" fill="#E0E0E0"/>
<path d="M68.7795 84.8876C68.0197 83.0241 63.8854 82.9144 62.2907 81.8396C61.1322 77.4714 50.5727 64.8173 50.5727 64.8173C50.397 64.5888 50.2038 64.3744 49.9949 64.1759C47.0307 61.1395 41.9835 60.8564 41.9835 60.8564V56.9302H37.0721V60.8275C37.0721 60.8275 32.4698 61.1511 29.5086 64.1875C29.2988 64.3852 29.1056 64.5997 28.9307 64.8289C28.9307 64.8289 18.3741 77.4714 17.2185 81.8396C15.6237 82.9144 11.4895 83.0241 10.7297 84.8876C9.38049 88.2013 13.1536 88.2822 15.3059 87.846C15.0546 87.9613 14.852 88.1615 14.7336 88.4114C14.6153 88.6613 14.5888 88.945 14.6588 89.2125C16.3489 90.2786 18.4724 88.1724 19.3015 86.8868C19.9429 85.8959 20.0498 84.9367 20.018 83.8822C23.9124 81.5449 33.3077 68.1282 33.3077 68.1282L33.3279 68.0964L34.1282 68.6944L35.7402 66.2243V67.0534H43.6331L43.3818 65.6494L45.3695 68.6944L46.1697 68.0964L46.19 68.1282C46.19 68.1282 55.5852 81.5449 59.4796 83.8822C59.4478 84.9367 59.5547 85.9045 60.1961 86.8868C61.0253 88.1724 63.1487 90.2786 64.8388 89.2125C64.9089 88.945 64.8824 88.6613 64.764 88.4114C64.6457 88.1615 64.443 87.9613 64.1917 87.846C66.3556 88.2822 70.1287 88.2013 68.7795 84.8876Z" fill="#E5AB8F"/>
<path d="M38.9972 17.5957C28.9173 17.5957 20.7441 23.5645 20.7441 33.6444C20.7441 34.2338 20.7721 34.8116 20.8279 35.3778H20.7441C20.7441 35.3778 21.7986 43.3459 22.5151 46.7752C23.4512 51.259 25.6527 57.0371 38.1767 59.045C38.6949 59.1064 39.2186 59.1064 39.7368 59.045H39.7599C40.0047 59.0182 40.2477 58.9777 40.488 58.9237C52.3331 56.8089 54.4768 51.1723 55.3955 46.7896C55.9184 44.2906 56.6176 39.3879 56.9614 36.9062C57.1532 35.8353 57.2499 34.7496 57.2503 33.6617C57.2474 23.5645 49.0771 17.5957 38.9972 17.5957Z" fill="#F9C5AC"/>
<path d="M53.3154 40.4803C53.3154 43.1325 50.9811 45.2848 48.1007 45.2848C45.2203 45.2848 42.9004 43.1325 42.9004 40.4803C42.9004 37.8282 45.2376 35.6787 48.1007 35.6787C50.9637 35.6787 53.3154 37.8282 53.3154 40.4803Z" fill="white"/>
<path d="M52.1737 40.3601C52.1737 43.0816 50.3073 45.2715 48.0019 45.2715C45.6964 45.2715 43.8301 43.0672 43.8301 40.3601C43.8301 37.6531 45.6993 35.4487 48.0019 35.4487C50.3045 35.4487 52.1737 37.6415 52.1737 40.3601Z" fill="#2E2454"/>
<path d="M48.0995 34.2363C45.2104 34.2363 42.6334 36.6487 41.8418 39.4366L42.9252 39.7458C43.232 38.6733 43.8638 37.7223 44.7335 37.0238C45.6033 36.3253 46.6682 35.9136 47.7816 35.8455C48.8951 35.7774 50.0022 36.0561 50.9506 36.6434C51.8991 37.2307 52.6421 38.0975 53.0773 39.1246L55.0015 37.6339C53.9787 35.2128 50.7314 34.2363 48.0995 34.2363Z" fill="#2E2454"/>
<path d="M53.2702 30.7285C53.1966 30.6463 53.1184 30.5681 53.0362 30.4945L52.7906 30.2721C52.7039 30.1998 52.6144 30.1363 52.5277 30.0669L52.3948 29.9658L52.2532 29.8763C52.1579 29.8156 52.0654 29.752 51.9643 29.6971C51.8632 29.6422 51.7043 29.5556 51.5714 29.4949C49.9275 28.5877 47.9052 28.5993 46.66 28.7293C46.2619 28.7599 45.8668 28.8217 45.4784 28.9142C44.4861 29.1372 43.5738 29.6278 42.8407 30.3327L42.8147 30.3674C42.5659 30.6113 42.3494 30.8861 42.1704 31.185L42.0664 31.3063L42.1531 31.3728C42.1829 31.4003 42.2147 31.4254 42.2484 31.4479L42.3755 31.5317C42.4159 31.5599 42.4584 31.585 42.5027 31.6068L42.6269 31.6733C42.6696 31.696 42.714 31.7153 42.7598 31.731L42.8956 31.783C42.9418 31.8005 42.9891 31.815 43.0371 31.8264L43.1816 31.861C43.2299 31.8732 43.2792 31.8809 43.3289 31.8842L43.4792 31.9015C43.5292 31.9044 43.5794 31.9044 43.6294 31.9015C43.7261 31.9007 43.8227 31.893 43.9183 31.8784C44.0165 31.861 44.1119 31.8437 44.2072 31.8206L44.3025 31.8004L44.4094 31.7224C44.4701 31.6733 44.5597 31.6097 44.6348 31.5519L44.8832 31.3815C45.0508 31.2688 45.2213 31.159 45.3946 31.0579C45.5679 30.9568 45.7471 30.8557 45.9262 30.769L46.1978 30.6303L46.4867 30.5032C46.6716 30.4194 46.8565 30.3414 47.0443 30.2692C47.232 30.1969 47.4256 30.1305 47.6221 30.0756C47.7174 30.0438 47.8127 30.0178 47.911 29.9918C48.0092 29.9658 48.1045 29.9398 48.1999 29.9196C48.2952 29.8994 48.3963 29.8763 48.4888 29.8618L48.7777 29.8127C48.9741 29.7925 49.1735 29.7694 49.3728 29.7665C49.4739 29.7665 49.5722 29.7665 49.6617 29.7665C49.7513 29.7665 49.8582 29.7665 49.9506 29.7809C50.0431 29.7954 50.1471 29.7983 50.2395 29.8127L50.5285 29.8589C50.6267 29.8763 50.722 29.9052 50.8174 29.9283L50.9618 29.9658L51.1034 30.012C51.2929 30.0755 51.4791 30.1487 51.661 30.2316C51.7505 30.275 51.8372 30.3241 51.9268 30.3732L52.0597 30.4425L52.1868 30.5263C52.2734 30.5812 52.3572 30.6332 52.441 30.6939L52.6837 30.8788C52.7647 30.9405 52.8418 31.0071 52.9148 31.0781L53.1431 31.2861L53.4551 30.9972L53.2702 30.7285Z" fill="#2E2454"/>
<path d="M23.8846 30.2665C23.9616 30.188 24.0437 30.1147 24.1302 30.0469L24.3873 29.836C24.4769 29.7696 24.5722 29.7089 24.6762 29.6453L24.8149 29.5529L24.9594 29.4691C25.0576 29.4142 25.1529 29.3564 25.2483 29.3044C25.3436 29.2524 25.517 29.1802 25.6527 29.1253C27.3284 28.3077 29.3507 28.4175 30.6017 28.6255C30.9988 28.6747 31.3912 28.7569 31.7747 28.8711C32.7586 29.1483 33.6472 29.691 34.343 30.4398L34.3661 30.4745C34.6022 30.7362 34.8033 31.0276 34.9642 31.3412L35.0393 31.451L34.9497 31.5117C34.9175 31.5368 34.8837 31.56 34.8486 31.581L34.7186 31.6561C34.6771 31.6826 34.6337 31.7057 34.5886 31.7254L34.4615 31.7861C34.4174 31.8055 34.372 31.8219 34.3257 31.8352L34.187 31.8815C34.1397 31.8961 34.0914 31.9076 34.0426 31.9161L33.8981 31.945C33.8481 31.9493 33.7979 31.9493 33.7479 31.945H33.5977C33.5477 31.9494 33.4974 31.9494 33.4474 31.945C33.3504 31.9394 33.2538 31.9268 33.1585 31.9075L32.8696 31.8352L32.7772 31.8092L32.6732 31.7254C32.6154 31.6734 32.5287 31.6041 32.4536 31.5434C32.3785 31.4828 32.2976 31.4192 32.2196 31.3585C32.0578 31.2401 31.8931 31.1187 31.7227 31.009C31.5522 30.8992 31.3846 30.7894 31.2113 30.6825L30.9455 30.5323L30.6797 30.3878C30.4977 30.2954 30.3157 30.2087 30.1337 30.1249C29.9517 30.0411 29.761 29.966 29.5559 29.8996C29.4634 29.8649 29.3681 29.8331 29.267 29.8042C29.1658 29.7753 29.0734 29.7407 28.9781 29.7147L28.6891 29.6396L28.4002 29.5789C28.2038 29.5471 28.0073 29.5124 27.808 29.498C27.7098 29.498 27.6086 29.498 27.5191 29.4807C27.4295 29.4633 27.3197 29.4807 27.2302 29.4807C27.1406 29.4807 27.0308 29.4807 26.9413 29.4807L26.6524 29.5153C26.5541 29.5153 26.4588 29.55 26.3635 29.5673L26.2161 29.5962L26.0717 29.6367C25.875 29.6872 25.682 29.7509 25.4939 29.8273C25.4014 29.8649 25.3118 29.9082 25.2194 29.9516L25.0836 30.0151L24.9536 30.0902C24.864 30.1422 24.7745 30.1914 24.6907 30.2463L24.4393 30.4196C24.3542 30.4754 24.2731 30.5372 24.1967 30.6045L23.9569 30.801L23.668 30.4918L23.8846 30.2665Z" fill="#2E2454"/>
<path d="M23.7168 40.4803C23.7168 43.1325 26.0512 45.2848 28.9171 45.2848C31.783 45.2848 34.1174 43.1325 34.1174 40.4803C34.1174 37.8282 31.783 35.6787 28.9171 35.6787C26.0512 35.6787 23.7168 37.8282 23.7168 40.4803Z" fill="white"/>
<path d="M24.8633 40.3601C24.8633 43.0816 26.7296 45.2715 29.0322 45.2715C31.3348 45.2715 33.204 43.0672 33.204 40.3601C33.204 37.6531 31.3377 35.4487 29.0322 35.4487C26.7267 35.4487 24.8633 37.6415 24.8633 40.3601Z" fill="#2E2454"/>
<path d="M28.9283 34.2363C31.8173 34.2363 34.3944 36.6487 35.186 39.4366L34.0997 39.7458C33.7937 38.673 33.1623 37.7216 32.2928 37.0227C31.4233 36.3238 30.3584 35.9119 29.2449 35.8438C28.1314 35.7756 27.0242 36.0546 26.0759 36.6422C25.1276 37.2298 24.385 38.0972 23.9504 39.1246L22.0234 37.6339C23.0462 35.2128 26.3021 34.2363 28.9283 34.2363Z" fill="#2E2454"/>
<path d="M36.2129 51.1839C36.2129 51.1839 40.9943 52.9375 44.3023 49.8491" stroke="#2E2454" stroke-width="0.5" stroke-miterlimit="10" stroke-linecap="round"/>
<path d="M38.4492 48.1579L37.1289 47.0456C37.8562 46.0205 38.2054 44.7748 38.117 43.521C38.117 43.521 39.0617 46.7394 38.4492 48.1579Z" fill="#E5AB8F"/>
<path d="M63.509 47.9281C65.4302 43.9326 64.2139 33.5117 61.1227 25.798C60.5696 24.3108 59.8699 22.8823 59.0339 21.5337C58.9876 21.4557 58.9385 21.3777 58.8894 21.2997C58.884 21.2924 58.8791 21.2847 58.875 21.2766C58.6121 20.8577 58.3405 20.459 58.0631 20.0863C55.8606 17.0276 52.9621 14.5367 49.6069 12.8192C46.2518 11.1017 42.5362 10.2068 38.767 10.2085C34.9978 10.2102 31.2831 11.1084 27.9295 12.8289C24.5759 14.5494 21.6796 17.043 19.4798 20.1036V20.0863C19.0029 20.7326 18.5667 21.408 18.1739 22.1086C17.5401 23.1973 16.9934 24.3343 16.5387 25.5091C13.3608 33.2488 12.0867 43.8863 14.0339 47.931C15.6893 51.3748 14.4759 54.8648 11.168 57.046C12.7367 58.0341 16.4145 61.2467 19.136 59.2937C19.2978 59.1752 20.0489 57.8752 20.2656 57.8983C20.4274 57.9185 19.89 59.8946 20.0518 59.9206C24.0358 60.3106 28.3607 59.597 30.4149 58.323C29.7042 57.4562 28.9703 56.6242 28.2279 55.7835L28.3001 55.8153C24.1976 53.1862 23.0651 49.728 22.4584 46.813C21.7419 43.3605 21.0543 35.3405 21.0543 35.3405C21.0004 34.7627 20.9725 34.1781 20.9705 33.5869C20.9215 31.0362 21.4541 28.5079 22.5277 26.1938H27.7425L29.0339 21.4644L29.2939 26.1938H41.5406L41.8093 20.9761L42.3265 26.1938H46.1082L46.3769 20.9761L46.8883 26.1938H55.4717C56.6406 28.4811 57.2355 31.0184 57.2051 33.5869C57.2046 34.6824 57.1079 35.7757 56.9162 36.8544C56.5724 39.3505 55.8732 44.2879 55.3503 46.8014C54.7234 49.8262 53.5244 53.4462 49.0348 56.0955C48.3935 56.8293 47.7521 57.566 47.1338 58.3114C49.188 59.5855 53.5129 60.2991 57.4969 59.9091C57.6587 59.8917 57.1213 57.9156 57.2831 57.8867C57.4998 57.8636 58.2509 59.1637 58.4127 59.2821C61.1342 61.2351 64.812 58.0225 66.3807 57.0344C63.067 54.8503 61.8536 51.3719 63.509 47.9281Z" fill="url(#paint0_linear_524:9583)"/>
<path d="M22.623 47.5103C22.623 47.5103 23.1286 54.0222 27.1618 59.5027C27.1618 59.5027 34.3844 60.1672 37.0799 59.653V58.8498C37.0799 58.8498 25.4283 56.7552 22.623 47.5103Z" fill="#683099"/>
<path d="M55.3542 46.7979C55.3542 46.7979 55.0161 57.8861 52.754 59.8824C52.754 59.8824 43.639 60.1713 41.998 59.6859V58.6141C41.998 58.6141 53.2451 56.4791 55.3542 46.7979Z" fill="#683099"/>
<path d="M56.7968 37.0101C56.7968 37.0101 57.6837 34.722 60.4717 34.9878C62.6356 35.2016 65.672 38.1224 61.4857 43.6261C60.359 45.1024 58.9289 46.752 55.332 46.6423L56.141 41.5488L56.7968 37.0101Z" fill="#E6AB8F"/>
<path d="M60.6328 37.1005C58.4112 37.5483 57.0129 42.3933 56.9551 42.5897L57.4693 42.7371C57.7753 41.6894 58.1877 40.6759 58.7001 39.7122C58.8584 39.7258 59.0122 39.7715 59.1523 39.8465C59.2924 39.9215 59.4157 40.0243 59.5148 40.1485C59.8441 40.5674 60.1099 41.4861 59.5148 43.4969L60.0261 43.6529C60.5722 41.853 60.5433 40.5616 59.9424 39.8105C59.7019 39.5165 59.3688 39.3128 58.9976 39.2327C59.509 38.4122 60.1099 37.7563 60.7513 37.6263C61.3291 37.5137 61.9069 37.8343 62.5165 38.5855L62.9325 38.2533C62.1843 37.3317 61.4187 36.9445 60.6328 37.1005Z" fill="#2E2454"/>
<path d="M63.3768 36.5757C63.189 36.9281 62.5563 37.9393 61.9062 38.3813L62.617 39.4301C63.657 38.7251 64.4602 37.2373 64.4948 37.1737L63.3768 36.5757Z" fill="#24E029"/>
<path d="M58.0183 45.1728C57.9633 45.2932 57.8738 45.3947 57.7613 45.4643C57.6487 45.534 57.518 45.5688 57.3857 45.5643C57.2534 45.5597 57.1254 45.5162 57.0178 45.439C56.9103 45.3618 56.828 45.2545 56.7813 45.1306C56.7346 45.0067 56.7257 44.8718 56.7556 44.7428C56.7856 44.6139 56.853 44.4967 56.9495 44.406C57.046 44.3153 57.1671 44.2553 57.2977 44.2334C57.4282 44.2115 57.5624 44.2287 57.6831 44.2829C57.7637 44.3191 57.8364 44.3709 57.8969 44.4353C57.9575 44.4997 58.0046 44.5754 58.0358 44.6581C58.0669 44.7408 58.0814 44.8289 58.0784 44.9172C58.0754 45.0055 58.055 45.0924 58.0183 45.1728Z" fill="#24E029"/>
<path d="M59.2673 45.0157C59.2332 45.0905 59.1778 45.1535 59.1079 45.1968C59.0381 45.2402 58.957 45.2618 58.8748 45.2591C58.7926 45.2563 58.7131 45.2293 58.6463 45.1814C58.5795 45.1335 58.5284 45.0669 58.4994 44.99C58.4704 44.9131 58.4648 44.8293 58.4834 44.7492C58.502 44.6692 58.5439 44.5964 58.6038 44.5401C58.6637 44.4838 58.7389 44.4465 58.82 44.433C58.9011 44.4194 58.9843 44.4301 59.0593 44.4638C59.1093 44.4863 59.1543 44.5184 59.1918 44.5584C59.2294 44.5983 59.2586 44.6453 59.278 44.6965C59.2973 44.7478 59.3063 44.8024 59.3045 44.8572C59.3026 44.9119 59.29 44.9658 59.2673 45.0157Z" fill="#2E2454"/>
<path d="M34.5533 47.9233C34.5533 47.9233 29.3934 49.261 26.6286 49.7983C26.6286 49.7983 29.0438 55.9607 34.1401 58.0293C34.1401 58.0293 22.0234 54.103 22.0234 44.1387C22.0234 44.1444 27.3769 48.3307 34.5533 47.9233Z" fill="#E6AB8F"/>
<path d="M55.4702 26.1909H52.6736C52.6736 26.1909 53.731 28.1381 53.6992 28.6697H52.1738L57.0852 31.5588C57.0852 31.5588 56.0654 26.7861 55.4702 26.1909Z" fill="#F9C5AC"/>
<path d="M51.467 47.5671C51.467 47.5671 51.6461 54.3622 44.6055 57.8464C44.6055 57.8464 55.0061 55.1885 55.9566 43.6611C55.9566 43.6611 52.9404 47.4082 51.467 47.5671Z" fill="#E6AB8F"/>
<path d="M33.8446 66.3538C33.8446 66.3538 33.1396 63.1412 33.8446 61.3066" stroke="#24E029" stroke-width="3.05" stroke-miterlimit="10" stroke-linecap="round"/>
<path d="M45.3086 66.3538C45.3086 66.3538 46.0135 63.1412 45.3086 61.3066" stroke="#24E029" stroke-width="3.05" stroke-miterlimit="10" stroke-linecap="round"/>
<path d="M49.1404 75.2518V75.2113C49.1404 75.168 49.1231 75.1304 49.1173 75.0871L49.1 75.0004C49.0768 74.8877 49.0566 74.7751 49.0335 74.6682V74.6335C48.9006 73.969 48.7706 73.371 48.6464 72.851L47.225 68.162L47.2076 68.0956C46.8349 67.1768 46.2167 64.8223 44.2608 64.8223H35.1343C32.7161 64.8223 31.8061 69.8406 31.7945 69.8666L31.2167 71.7358L30.4453 75.2951C31.8871 74.9934 33.3444 74.7715 34.8107 74.6306C35.7207 74.5555 36.7261 74.5151 37.9713 74.5151C40.141 74.5151 42.6198 74.6364 44.905 74.8646L49.1924 75.48L49.1404 75.2518Z" fill="#24E029"/>
<path d="M39.561 67.8691L38.9023 68.5221H42.999L43.6577 67.8691H39.561Z" fill="white"/>
<path d="M37.2611 70.8818H40.6153L40.962 70.538L41.2827 70.2174H38.2145L38.4514 69.9833L38.9512 69.4864H42.0194L42.6752 68.8335H38.593L37.0589 70.3589C37.0168 70.4009 36.9878 70.4542 36.9754 70.5123C36.9631 70.5704 36.9679 70.6309 36.9894 70.6864C37.0108 70.7418 37.0479 70.7898 37.0962 70.8245C37.1444 70.8592 37.2017 70.8791 37.2611 70.8818Z" fill="white"/>
<path d="M32.1938 68.2837C32.1938 68.2837 32.0002 72.8022 34.505 74.6656L30.4199 75.2781C30.4199 75.2781 31.5004 69.7889 32.1938 68.2837Z" fill="#1D9E1D"/>
<path d="M47.2097 68.1621C47.2097 68.1621 47.2877 73.7553 44.8984 74.8647L49.3129 75.5552C49.3129 75.5552 48.1082 69.858 47.2097 68.1621Z" fill="#94D394"/>
<path d="M40.2768 37.6007C39.8714 37.3761 39.4156 37.2583 38.9522 37.2583C38.4887 37.2583 38.0329 37.3761 37.6275 37.6007L36.5586 35.6535C37.2909 35.247 38.1146 35.0337 38.9522 35.0337C39.7897 35.0337 40.6135 35.247 41.3458 35.6535L40.2768 37.6007Z" fill="#FFDD33"/>
<path d="M26.8267 49.89C25.0841 49.8307 23.4133 49.1807 22.0887 48.0467C20.7828 46.9373 19.2285 44.8543 19.2285 41.2228C19.2285 38.2268 20.4506 35.8405 22.7647 34.3237C25.0211 32.8445 27.6386 32.6221 28.9964 32.6221C29.2853 32.6221 29.5569 32.6221 29.8631 32.6221C30.1694 32.6221 30.493 32.6221 30.8194 32.6221C33.0758 32.6221 35.621 32.9716 37.3805 35.566C38.6141 37.3832 38.5014 39.8765 37.0684 42.5807C36.0048 44.535 34.5398 46.2423 32.7695 47.5903C30.2532 49.5086 28.147 49.9015 26.8325 49.9015L26.8267 49.89Z" fill="#FFDD33"/>
<path d="M32.9277 45.4903C31.0932 47.2007 28.8542 48.4112 26.8232 48.4112C24.8991 48.4112 20.707 46.8309 20.707 41.2261C20.707 35.6213 25.5924 34.1075 28.9928 34.1075C29.8047 34.1075 30.6569 34.0612 31.5034 34.1075C33.2369 34.1797 34.9183 34.5813 36.1433 36.3869C37.7582 38.7588 35.8572 42.7544 32.9277 45.4903Z" fill="#404A4A"/>
<path d="M51.3632 49.8878C50.0429 49.8878 47.9425 49.4834 45.4261 47.5766C43.6553 46.2293 42.1901 44.5219 41.1272 42.567C39.6827 39.8628 39.5816 37.3667 40.8152 35.5523C42.5746 32.9522 45.1199 32.6084 47.3763 32.6084C47.7027 32.6084 48.0234 32.6084 48.3354 32.6084C48.6474 32.6084 48.9132 32.6084 49.2021 32.6084C50.56 32.6084 53.1775 32.8309 55.4338 34.3101C57.7451 35.8268 58.97 38.2132 58.97 41.2091C58.97 44.8407 57.4157 46.9237 56.1099 48.0331C54.7853 49.167 53.1145 49.817 51.3718 49.8763L51.3632 49.8878Z" fill="#FFDD33"/>
<path d="M57.4764 41.2252C57.4764 46.1048 54.2984 47.9336 52.2096 48.3236C51.9299 48.3795 51.6455 48.4085 51.3602 48.4102C46.0848 48.4102 39.414 40.2458 42.0401 36.3773C43.8631 33.6847 46.7262 34.1065 49.1905 34.1065C49.8734 34.1072 50.5549 34.1671 51.2273 34.2856C54.2579 34.823 57.4764 36.6749 57.4764 41.2194V41.2252Z" fill="#404A4A"/>
<path d="M57.4736 41.2203C57.4736 46.0999 54.2957 47.9287 52.2069 48.3187C55.1191 43.5749 53.5503 36.8607 51.2246 34.2808C54.2552 34.8181 57.4736 36.67 57.4736 41.2145V41.2203Z" fill="#475959"/>
<path d="M32.9321 45.4857C34.3333 41.3977 33.2441 36.5903 31.5078 34.0913C33.2412 34.1635 34.9227 34.5651 36.1476 36.3708C37.7626 38.7542 35.8616 42.7498 32.9321 45.4857Z" fill="#475959"/>
<path d="M27.3549 38.4402L29.6662 37.6457C29.8144 37.5918 29.9425 37.4936 30.0331 37.3644C30.1236 37.2352 30.1721 37.0812 30.1721 36.9235C30.1721 36.7657 30.1236 36.6118 30.0331 36.4825C29.9425 36.3533 29.8144 36.2551 29.6662 36.2012L27.3549 35.4067C27.2439 35.3697 27.1431 35.3073 27.0603 35.2246C26.9776 35.1419 26.9152 35.041 26.8782 34.93L26.0837 32.6188C26.0298 32.4705 25.9316 32.3424 25.8024 32.2519C25.6732 32.1614 25.5192 32.1128 25.3615 32.1128C25.2037 32.1128 25.0497 32.1614 24.9205 32.2519C24.7913 32.3424 24.6931 32.4705 24.6392 32.6188L23.8447 34.93C23.8077 35.041 23.7453 35.1419 23.6626 35.2246C23.5799 35.3073 23.479 35.3697 23.368 35.4067L21.0568 36.2012C20.9085 36.2551 20.7804 36.3533 20.6899 36.4825C20.5993 36.6118 20.5508 36.7657 20.5508 36.9235C20.5508 37.0812 20.5993 37.2352 20.6899 37.3644C20.7804 37.4936 20.9085 37.5918 21.0568 37.6457L23.368 38.4402C23.479 38.4772 23.5799 38.5396 23.6626 38.6223C23.7453 38.7051 23.8077 38.8059 23.8447 38.9169L24.6392 41.2282C24.6931 41.3764 24.7913 41.5045 24.9205 41.5951C25.0497 41.6856 25.2037 41.7341 25.3615 41.7341C25.5192 41.7341 25.6732 41.6856 25.8024 41.5951C25.9316 41.5045 26.0298 41.3764 26.0837 41.2282L26.8782 38.9169C26.9152 38.8059 26.9776 38.7051 27.0603 38.6223C27.1431 38.5396 27.2439 38.4772 27.3549 38.4402Z" fill="white"/>
</g>
<rect x="3" y="65" width="73" height="20" rx="4" fill="#7562E0"/>
<path d="M13.4473 77.6211C13.4473 78.3945 13.168 79.0039 12.6094 79.4492C12.0547 79.8945 11.2812 80.1172 10.2891 80.1172C9.375 80.1172 8.56641 79.9453 7.86328 79.6016V77.9141C8.44141 78.1719 8.92969 78.3535 9.32812 78.459C9.73047 78.5645 10.0977 78.6172 10.4297 78.6172C10.8281 78.6172 11.1328 78.541 11.3438 78.3887C11.5586 78.2363 11.666 78.0098 11.666 77.709C11.666 77.541 11.6191 77.3926 11.5254 77.2637C11.4316 77.1309 11.293 77.0039 11.1094 76.8828C10.9297 76.7617 10.5605 76.5684 10.002 76.3027C9.47852 76.0566 9.08594 75.8203 8.82422 75.5938C8.5625 75.3672 8.35352 75.1035 8.19727 74.8027C8.04102 74.502 7.96289 74.1504 7.96289 73.748C7.96289 72.9902 8.21875 72.3945 8.73047 71.9609C9.24609 71.5273 9.95703 71.3105 10.8633 71.3105C11.3086 71.3105 11.7324 71.3633 12.1348 71.4688C12.541 71.5742 12.9648 71.7227 13.4062 71.9141L12.8203 73.3262C12.3633 73.1387 11.9844 73.0078 11.6836 72.9336C11.3867 72.8594 11.0938 72.8223 10.8047 72.8223C10.4609 72.8223 10.1973 72.9023 10.0137 73.0625C9.83008 73.2227 9.73828 73.4316 9.73828 73.6895C9.73828 73.8496 9.77539 73.9902 9.84961 74.1113C9.92383 74.2285 10.041 74.3438 10.2012 74.457C10.3652 74.5664 10.75 74.7656 11.3555 75.0547C12.1562 75.4375 12.7051 75.8223 13.002 76.209C13.2988 76.5918 13.4473 77.0625 13.4473 77.6211ZM21.9727 71.4336V76.9766C21.9727 77.6094 21.8301 78.1641 21.5449 78.6406C21.2637 79.1172 20.8555 79.4824 20.3203 79.7363C19.7852 79.9902 19.1523 80.1172 18.4219 80.1172C17.3203 80.1172 16.4648 79.8359 15.8555 79.2734C15.2461 78.707 14.9414 77.9336 14.9414 76.9531V71.4336H16.752V76.6777C16.752 77.3379 16.8848 77.8223 17.1504 78.1309C17.416 78.4395 17.8555 78.5938 18.4688 78.5938C19.0625 78.5938 19.4922 78.4395 19.7578 78.1309C20.0273 77.8184 20.1621 77.3301 20.1621 76.666V71.4336H21.9727ZM24.0703 71.4336H26.7363C27.9512 71.4336 28.832 71.6074 29.3789 71.9551C29.9297 72.2988 30.2051 72.8477 30.2051 73.6016C30.2051 74.1133 30.084 74.5332 29.8418 74.8613C29.6035 75.1895 29.2852 75.3867 28.8867 75.4531V75.5117C29.4297 75.6328 29.8203 75.8594 30.0586 76.1914C30.3008 76.5234 30.4219 76.9648 30.4219 77.5156C30.4219 78.2969 30.1387 78.9062 29.5723 79.3438C29.0098 79.7812 28.2441 80 27.2754 80H24.0703V71.4336ZM25.8867 74.8262H26.9414C27.4336 74.8262 27.7891 74.75 28.0078 74.5977C28.2305 74.4453 28.3418 74.1934 28.3418 73.8418C28.3418 73.5137 28.2207 73.2793 27.9785 73.1387C27.7402 72.9941 27.3613 72.9219 26.8418 72.9219H25.8867V74.8262ZM25.8867 76.2676V78.5H27.0703C27.5703 78.5 27.9395 78.4043 28.1777 78.2129C28.416 78.0215 28.5352 77.7285 28.5352 77.334C28.5352 76.623 28.0273 76.2676 27.0117 76.2676H25.8867ZM37.1895 77.6211C37.1895 78.3945 36.9102 79.0039 36.3516 79.4492C35.7969 79.8945 35.0234 80.1172 34.0312 80.1172C33.1172 80.1172 32.3086 79.9453 31.6055 79.6016V77.9141C32.1836 78.1719 32.6719 78.3535 33.0703 78.459C33.4727 78.5645 33.8398 78.6172 34.1719 78.6172C34.5703 78.6172 34.875 78.541 35.0859 78.3887C35.3008 78.2363 35.4082 78.0098 35.4082 77.709C35.4082 77.541 35.3613 77.3926 35.2676 77.2637C35.1738 77.1309 35.0352 77.0039 34.8516 76.8828C34.6719 76.7617 34.3027 76.5684 33.7441 76.3027C33.2207 76.0566 32.8281 75.8203 32.5664 75.5938C32.3047 75.3672 32.0957 75.1035 31.9395 74.8027C31.7832 74.502 31.7051 74.1504 31.7051 73.748C31.7051 72.9902 31.9609 72.3945 32.4727 71.9609C32.9883 71.5273 33.6992 71.3105 34.6055 71.3105C35.0508 71.3105 35.4746 71.3633 35.877 71.4688C36.2832 71.5742 36.707 71.7227 37.1484 71.9141L36.5625 73.3262C36.1055 73.1387 35.7266 73.0078 35.4258 72.9336C35.1289 72.8594 34.8359 72.8223 34.5469 72.8223C34.2031 72.8223 33.9395 72.9023 33.7559 73.0625C33.5723 73.2227 33.4805 73.4316 33.4805 73.6895C33.4805 73.8496 33.5176 73.9902 33.5918 74.1113C33.666 74.2285 33.7832 74.3438 33.9434 74.457C34.1074 74.5664 34.4922 74.7656 35.0977 75.0547C35.8984 75.4375 36.4473 75.8223 36.7441 76.209C37.041 76.5918 37.1895 77.0625 37.1895 77.6211ZM42.3809 72.8223C41.6973 72.8223 41.168 73.0801 40.793 73.5957C40.418 74.1074 40.2305 74.8223 40.2305 75.7402C40.2305 77.6504 40.9473 78.6055 42.3809 78.6055C42.9824 78.6055 43.7109 78.4551 44.5664 78.1543V79.6777C43.8633 79.9707 43.0781 80.1172 42.2109 80.1172C40.9648 80.1172 40.0117 79.7402 39.3516 78.9863C38.6914 78.2285 38.3613 77.1426 38.3613 75.7285C38.3613 74.8379 38.5234 74.0586 38.8477 73.3906C39.1719 72.7188 39.6367 72.2051 40.2422 71.8496C40.8516 71.4902 41.5645 71.3105 42.3809 71.3105C43.2129 71.3105 44.0488 71.5117 44.8887 71.9141L44.3027 73.3906C43.9824 73.2383 43.6602 73.1055 43.3359 72.9922C43.0117 72.8789 42.6934 72.8223 42.3809 72.8223ZM48.2109 75.2363H48.7969C49.3711 75.2363 49.7949 75.1406 50.0684 74.9492C50.3418 74.7578 50.4785 74.457 50.4785 74.0469C50.4785 73.6406 50.3379 73.3516 50.0566 73.1797C49.7793 73.0078 49.3477 72.9219 48.7617 72.9219H48.2109V75.2363ZM48.2109 76.7129V80H46.3945V71.4336H48.8906C50.0547 71.4336 50.916 71.6465 51.4746 72.0723C52.0332 72.4941 52.3125 73.1367 52.3125 74C52.3125 74.5039 52.1738 74.9531 51.8965 75.3477C51.6191 75.7383 51.2266 76.0449 50.7188 76.2676C52.0078 78.1934 52.8477 79.4375 53.2383 80H51.2227L49.1777 76.7129H48.2109ZM54.3164 80V71.4336H56.1328V80H54.3164ZM58.2891 71.4336H60.9551C62.1699 71.4336 63.0508 71.6074 63.5977 71.9551C64.1484 72.2988 64.4238 72.8477 64.4238 73.6016C64.4238 74.1133 64.3027 74.5332 64.0605 74.8613C63.8223 75.1895 63.5039 75.3867 63.1055 75.4531V75.5117C63.6484 75.6328 64.0391 75.8594 64.2773 76.1914C64.5195 76.5234 64.6406 76.9648 64.6406 77.5156C64.6406 78.2969 64.3574 78.9062 63.791 79.3438C63.2285 79.7812 62.4629 80 61.4941 80H58.2891V71.4336ZM60.1055 74.8262H61.1602C61.6523 74.8262 62.0078 74.75 62.2266 74.5977C62.4492 74.4453 62.5605 74.1934 62.5605 73.8418C62.5605 73.5137 62.4395 73.2793 62.1973 73.1387C61.959 72.9941 61.5801 72.9219 61.0605 72.9219H60.1055V74.8262ZM60.1055 76.2676V78.5H61.2891C61.7891 78.5 62.1582 78.4043 62.3965 78.2129C62.6348 78.0215 62.7539 77.7285 62.7539 77.334C62.7539 76.623 62.2461 76.2676 61.2305 76.2676H60.1055ZM71.2852 80H66.3516V71.4336H71.2852V72.9219H68.168V74.8027H71.0684V76.291H68.168V78.5H71.2852V80Z" fill="white"/>
<defs>
<linearGradient id="paint0_linear_524:9583" x1="1616.76" y1="5399.1" x2="12166.3" y2="5399.1" gradientUnits="userSpaceOnUse">
<stop stop-color="#6C28A5"/>
<stop offset="1" stop-color="#A96AD8"/>
</linearGradient>
</defs>
</svg>
