<svg width="104" height="71" viewBox="0 0 104 71" fill="none" xmlns="http://www.w3.org/2000/svg">
<path d="M101.718 18.7797C102.426 17.0135 101.568 15.008 99.8016 14.3001L79.1393 6.01855C77.3731 5.31065 75.3676 6.16851 74.6597 7.93471L73.4766 10.8864L100.535 21.7314L101.718 18.7797Z" fill="#7562E0"/>
<path d="M73.4766 10.8853L100.535 21.7303L86.7318 56.1678L59.6738 45.3228L73.4766 10.8853Z" fill="#F2F2F2"/>
<path d="M60.9089 42.2485L59.6765 45.3233L86.7345 56.1683L98.812 26.0355L60.9089 42.2485Z" fill="#ECECEC"/>
<path d="M59.6719 45.3228L58.4888 48.2744C57.7809 50.0406 58.6388 52.0461 60.405 52.754L81.0673 61.0356C82.8335 61.7435 84.839 60.8856 85.5469 59.1195L86.7299 56.1678L59.6719 45.3228Z" fill="#7562E0"/>
<path d="M87.4918 34.1697L87.0237 33.9821L86.4535 34.2246L86.2209 34.3234L78.3578 31.1718L78.0125 31.3189L77.609 31.4899L85.4677 34.6398L84.0964 35.2255L82.943 35.7079L81.7027 36.2348L81.4697 36.3347L72.8014 32.8604L68.8757 34.5281L70.8154 35.3055C71.0386 35.3952 71.2775 35.44 71.5181 35.4372C71.7588 35.4344 71.9966 35.384 72.2179 35.289L73.7371 34.6371L80.5462 37.3662C80.8922 37.5055 81.2624 37.575 81.6355 37.5708C82.0086 37.5666 82.3772 37.4887 82.7203 37.3416L87.5077 35.2846C87.6186 35.2386 87.7132 35.1603 87.7792 35.0598C87.8451 34.9594 87.8795 34.8415 87.8778 34.7214C87.8761 34.6013 87.8383 34.4845 87.7695 34.3861C87.7007 34.2878 87.604 34.2124 87.4918 34.1697Z" fill="#7562E0"/>
<path d="M81.5856 26.9557L79.2285 27.9566L89.7218 32.1624L92.08 31.1619L81.5856 26.9557Z" fill="#23D627"/>
<path d="M72.8709 32.2248L81.462 35.6682L82.7023 35.1413L83.8515 34.6534L76.0016 31.5071L76.8477 31.1473L78.3587 30.5061L86.2119 33.6538L88.5701 32.6533L78.0757 28.447L72.8561 30.6636C72.7024 30.7291 72.5714 30.8387 72.4799 30.9786C72.3884 31.1185 72.3403 31.2825 72.3419 31.4496C72.3435 31.6168 72.3946 31.7797 72.4888 31.9177C72.5829 32.0557 72.7159 32.1626 72.8709 32.2248Z" fill="#23D627"/>
<path d="M4.39453 37.3604H65.9295V63.7324H4.39453V37.3604Z" fill="#F2F2F2"/>
<path d="M4.39453 37.3604V53.2902C8.43386 55.0549 12.8907 56.0406 17.5806 56.0406C30.6688 56.0406 41.9759 48.4125 47.2976 37.3604H4.39453Z" fill="#E0E0E0"/>
<path d="M8.79102 41.7559H39.5585V63.7326H8.79102V41.7559Z" fill="#7562E0"/>
<path d="M13.1855 46.1509H35.1623V63.7323H13.1855V46.1509Z" fill="#ECECEC"/>
<path d="M2.19727 63.7329H68.1275V68.1283H2.19727V63.7329Z" fill="#7562E0"/>
<path d="M46.1504 41.7559H61.5341V63.7326H46.1504V41.7559Z" fill="#7562E0"/>
<path d="M50.5469 46.1509H57.1399V52.7439H50.5469V46.1509Z" fill="#ECECEC"/>
<path d="M3.29688 28.5698H65.9307V37.3605H3.29688V28.5698Z" fill="#6AB84C"/>
<path d="M50.0821 28.5698H3.29688V37.3605H47.2988C48.6185 34.62 49.5624 31.6674 50.0821 28.5698Z" fill="#23D627"/>
<path d="M2.19727 6.59326H68.1275V24.1747H2.19727V6.59326Z" fill="#7562E0"/>
<path d="M2.19727 24.1747H50.5187C50.5308 23.8088 50.5461 23.4439 50.5461 23.0758C50.5461 17.0696 48.932 11.4435 46.1255 6.59326H2.19727V24.1747Z" fill="#7562E0"/>
<path d="M4.39453 2.19775H65.9295V6.59311H4.39453V2.19775Z" fill="#F2F2F2"/>
<path d="M43.0901 2.19775H4.39453V6.59311H46.1251C45.2285 5.04484 44.2164 3.5735 43.0901 2.19775Z" fill="#E0E0E0"/>
<path d="M4.39453 24.1743H65.9295V28.5697H4.39453V24.1743Z" fill="#F2F2F2"/>
<path d="M50.5183 24.1743H4.39453V28.5697H50.0809C50.3227 27.1335 50.4688 25.6665 50.5183 24.1743Z" fill="#E0E0E0"/>
<path d="M20.877 20.8775H16.4817C15.874 20.8775 15.3828 20.3853 15.3828 19.7787V10.988C15.3828 10.3814 15.874 9.88916 16.4817 9.88916H20.877C22.6945 9.88916 24.1735 11.3682 24.1735 13.1857C24.1735 14.0296 23.8549 14.7999 23.3318 15.3833C23.8549 15.9668 24.1735 16.7371 24.1735 17.581C24.1735 19.3985 22.6945 20.8775 20.877 20.8775ZM17.5805 18.6799H20.877C21.4836 18.6799 21.9758 18.1865 21.9758 17.581C21.9758 16.9756 21.4836 16.4822 20.877 16.4822H17.5805V18.6799ZM17.5805 14.2845H20.877C21.4836 14.2845 21.9758 13.7911 21.9758 13.1857C21.9758 12.5802 21.4836 12.0868 20.877 12.0868H17.5805V14.2845Z" fill="white"/>
<path d="M30.7664 9.88916C28.3424 9.88916 26.3711 11.8605 26.3711 14.2845V20.8775H28.5688V17.581H32.9641V20.8775H35.1618V14.2845C35.1618 11.8605 33.1905 9.88916 30.7664 9.88916ZM28.5688 15.3833V14.2845C28.5688 13.0725 29.5544 12.0868 30.7664 12.0868C31.9785 12.0868 32.9641 13.0725 32.9641 14.2845V15.3833H28.5688Z" fill="white"/>
<path d="M45.0512 20.8783C44.7117 20.8783 44.3842 20.72 44.1722 20.4387L39.557 14.2853V20.8783H37.3594V10.9887C37.3594 10.5151 37.6616 10.0965 38.111 9.94594C38.5615 9.7965 39.0538 9.95144 39.3373 10.3294L43.9524 16.4829V9.8899H46.1501V19.7794C46.1501 20.253 45.8479 20.6717 45.3985 20.8222C45.2842 20.8596 45.1666 20.8783 45.0512 20.8783Z" fill="white"/>
<path d="M49.9385 16.3668L48.9551 14.401L50.4012 13.678C51.8472 12.9549 52.7439 11.5034 52.7439 9.88916H54.9416C54.9416 12.3407 53.579 14.546 51.3857 15.6427L49.9385 16.3668Z" fill="white"/>
<path d="M51.3848 15.124L50.5453 14.7043V9.88916H48.3477V20.8775H50.5453V17.1745C51.9024 17.9195 52.743 19.3194 52.743 20.8775H54.9407C54.9407 18.426 53.5781 16.2207 51.3848 15.124Z" fill="white"/>
<path d="M23.0762 46.1509H25.2738V63.7323H23.0762V46.1509Z" fill="#7562E0"/>
<path d="M18.6797 28.5698H20.8774V37.3605H18.6797V28.5698Z" fill="white"/>
<path d="M49.4473 28.5698H51.6449V37.3605H49.4473V28.5698Z" fill="white"/>
<path d="M34.0645 28.5698H36.2621V37.3605H34.0645V28.5698Z" fill="white"/>
</svg>
