<svg width="95" height="93" viewBox="0 0 95 93" fill="none" xmlns="http://www.w3.org/2000/svg">
<path d="M47.3055 78.3774L42.105 63.8188C40.8585 60.3293 37.5531 58 33.8476 58H14.152C10.4466 58 7.14116 60.3292 5.89466 63.8188L0.694183 78.3774C-0.610999 82.0311 -0.0545949 86.0916 2.18527 89.2596C3.80883 91.5558 7.21128 91.5677 8.85087 89.2829L14.0159 82.0852C14.6564 81.1926 15.6877 80.6633 16.7863 80.6633H31.2133C32.312 80.6633 33.3432 81.1926 33.9837 82.0852L39.1488 89.2829C40.7884 91.5677 44.1908 91.5558 45.8144 89.2596C48.0543 86.0916 48.6107 82.0311 47.3055 78.3774Z" fill="#7562E0"/>
<path d="M47.3055 78.3774L42.1049 63.8188C40.8585 60.3293 37.553 58 33.8476 58H25.7793C29.4848 58 32.7902 60.3292 34.0367 63.8188L39.2372 78.3774C40.4053 81.6473 40.0812 85.2423 38.395 88.2325L39.1488 89.2829C40.7884 91.5677 44.1909 91.5558 45.8144 89.2596C48.0542 86.0916 48.6106 82.0311 47.3055 78.3774Z" fill="#6554C5"/>
<path d="M16.6343 64.0676H14.7786C14.671 64.0676 14.5838 63.9804 14.5838 63.8728V62.0171C14.5838 61.6943 14.3221 61.4326 13.9993 61.4326H11.9989C11.6761 61.4326 11.4144 61.6944 11.4144 62.0171V63.8728C11.4144 63.9804 11.3271 64.0676 11.2196 64.0676H9.36383C9.04095 64.0676 8.7793 64.3294 8.7793 64.6522V66.6525C8.7793 66.9754 9.04105 67.237 9.36383 67.237H11.2195C11.3271 67.237 11.4143 67.3243 11.4143 67.4318V69.2875C11.4143 69.6104 11.6761 69.8721 11.9988 69.8721H13.9992C14.3221 69.8721 14.5837 69.6103 14.5837 69.2875V67.4318C14.5837 67.3242 14.671 67.237 14.7785 67.237H16.6342C16.9571 67.237 17.2187 66.9753 17.2187 66.6525V64.6522C17.2188 64.3294 16.9571 64.0676 16.6343 64.0676Z" fill="#DAE7EF"/>
<path d="M16.6339 64.0669H15.948V65.3814C15.948 65.7042 15.6862 65.9659 15.3635 65.9659H13.995C13.6183 65.9659 13.3131 66.2712 13.3131 66.6478V68.0164C13.3131 68.3393 13.0513 68.6009 12.7285 68.6009H11.4141V69.2868C11.4141 69.6097 11.6758 69.8713 11.9986 69.8713H13.9989C14.3218 69.8713 14.5835 69.6096 14.5835 69.2868V67.4311C14.5835 67.3235 14.6707 67.2363 14.7783 67.2363H16.6339C16.9568 67.2363 17.2185 66.9745 17.2185 66.6518V64.6514C17.2184 64.3286 16.9566 64.0669 16.6339 64.0669Z" fill="#C1D5E4"/>
<path d="M29.4308 77.7682C31.3891 77.7682 32.9767 76.1806 32.9767 74.2223C32.9767 72.2639 31.3891 70.6763 29.4308 70.6763C27.4724 70.6763 25.8848 72.2639 25.8848 74.2223C25.8848 76.1806 27.4724 77.7682 29.4308 77.7682Z" fill="#DAE7EF"/>
<path d="M18.5792 77.7682C20.5376 77.7682 22.1252 76.1806 22.1252 74.2223C22.1252 72.2639 20.5376 70.6763 18.5792 70.6763C16.6208 70.6763 15.0332 72.2639 15.0332 74.2223C15.0332 76.1806 16.6208 77.7682 18.5792 77.7682Z" fill="#DAE7EF"/>
<path d="M30.3067 70.7856C30.3779 71.0658 30.4159 71.3592 30.4159 71.6615C30.4159 73.6199 28.8284 75.2074 26.8699 75.2074C26.5677 75.2074 26.2743 75.1694 25.9941 75.0982C26.3841 76.633 27.7748 77.7684 29.4309 77.7684C31.3893 77.7684 32.9769 76.1808 32.9769 74.2224C32.9769 72.5663 31.8415 71.1755 30.3067 70.7856Z" fill="#C1D5E4"/>
<path d="M19.4571 70.7856C19.5283 71.0658 19.5663 71.3592 19.5663 71.6615C19.5663 73.6199 17.9788 75.2074 16.0203 75.2074C15.7181 75.2074 15.4247 75.1694 15.1445 75.0982C15.5344 76.633 16.9252 77.7684 18.5813 77.7684C20.5397 77.7684 22.1273 76.1808 22.1273 74.2224C22.1273 72.5663 20.9919 71.1756 19.4571 70.7856Z" fill="#C1D5E4"/>
<path d="M24.0149 66.8964C25.1794 66.8964 26.1235 65.9524 26.1235 64.7878C26.1235 63.6233 25.1794 62.6792 24.0149 62.6792C22.8503 62.6792 21.9062 63.6233 21.9062 64.7878C21.9062 65.9524 22.8503 66.8964 24.0149 66.8964Z" fill="#DAE7EF"/>
<path d="M24.8439 62.8481C24.9527 63.1024 25.013 63.3823 25.013 63.6763C25.013 64.8409 24.0689 65.7849 22.9044 65.7849C22.6104 65.7849 22.3304 65.7246 22.0762 65.6159C22.398 66.3687 23.1452 66.8963 24.0158 66.8963C25.1803 66.8963 26.1244 65.9523 26.1244 64.7877C26.1244 63.9172 25.5968 63.17 24.8439 62.8481Z" fill="#C1D5E4"/>
<path d="M34.9591 61.8481C34.3054 61.8481 33.7754 62.3781 33.7754 63.0318C33.7754 63.6855 34.3054 64.2155 34.9591 64.2155C35.6129 64.2155 36.1428 63.6855 36.1428 63.0318C36.1428 62.3781 35.6129 61.8481 34.9591 61.8481Z" fill="#F6E266"/>
<path d="M34.9591 69.4767C35.6129 69.4767 36.1428 68.9468 36.1428 68.2931C36.1428 67.6393 35.6128 67.1094 34.9591 67.1094C34.3054 67.1094 33.7754 67.6393 33.7754 68.2931C33.7754 68.9468 34.3054 69.4767 34.9591 69.4767Z" fill="#86F1A7"/>
<path d="M37.5899 66.8454C38.2437 66.8454 38.7736 66.3154 38.7736 65.6617C38.7736 65.008 38.2437 64.478 37.5899 64.478C36.9362 64.478 36.4062 65.008 36.4062 65.6617C36.4062 66.3154 36.9362 66.8454 37.5899 66.8454Z" fill="#DD5790"/>
<path d="M33.5139 65.6617C33.5139 65.008 32.984 64.478 32.3302 64.478C31.6765 64.478 31.1465 65.008 31.1465 65.6617C31.1465 66.3154 31.6765 66.8454 32.3302 66.8454C32.984 66.8455 33.5139 66.3154 33.5139 65.6617Z" fill="#61A2F9"/>
<path d="M29.4307 78.4714C27.0878 78.4714 25.1816 76.5652 25.1816 74.2223C25.1816 71.8793 27.0878 69.9731 29.4307 69.9731C31.7737 69.9731 33.6799 71.8794 33.6799 74.2223C33.6799 76.5651 31.7738 78.4714 29.4307 78.4714ZM29.4307 71.3794C27.8632 71.3794 26.5879 72.6548 26.5879 74.2223C26.5879 75.7897 27.8633 77.0651 29.4307 77.0651C30.9982 77.0651 32.2736 75.7898 32.2736 74.2223C32.2736 72.6547 30.9983 71.3794 29.4307 71.3794Z" fill="#70C250"/>
<path d="M18.5811 78.4714C16.2381 78.4714 14.332 76.5651 14.332 74.2223C14.332 71.8794 16.2381 69.9731 18.5811 69.9731C20.9241 69.9731 22.8302 71.8794 22.8302 74.2223C22.8302 76.5651 20.9241 78.4714 18.5811 78.4714ZM18.5811 71.3794C17.0136 71.3794 15.7383 72.6548 15.7383 74.2223C15.7383 75.7897 17.0136 77.0651 18.5811 77.0651C20.1486 77.0651 21.424 75.7897 21.424 74.2223C21.424 72.6548 20.1486 71.3794 18.5811 71.3794Z" fill="#70C250"/>
<path d="M86.2384 35.0078C86.2384 32.7198 84.3838 30.8652 82.0958 30.8652H55.33C53.0421 30.8652 51.1875 32.7198 51.1875 35.0078V38.8313H86.2384V35.0078Z" fill="#7562E0"/>
<path d="M51.1875 38.8301H86.2384V83.4402H51.1875V38.8301Z" fill="#F2F2F2"/>
<path d="M51.1875 79.4571V83.4402H86.2384V44.4062L51.1875 79.4571Z" fill="#ECECEC"/>
<path d="M51.1875 83.4404V87.264C51.1875 89.5519 53.0421 91.4065 55.33 91.4065H82.0958C84.3838 91.4065 86.2384 89.5519 86.2384 87.264V83.4404H51.1875Z" fill="#7562E0"/>
<path d="M19.3223 37.2373H22.5087V40.4237H19.3223V37.2373Z" fill="#70C250"/>
<path d="M19.3223 43.6104H22.5087V46.7968H19.3223V43.6104Z" fill="#70C250"/>
<path d="M19.3223 49.9829H22.5087V53.1693H19.3223V49.9829Z" fill="#70C250"/>
<path d="M48 16.5254H51.1864V19.7118H48V16.5254Z" fill="#70C250"/>
<path d="M41.627 16.5254H44.8134V19.7118H41.627V16.5254Z" fill="#70C250"/>
<path d="M54.373 16.5254H57.5595V19.7118H54.373V16.5254Z" fill="#70C250"/>
<path d="M60.7461 16.5254H63.9325V19.7118H60.7461V16.5254Z" fill="#70C250"/>
<path d="M67.1191 16.5254H70.3056V19.7118H67.1191V16.5254Z" fill="#70C250"/>
<path d="M67.1191 22.8984H70.3056V26.0849H67.1191V22.8984Z" fill="#70C250"/>
<path d="M1 7.96582H39.2373V33.4573H1V7.96582Z" fill="#F2F2F2"/>
<path d="M10.5593 7.9661H1L4.18644 0H12.1525L10.5593 7.9661Z" fill="#7562E0"/>
<path d="M29.6785 7.9661H20.1191V0H28.0852L29.6785 7.9661Z" fill="#7562E0"/>
<path d="M20.1179 7.9661H10.5586L12.1518 0H20.1179V7.9661Z" fill="#70C250"/>
<path d="M39.2365 7.9661H29.6772L28.084 0H36.0501L39.2365 7.9661Z" fill="#70C250"/>
<path d="M1 7.96582H10.5593V9.55904C10.5593 12.1986 8.41921 14.3387 5.77966 14.3387C3.14011 14.3387 1 12.1986 1 9.55904V7.96582Z" fill="#6856D0"/>
<path d="M20.1191 7.96582H29.6785V9.55904C29.6785 12.1986 27.5384 14.3387 24.8988 14.3387C22.2593 14.3387 20.1191 12.1986 20.1191 9.55904V7.96582Z" fill="#6856D0"/>
<path d="M10.5586 7.96582H20.1179V9.55904C20.1179 12.1986 17.9778 14.3387 15.3383 14.3387C12.6987 14.3387 10.5586 12.1986 10.5586 9.55904V7.96582Z" fill="#6AB84C"/>
<path d="M29.6777 7.96582H39.2371V9.55904C39.2371 12.1986 37.0969 14.3387 34.4574 14.3387C31.8178 14.3387 29.6777 12.1986 29.6777 9.55904V7.96582Z" fill="#6AB84C"/>
<path d="M7.37305 20.7119H18.5256V27.0848H7.37305V20.7119Z" fill="#BDEAF9"/>
<path d="M24.8984 20.7119H32.8645V33.4577H24.8984V20.7119Z" fill="#BDEAF9"/>
<path d="M7.37305 20.7119H18.5256V23.8984H7.37305V20.7119Z" fill="#5ECDF3"/>
<path d="M24.8984 20.7119H32.8645V23.8984H24.8984V20.7119Z" fill="#5ECDF3"/>
<path d="M77.2441 58.547H76.6377L76.1098 59.0727L75.8943 59.287H65.7085L65.3889 59.6056L65.015 59.9771H75.1952L73.9268 61.2443L72.8553 62.2986L71.7067 63.4416L71.4912 63.6573H60.2624L56.627 67.2746H59.1395C59.4289 67.275 59.7155 67.2181 59.9828 67.1073C60.2502 66.9965 60.4931 66.8339 60.6976 66.6289L62.1015 65.2217H70.922C71.3705 65.2223 71.8148 65.1343 72.2293 64.9627C72.6438 64.7911 73.0204 64.5392 73.3375 64.2216L77.7606 59.7842C77.8637 59.6832 77.9342 59.5535 77.9629 59.4119C77.9916 59.2703 77.9773 59.1234 77.9216 58.9901C77.866 58.8568 77.7716 58.7433 77.6508 58.6643C77.53 58.5853 77.3883 58.5444 77.2441 58.547Z" fill="#7562E0"/>
<path d="M67.4252 53.1396L65.2422 55.3112H78.8352L81.0196 53.1396H67.4252Z" fill="#23D627"/>
<path d="M60.0528 62.9201H71.1817L72.3303 61.7772L73.3947 60.7186H63.226L64.0093 59.9385L65.409 58.547H75.582L77.7664 56.3755H64.1719L59.338 61.1843C59.1956 61.3261 59.0985 61.5071 59.059 61.7042C59.0194 61.9013 59.0391 62.1057 59.1157 62.2916C59.1922 62.4775 59.3221 62.6364 59.4889 62.7483C59.6558 62.8602 59.852 62.92 60.0528 62.9201Z" fill="#23D627"/>
<path d="M86.2363 54.7627L92.7259 62.5491C93.6797 63.6942 94.2024 65.1381 94.2024 66.6294V93H86.2363V54.7627Z" fill="#FEC9A3"/>
<path d="M78.2708 59.5424C76.5111 57.7827 73.6576 57.7827 71.8979 59.5424C70.1382 61.3021 70.1382 64.1556 71.8979 65.9153L81.4572 75.4746L81.3141 75.715C78.4684 80.4558 78.5236 86.3922 81.4572 91.0785V93H89.4233V70.695L78.2708 59.5424Z" fill="#FEC9A3"/>
</svg>
