<svg width="91" height="82" viewBox="0 0 91 82" fill="none" xmlns="http://www.w3.org/2000/svg">
<path d="M12.2056 80.3722H6.97462C5.12484 80.3722 3.35082 79.6373 2.04282 78.3293C0.734824 77.0213 0 75.2473 0 73.3975V40.2681H3.48731V73.3975C3.48731 74.3224 3.85472 75.2094 4.50872 75.8634C5.16272 76.5174 6.04973 76.8848 6.97462 76.8848H12.2056V80.3722Z" fill="#E0E0E0"/>
<path d="M3.48731 33.2935H0V36.7808H3.48731V33.2935Z" fill="#E0E0E0"/>
<g clip-path="url(#clip0_524:9502)">
<path d="M90.0156 7.36719C90.0156 3.38682 86.789 0.160156 82.8086 0.160156H15.2227C11.2423 0.160156 8.01562 3.38682 8.01562 7.36719V21.7812L9.61719 23.3828H88.4141C89.0395 22.7574 89.3902 22.4067 90.0156 21.7812V7.36719Z" fill="#7562E0"/>
<path d="M90.0156 7.36719V21.7812C89.3894 22.4075 89.0403 22.7566 88.4141 23.3828H49.0156V0.160156H82.8086C86.7885 0.160156 90.0156 3.3873 90.0156 7.36719Z" fill="#6B5ACC"/>
<path d="M8.01562 21.7812V65.0234C8.01562 68.9974 11.2487 72.2305 15.2227 72.2305H82.8086C86.7825 72.2305 90.0156 68.9974 90.0156 65.0234V21.7812H8.01562Z" fill="#F2F2F2"/>
<path d="M90.0156 21.7812V65.0234C90.0156 68.9969 86.7821 72.2305 82.8086 72.2305H49.0156V21.7812H90.0156Z" fill="#E0E0E0"/>
<path d="M39.4062 48.207H20.1875C18.8608 48.207 17.7852 49.2826 17.7852 50.6094V60.2188C17.7852 61.5455 18.8608 62.6211 20.1875 62.6211H39.4062C40.733 62.6211 41.8086 61.5455 41.8086 60.2188V50.6094C41.8086 49.2826 40.733 48.207 39.4062 48.207Z" fill="#FFDA2D"/>
<path d="M63.4297 28.9883H20.1875C18.8608 28.9883 17.7852 30.0639 17.7852 31.3906C17.7852 32.7174 18.8608 33.793 20.1875 33.793H63.4297C64.7564 33.793 65.832 32.7174 65.832 31.3906C65.832 30.0639 64.7564 28.9883 63.4297 28.9883Z" fill="#70C250"/>
<path d="M65.832 31.3906C65.832 32.7167 64.7558 33.793 63.4297 33.793H49.0156V28.9883H63.4297C64.7558 28.9883 65.832 30.0645 65.832 31.3906Z" fill="#70C250"/>
<path d="M53.8203 38.5977H20.1875C18.8608 38.5977 17.7852 39.6733 17.7852 41C17.7852 42.3267 18.8608 43.4023 20.1875 43.4023H53.8203C55.147 43.4023 56.2227 42.3267 56.2227 41C56.2227 39.6733 55.147 38.5977 53.8203 38.5977Z" fill="#70C250"/>
<path d="M56.2227 41C56.2227 42.3261 55.1464 43.4023 53.8203 43.4023H49.0156V38.5977H53.8203C55.1464 38.5977 56.2227 39.6739 56.2227 41Z" fill="#70C250"/>
<path d="M80.2461 53.0117V79.4375C80.2461 80.7642 79.1705 81.8398 77.8438 81.8398H58.625C57.2983 81.8398 56.2227 80.7642 56.2227 79.4375V53.0117L57.8242 51.4102H78.6445L80.2461 53.0117Z" fill="#7562E0"/>
<path d="M80.2461 53.0117V79.4375C80.2461 80.7636 79.1698 81.8398 77.8438 81.8398H68.2344V51.4102H78.6445L80.2461 53.0117Z" fill="#7562E0"/>
<path d="M70.7969 53.0117V81.8398H65.9922V53.0117L67.5938 51.4102H69.1953L70.7969 53.0117Z" fill="#7562E0"/>
<path d="M70.7969 53.0117V81.8398H68.2344V51.4102H69.1953L70.7969 53.0117Z" fill="#6B5ACC"/>
<path d="M20.1875 14.5742C21.5143 14.5742 22.5898 13.4987 22.5898 12.1719C22.5898 10.8451 21.5143 9.76953 20.1875 9.76953C18.8607 9.76953 17.7852 10.8451 17.7852 12.1719C17.7852 13.4987 18.8607 14.5742 20.1875 14.5742Z" fill="#70C250"/>
<path d="M29.7969 14.5742C31.1237 14.5742 32.1992 13.4987 32.1992 12.1719C32.1992 10.8451 31.1237 9.76953 29.7969 9.76953C28.4701 9.76953 27.3945 10.8451 27.3945 12.1719C27.3945 13.4987 28.4701 14.5742 29.7969 14.5742Z" fill="#70C250"/>
<path d="M39.4062 14.5742C40.733 14.5742 41.8086 13.4987 41.8086 12.1719C41.8086 10.8451 40.733 9.76953 39.4062 9.76953C38.0795 9.76953 37.0039 10.8451 37.0039 12.1719C37.0039 13.4987 38.0795 14.5742 39.4062 14.5742Z" fill="#70C250"/>
<path d="M77.8438 9.76953H63.4297C62.103 9.76953 61.0273 10.8451 61.0273 12.1719C61.0273 13.4986 62.103 14.5742 63.4297 14.5742H77.8438C79.1705 14.5742 80.2461 13.4986 80.2461 12.1719C80.2461 10.8451 79.1705 9.76953 77.8438 9.76953Z" fill="#7562E0"/>
<path d="M70.2333 37.2653C69.2853 35.8433 67.1871 35.8379 66.2355 37.2653L56.6261 51.6794C56.363 52.074 56.2227 52.5377 56.2227 53.0119H80.2461C80.2461 52.5377 80.1058 52.074 79.8427 51.6794L70.2333 37.2653Z" fill="#79CC52"/>
<path d="M80.2461 53.0116H68.2344V36.1968C68.9967 36.1968 69.7591 36.5539 70.2331 37.265L79.8425 51.6791C80.1052 52.0731 80.2461 52.5375 80.2461 53.0116Z" fill="#70C250"/>
<path d="M51.646 77.0679H28.9785V80.5552H51.646V77.0679Z" fill="#E0E0E0"/>
</g>
<defs>
<clipPath id="clip0_524:9502">
<rect width="82" height="82" fill="white" transform="translate(8.01562)"/>
</clipPath>
</defs>
</svg>
