<svg width="99" height="78" viewBox="0 0 99 78" fill="none" xmlns="http://www.w3.org/2000/svg">
<path d="M37 3H99V14C99 20.0751 94.0751 25 88 25H37V3Z" fill="#7562E0"/>
<path d="M47.582 7.15039H51.5811C53.4033 7.15039 54.7246 7.41113 55.5449 7.93262C56.3711 8.44824 56.7842 9.27148 56.7842 10.4023C56.7842 11.1699 56.6025 11.7998 56.2393 12.292C55.8818 12.7842 55.4043 13.0801 54.8066 13.1797V13.2676C55.6211 13.4492 56.207 13.7891 56.5645 14.2871C56.9277 14.7852 57.1094 15.4473 57.1094 16.2734C57.1094 17.4453 56.6846 18.3594 55.835 19.0156C54.9912 19.6719 53.8428 20 52.3896 20H47.582V7.15039ZM50.3066 12.2393H51.8887C52.627 12.2393 53.1602 12.125 53.4883 11.8965C53.8223 11.668 53.9893 11.29 53.9893 10.7627C53.9893 10.2705 53.8076 9.91895 53.4443 9.70801C53.0869 9.49121 52.5186 9.38281 51.7393 9.38281H50.3066V12.2393ZM50.3066 14.4014V17.75H52.082C52.832 17.75 53.3857 17.6064 53.7432 17.3193C54.1006 17.0322 54.2793 16.5928 54.2793 16.001C54.2793 14.9346 53.5176 14.4014 51.9941 14.4014H50.3066ZM67.0762 20H59.6758V7.15039H67.0762V9.38281H62.4004V12.2041H66.751V14.4365H62.4004V17.75H67.0762V20ZM74.7227 20H71.998V9.41797H68.5088V7.15039H78.2119V9.41797H74.7227V20ZM88.0557 20L87.124 16.9414H82.4395L81.5078 20H78.5723L83.1074 7.09766H86.4385L90.9912 20H88.0557ZM86.4736 14.6562C85.6123 11.8848 85.126 10.3174 85.0146 9.9541C84.9092 9.59082 84.833 9.30371 84.7861 9.09277C84.5928 9.84277 84.0391 11.6973 83.125 14.6562H86.4736Z" fill="white"/>
<path d="M43 5.2002C43 2.32812 40.7248 0 37.918 0H5.08201C2.27521 0 0 2.32812 0 5.2002V10H43V5.2002Z" fill="#7562E0"/>
<path d="M0 10H43V66H0V10Z" fill="#F2F2F2"/>
<path d="M0 61.102V66H43V18L0 61.102Z" fill="#ECECEC"/>
<path d="M0 66V70.7998C0 73.6719 2.27521 76 5.08201 76H37.918C40.7248 76 43 73.6719 43 70.7998V66H0Z" fill="#7562E0"/>
<path d="M32.7104 34.8478H31.9491L31.2864 35.5078L31.0159 35.7768H18.2289L17.8276 36.1768L17.3584 36.6431H30.1383L28.5459 38.2339L27.2008 39.5575L25.7589 40.9923L25.4884 41.2632H11.392L6.82812 45.8043H9.98236C10.3456 45.8047 10.7054 45.7333 11.041 45.5942C11.3767 45.4551 11.6816 45.251 11.9383 44.9936L13.7008 43.227H24.7738C25.3368 43.2279 25.8946 43.1174 26.4149 42.9019C26.9353 42.6865 27.4081 42.3703 27.8062 41.9716L33.3588 36.401C33.4883 36.2742 33.5768 36.1114 33.6129 35.9336C33.6489 35.7559 33.6308 35.5714 33.561 35.4041C33.4911 35.2367 33.3727 35.0942 33.221 34.9951C33.0694 34.8959 32.8915 34.8446 32.7104 34.8478Z" fill="#7562E0"/>
<path d="M20.3831 28.0596L17.6426 30.7857H34.707L37.4492 28.0596H20.3831Z" fill="#23D627"/>
<path d="M11.13 40.3371H25.1011L26.543 38.9023L27.8792 37.5733H15.1136L16.0969 36.5941L17.854 34.8472H30.625L33.3673 32.1211H16.3011L10.2327 38.158C10.054 38.336 9.93208 38.5632 9.8824 38.8106C9.83272 39.0581 9.8575 39.3147 9.95359 39.548C10.0497 39.7814 10.2128 39.9809 10.4222 40.1214C10.6316 40.2619 10.878 40.3369 11.13 40.3371Z" fill="#23D627"/>
<path d="M43 29L51.9611 38.978C53.2781 40.4455 54 42.2958 54 44.2068V78H43V29Z" fill="#FEC9A3"/>
<path d="M34.7969 36.6318C32.5558 34.4561 28.9218 34.4561 26.6808 36.6318C24.4397 38.8076 24.4397 42.3357 26.6808 44.5115L38.8549 56.331L38.6726 56.6282C35.0485 62.4898 35.1188 69.8299 38.8549 75.6242V78H49V50.4212L34.7969 36.6318Z" fill="#FEC9A3"/>
</svg>
