<svg width="100" height="106" viewBox="0 0 100 106" fill="none" xmlns="http://www.w3.org/2000/svg">
<path d="M33.3648 78.1274C33.0653 78.2076 32.735 78.1735 32.4454 78.0063C31.8657 77.6717 31.6671 76.9306 32.0018 76.3509L43.1505 57.0408C43.4851 56.4613 44.2262 56.2627 44.8059 56.5973C45.3856 56.9318 45.5841 57.6729 45.2494 58.2527L34.1006 77.5626C33.9334 77.8524 33.6644 78.0471 33.3648 78.1274Z" fill="#024C67"/>
<path d="M34.2084 82.3787C37.0098 81.6281 38.6722 78.7486 37.9216 75.9473C37.171 73.146 34.2916 71.4835 31.4902 72.2342C28.6889 72.9848 27.0265 75.8642 27.7771 78.6655C28.5277 81.4669 31.4071 83.1293 34.2084 82.3787Z" fill="#5ECDF3"/>
<path d="M35.474 72.7584C33.4396 71.5838 30.9462 71.9257 29.3015 73.4325C29.8123 73.5457 30.3149 73.7374 30.792 74.0129C33.3036 75.463 34.1642 78.6745 32.7141 81.1861C32.4386 81.6633 32.0992 82.0806 31.7134 82.434C33.8913 82.9168 36.2215 81.966 37.3961 79.9316C38.8463 77.42 37.9858 74.2084 35.474 72.7584Z" fill="#BDEAF9"/>
<path d="M21.983 68.7567C21.6835 68.837 21.3532 68.8029 21.0635 68.6357C20.4838 68.3011 20.2852 67.56 20.6199 66.9803L23.095 62.6934C23.4876 62.0134 24.19 61.5777 24.973 61.5269L32.4422 61.0452L35.6416 55.5036C35.9762 54.924 36.7174 54.7254 37.2971 55.06C37.8767 55.3945 38.0753 56.1357 37.7406 56.7154L34.5197 62.2943C34.1274 62.9742 33.4248 63.4101 32.6415 63.461L25.1723 63.9427L22.7189 68.1921C22.5514 68.482 22.2825 68.6765 21.983 68.7567Z" fill="#024C67"/>
<path d="M47.1697 83.2987C46.8702 83.379 46.5399 83.3449 46.2502 83.1777C45.6705 82.8431 45.4719 82.102 45.8066 81.5223L48.26 77.2728L44.9426 70.5635C44.5946 69.8596 44.6213 69.0334 45.0139 68.3534L48.2349 62.7747C48.5695 62.1952 49.3106 61.9966 49.8903 62.3312C50.47 62.6657 50.6686 63.4068 50.3339 63.9866L47.1344 69.5282L50.4519 76.2376C50.7997 76.9413 50.7733 77.7674 50.3806 78.4472L47.9056 82.7341C47.7382 83.0238 47.4694 83.2184 47.1697 83.2987Z" fill="#024C67"/>
<path d="M47.5171 85.6999C49.2966 85.2231 50.3526 83.394 49.8758 81.6145C49.399 79.835 47.5699 78.779 45.7904 79.2558C44.0109 79.7326 42.9549 81.5617 43.4317 83.3412C43.9085 85.1207 45.7376 86.1767 47.5171 85.6999Z" fill="#5ECDF3"/>
<path d="M48.3213 79.5897C46.9842 78.8177 45.337 79.0798 44.2957 80.1233C44.5706 80.1972 44.8409 80.3039 45.0993 80.4531C46.6948 81.3742 47.2414 83.4143 46.3203 85.0098C46.1712 85.268 45.9903 85.4957 45.7892 85.6972C47.2127 86.0802 48.7703 85.4837 49.5423 84.1464C50.4635 82.5509 49.9168 80.5109 48.3213 79.5897Z" fill="#BDEAF9"/>
<path d="M22.3296 71.1589C24.1091 70.682 25.1651 68.853 24.6883 67.0735C24.2115 65.294 22.3824 64.238 20.6029 64.7148C18.8234 65.1916 17.7674 67.0207 18.2442 68.8002C18.721 70.5796 20.5501 71.6357 22.3296 71.1589Z" fill="#5ECDF3"/>
<path d="M23.1338 65.0482C21.7967 64.2762 20.1495 64.5383 19.1082 65.5818C19.3831 65.6557 19.6534 65.7624 19.9118 65.9116C21.5073 66.8327 22.0539 68.8728 21.1328 70.4683C20.9837 70.7264 20.8028 70.9542 20.6017 71.1557C22.0252 71.5387 23.5828 70.9422 24.3548 69.6049C25.276 68.0094 24.7293 65.9694 23.1338 65.0482Z" fill="#BDEAF9"/>
<path d="M59.2672 36.1092C58.9676 36.1894 58.6373 36.1553 58.3477 35.9881C57.768 35.6535 57.5694 34.9124 57.9041 34.3327L69.0528 15.0228C69.3874 14.4432 70.1285 14.2446 70.7082 14.5792C71.2879 14.9137 71.4865 15.6549 71.1518 16.2346L60.0029 35.5446C59.8357 35.8344 59.5667 36.0289 59.2672 36.1092Z" fill="#024C67"/>
<path d="M71.6616 20.3513C74.4629 19.6007 76.1253 16.7213 75.3747 13.92C74.6241 11.1186 71.7447 9.45619 68.9434 10.2068C66.142 10.9574 64.4796 13.8368 65.2302 16.6382C65.9808 19.4395 68.8602 21.102 71.6616 20.3513Z" fill="#70C250"/>
<path d="M72.9311 10.7305C70.8967 9.55595 68.4033 9.89784 66.7585 11.4047C67.2693 11.5179 67.7719 11.7096 68.2491 11.9851C70.7607 13.4351 71.6212 16.6467 70.1711 19.1583C69.8956 19.6354 69.5562 20.0528 69.1705 20.4062C71.3483 20.8889 73.6786 19.9382 74.8531 17.9037C76.3032 15.3922 75.4427 12.1806 72.9311 10.7305Z" fill="#70C250"/>
<path d="M66.776 37.6454C66.4765 37.7257 66.1462 37.6916 65.8565 37.5243C65.2768 37.1898 65.0782 36.4487 65.4129 35.8689L68.6339 30.2901C69.0264 29.6103 69.7286 29.1743 70.512 29.1234L77.9812 28.6416L80.4346 24.3922C80.7692 23.8127 81.5103 23.6141 82.09 23.9487C82.6697 24.2832 82.8683 25.0243 82.5336 25.6041L80.0586 29.8909C79.666 30.5709 78.9641 31.0068 78.1805 31.0575L70.7113 31.5392L67.5119 37.0808C67.3445 37.3706 67.0756 37.5651 66.776 37.6454Z" fill="#024C67"/>
<path d="M54.1814 30.3744C53.8819 30.4547 53.5516 30.4206 53.2619 30.2533C52.6822 29.9188 52.4837 29.1777 52.8184 28.5979L56.0178 23.0563L52.7004 16.3469C52.3525 15.6432 52.379 14.8171 52.7716 14.1373L55.2466 9.8504C55.5812 9.27087 56.3223 9.07228 56.902 9.40684C57.4817 9.74139 57.6803 10.4825 57.3456 11.0622L54.8922 15.3117L58.2096 22.021C58.5577 22.7249 58.5309 23.5511 58.1383 24.2311L54.9173 29.8098C54.75 30.0996 54.4809 30.2942 54.1814 30.3744Z" fill="#024C67"/>
<path d="M57.3608 13.3288C59.1403 12.852 60.1963 11.0229 59.7195 9.2434C59.2427 7.46392 57.4136 6.4079 55.6341 6.88471C53.8547 7.36152 52.7986 9.1906 53.2755 10.9701C53.7523 12.7496 55.5813 13.8056 57.3608 13.3288Z" fill="#7562E0"/>
<path d="M58.1651 7.21765C56.8279 6.44565 55.1807 6.70776 54.1394 7.75123C54.4143 7.82517 54.6847 7.93183 54.943 8.08099C56.5385 9.00215 57.0852 11.0422 56.164 12.6377C56.015 12.8959 55.834 13.1236 55.6329 13.3251C57.0565 13.7081 58.6141 13.1117 59.386 11.7744C60.3072 10.1789 59.7606 8.13881 58.1651 7.21765Z" fill="#7562E0"/>
<path d="M82.5483 27.8708C84.3278 27.394 85.3838 25.5649 84.907 23.7854C84.4302 22.0059 82.6011 20.9499 80.8216 21.4267C79.0422 21.9035 77.9861 23.7326 78.463 25.5121C78.9398 27.2916 80.7688 28.3476 82.5483 27.8708Z" fill="#9446CE"/>
<path d="M83.3526 21.7601C82.0154 20.9881 80.3682 21.2502 79.3269 22.2937C79.6018 22.3676 79.8722 22.4743 80.1305 22.6235C81.726 23.5446 82.2727 25.5847 81.3515 27.1802C81.2025 27.4384 81.0215 27.6661 80.8204 27.8676C82.244 28.2506 83.8016 27.6541 84.5735 26.3168C85.4946 24.7214 84.9479 22.6813 83.3526 21.7601Z" fill="#9446CE"/>
<path d="M84.6958 66.454C84.3963 66.5343 84.066 66.5002 83.7763 66.333L64.4662 55.1842C63.8865 54.8496 63.688 54.1085 64.0227 53.5287C64.3573 52.9492 65.0984 52.7506 65.6781 53.0852L84.988 64.234C85.5677 64.5686 85.7663 65.3097 85.4316 65.8895C85.2643 66.1791 84.9955 66.3738 84.6958 66.454Z" fill="#024C67"/>
<path d="M86.0913 70.5593C88.8926 69.8087 90.555 66.9293 89.8044 64.128C89.0538 61.3266 86.1744 59.6642 83.373 60.4148C80.5717 61.1654 78.9093 64.0449 79.6599 66.8462C80.4105 69.6475 83.2899 71.31 86.0913 70.5593Z" fill="#70C250"/>
<path d="M87.3588 60.9385C85.3244 59.764 82.831 60.1058 81.1863 61.6127C81.697 61.7259 82.1997 61.9176 82.6768 62.1931C85.1884 63.6431 86.0489 66.8547 84.5989 69.3663C84.3234 69.8434 83.984 70.2608 83.5982 70.6142C85.7761 71.0969 88.1063 70.1462 89.2809 68.1118C90.7309 65.6002 89.8704 62.3886 87.3588 60.9385Z" fill="#70C250"/>
<path d="M75.3273 77.8367C75.0278 77.917 74.6974 77.8829 74.4078 77.7156L70.1209 75.2406C69.4409 74.8481 69.005 74.1459 68.9544 73.3626L68.4727 65.8934L62.9311 62.6939C62.3514 62.3594 62.1528 61.6182 62.4875 61.0385C62.8221 60.459 63.5632 60.2604 64.1429 60.5949L69.7218 63.8159C70.4017 64.2084 70.8378 64.9104 70.8885 65.694L71.3702 73.1633L75.6196 75.6167C76.1993 75.9512 76.3979 76.6923 76.0632 77.2721C75.8956 77.5618 75.6268 77.7564 75.3273 77.8367Z" fill="#024C67"/>
<path d="M89.8676 52.65C89.5681 52.7303 89.2378 52.6962 88.9481 52.5289L84.6987 50.0755L77.9893 53.393C77.2853 53.741 76.4592 53.7143 75.7793 53.3217L70.2006 50.1007C69.6209 49.7661 69.4223 49.025 69.757 48.4453C70.0916 47.8657 70.8327 47.6671 71.4124 48.0017L76.954 51.2011L83.6634 47.8837C84.3673 47.536 85.1933 47.5624 85.8731 47.9549L90.16 50.43C90.7397 50.7645 90.9382 51.5056 90.6035 52.0854C90.4362 52.3752 90.1673 52.5697 89.8676 52.65Z" fill="#024C67"/>
<path d="M90.7671 54.9035C92.5466 54.4267 93.6026 52.5976 93.1258 50.8181C92.649 49.0386 90.8199 47.9826 89.0404 48.4594C87.2609 48.9362 86.2049 50.7653 86.6817 52.5448C87.1585 54.3243 88.9876 55.3803 90.7671 54.9035Z" fill="#7562E0"/>
<path d="M91.5713 48.7933C90.2342 48.0213 88.587 48.2834 87.5457 49.3269C87.8206 49.4009 88.0909 49.5075 88.3493 49.6567C89.9448 50.5778 90.4914 52.6179 89.5703 54.2134C89.4212 54.4716 89.2403 54.6993 89.0392 54.9008C90.4627 55.2838 92.0203 54.6873 92.7923 53.3501C93.7133 51.7546 93.1667 49.7145 91.5713 48.7933Z" fill="#7562E0"/>
<path d="M76.2261 80.09C78.0055 79.6132 79.0616 77.7841 78.5848 76.0046C78.1079 74.2251 76.2789 73.1691 74.4994 73.6459C72.7199 74.1227 71.6639 75.9518 72.1407 77.7313C72.6175 79.5108 74.4466 80.5668 76.2261 80.09Z" fill="#5ECDF3"/>
<path d="M77.0303 73.9803C75.6932 73.2083 74.046 73.4705 73.0047 74.5139C73.2796 74.5879 73.5499 74.6945 73.8083 74.8437C75.4038 75.7648 75.9504 77.8049 75.0292 79.4004C74.8802 79.6586 74.6993 79.8863 74.4982 80.0878C75.9217 80.4708 77.4793 79.8744 78.2513 78.5371C79.1724 76.9416 78.6258 74.9015 77.0303 73.9803Z" fill="#BDEAF9"/>
<path d="M34.5532 42.2435C34.2537 42.3237 33.9234 42.2896 33.6337 42.1224L14.3236 30.9737C13.744 30.6391 13.5454 29.898 13.8801 29.3183C14.2147 28.7388 14.9558 28.5402 15.5355 28.8747L34.8455 40.0234C35.4252 40.358 35.6238 41.0991 35.2891 41.6788C35.1218 41.9687 34.8527 42.1632 34.5532 42.2435Z" fill="#024C67"/>
<path d="M15.9389 34.7947C18.7403 34.0441 20.4027 31.1647 19.6521 28.3633C18.9015 25.562 16.022 23.8996 13.2207 24.6502C10.4194 25.4008 8.75693 28.2802 9.50755 31.0815C10.2582 33.8829 13.1376 35.5453 15.9389 34.7947Z" fill="#70C250"/>
<path d="M17.2045 25.1749C15.1701 24.0003 12.6767 24.3422 11.032 25.849C11.5428 25.9622 12.0454 26.1539 12.5225 26.4294C15.0341 27.8795 15.8946 31.091 14.4446 33.6026C14.1691 34.0798 13.8297 34.4971 13.4439 34.8505C15.6218 35.3333 17.952 34.3825 19.1266 32.3481C20.5768 29.8365 19.7162 26.6249 17.2045 25.1749Z" fill="#70C250"/>
<path d="M36.0909 34.7342C35.7914 34.8144 35.4611 34.7803 35.1714 34.6131L29.5926 31.3921C28.9126 30.9997 28.4766 30.2977 28.4259 29.514L27.9442 22.0448L23.6947 19.5914C23.115 19.2568 22.9165 18.5157 23.2512 17.936C23.5858 17.3564 24.3269 17.1579 24.9066 17.4924L29.1935 19.9674C29.8734 20.3599 30.3094 21.0621 30.36 21.8455L30.8417 29.3147L36.3833 32.5141C36.963 32.8487 37.1616 33.5898 36.8269 34.1695C36.6595 34.4594 36.3904 34.6539 36.0909 34.7342ZM27.9816 22.0664L27.9831 22.066L27.9816 22.0664Z" fill="#024C67"/>
<path d="M28.8188 47.3277C28.5193 47.408 28.189 47.3739 27.8993 47.2067L22.3577 44.0072L15.6483 47.3246C14.9445 47.6723 14.1185 47.6459 13.4386 47.2534L9.15177 44.7784C8.57208 44.4438 8.3735 43.7027 8.7082 43.123C9.0428 42.5435 9.78392 42.3449 10.3636 42.6794L14.613 45.1328L21.3224 41.8154C22.0265 41.4676 22.8526 41.494 23.5324 41.8867L29.1111 45.1077C29.6908 45.4422 29.8894 46.1834 29.5547 46.7631C29.3872 47.053 29.1183 47.2475 28.8188 47.3277Z" fill="#024C67"/>
<path d="M10.271 46.7497C12.0505 46.2729 13.1065 44.4438 12.6297 42.6643C12.1529 40.8848 10.3238 39.8288 8.5443 40.3056C6.76482 40.7824 5.7088 42.6115 6.18561 44.391C6.66242 46.1705 8.4915 47.2265 10.271 46.7497Z" fill="#7562E0"/>
<path d="M11.0752 40.639C9.73809 39.867 8.09089 40.1291 7.04958 41.1726C7.32448 41.2466 7.59484 41.3532 7.8532 41.5024C9.4487 42.4235 9.99533 44.4636 9.07417 46.0591C8.92511 46.3173 8.7442 46.545 8.5431 46.7465C9.96664 47.1295 11.5242 46.533 12.2962 45.1958C13.2174 43.6003 12.6707 41.5602 11.0752 40.639Z" fill="#7562E0"/>
<path d="M24.814 21.5627C26.5934 21.0858 27.6495 19.2568 27.1726 17.4773C26.6958 15.6978 24.8667 14.6418 23.0873 15.1186C21.3078 15.5954 20.2518 17.4245 20.7286 19.204C21.2054 20.9834 23.0345 22.0395 24.814 21.5627Z" fill="#9446CE"/>
<path d="M25.6182 15.4515C24.2811 14.6795 22.6339 14.9416 21.5926 15.9851C21.8675 16.0591 22.1378 16.1657 22.3962 16.3149C23.9917 17.236 24.5383 19.2761 23.6171 20.8716C23.4681 21.1298 23.2872 21.3575 23.0861 21.559C24.5096 21.942 26.0672 21.3455 26.8392 20.0083C27.7603 18.4128 27.2137 16.3727 25.6182 15.4515Z" fill="#9446CE"/>
<path d="M54.8911 70.4276C66.215 67.3934 72.9574 55.8377 69.9509 44.6172C66.9444 33.3967 55.3274 26.7605 44.0036 29.7947C32.6798 32.8289 25.9373 44.3846 28.9438 55.6051C31.9503 66.8255 43.5673 73.4618 54.8911 70.4276Z" fill="#F6DF7F"/>
<path d="M44.0051 29.7941C43.2134 30.0062 42.445 30.2617 41.6997 30.5546C52.2165 28.9745 62.4788 35.4531 65.2703 45.8712C68.0619 56.2894 62.4136 67.0312 52.5159 70.921C53.3078 70.802 54.1009 70.639 54.8927 70.4269C66.1984 67.3975 72.9542 55.8191 69.9525 44.6165C66.9507 33.4139 55.3109 26.7647 44.0051 29.7941Z" fill="#EFD06F"/>
<path d="M53.4906 65.1923C61.9236 62.9326 66.9506 54.3483 64.7187 46.0186C62.4867 37.6889 53.8411 32.7681 45.408 35.0277C36.975 37.2874 31.948 45.8717 34.18 54.2014C36.4119 62.5311 45.0576 67.4519 53.4906 65.1923Z" fill="#FCF7BF"/>
<path d="M50.9085 48.4641L50.3043 48.626L48.8179 43.0785L49.4222 42.9165C50.2446 42.6962 51.1286 43.3189 51.3927 44.3046C51.5659 44.951 52.2303 45.3346 52.8767 45.1614C53.5233 44.9881 53.9068 44.3237 53.7336 43.6773C53.1236 41.4008 50.9081 40.0092 48.7947 40.5755L48.1904 40.7374L47.9039 39.6683C47.7307 39.0219 47.0663 38.6383 46.4199 38.8115C45.7733 38.9847 45.3898 39.6491 45.563 40.2956L45.8495 41.3647L45.2452 41.5266C43.1318 42.0929 41.9089 44.4057 42.5189 46.6823L43.0473 48.6545C43.6573 50.931 45.873 52.3225 47.9863 51.7562L48.5905 51.5944L50.077 57.1419L49.4726 57.3038C48.6502 57.5242 47.7663 56.9014 47.5022 55.9158C47.3289 55.2693 46.6645 54.8857 46.0181 55.0589C45.3716 55.2321 44.988 55.8966 45.1612 56.543C45.7712 58.8196 47.9867 60.2111 50.1001 59.6448L50.7044 59.4829L50.9909 60.552C51.1641 61.1984 51.8285 61.5821 52.475 61.4088C53.1215 61.2356 53.505 60.5712 53.3318 59.9248L53.0453 58.8556L53.6497 58.6937C55.763 58.1274 56.9859 55.8146 56.3759 53.538L55.8474 51.5657C55.5581 50.4858 54.9009 49.5677 53.997 48.9803C53.0525 48.3668 51.9558 48.1835 50.9085 48.4641ZM47.3592 49.4153C46.5366 49.6357 45.6527 49.0129 45.3886 48.0273L44.8602 46.0551C44.596 45.0693 45.0502 44.0882 45.8726 43.8678L46.477 43.7059L47.9634 49.2534L47.3592 49.4153ZM54.0348 54.1653C54.299 55.1511 53.8447 56.1323 53.0224 56.3526L52.418 56.5146L50.9316 50.9669L51.5357 50.805C51.9107 50.7046 52.3157 50.7782 52.6763 51.0127C53.0774 51.2733 53.3722 51.6925 53.5064 52.193L54.0348 54.1653Z" fill="#F6DF7F"/>
<path d="M49.397 72.2701C61.4451 72.2701 71.212 62.5032 71.212 50.4551C71.212 38.407 61.4451 28.6401 49.397 28.6401C37.3489 28.6401 27.582 38.407 27.582 50.4551C27.582 62.5032 37.3489 72.2701 49.397 72.2701Z" fill="#70C250"/>
<path d="M49.3955 68.2095C59.2013 68.2095 67.1504 60.2604 67.1504 50.4546C67.1504 40.6488 59.2013 32.6997 49.3955 32.6997C39.5898 32.6997 31.6406 40.6488 31.6406 50.4546C31.6406 60.2604 39.5898 68.2095 49.3955 68.2095Z" fill="#F2F2F2"/>
<path d="M49.4736 62.9506C49.1379 62.9506 48.8311 62.8301 48.6143 62.6101C48.3927 62.39 48.2787 62.0929 48.2787 61.754V60.3279C46.4494 60.1865 44.718 59.7641 43.1216 59.0719C42.8181 58.9451 42.5579 58.7443 42.3539 58.4729C42.1323 58.1886 42.0215 57.8562 42.0215 57.4868C42.0215 57.029 42.1789 56.6307 42.4905 56.3031C42.8084 55.9723 43.2292 55.7988 43.7078 55.7988C43.9632 55.7988 44.2154 55.8518 44.4547 55.9546C45.5933 56.4621 46.8798 56.7721 48.2787 56.8765V52.0985C47.2042 51.8029 46.2791 51.4914 45.5307 51.1718C44.6169 50.7815 43.8347 50.2113 43.2035 49.4774C42.5386 48.7001 42.2014 47.6882 42.2014 46.4692C42.2014 45.4237 42.4648 44.4537 42.9867 43.5864C43.5135 42.7127 44.2924 41.9996 45.2994 41.4664C46.1442 41.0199 47.1448 40.734 48.2771 40.6136V39.1778C48.2771 38.8485 48.3863 38.5546 48.5983 38.3266C48.8199 38.0841 49.1234 37.9556 49.4736 37.9556C49.8157 37.9556 50.116 38.0776 50.344 38.3089C50.5721 38.5337 50.6942 38.8357 50.6942 39.1778V40.5718C52.1862 40.6698 53.5931 40.9605 54.8844 41.4343C55.6087 41.6912 56.0247 42.2839 56.0247 43.058C56.0247 43.4884 55.8769 43.8755 55.583 44.2095C55.2746 44.5597 54.8522 44.746 54.3624 44.746C54.1745 44.746 53.9625 44.6978 53.7151 44.5982C52.7451 44.2545 51.7301 44.0425 50.6958 43.9718V48.9779C51.7718 49.2461 52.6937 49.54 53.4389 49.85C54.3576 50.2338 55.1429 50.8104 55.7741 51.5653C56.4374 52.357 56.7747 53.4106 56.7747 54.6954C56.7747 55.7506 56.4856 56.7094 55.917 57.5446C55.3581 58.3637 54.5631 59.0302 53.5545 59.5264C52.7242 59.9344 51.7622 60.1994 50.6974 60.3166V61.7556C50.6974 62.109 50.5705 62.4125 50.3264 62.6342C50.0983 62.8397 49.8044 62.9506 49.4736 62.9506ZM50.6942 56.8154C52.8993 56.4894 53.19 55.4326 53.19 54.5397C53.19 54.0868 52.9924 53.7671 52.5475 53.5005C52.1107 53.2372 51.4876 52.9802 50.6942 52.7345V56.8154ZM48.2771 44.0891C47.5865 44.224 47.0099 44.4585 46.5618 44.7909C46.0286 45.1828 45.7813 45.6582 45.7813 46.2894C45.7813 46.8675 45.9949 47.2755 46.4526 47.5726C46.8926 47.8569 47.5062 48.1203 48.2771 48.358V44.0891Z" fill="#70C250"/>
<path d="M23.313 96.026C35.3611 96.026 45.1281 86.2591 45.1281 74.211C45.1281 62.1629 35.3611 52.396 23.313 52.396C11.265 52.396 1.49805 62.1629 1.49805 74.211C1.49805 86.2591 11.265 96.026 23.313 96.026Z" fill="#7562E0"/>
<path d="M23.3135 91.9654C33.1193 91.9654 41.0684 84.0162 41.0684 74.2105C41.0684 64.4047 33.1193 56.4556 23.3135 56.4556C13.5077 56.4556 5.55859 64.4047 5.55859 74.2105C5.55859 84.0162 13.5077 91.9654 23.3135 91.9654Z" fill="#F2F2F2"/>
<path d="M31.7541 75.5512C31.3671 74.3547 30.3376 73.8022 29.2182 73.4168C29.1346 73.3879 29.0479 73.3686 28.9628 73.3397C28.9516 73.3365 28.9483 73.3108 28.9387 73.2867C29.2487 73.0313 29.5827 72.7969 29.867 72.5142C31.1872 71.2053 30.9784 68.0895 28.9355 66.7436C28.3589 66.3646 26.9295 65.7463 25.2881 65.7463V62.0732H23.0236V65.6194H21.2987V62.0732H19.0342V65.7318H14.571V68.1152C15.0367 68.1152 15.5121 68.1104 15.9875 68.1168C17.0491 68.1313 17.441 68.5328 17.441 69.5928C17.4426 72.6652 17.4426 75.7391 17.441 78.8115C17.4394 79.7141 17.1904 79.9631 16.2943 79.9663C15.8654 79.9679 15.4382 79.9663 14.9853 79.9663C14.8376 80.8432 14.6994 81.6687 14.5469 82.5729H19.0326V86.3423H21.2971V82.711H23.0236V86.3423H25.2881V82.6564C26.0944 82.552 26.8797 82.4942 27.6442 82.3432C28.9082 82.0943 30.1448 81.7104 30.9671 80.6408C32.146 79.107 32.3419 77.358 31.7541 75.5512ZM21.3357 68.3176C22.635 68.2421 23.9021 68.1939 25.1292 68.6404C26.0671 68.9825 26.5874 69.6827 26.573 70.5644C26.5601 71.4301 26.0093 72.1191 25.0601 72.4371C23.862 72.837 22.6253 72.8065 21.334 72.7744V68.3176H21.3357ZM26.1297 79.4411C24.5927 80.061 22.9786 79.9952 21.3373 79.9614V75.0196C22.9449 75.0309 24.5124 74.8687 26.0173 75.4468C27.0275 75.8355 27.5607 76.494 27.5784 77.4126C27.5993 78.3875 27.1688 79.0235 26.1297 79.4411Z" fill="#7562E0"/>
<path d="M56.772 105.729C68.8201 105.729 78.587 95.9622 78.587 83.9141C78.587 71.866 68.8201 62.0991 56.772 62.0991C44.7239 62.0991 34.957 71.866 34.957 83.9141C34.957 95.9622 44.7239 105.729 56.772 105.729Z" fill="#9446CE"/>
<path d="M56.7744 101.668C66.5802 101.668 74.5293 93.7194 74.5293 83.9136C74.5293 74.1078 66.5802 66.1587 56.7744 66.1587C46.9687 66.1587 39.0195 74.1078 39.0195 83.9136C39.0195 93.7194 46.9687 101.668 56.7744 101.668Z" fill="#F2F2F2"/>
<path d="M49.4668 81.6589L56.7727 78.5046L64.0787 81.6589L56.7727 69.3613L49.4668 81.6589Z" fill="#9446CE"/>
<path d="M50.7852 89.9708L56.7741 98.4669L62.7599 89.9692L56.7725 93.5652L50.7852 89.9708Z" fill="#9446CE"/>
<path d="M47.3906 85.1531L56.7732 90.784L66.1557 85.1515L56.7732 81.1011L47.3906 85.1531Z" fill="#9446CE"/>
</svg>
