<svg width="236" height="41" viewBox="0 0 236 41" fill="none" xmlns="http://www.w3.org/2000/svg">
<path d="M103.359 12.7572H90.6484V28.042H93.7119V23.0941H103.355C103.896 23.1055 104.431 22.9609 104.912 22.6732C105.394 22.3854 105.807 21.9635 106.114 21.4449C106.771 20.4364 107.113 19.1973 107.084 17.9319C107.108 16.6596 106.767 15.4144 106.114 14.3941C105.806 13.8776 105.394 13.4578 104.913 13.1722C104.432 12.8866 103.898 12.744 103.359 12.7572V12.7572ZM103.359 19.5069H93.7155V16.3238H103.359C103.804 16.3238 104.024 16.8557 104.024 17.9277C104.024 18.9998 103.804 19.5069 103.359 19.5069Z" fill="#8232C9"/>
<path d="M136.947 12.7575H128.27C127.764 12.7404 127.261 12.8569 126.799 13.0982C126.337 13.3396 125.928 13.6995 125.603 14.1512C124.916 15.0709 124.546 16.2553 124.566 17.4745V28.0424H127.63V17.4787C127.63 16.7117 127.842 16.3241 128.27 16.3241H136.947C137.39 16.3241 137.612 16.7117 137.612 17.4828V19.6269H129.561V23.1935H137.627V28.0424H140.687V17.4745C140.708 16.2558 140.34 15.0713 139.654 14.1512C139.323 13.6951 138.907 13.3326 138.438 13.0911C137.969 12.8497 137.46 12.7356 136.947 12.7575V12.7575Z" fill="#8232C9"/>
<path d="M156.035 17.4826C156.035 18.2371 155.823 18.6165 155.399 18.6165H146.721C146.297 18.6165 146.081 18.2371 146.081 17.4826V12.7573H143.021V17.4826C142.994 18.6846 143.358 19.8542 144.04 20.7564C144.365 21.2154 144.775 21.5823 145.24 21.8294C145.704 22.0765 146.211 22.1975 146.721 22.1831H149.551V28.0422H152.618V22.1831H155.385C155.898 22.1955 156.408 22.0739 156.876 21.8271C157.345 21.5802 157.759 21.2144 158.091 20.7564C158.758 19.846 159.112 18.6796 159.085 17.4826V12.7573H156.021L156.035 17.4826Z" fill="#8232C9"/>
<path d="M220.754 12.7573V16.3239H226.676V28.0422H229.739V16.3239H235.661V12.7573H220.754Z" fill="#8232C9"/>
<path d="M112.907 25.3703V12.7573H109.079V26.2774C109.078 26.7193 109.22 27.1454 109.475 27.472C109.73 27.7986 110.081 28.002 110.459 28.0422H122.224V25.3703H112.907Z" fill="#8232C9"/>
<path d="M74.291 26.2565C74.291 26.73 74.4524 27.1841 74.7396 27.5189C75.0269 27.8538 75.4165 28.0419 75.8227 28.0419H88.2818V24.4752H77.3545V22.1827H88.303V18.5996H74.291V26.2565Z" fill="#8232C9"/>
<path d="M74.291 12.7573V16.3239H77.3545H88.303V12.7573H74.291Z" fill="#23D527"/>
<path d="M185.662 26.2565C185.662 26.4908 185.701 26.7228 185.777 26.9394C185.854 27.156 185.966 27.3528 186.108 27.5187C186.25 27.6845 186.419 27.8161 186.605 27.9059C186.79 27.9956 186.989 28.0419 187.19 28.0419H199.649V24.4752H188.726V22.1827H199.649V18.5996H185.662V26.2565Z" fill="#8232C9"/>
<path d="M185.662 12.7573V16.3239H188.726H199.674V12.7573H185.662Z" fill="#8232C9"/>
<path d="M217.525 14.1508C217.196 13.6963 216.784 13.3347 216.318 13.0932C215.852 12.8518 215.346 12.7369 214.836 12.7572H206.155C205.65 12.7401 205.147 12.8566 204.686 13.0979C204.225 13.3393 203.816 13.6993 203.491 14.1508C202.804 15.0706 202.435 16.2549 202.455 17.4742V28.042H205.518V17.4783C205.518 16.7114 205.734 16.3238 206.155 16.3238H214.836C215.278 16.3238 215.501 16.7114 215.501 17.4824V28.042H218.565V17.4742C218.585 16.2541 218.214 15.0691 217.525 14.1508V14.1508Z" fill="#8232C9"/>
<path d="M181.997 14.1508C181.668 13.6964 181.255 13.3349 180.789 13.0935C180.322 12.8521 179.815 12.7371 179.305 12.7571H174.462C173.68 12.7302 172.915 13.0218 172.298 13.5818C171.673 13.0204 170.9 12.7289 170.111 12.7571H165.261C164.755 12.7403 164.253 12.8569 163.791 13.0982C163.329 13.3396 162.92 13.6993 162.594 14.1508C161.911 15.0725 161.543 16.2559 161.561 17.4741V28.042H164.625V17.4782C164.625 16.7113 164.837 16.3237 165.261 16.3237H170.111C170.536 16.3237 170.748 16.6907 170.766 17.3999C170.766 17.4246 170.766 17.4452 170.766 17.4741V28.042H173.84V17.4741C173.84 17.4741 173.84 17.437 173.84 17.4122C173.84 16.6948 174.059 16.3237 174.47 16.3237H179.312C179.758 16.3237 179.977 16.7113 179.977 17.4824V28.042H183.041V17.4741C183.06 16.2534 182.688 15.0683 181.997 14.1508V14.1508Z" fill="#8232C9"/>
<path d="M51.1168 15.6063H49.6134L48.3045 17.1236L47.7704 17.7421H22.5162L21.7238 18.6616L20.7969 19.7337H46.037L42.8922 23.391L40.2355 26.4339L37.3878 29.7325L36.8536 30.3551H9.01354L0 40.7952H6.22953C6.94696 40.7961 7.65749 40.632 8.32038 40.3121C8.98327 39.9923 9.58548 39.5231 10.0925 38.9315L13.5734 34.8701H35.4422C36.5543 34.8719 37.6558 34.618 38.6835 34.1227C39.7112 33.6274 40.6449 32.9005 41.4312 31.9838L52.3974 19.177C52.6532 18.8855 52.828 18.5112 52.8992 18.1026C52.9704 17.694 52.9347 17.2698 52.7967 16.8851C52.6587 16.5004 52.4249 16.1729 52.1254 15.9449C51.8259 15.7169 51.4745 15.5989 51.1168 15.6063V15.6063Z" fill="#8232C9"/>
<path d="M26.7717 0L21.3594 6.26733H55.0611L60.477 0H26.7717Z" fill="#23D527"/>
<path d="M8.49385 28.2274H36.0863L38.934 24.9288L41.573 21.8735H16.3612L18.3033 19.6222L21.7736 15.6062H46.996L52.4119 9.33887H18.7066L6.72157 23.2177C6.36867 23.627 6.12792 24.1491 6.0298 24.718C5.93169 25.2869 5.98061 25.8769 6.17039 26.4134C6.36017 26.9498 6.68226 27.4085 7.09588 27.7315C7.50949 28.0544 7.99602 28.227 8.49385 28.2274Z" fill="#23D527"/>
</svg>
