<svg width="375" height="453" viewBox="0 0 375 453" fill="none" xmlns="http://www.w3.org/2000/svg">
<path d="M280.334 261.342C258.988 261.342 251.713 241.158 263.945 216.417L371.393 1H215.577L108.208 216.417C46.3295 341.146 83.1849 442.623 190.314 442.623H378.908L468.848 261.342H280.334Z" fill="#7562E0"/>
<path opacity="0.7" d="M128.232 40.3737C128.229 42.7329 127.526 45.0381 126.212 46.9979C124.899 48.9577 123.034 50.4841 120.853 51.3843C118.672 52.2845 116.274 52.5181 113.96 52.0555C111.647 51.5929 109.522 50.4549 107.855 48.7854C106.189 47.1158 105.054 44.9896 104.595 42.6754C104.136 40.3612 104.374 37.963 105.277 35.7837C106.181 33.6044 107.71 31.7419 109.672 30.4316C111.634 29.1212 113.941 28.4219 116.3 28.4219C117.868 28.4219 119.422 28.7312 120.871 29.332C122.32 29.9329 123.636 30.8136 124.744 31.9236C125.853 33.0337 126.731 34.3514 127.33 35.8014C127.928 37.2513 128.235 38.8051 128.232 40.3737V40.3737Z" stroke="#70C250" stroke-width="0.76" stroke-miterlimit="10"/>
<path opacity="0.7" d="M122.419 40.3749C122.42 41.585 122.062 42.7682 121.391 43.7749C120.72 44.7816 119.765 45.5666 118.647 46.0306C117.53 46.4945 116.3 46.6165 115.113 46.3812C113.926 46.146 112.835 45.5639 111.979 44.7087C111.123 43.8536 110.54 42.7637 110.304 41.577C110.067 40.3903 110.188 39.1601 110.651 38.0421C111.113 36.924 111.897 35.9683 112.903 35.2959C113.909 34.6235 115.092 34.2646 116.302 34.2646C117.923 34.2646 119.478 34.9082 120.625 36.0539C121.772 37.1996 122.417 38.7538 122.419 40.3749Z" fill="#70C250"/>
<path opacity="0.7" d="M101.125 42.4795L92.5131 45.4802L73.3633 43.7847V46.472L93.4856 53.0173L104.388 50.4388" stroke="#70C250" stroke-width="1.14" stroke-miterlimit="10"/>
<path opacity="0.7" d="M92.5137 45.4805L93.4862 53.0175" stroke="#70C250" stroke-width="0.76" stroke-miterlimit="10"/>
<path opacity="0.7" d="M130.66 34.2193L135.9 35.1087L156.886 21.9668V26.5735L135.9 46.4719L130.916 45.8513" stroke="#70C250" stroke-width="1.14" stroke-miterlimit="10"/>
<path opacity="0.7" d="M156.883 24.877V30.936L137.599 51.5382L128.674 49.8683" stroke="#70C250" stroke-width="1.14" stroke-miterlimit="10"/>
<path opacity="0.7" d="M135.9 35.3008V46.472" stroke="#70C250" stroke-width="0.76" stroke-miterlimit="10"/>
<path opacity="0.7" d="M114.383 55.844C114.472 56.0168 115.842 57.354 113.41 66.4138C109.021 82.7996 93.6079 100.446 81.4513 112.366C75.0906 118.847 70.0283 126.485 66.5371 134.868C61.8025 146.449 61.7385 156.884 66.3452 165.029C71.8604 174.78 83.39 180.353 100.614 181.594C103.092 181.773 105.698 181.863 108.433 181.863C125.925 181.863 148.741 178.235 176.452 171.05L172.798 156.974C142.298 164.888 118.363 168.292 101.657 167.096C93.3392 166.494 82.699 164.415 79.0008 157.876C77.3757 154.99 76.224 149.616 79.9989 140.371C82.7381 133.821 86.6863 127.845 91.6373 122.756C112.38 102.416 125.65 83.9833 128.107 67.4439C129.962 55.0186 128.708 52.1906 127.838 50.8662" stroke="#70C250" stroke-width="1.52" stroke-miterlimit="10"/>
<path opacity="0.7" d="M131.905 40.5417C132.007 31.9238 125.104 24.8547 116.486 24.7524C107.868 24.6501 100.799 31.5534 100.697 40.1713C100.595 48.7892 107.498 55.8583 116.116 55.9606C124.734 56.0629 131.803 49.1596 131.905 40.5417Z" stroke="#70C250" stroke-width="1.14" stroke-miterlimit="10"/>
<path opacity="0.7" d="M122.71 26.1193L118.903 12.5168L94.2192 1L87.6738 5.242L106.005 19.3052V28.6274" stroke="#70C250" stroke-width="1.14" stroke-miterlimit="10"/>
<path opacity="0.7" d="M91.7344 2.60059L116.303 14.4564L118.908 24.9687" stroke="#70C250" stroke-width="1.14" stroke-miterlimit="10"/>
<path opacity="0.7" d="M106.008 19.3049L116.303 14.4551" stroke="#70C250" stroke-width="0.76" stroke-miterlimit="10"/>
<path opacity="0.7" d="M114.492 61.489C114.492 61.489 123.507 63.2805 128.965 58.6738" stroke="#70C250" stroke-width="0.76" stroke-miterlimit="10"/>
<path opacity="0.7" d="M105.08 84.2275C105.08 84.2275 109.412 91.112 119.694 89.0198" stroke="#70C250" stroke-width="0.76" stroke-miterlimit="10"/>
<path opacity="0.7" d="M99.668 91.9961C99.668 91.9961 102.969 100.019 113.104 98.8102" stroke="#70C250" stroke-width="0.76" stroke-miterlimit="10"/>
<path opacity="0.7" d="M94.082 98.9316C95.1772 101.488 97.0923 103.607 99.5252 104.954C101.958 106.302 104.77 106.801 107.518 106.373" stroke="#70C250" stroke-width="0.76" stroke-miterlimit="10"/>
<path opacity="0.7" d="M87.6504 106.488C87.6504 106.488 89.1028 115.1 100.076 114.582" stroke="#70C250" stroke-width="0.76" stroke-miterlimit="10"/>
<path opacity="0.7" d="M80.8672 113.391C80.8672 113.391 82.0956 121.542 91.8209 122.988" stroke="#70C250" stroke-width="0.76" stroke-miterlimit="10"/>
<path opacity="0.7" d="M73.582 121.919C73.582 121.919 76.2501 130.096 85.8666 129.725" stroke="#70C250" stroke-width="0.76" stroke-miterlimit="10"/>
<path opacity="0.7" d="M67.3887 132.016C67.3887 132.016 72.3665 140.532 81.1704 137.729" stroke="#70C250" stroke-width="0.76" stroke-miterlimit="10"/>
<path opacity="0.7" d="M63.8691 143.302C63.8691 143.302 71.7709 149.598 78.2715 145.535" stroke="#70C250" stroke-width="0.76" stroke-miterlimit="10"/>
<path opacity="0.7" d="M62.9355 154.902C62.9355 154.902 73.3454 160.718 77.6514 153.872" stroke="#70C250" stroke-width="0.76" stroke-miterlimit="10"/>
<path opacity="0.7" d="M68.793 168.114C68.793 168.114 77.1106 171.077 83.0481 162.062" stroke="#70C250" stroke-width="0.76" stroke-miterlimit="10"/>
<path opacity="0.7" d="M81.9648 177.756C81.9648 177.756 91.7413 174.871 90.6216 165.318" stroke="#70C250" stroke-width="0.76" stroke-miterlimit="10"/>
<path opacity="0.7" d="M262.87 53.093C261.74 55.1648 261.249 57.5253 261.46 59.8761C261.671 62.2268 262.574 64.4622 264.056 66.2994C265.538 68.1367 267.531 69.4933 269.783 70.1977C272.036 70.9021 274.447 70.9227 276.711 70.2568C278.976 69.591 280.992 68.2686 282.504 66.4569C284.017 64.6452 284.958 62.4256 285.21 60.0788C285.461 57.732 285.01 55.3634 283.915 53.2726C282.82 51.1818 281.13 49.4627 279.058 48.3328C277.682 47.5818 276.173 47.1093 274.615 46.9421C273.057 46.7749 271.481 46.9164 269.978 47.3585C268.474 47.8006 267.073 48.5346 265.853 49.5185C264.634 50.5025 263.62 51.7171 262.87 53.093V53.093Z" stroke="#70C250" stroke-width="0.76" stroke-miterlimit="10"/>
<path opacity="0.7" d="M267.984 55.8768C267.406 56.9386 267.156 58.1477 267.265 59.3515C267.374 60.5553 267.837 61.6998 268.596 62.6406C269.355 63.5814 270.376 64.2763 271.529 64.6375C272.683 64.9987 273.917 65.01 275.077 64.67C276.237 64.3301 277.27 63.6541 278.046 62.7274C278.822 61.8007 279.307 60.6648 279.438 59.4632C279.569 58.2616 279.341 57.0482 278.783 55.976C278.224 54.9038 277.361 54.0211 276.302 53.4391C275.596 53.0514 274.82 52.8069 274.02 52.7196C273.219 52.6323 272.409 52.704 271.637 52.9305C270.864 53.157 270.143 53.5338 269.517 54.0395C268.89 54.5451 268.369 55.1695 267.984 55.8768Z" fill="#70C250"/>
<path opacity="0.7" d="M285.656 67.9395L291.779 74.6959L309.399 82.3802L308.113 84.7347L287.319 80.8446L278.982 73.3651" stroke="#70C250" stroke-width="1.52" stroke-miterlimit="10"/>
<path opacity="0.7" d="M291.78 74.6943L287.32 80.843" stroke="#70C250" stroke-width="0.76" stroke-miterlimit="10"/>
<path opacity="0.7" d="M308.113 84.7324L303.481 87.1509L286.014 85.2635L273.602 74.4121" stroke="#70C250" stroke-width="1.52" stroke-miterlimit="10"/>
<path opacity="0.7" d="M263.685 46.542L258.656 44.8145L246.532 23.2334L244.324 27.2771L253.218 54.7893L257.888 56.6384" stroke="#70C250" stroke-width="1.52" stroke-miterlimit="10"/>
<path opacity="0.7" d="M245.135 25.7861L242.23 31.103L249.294 58.4233L257.932 61.2321" stroke="#70C250" stroke-width="1.52" stroke-miterlimit="10"/>
<path opacity="0.7" d="M258.568 44.9824L253.219 54.7909" stroke="#70C250" stroke-width="0.76" stroke-miterlimit="10"/>
<path opacity="0.7" d="M189.824 153.417C203.446 164.537 215.417 172.465 225.52 177.091C233.089 180.539 243.435 183.815 249.833 179.842C252.648 178.095 256.231 173.924 257.344 164C258.075 156.938 257.472 149.802 255.566 142.963C247.075 115.156 244.266 92.6217 250.025 76.9205C254.35 65.1287 256.801 63.2476 258.202 62.499" stroke="#70C250" stroke-width="1.52" stroke-miterlimit="10"/>
<path opacity="0.7" d="M267.618 73.3242C267.451 73.433 265.609 73.964 263.408 83.0687C259.415 99.5568 264.496 122.43 269.461 138.733C271.941 147.46 272.729 156.582 271.783 165.605C270.388 178.043 265.449 187.231 257.509 192.177C247.995 198.095 235.205 197.468 219.491 190.309C217.234 189.281 214.903 188.11 212.497 186.796C202.964 181.601 192.292 174.185 180.577 164.633C180.059 164.204 179.534 163.782 179.016 163.353" stroke="#70C250" stroke-width="1.52" stroke-miterlimit="10"/>
<path opacity="0.7" d="M259.621 51.328C258.141 54.0384 257.498 57.127 257.773 60.203C258.049 63.2789 259.23 66.2042 261.168 68.6085C263.106 71.0129 265.714 72.7884 268.662 73.7104C271.609 74.6324 274.764 74.6596 277.727 73.7883C280.689 72.9171 283.327 71.1867 285.307 68.816C287.286 66.4453 288.517 63.5409 288.846 60.4701C289.174 57.3993 288.584 54.3001 287.151 51.5646C285.717 48.8292 283.505 46.5803 280.793 45.1025C277.159 43.1225 272.888 42.666 268.918 43.8333C264.949 45.0007 261.605 47.6963 259.621 51.328V51.328Z" stroke="#70C250" stroke-width="1.52" stroke-miterlimit="10"/>
<path opacity="0.7" d="M274.543 43.2411L284.396 33.1191L311.582 34.8339L315.293 41.6863L292.471 45.2565L288.005 53.4398" stroke="#70C250" stroke-width="1.52" stroke-miterlimit="10"/>
<path opacity="0.7" d="M312.996 37.4248L285.753 36.0684L278.439 44.0469" stroke="#70C250" stroke-width="1.52" stroke-miterlimit="10"/>
<path opacity="0.7" d="M292.47 45.2562L285.752 36.0684" stroke="#70C250" stroke-width="0.76" stroke-miterlimit="10"/>
<path opacity="0.7" d="M264.829 78.2066C264.829 78.2066 256.058 75.4617 253.473 68.8076" stroke="#70C250" stroke-width="0.76" stroke-miterlimit="10"/>
<path opacity="0.7" d="M262.817 85.9871C262.817 85.9871 252.522 83.5813 249.682 78.1045" stroke="#70C250" stroke-width="0.76" stroke-miterlimit="10"/>
<path opacity="0.7" d="M310.167 244.131C307.825 244.422 305.449 244.011 303.34 242.952C301.231 241.892 299.483 240.231 298.318 238.179C297.153 236.126 296.623 233.774 296.795 231.42C296.967 229.066 297.833 226.816 299.284 224.954C300.735 223.092 302.705 221.703 304.946 220.961C307.187 220.219 309.597 220.159 311.872 220.787C314.147 221.415 316.185 222.704 317.728 224.49C319.27 226.276 320.248 228.48 320.538 230.822C320.927 233.963 320.053 237.128 318.108 239.624C316.163 242.12 313.307 243.741 310.167 244.131V244.131Z" stroke="#70C250" stroke-width="0.76" stroke-miterlimit="10"/>
<path opacity="0.7" d="M309.417 238.361C308.216 238.51 306.999 238.299 305.917 237.756C304.836 237.213 303.941 236.361 303.344 235.309C302.746 234.257 302.475 233.051 302.563 231.844C302.651 230.638 303.096 229.484 303.839 228.53C304.583 227.576 305.593 226.864 306.742 226.483C307.891 226.103 309.126 226.073 310.293 226.395C311.459 226.717 312.503 227.378 313.294 228.294C314.084 229.21 314.586 230.339 314.734 231.54C314.933 233.15 314.485 234.772 313.488 236.051C312.491 237.33 311.026 238.161 309.417 238.361Z" fill="#70C250"/>
<path opacity="0.7" d="M304.682 217.489L300.644 209.318L299.973 190.104L297.305 190.437L293.293 211.206L297.189 221.712" stroke="#70C250" stroke-width="1.52" stroke-miterlimit="10"/>
<path opacity="0.7" d="M300.644 209.318L293.293 211.206" stroke="#70C250" stroke-width="0.76" stroke-miterlimit="10"/>
<path opacity="0.7" d="M297.309 190.438L293.361 193.861L288.703 210.803L294.238 226.331" stroke="#70C250" stroke-width="1.52" stroke-miterlimit="10"/>
<path opacity="0.6" d="M316.519 245.782L316.282 251.099L331.906 270.3L327.338 270.87L305.008 252.5L305.002 247.471" stroke="#70C250" stroke-width="1.52" stroke-miterlimit="10"/>
<path opacity="0.6" d="M329.022 270.659L323.008 271.407L300.186 254.804L300.749 245.744" stroke="#70C250" stroke-width="1.52" stroke-miterlimit="10"/>
<path opacity="0.6" d="M316.093 251.125L305.012 252.501" stroke="#70C250" stroke-width="0.76" stroke-miterlimit="10"/>
<path opacity="0.7" d="M199.894 302.7C188.281 273.409 181.979 250.075 181.096 233.35C180.661 225.033 181.416 214.207 187.456 209.735C190.111 207.757 195.306 205.96 204.942 208.564C211.779 210.475 218.196 213.657 223.855 217.943C246.601 236.025 266.525 246.921 283.243 247.337C295.803 247.65 298.452 246.057 299.661 245.027" stroke="#70C250" stroke-width="1.52" stroke-miterlimit="10"/>
<path opacity="0.7" d="M310.585 247.787C307.519 248.168 304.409 247.631 301.649 246.244C298.889 244.857 296.602 242.682 295.078 239.995C293.554 237.308 292.862 234.229 293.089 231.148C293.316 228.067 294.452 225.123 296.353 222.688C298.253 220.253 300.834 218.436 303.768 217.468C306.701 216.501 309.856 216.425 312.833 217.251C315.809 218.077 318.474 219.768 320.49 222.109C322.505 224.45 323.781 227.336 324.155 230.403C324.656 234.507 323.509 238.642 320.964 241.901C318.42 245.16 314.687 247.276 310.585 247.787Z" stroke="#70C250" stroke-width="1.52" stroke-miterlimit="10"/>
<path opacity="0.7" d="M323.584 236.902L336.611 231.445L344.999 205.538L339.983 199.562L328.287 219.48L319.035 220.632" stroke="#70C250" stroke-width="1.52" stroke-miterlimit="10"/>
<path opacity="0.7" d="M343.105 203.266L334.365 229.108L324.256 232.979" stroke="#70C250" stroke-width="1.52" stroke-miterlimit="10"/>
<path opacity="0.7" d="M328.285 219.478L334.363 229.107" stroke="#70C250" stroke-width="0.76" stroke-miterlimit="10"/>
<path opacity="0.7" d="M31.9559 230.241C34.259 230.758 36.6638 230.581 38.8662 229.732C41.0686 228.883 42.9696 227.399 44.3287 225.469C45.6878 223.539 46.444 221.25 46.5016 218.89C46.5592 216.53 45.9157 214.206 44.6523 212.212C43.389 210.218 41.5626 208.644 39.4043 207.688C37.246 206.732 34.8526 206.438 32.5271 206.843C30.2015 207.247 28.0482 208.333 26.3396 209.961C24.6309 211.59 23.4437 213.689 22.9281 215.992C22.5851 217.52 22.5466 219.101 22.8146 220.645C23.0827 222.188 23.6522 223.663 24.4906 224.986C25.3289 226.31 26.4197 227.455 27.7006 228.356C28.9815 229.258 30.4275 229.898 31.9559 230.241V230.241Z" stroke="#70C250" stroke-width="0.76" stroke-miterlimit="10"/>
<path opacity="0.7" d="M33.228 224.566C34.4087 224.832 35.6417 224.742 36.771 224.307C37.9003 223.872 38.8751 223.111 39.5721 222.122C40.2691 221.133 40.657 219.959 40.6866 218.749C40.7162 217.539 40.3863 216.347 39.7385 215.325C39.0907 214.303 38.1543 213.496 37.0476 213.006C35.941 212.516 34.7139 212.365 33.5216 212.573C32.3293 212.781 31.2255 213.338 30.3498 214.173C29.4741 215.009 28.8659 216.085 28.6021 217.266C28.249 218.847 28.5378 220.504 29.405 221.873C30.2723 223.242 31.6473 224.21 33.228 224.566Z" fill="#70C250"/>
<path opacity="0.7" d="M39.9668 204.257L44.7782 196.509L47.3119 177.455L49.9352 178.044L51.9186 199.107L47.0176 209.184" stroke="#70C250" stroke-width="1.52" stroke-miterlimit="10"/>
<path opacity="0.7" d="M44.7773 196.509L51.9177 199.106" stroke="#70C250" stroke-width="0.76" stroke-miterlimit="10"/>
<path opacity="0.7" d="M49.9326 178.045L53.5348 181.833L56.5227 199.146L49.5039 214.067" stroke="#70C250" stroke-width="1.52" stroke-miterlimit="10"/>
<path opacity="0.6" d="M25.4332 231.265L25.1581 236.575L7.74219 254.17L12.2337 255.181L36.2397 239.064L36.7324 234.061" stroke="#70C250" stroke-width="1.52" stroke-miterlimit="10"/>
<path opacity="0.6" d="M10.5859 254.809L16.4979 256.134L40.8174 241.828L41.1437 232.755" stroke="#70C250" stroke-width="1.52" stroke-miterlimit="10"/>
<path opacity="0.6" d="M25.3438 236.62L36.2399 239.064" stroke="#70C250" stroke-width="0.76" stroke-miterlimit="10"/>
<path opacity="0.7" d="M50.1071 220.118C50.2543 220.246 51.2588 221.872 60.6321 221.488C77.581 220.784 98.1704 209.606 112.458 200.374C120.172 195.578 128.733 192.305 137.679 190.732C150.021 188.652 160.214 190.866 167.156 197.13C175.461 204.66 178.365 217.13 175.806 234.239C175.435 236.696 174.951 239.255 174.354 241.917C170.515 258.987 161.986 280.466 148.914 305.899L135.977 299.251C150.373 271.221 158.934 248.616 161.423 232.07C162.651 223.849 162.952 212.991 157.386 207.949C154.929 205.729 149.938 203.432 140.111 205.089C133.118 206.326 126.422 208.87 120.372 212.588C95.9822 228.379 75.0921 237.291 58.412 236.076C45.8843 235.167 43.4018 233.324 42.2949 232.185" stroke="#70C250" stroke-width="1.52" stroke-miterlimit="10"/>
<path opacity="0.7" d="M31.1477 233.831C34.1592 234.507 37.3033 234.274 40.1826 233.162C43.0619 232.051 45.5469 230.111 47.3235 227.587C49.1001 225.063 50.0884 222.07 50.1636 218.984C50.2387 215.899 49.3972 212.86 47.7456 210.253C46.094 207.646 43.7063 205.587 40.8846 204.337C38.0628 203.087 34.9337 202.701 31.8929 203.229C28.8521 203.757 26.0361 205.175 23.8012 207.304C21.5662 209.432 20.0125 212.175 19.3366 215.187C18.4319 219.225 19.1678 223.458 21.3826 226.954C23.5974 230.45 27.1098 232.924 31.1477 233.831Z" stroke="#70C250" stroke-width="1.52" stroke-miterlimit="10"/>
<path opacity="0.7" d="M19.2732 221.738L6.83515 215.046L1 188.442L6.57283 182.984L16.2789 203.945L25.3771 205.986" stroke="#70C250" stroke-width="1.52" stroke-miterlimit="10"/>
<path opacity="0.7" d="M3.10547 186.361L9.29252 212.933L18.9794 217.77" stroke="#70C250" stroke-width="1.52" stroke-miterlimit="10"/>
<path opacity="0.7" d="M16.2778 203.945L9.29102 212.935" stroke="#70C250" stroke-width="0.76" stroke-miterlimit="10"/>
<path opacity="0.7" d="M55.5643 221.443C55.5643 221.443 55.3403 230.631 49.6523 234.944" stroke="#70C250" stroke-width="0.76" stroke-miterlimit="10"/>
<path opacity="0.7" d="M63.5992 221.257C63.5992 221.257 64.1174 231.82 59.6387 236.056" stroke="#70C250" stroke-width="0.76" stroke-miterlimit="10"/>
<path opacity="0.7" d="M71.5527 219.812C71.5527 219.812 75.462 228.546 70.3242 234.963" stroke="#70C250" stroke-width="0.76" stroke-miterlimit="10"/>
<path opacity="0.7" d="M79.8301 217.253C79.8301 217.253 85.5885 223.011 81.3081 232.564" stroke="#70C250" stroke-width="0.76" stroke-miterlimit="10"/>
<path opacity="0.7" d="M73.3633 46.4707L76.2745 50.8151L92.5131 57.5204L108.611 53.9374" stroke="#70C250" stroke-width="1.14" stroke-miterlimit="10"/>
<path opacity="0.7" d="M112.539 69.2697C112.539 69.2697 122.731 72.0849 127.85 68.6299" stroke="#70C250" stroke-width="0.76" stroke-miterlimit="10"/>
<path opacity="0.7" d="M109.385 76.71C109.385 76.71 117.063 82.4683 124.44 78.8278" stroke="#70C250" stroke-width="0.76" stroke-miterlimit="10"/>
<path opacity="0.7" d="M95.8848 181.135C95.8848 181.135 103.217 179.567 100.536 167.008" stroke="#70C250" stroke-width="0.76" stroke-miterlimit="10"/>
<path opacity="0.7" d="M110.346 181.844C110.346 181.844 116.034 177.825 111.67 167.281" stroke="#70C250" stroke-width="0.76" stroke-miterlimit="10"/>
<path opacity="0.7" d="M123.902 166.458C123.902 166.458 128.138 175.076 123.902 181.059" stroke="#70C250" stroke-width="0.76" stroke-miterlimit="10"/>
<path opacity="0.7" d="M253.861 193.713C253.861 193.713 245.115 192.325 244.264 181.557" stroke="#70C250" stroke-width="0.76" stroke-miterlimit="10"/>
<path opacity="0.7" d="M237.702 195.85C237.702 195.85 230.498 188.64 236.058 180.789" stroke="#70C250" stroke-width="0.76" stroke-miterlimit="10"/>
<path opacity="0.7" d="M262.015 94.0296C262.015 94.0296 252.539 95.3988 247.785 88.6807" stroke="#70C250" stroke-width="0.76" stroke-miterlimit="10"/>
<path opacity="0.7" d="M262.18 102.694C262.18 102.694 255.078 106.661 247.055 99.9043" stroke="#70C250" stroke-width="0.76" stroke-miterlimit="10"/>
<path opacity="0.7" d="M263.248 112.112C263.248 112.112 256.504 117.583 248.199 111.671" stroke="#70C250" stroke-width="0.76" stroke-miterlimit="10"/>
<path opacity="0.7" d="M264.811 120.872C262.626 122.592 259.931 123.535 257.15 123.554C254.37 123.572 251.663 122.665 249.455 120.974" stroke="#70C250" stroke-width="0.76" stroke-miterlimit="10"/>
<path opacity="0.7" d="M266.831 130.589C266.831 130.589 261.437 137.461 252.051 131.753" stroke="#70C250" stroke-width="0.76" stroke-miterlimit="10"/>
<path opacity="0.7" d="M269.487 139.893C269.487 139.893 264.503 146.457 255.283 143.047" stroke="#70C250" stroke-width="0.76" stroke-miterlimit="10"/>
<path opacity="0.7" d="M271.779 150.866C271.779 150.866 265.515 156.772 257.262 151.839" stroke="#70C250" stroke-width="0.76" stroke-miterlimit="10"/>
<path opacity="0.7" d="M272.417 162.695C272.417 162.695 263.972 167.814 257.58 161.108" stroke="#70C250" stroke-width="0.76" stroke-miterlimit="10"/>
<path opacity="0.7" d="M270.087 174.288C270.087 174.288 260.131 176.028 256.369 169.349" stroke="#70C250" stroke-width="0.76" stroke-miterlimit="10"/>
<path opacity="0.7" d="M265.334 184.934C265.334 184.934 253.414 185.056 252.902 176.981" stroke="#70C250" stroke-width="0.76" stroke-miterlimit="10"/>
<path opacity="0.7" d="M223.869 192.165C223.869 192.165 218.174 187.277 226.543 177.532" stroke="#70C250" stroke-width="0.76" stroke-miterlimit="10"/>
<path opacity="0.7" d="M210.828 185.877C210.828 185.877 207.757 179.619 216.637 172.44" stroke="#70C250" stroke-width="0.76" stroke-miterlimit="10"/>
<path opacity="0.7" d="M293.05 232.321C292.89 232.437 291.738 233.959 282.442 232.661C265.64 230.319 246.234 217.196 232.907 206.607C225.693 201.09 217.49 197.005 208.741 194.572C196.661 191.303 186.302 192.525 178.785 198.097C169.789 204.771 165.675 216.902 166.564 234.145C166.696 236.623 166.931 239.221 167.268 241.938C169.405 259.271 164.286 248.317 174.824 274.94" stroke="#70C250" stroke-width="1.52" stroke-miterlimit="10"/>
<path opacity="0.6" d="M287.493 233.102C287.493 233.102 286.821 242.264 292.067 247.114" stroke="#70C250" stroke-width="0.76" stroke-miterlimit="10"/>
<path opacity="0.6" d="M279.507 232.122C279.507 232.122 277.971 242.558 282.015 247.235" stroke="#70C250" stroke-width="0.76" stroke-miterlimit="10"/>
<path opacity="0.6" d="M271.733 229.907C271.733 229.907 266.998 238.225 271.49 245.109" stroke="#70C250" stroke-width="0.76" stroke-miterlimit="10"/>
<path opacity="0.7" d="M263.741 226.562C263.741 226.562 257.446 231.681 260.785 241.656" stroke="#70C250" stroke-width="0.76" stroke-miterlimit="10"/>
<path opacity="0.7" d="M255.372 222.121C255.372 222.121 247.81 226.382 250.254 236.28" stroke="#70C250" stroke-width="0.76" stroke-miterlimit="10"/>
<path opacity="0.7" d="M247.8 217.458C245.403 218.858 243.54 221.015 242.503 223.59C241.467 226.165 241.315 229.011 242.073 231.681" stroke="#70C250" stroke-width="0.76" stroke-miterlimit="10"/>
<path opacity="0.7" d="M239.511 212.006C239.511 212.006 231.136 214.508 233.004 225.327" stroke="#70C250" stroke-width="0.76" stroke-miterlimit="10"/>
<path opacity="0.7" d="M231.821 206.126C231.821 206.126 223.881 208.353 223.676 218.174" stroke="#70C250" stroke-width="0.76" stroke-miterlimit="10"/>
<path opacity="0.7" d="M211.681 195.043C211.681 195.043 203.837 201.025 207.708 209.42" stroke="#70C250" stroke-width="0.76" stroke-miterlimit="10"/>
<path opacity="0.7" d="M200.049 192.933C200.049 192.933 194.77 201.557 199.607 207.508" stroke="#70C250" stroke-width="0.76" stroke-miterlimit="10"/>
<path opacity="0.7" d="M188.397 193.445C188.397 193.445 183.919 204.489 191.238 207.931" stroke="#70C250" stroke-width="0.76" stroke-miterlimit="10"/>
<path opacity="0.7" d="M88.5996 213.65C88.5996 213.65 95.708 218.628 92.3106 228.238" stroke="#70C250" stroke-width="0.76" stroke-miterlimit="10"/>
<path opacity="0.7" d="M96.5879 209.742C98.8381 211.369 100.484 213.697 101.266 216.361C102.047 219.025 101.921 221.874 100.907 224.458" stroke="#70C250" stroke-width="0.76" stroke-miterlimit="10"/>
<path opacity="0.7" d="M105.369 205.123C105.369 205.123 113.456 208.425 110.545 219.014" stroke="#70C250" stroke-width="0.76" stroke-miterlimit="10"/>
<path opacity="0.7" d="M113.582 200.015C113.582 200.015 121.26 202.996 120.524 212.811" stroke="#70C250" stroke-width="0.76" stroke-miterlimit="10"/>
<path opacity="0.7" d="M123.506 194.776C123.506 194.776 130.902 199.166 128.432 208.462" stroke="#70C250" stroke-width="0.76" stroke-miterlimit="10"/>
<path opacity="0.7" d="M134.709 190.937C134.709 190.937 141.933 197.655 137.268 205.652" stroke="#70C250" stroke-width="0.76" stroke-miterlimit="10"/>
<path opacity="0.7" d="M146.495 189.971C146.495 189.971 150.909 199.063 145.516 204.514" stroke="#70C250" stroke-width="0.76" stroke-miterlimit="10"/>
<path opacity="0.7" d="M158.036 191.607C158.036 191.607 161.433 203.035 153.807 205.754" stroke="#70C250" stroke-width="0.76" stroke-miterlimit="10"/>
<path opacity="0.7" d="M206.292 165.868C206.292 165.868 198.448 171.403 199.299 178.665" stroke="#70C250" stroke-width="0.76" stroke-miterlimit="10"/>
<path opacity="0.7" d="M222.461 199.946C222.461 199.946 214.674 203.6 216.229 213.095" stroke="#70C250" stroke-width="0.76" stroke-miterlimit="10"/>
<path d="M160.655 389.589H146.688V415.367H160.655V389.589Z" fill="url(#paint0_linear)"/>
<path d="M164.29 410.574C164.29 410.574 170.292 412.27 167.489 421.362C167.489 421.362 164.425 424.836 164.719 431.925C164.719 431.925 169.236 450.077 148.269 452.636C148.269 452.636 135.818 454.639 132.402 446.634C132.402 446.634 128.563 440.307 135.831 435.61L145.595 435.137L164.29 410.574Z" fill="#2E2454"/>
<path d="M141.781 416.621C140.898 422.06 138.723 431.599 134.692 437.499C134.692 437.499 128.742 447.096 143.407 448.484C143.407 448.484 165.717 449.252 162.601 425.803C162.601 425.803 161.961 422.226 164.335 416.992C164.335 416.992 166.645 415.47 162.204 405.188C162.204 405.188 160.989 401.931 160.957 405.412C160.957 405.412 158.845 410.377 155.537 409.334C155.537 409.334 148.499 399.314 143.112 405.706C143.093 405.712 142.223 413.908 141.781 416.621Z" fill="#A7A9AC"/>
<path d="M143.125 405.711C144.725 403.792 146.241 403.19 147.649 403.306C150.988 403.568 153.708 407.983 155.544 409.333C158.346 411.38 160.97 405.411 160.97 405.411C161.106 405.088 161.161 404.736 161.13 404.387" stroke="#2E2454" stroke-width="3.41" stroke-miterlimit="10" stroke-linecap="round"/>
<path d="M142.536 410.574C142.318 409.397 141.851 406.614 142.171 405.456C142.721 403.459 145.409 402.48 147.168 402.256C152.447 401.572 151.442 407.893 151.154 411.483C150.898 414.682 150.233 417.881 150.028 421.118C149.811 424.593 150.329 426.877 149.849 430.249C149.702 431.266 146.368 430.888 144.635 430.888C142.901 430.888 140.373 431.125 139.484 430.108C138.492 428.975 139.625 426.186 140.124 424.554C140.957 421.644 141.545 418.669 141.883 415.661C142.101 414.151 142.293 413.031 142.376 411.732C142.442 411.36 142.487 410.984 142.51 410.606" fill="url(#paint1_linear)"/>
<path d="M151.176 410.254C151.176 410.254 155.821 418.642 157.459 416.127L162.405 407.17L163.96 412.32C163.96 412.32 158.534 426.032 155.975 422.788L150.383 416.767L151.176 410.254Z" fill="#70C250"/>
<path d="M133.896 444.402C133.896 444.402 135.099 444.057 136.776 441.05C136.776 441.05 142.317 442.758 145.919 442.259C145.919 442.259 144.697 449.342 149.118 447.806L146.168 450.314L140.109 449.476C140.109 449.476 134.293 447.134 133.896 444.402Z" fill="#2E2454"/>
<path d="M153.572 424.689C153.572 424.689 156.221 430.601 159.542 425.969C159.542 425.969 162.005 432.668 156.458 440.045C156.458 440.045 156.637 434.747 150.93 431.683C150.93 431.715 152.772 431.1 153.572 424.689Z" fill="white"/>
<path d="M138.472 432.341C138.472 432.341 141.767 435.271 149.029 433.262C149.029 433.262 154.083 437.914 153.091 442.053C153.091 442.053 146.444 447.933 147.039 440.806C147.039 440.806 139.655 441.19 137.262 438.963C137.262 438.982 135.42 437.703 138.472 432.341Z" fill="white"/>
<path d="M142.266 413.327C142.266 413.327 143.712 410.851 151.114 413.135" stroke="white" stroke-width="2.65" stroke-miterlimit="10" stroke-linecap="round"/>
<path d="M141.135 417.741C141.135 417.741 144.244 415.885 149.996 417.632" stroke="white" stroke-width="2.75" stroke-miterlimit="10" stroke-linecap="round"/>
<path d="M140.145 422.347C140.145 422.347 144.054 420.901 149.78 422.469" stroke="white" stroke-width="2.65" stroke-miterlimit="10" stroke-linecap="round"/>
<path d="M199.149 389.589H185.182V415.367H199.149V389.589Z" fill="url(#paint2_linear)"/>
<path d="M181.566 410.574C181.566 410.574 175.564 412.27 178.367 421.362C178.367 421.362 181.438 424.836 181.137 431.925C181.137 431.925 176.626 450.077 197.593 452.636C197.593 452.636 210.044 454.639 213.461 446.634C213.461 446.634 217.3 440.307 210.031 435.61L200.216 435.143L181.566 410.574Z" fill="#2E2454"/>
<path d="M204.058 416.621C204.941 422.06 207.116 431.599 211.147 437.499C211.147 437.499 217.091 447.096 202.433 448.484C202.433 448.484 180.122 449.252 183.238 425.803C183.238 425.803 183.878 422.226 181.511 416.992C181.511 416.992 179.201 415.47 183.641 405.188C183.641 405.188 184.857 401.931 184.883 405.412C184.883 405.412 187 410.377 190.308 409.334C190.308 409.334 197.314 399.314 202.733 405.706C202.746 405.712 203.616 413.908 204.058 416.621Z" fill="#A7A9AC"/>
<path d="M202.715 405.711C197.303 399.313 192.901 407.42 190.29 409.333C187.494 411.38 184.871 405.411 184.871 405.411C184.733 405.088 184.676 404.736 184.705 404.387" stroke="#2E2454" stroke-width="3.41" stroke-miterlimit="10" stroke-linecap="round"/>
<path d="M194.672 410.254C194.672 410.254 190.027 418.642 188.389 416.127L183.443 407.17L181.889 412.32C181.889 412.32 187.327 426.032 189.886 422.788L195.478 416.767L194.672 410.254Z" fill="#70C250"/>
<path d="M211.944 444.402C211.944 444.402 210.741 444.057 209.065 441.05C209.065 441.05 203.524 442.758 199.915 442.259C199.915 442.259 201.144 449.342 196.748 447.806L199.691 450.314L205.757 449.476C205.757 449.476 211.547 447.134 211.944 444.402Z" fill="#2E2454"/>
<path d="M192.271 424.689C192.271 424.689 189.616 430.601 186.302 425.969C186.302 425.969 183.838 432.668 189.379 440.045C189.379 440.045 189.2 434.747 194.913 431.683C194.913 431.715 193.084 431.1 192.271 424.689Z" fill="white"/>
<path d="M207.369 432.341C207.369 432.341 204.074 435.271 196.812 433.262C196.812 433.262 191.751 437.914 192.75 442.053C192.75 442.053 199.391 447.933 198.802 440.806C198.802 440.806 206.186 441.19 208.579 438.963C208.579 438.982 210.415 437.703 207.369 432.341Z" fill="white"/>
<path d="M203.282 410.574C203.499 409.397 203.967 406.614 203.64 405.456C203.096 403.459 200.409 402.48 198.65 402.256C193.365 401.572 194.376 407.893 194.664 411.483C194.919 414.682 195.585 417.881 195.783 421.118C196.001 424.593 195.489 426.877 195.969 430.249C196.116 431.266 199.443 430.888 201.183 430.888C202.924 430.888 205.444 431.125 206.302 430.108C207.294 428.975 206.161 426.186 205.662 424.554C204.829 421.644 204.24 418.669 203.903 415.661C203.685 414.151 203.493 413.031 203.41 411.732C203.344 411.36 203.299 410.984 203.276 410.606" fill="url(#paint3_linear)"/>
<path d="M204.493 418.624C204.335 418.624 204.181 418.582 204.045 418.502C203.987 418.502 201.108 416.89 195.887 418.502C195.777 418.536 195.661 418.547 195.546 418.536C195.431 418.525 195.319 418.491 195.217 418.437C195.116 418.382 195.025 418.308 194.952 418.219C194.879 418.13 194.824 418.027 194.79 417.917C194.756 417.806 194.745 417.69 194.756 417.575C194.767 417.46 194.801 417.349 194.855 417.247C194.91 417.145 194.984 417.055 195.073 416.981C195.162 416.908 195.265 416.853 195.375 416.819C201.428 414.977 204.806 416.928 204.973 417.011C205.173 417.132 205.316 417.327 205.373 417.554C205.429 417.78 205.393 418.02 205.273 418.22C205.191 418.351 205.075 418.457 204.938 418.528C204.801 418.599 204.647 418.632 204.493 418.624Z" fill="white"/>
<path d="M204.137 413.807C203.98 413.808 203.825 413.766 203.69 413.686C203.632 413.654 200.753 412.073 195.532 413.686C195.421 413.719 195.305 413.731 195.19 413.719C195.075 413.708 194.964 413.674 194.862 413.62C194.76 413.566 194.67 413.492 194.597 413.403C194.523 413.313 194.468 413.211 194.435 413.1C194.401 412.99 194.389 412.874 194.401 412.759C194.412 412.644 194.446 412.532 194.5 412.43C194.554 412.328 194.628 412.238 194.717 412.165C194.807 412.091 194.91 412.036 195.02 412.003C201.073 410.16 204.445 412.112 204.617 412.195C204.781 412.294 204.909 412.445 204.98 412.623C205.051 412.801 205.062 412.998 205.011 413.183C204.961 413.368 204.851 413.531 204.699 413.649C204.547 413.766 204.361 413.831 204.169 413.833L204.137 413.807Z" fill="white"/>
<path d="M195.244 423.327C195.039 423.325 194.842 423.25 194.688 423.114C194.535 422.979 194.435 422.792 194.408 422.589C194.381 422.386 194.428 422.18 194.54 422.009C194.653 421.838 194.823 421.713 195.02 421.657C200.939 420.038 205.002 421.497 205.168 421.561C205.362 421.651 205.515 421.81 205.597 422.007C205.679 422.204 205.684 422.425 205.611 422.626C205.537 422.826 205.391 422.992 205.201 423.09C205.011 423.188 204.792 423.211 204.586 423.154C204.534 423.154 200.817 421.83 195.468 423.295C195.395 423.315 195.32 423.325 195.244 423.327Z" fill="white"/>
<path opacity="0.7" d="M149.697 162.062C149.697 162.062 152.468 168.026 150.452 176.682" stroke="#70C250" stroke-width="0.64" stroke-miterlimit="10"/>
<path opacity="0.7" d="M158.6 160.622C158.6 160.622 163.385 168.127 160.353 175.044" stroke="#70C250" stroke-width="0.76" stroke-miterlimit="10"/>
<path opacity="0.7" d="M176.028 200.881C176.028 200.881 174.108 209.525 183.789 214.285" stroke="#70C250" stroke-width="0.76" stroke-miterlimit="10"/>
<path opacity="0.7" d="M168.084 215.136C168.084 215.136 172.147 224.484 181.488 222.174" stroke="#70C250" stroke-width="0.76" stroke-miterlimit="10"/>
<path opacity="0.6" d="M166.453 229.372C166.453 229.372 168.91 236.455 181.047 232.251" stroke="#70C250" stroke-width="0.76" stroke-miterlimit="10"/>
<path opacity="0.6" d="M167.521 243.84C167.521 243.84 172.211 248.99 182.135 243.366" stroke="#70C250" stroke-width="0.76" stroke-miterlimit="10"/>
<path opacity="0.6" d="M184.463 255.354C184.463 255.354 176.433 260.614 169.971 257.152" stroke="#70C250" stroke-width="0.76" stroke-miterlimit="10"/>
<path opacity="0.7" d="M169.627 200.208C169.627 200.208 170.695 208.999 160.605 212.8" stroke="#70C250" stroke-width="0.76" stroke-miterlimit="10"/>
<path opacity="0.7" d="M176.15 215.174C176.15 215.174 171.198 224.08 162.125 220.894" stroke="#70C250" stroke-width="0.76" stroke-miterlimit="10"/>
<path opacity="0.6" d="M176.397 229.494C176.397 229.494 173.262 236.308 161.592 230.947" stroke="#70C250" stroke-width="0.76" stroke-miterlimit="10"/>
<path opacity="0.6" d="M173.932 243.761C173.932 243.761 168.762 248.432 159.434 241.842" stroke="#70C250" stroke-width="0.76" stroke-miterlimit="10"/>
<path opacity="0.6" d="M155.971 253.621C155.971 253.621 163.45 259.642 170.213 256.82" stroke="#70C250" stroke-width="0.76" stroke-miterlimit="10"/>
<path d="M87.8798 271.17C86.6641 272.239 84.6807 275.175 84.9366 276.929C88.0717 277.191 90.695 274.926 92.173 272.45C92.2177 273.403 91.7891 274.261 91.9106 275.227C94.0732 275.335 95.4296 272.149 96.5941 271.074L102.352 264.395L97.2787 264.9L90.9765 266.109L87.8798 271.17Z" fill="#AC7E96"/>
<path d="M107.461 253.166C106.501 256.096 105.804 259.916 106.386 262.987C106.559 263.889 106.891 264.958 106.546 265.841C105.976 267.312 104.051 268.157 103.02 269.283C101.427 271.023 101.312 272.713 101.037 274.933C100.941 275.707 100.832 276.782 99.8469 276.923C97.8635 277.217 97.1405 273.967 97.0957 272.623C96.9131 270.783 97.1314 268.925 97.7355 267.178C98.0426 266.404 98.6185 265.694 98.5033 264.849C93.5255 268.816 87.5432 273.167 80.9275 273.244C79.4623 273.244 77.0182 273.704 77.2677 271.535C77.4597 269.885 79.6414 269.193 81.0299 268.624C86.5835 266.346 91.1454 262.783 95.8929 259.097C97.3069 258.003 98.7593 256.973 100.231 255.898C101.171 255.258 102.643 253.697 103.763 253.371C105.196 252.955 105.58 254.599 106.789 255.245" fill="#E4B0C9"/>
<path d="M257.563 271.17C258.772 272.239 260.762 275.175 260.506 276.929C257.365 277.191 254.748 274.926 253.264 272.45C253.225 273.403 253.647 274.261 253.526 275.227C251.37 275.335 250.007 272.149 248.842 271.074L243.084 264.395L248.158 264.9L254.466 266.109L257.563 271.17Z" fill="#AC7E96"/>
<path d="M237.977 253.166C238.936 256.096 239.634 259.916 239.051 262.987C238.885 263.889 238.552 264.958 238.891 265.841C239.467 267.312 241.393 268.157 242.423 269.283C244.016 271.023 244.132 272.713 244.407 274.933C244.503 275.707 244.605 276.782 245.59 276.923C247.574 277.217 248.297 273.967 248.348 272.623C248.524 270.783 248.306 268.927 247.708 267.178C247.401 266.404 246.819 265.694 246.934 264.849C251.918 268.816 257.901 273.167 264.516 273.244C265.981 273.244 268.419 273.704 268.17 271.535C267.984 269.885 265.796 269.193 264.408 268.624C258.854 266.346 254.298 262.783 249.544 259.097C248.13 258.003 246.678 256.973 245.207 255.898C244.272 255.258 242.801 253.697 241.675 253.371C240.248 252.955 239.858 254.599 238.655 255.245" fill="#E4B0C9"/>
<path d="M172.891 212.935C173.028 213.586 173.028 214.26 172.891 214.912V212.935Z" fill="#231F20"/>
<path d="M172.891 212.935C173.028 213.586 173.028 214.26 172.891 214.912" stroke="white" stroke-width="0.38" stroke-miterlimit="10"/>
<path d="M229.852 214.202C229.398 212.469 228.386 210.933 226.973 209.832C225.751 208.725 223.774 205.468 221.823 201.258L202.039 158.512C199.378 151.966 191.162 151.973 187.132 150.917C177.579 148.428 178.289 142.676 178.289 142.676L178.584 135.261H167.566L167.86 142.676C167.86 142.676 168.57 148.435 159.018 150.917C154.981 151.973 146.055 151.966 143.387 158.512L123.623 201.258C121.646 205.468 119.695 208.725 118.466 209.832C117.057 210.937 116.046 212.471 115.587 214.202L100.801 255.79L107.033 258.631L129.682 221.259C129.829 221.054 129.977 220.837 130.105 220.619C131.006 219.265 131.515 217.689 131.576 216.064C132.313 213.389 133.27 210.781 134.436 208.264L150.092 175.736C153.176 184.188 156.241 193.651 156.651 198.673C157.047 203.446 153.682 217.58 153.682 217.58C153.682 217.58 159.651 218.68 172.806 219.499V219.525H173.075H173.35V219.493C186.498 218.687 191.7 217.67 191.7 217.67C191.7 217.67 188.917 203.446 189.352 198.68C189.806 193.727 192.653 184.514 195.539 176.164L210.997 208.258C212.163 210.774 213.118 213.383 213.85 216.057C213.91 217.683 214.422 219.261 215.328 220.613C215.463 220.83 215.604 221.048 215.757 221.253L238.407 258.624L244.639 255.784L229.852 214.202Z" fill="url(#paint4_linear)"/>
<path d="M151.27 211.066C151.27 211.066 169.351 205.192 194.502 211.104L192.192 219.524L155.025 227.202L151.27 211.066Z" fill="#2E2454"/>
<path d="M156.562 201.859C156.562 201.859 162.659 197.7 172.557 197.092C177.298 196.798 182.98 198.231 189.385 201.456C189.385 201.456 191.502 216.492 192.405 217.573C193.307 218.654 191.502 216.492 191.502 216.492L175.065 227.202L152.441 219.524L156.562 201.859Z" fill="url(#paint5_linear)"/>
<path d="M164.455 198.468C163.873 198.385 163.105 198.897 162.356 199.108C160.338 199.821 158.396 200.734 156.56 201.833L154.205 211.93L167.577 216.217C161.819 212.979 164.455 198.442 164.455 198.442" fill="#E39FB8"/>
<path opacity="0.3" d="M181.723 198.367C182.305 198.29 183.373 198.923 184.122 199.154C185.937 199.755 187.692 200.526 189.362 201.457L191.16 211.957L177.781 216.243C183.54 213.006 181.742 198.367 181.742 198.367" fill="white"/>
<path d="M136.52 173.368C137.2 174.717 137.554 176.206 137.554 177.716C137.554 179.226 137.2 180.715 136.52 182.063L125.937 204.847C125.256 205.703 124.388 206.391 123.4 206.86C122.412 207.329 121.33 207.566 120.236 207.554L136.52 173.368Z" fill="#572188"/>
<path d="M148.73 178.576C147.228 178.871 145.818 179.521 144.619 180.471C143.419 181.422 142.464 182.645 141.833 184.04C141.833 184.04 136.535 194.188 135.141 197.726C134.565 199.191 134.149 200.976 136.567 203.849L148.73 178.576Z" fill="#572188"/>
<path d="M135.977 206.671C135.977 206.671 133.866 204.214 133.597 201.552C133.597 201.552 133.495 201.149 133.021 201.917C133.021 201.917 131.274 204.758 135.011 209.332L135.977 206.671Z" fill="#572188"/>
<path d="M134.377 210.222C134.377 210.222 132.266 207.765 131.997 205.104C131.997 205.104 131.895 204.701 131.421 205.462C131.421 205.462 129.783 208.354 133.526 212.922L134.377 210.222Z" fill="#572188"/>
<path d="M139.904 166.034C139.904 166.034 160.762 165.503 160.276 150.55C160.276 150.55 142.368 149.277 139.904 166.034Z" fill="#2E2454"/>
<path d="M205.519 166.034C205.519 166.034 184.661 165.503 185.147 150.55C185.147 150.55 203.056 149.277 205.519 166.034Z" fill="#2E2454"/>
<path d="M208.874 173.26C208.157 174.612 207.77 176.114 207.745 177.645C207.721 179.175 208.059 180.689 208.733 182.064L219.316 204.848C220.046 205.696 220.95 206.377 221.967 206.844C222.984 207.311 224.089 207.553 225.208 207.554L208.874 173.26Z" fill="#572188"/>
<path d="M196.709 178.493C198.182 178.829 199.555 179.505 200.719 180.467C201.884 181.43 202.807 182.651 203.414 184.034C203.414 184.034 208.712 194.182 210.113 197.72C210.689 199.185 211.105 200.97 208.68 203.843L196.709 178.493Z" fill="#572188"/>
<path d="M209.27 206.671C209.27 206.671 211.381 204.214 211.656 201.552C211.656 201.552 211.758 201.149 212.226 201.917C212.226 201.917 213.979 204.758 210.236 209.332L209.27 206.671Z" fill="#572188"/>
<path d="M210.867 210.222C210.867 210.222 212.985 207.765 213.254 205.104C213.254 205.104 213.356 204.701 213.823 205.462C213.823 205.462 215.461 208.354 211.725 212.922L210.867 210.222Z" fill="#572188"/>
<path opacity="0.8" d="M192.001 280.423C192.001 280.423 186.428 283.903 177.586 282.982" stroke="#70C250" stroke-width="0.64" stroke-miterlimit="10"/>
<path d="M194.519 289.079C194.519 289.079 187.667 294.754 180.443 292.598" stroke="#70C250" stroke-width="0.76" stroke-miterlimit="10"/>
<path opacity="0.8" d="M146.016 277.825C146.016 277.825 151.224 281.837 160.092 281.76" stroke="#70C250" stroke-width="0.64" stroke-miterlimit="10"/>
<path d="M142.658 286.2C142.658 286.2 148.935 292.509 156.344 291.069" stroke="#70C250" stroke-width="0.76" stroke-miterlimit="10"/>
<path d="M219.473 349.971C216.043 340.022 213.318 314.442 211.059 303.034C212.396 263.596 197.872 218.386 197.872 218.386C197.645 216.833 197.091 215.346 196.247 214.022L196.196 213.907C195.94 213.267 195.012 211.303 194.501 211.098C193.637 210.734 191.775 211.738 190.898 211.962L191.052 212.013C186.836 212.148 181.032 214.208 178.78 215.776C171.678 219.109 161.646 214.336 154.531 212.065C153.891 211.873 151.927 210.983 151.268 211.06C150.308 211.162 149.157 213.933 149.086 214.713C148.59 215.57 148.148 216.457 147.762 217.369C145.798 221.937 143.43 226.141 141.959 230.626C136.062 248.294 132.158 266.565 130.32 285.1C129.226 296.962 132.88 324.506 132.329 336.177C131.926 344.821 126.053 351.123 126.513 359.517C126.648 361.872 127.607 363.356 127.486 365.346C127.326 367.905 125.202 368.296 124.562 370.503C123.602 373.773 123.417 377.906 123.122 381.124C122.079 392.487 128.145 392.142 137.07 393.581C140.961 394.221 162.714 396.864 166.048 391.547C168.965 390.146 172.196 387.503 172.523 385.552C173.015 382.608 170.469 382.026 170.514 379.678C170.514 378.29 172.209 376.402 172.497 374.931C173.297 370.817 171.755 366.613 171.41 362.736C170.648 354.169 172.484 345.416 172.484 336.33C172.484 326.042 167.321 315.082 168.607 305.421C169.381 299.662 171.07 294.205 171.019 288.427C170.971 285.891 170.446 283.386 169.471 281.044C171.713 279.362 174.43 278.433 177.232 278.388C177.232 278.759 177.193 279.137 177.161 279.502C175.242 287.519 173.444 294.134 173.444 303.29C173.443 315.524 174.262 327.744 175.895 339.869C176.502 344.501 175.927 348.672 176.957 353.17C177.443 355.282 178.339 355.864 178.3 358.474C178.3 360.221 176.592 361.981 176.803 363.766C177.085 366.114 178.934 366.024 178.895 368.136C178.895 369.62 177.155 372.051 176.835 373.843C176.24 377.196 176.195 383.856 177.795 386.588C179.497 389.455 186.688 392.129 190.073 393.249C194.635 396.275 201.34 397.612 206.017 397.184C236.153 394.413 224.355 364.124 219.473 349.971Z" fill="url(#paint6_linear)"/>
<path d="M169.971 300.883C169.971 300.883 173.279 289.654 169.472 281.049C169.472 281.049 175.87 277.85 177.233 278.387C177.233 278.387 158.934 268.399 154.199 264.202C154.199 264.202 164.916 296.686 169.6 299.571" fill="#1D183A"/>
<path d="M170.181 354.29C165.127 365.167 153.719 381.099 131.408 382.359C131.408 382.359 150.174 394.912 171.57 382.238C171.57 382.238 169.727 380.094 171.57 377.049C171.57 377.049 174.57 374.246 171.57 362.934C171.57 362.934 170.751 354.45 171.717 349.684C171.717 349.684 170.687 353.19 170.181 354.29Z" fill="url(#paint7_linear)"/>
<path d="M170.186 300.052L157.172 289.079C157.172 289.079 163.57 310.257 168.727 314.621C168.727 314.621 169.066 301.645 170.186 300.052Z" fill="#1D183A"/>
<path d="M131.408 341.545C131.408 341.545 146.124 330.668 152.286 311.863C152.286 311.863 135.01 332.715 132.125 332.235L131.408 341.545Z" fill="url(#paint8_linear)"/>
<path d="M187.034 222.479C187.034 222.479 182.722 228.954 177.584 229.262L174.442 271.989L170.188 225.327C170.188 225.327 185.146 225.244 187.034 222.479Z" fill="url(#paint9_linear)"/>
<path d="M225.203 383.349C225.203 383.349 203.788 391.859 188.682 384.827C188.682 384.827 215.516 378.525 216.482 365.684L205.694 370.284L219.131 348.229C219.131 348.229 228.6 374.622 225.203 383.349Z" fill="url(#paint10_linear)"/>
<path d="M211.204 297.216C211.415 290.875 209.764 274.938 209.764 274.938L203.366 282.539L200.48 352.349L215.99 331.747C215.99 331.747 213.13 313.173 211.204 297.216Z" fill="url(#paint11_linear)"/>
<path d="M135.498 360.105C135.498 360.105 161.347 347.015 164.93 335.869C164.93 335.869 166.305 361.967 135.498 360.105Z" fill="url(#paint12_linear)"/>
<path d="M180.023 372.319C180.023 372.319 196.723 367.937 204.708 357.604C204.708 357.597 199.18 376.005 180.023 372.319Z" fill="url(#paint13_linear)"/>
<path d="M225.889 373.809C214.43 385.083 190.469 381.788 190.469 381.788V345.817C190.469 333.11 190.469 321.83 190.469 311.862C190.52 264.515 190.961 246.901 190.961 246.901L199.919 229.127" stroke="#5F578C" stroke-width="1.14" stroke-linejoin="round"/>
<path d="M197.873 218.386C197.873 218.386 196.177 221.956 192.633 222.557C192.633 222.557 192.946 243.479 205.615 249.039C205.615 249.039 199.504 221.617 197.873 218.386Z" fill="url(#paint14_linear)"/>
<path d="M147.011 219.012C147.011 219.012 153.07 223.766 155.373 224.309C155.373 224.309 142.724 245.743 137.049 247.234C137.068 247.234 141.943 224.808 147.011 219.012Z" fill="url(#paint15_linear)"/>
<path d="M123.477 376.964C133.182 381.136 143.746 382.922 154.284 382.172L152.268 345.817C152.268 333.11 152.3 321.83 152.268 311.862C152.217 264.515 151.776 246.901 151.776 246.901L142.818 229.127" stroke="#5F578C" stroke-width="1.14" stroke-linejoin="round"/>
<mask id="mask0" style="mask-type:alpha" maskUnits="userSpaceOnUse" x="123" y="211" width="103" height="187">
<path d="M219.473 349.971C216.043 340.022 213.318 314.442 211.059 303.034C212.396 263.596 197.872 218.386 197.872 218.386C197.645 216.833 197.091 215.346 196.247 214.022L196.196 213.907C195.94 213.267 195.012 211.303 194.501 211.098C193.637 210.734 191.775 211.738 190.898 211.962L191.052 212.013C186.836 212.148 181.032 214.208 178.78 215.776C171.678 219.109 161.646 214.336 154.531 212.065C153.891 211.873 151.927 210.983 151.268 211.06C150.308 211.162 149.157 213.933 149.086 214.713C148.59 215.57 148.148 216.457 147.762 217.369C145.798 221.937 143.43 226.141 141.959 230.626C136.062 248.294 132.158 266.565 130.32 285.1C129.226 296.962 132.88 324.506 132.329 336.177C131.926 344.821 126.053 351.123 126.513 359.517C126.648 361.872 127.607 363.356 127.486 365.346C127.326 367.905 125.202 368.296 124.562 370.503C123.602 373.773 123.417 377.906 123.122 381.124C122.079 392.487 128.145 392.142 137.07 393.581C140.961 394.221 162.714 396.864 166.048 391.547C168.965 390.146 172.196 387.503 172.523 385.552C173.015 382.608 170.469 382.026 170.514 379.678C170.514 378.29 172.209 376.402 172.497 374.931C173.297 370.817 171.755 366.613 171.41 362.736C170.648 354.169 172.484 345.416 172.484 336.33C172.484 326.042 167.321 315.082 168.607 305.421C169.381 299.662 171.07 294.205 171.019 288.427C170.971 285.891 170.446 283.386 169.471 281.044C171.713 279.362 174.43 278.433 177.232 278.388C177.232 278.759 177.193 279.137 177.161 279.502C175.242 287.519 173.444 294.134 173.444 303.29C173.443 315.524 174.262 327.744 175.895 339.869C176.502 344.501 175.927 348.672 176.957 353.17C177.443 355.282 178.339 355.864 178.3 358.474C178.3 360.221 176.592 361.981 176.803 363.766C177.085 366.114 178.934 366.024 178.895 368.136C178.895 369.62 177.155 372.051 176.835 373.843C176.24 377.196 176.195 383.856 177.795 386.588C179.497 389.455 186.688 392.129 190.073 393.249C194.635 396.275 201.34 397.612 206.017 397.184C236.153 394.413 224.355 364.124 219.473 349.971Z" fill="url(#paint16_linear)"/>
</mask>
<g mask="url(#mask0)">
<path d="M118.576 312.195L144.911 338.53V249.723L133.484 227.201C120.029 248.789 118.576 312.195 118.576 312.195Z" stroke="#5F578C" stroke-width="4.92" stroke-linejoin="round"/>
<path d="M209.224 227.201L197.803 249.723V338.53L224.131 312.201C224.131 312.201 222.679 248.789 209.224 227.201Z" stroke="#5F578C" stroke-width="4.92" stroke-linejoin="round"/>
</g>
<path d="M151.27 215.717C151.27 215.717 168.941 229.153 194.502 216.523" stroke="#5F578C" stroke-width="3.41" stroke-linejoin="round"/>
<path d="M185.76 137.063C184.8 136.699 183.399 137.243 182.522 137.543C180.942 138.025 179.324 138.371 177.685 138.58C177.852 137.499 177.609 136.372 177.685 135.259C177.762 134.146 180.289 132.764 180.731 131.721C181.838 129.162 183.482 126.852 184.954 124.478C185.875 122.994 186.7 121.01 188.153 119.942C188.908 119.372 189.567 119.507 190.495 119.731C191.665 120.012 193.847 120.371 194.365 121.65C194.954 123.128 194.436 125.291 193.726 126.634C192.698 128.617 191.462 130.485 190.04 132.207C188.697 133.896 187.231 135.406 185.881 137.038" fill="#683199"/>
<path d="M159.28 137.672C160.234 137.996 161.254 138.08 162.248 137.915C162.252 137.678 162.237 137.44 162.204 137.205C162.671 138.376 166.554 138.907 167.86 138.613C167.86 137.128 167.815 136.296 166.932 135.26C163.578 131.216 160.555 126.909 157.891 122.38C155.742 118.849 154.276 115.406 153.944 111.024C153.752 108.464 155.543 107.293 156.65 105.22C158.454 101.861 161.73 96.4677 154.993 97.485C152.287 97.8945 151.084 100.204 149.97 102.604C148.313 106.123 148.313 109.603 148.083 113.378C147.641 120.621 147.245 129.726 153.873 134.492C155.594 135.733 157.802 136.316 159.516 137.525" fill="#683199"/>
<path d="M188.943 94.1191C190.159 97.8429 192.315 100.62 194.235 104.056C196.327 107.798 196.461 111.983 198.31 115.847C199.206 117.728 200.422 119.411 200.281 121.574C200.159 123.448 199.059 124.984 198.848 126.865C198.515 129.802 200.37 133.372 202.437 135.285C199.878 136.635 192.769 138.446 192.334 134.581C192.331 135.624 192.496 136.661 192.821 137.652C190.095 138.331 186.697 137.115 184.074 137.057C186.461 134.389 187.632 132.732 188.783 129.053C190.28 124.28 191.528 118.816 190.856 113.845C190.383 110.396 188.617 107.869 188.003 104.529C187.634 102.672 187.477 100.778 187.536 98.8858C187.651 97.2223 188.361 96.1986 188.732 94.6566" fill="#A96AD8"/>
<path d="M167.617 136.65L167.752 144.129C169.3 145.15 171.094 145.736 172.947 145.825C172.947 145.825 176.242 146.074 178.398 144.372L178.769 133.738L168.839 132.74L167.617 136.65Z" fill="#2E2454"/>
<path d="M196.03 115.681C196.151 116.862 195.919 118.052 195.362 119.099C194.804 120.147 193.948 121.006 192.901 121.565C191.854 122.124 190.664 122.359 189.484 122.239C188.303 122.12 187.184 121.651 186.271 120.894C185.357 120.136 184.69 119.124 184.354 117.986C184.018 116.847 184.028 115.635 184.384 114.503C184.74 113.37 185.425 112.37 186.351 111.628C187.278 110.886 188.404 110.438 189.587 110.339C191.149 110.194 192.705 110.676 193.913 111.677C195.121 112.679 195.882 114.119 196.03 115.681Z" fill="#E39FB8"/>
<path d="M191.221 99.7492C188.169 93.4853 177.004 92.2441 169.64 92.8583C167.096 93.0691 164.629 93.8379 162.416 95.1099C160.202 96.382 158.297 98.126 156.834 100.218C155.371 102.31 154.387 104.699 153.952 107.214C153.516 109.73 153.641 112.31 154.316 114.772L155.973 124.478C156.805 127.042 158.163 129.404 159.96 131.414C161.757 133.423 163.953 135.036 166.409 136.148C167.434 136.67 168.505 137.098 169.608 137.428C170.026 137.571 170.453 137.684 170.887 137.767C171.731 137.926 172.591 137.971 173.447 137.902C174.445 137.816 175.423 137.572 176.345 137.179L176.441 137.134C176.658 137.038 176.876 136.929 177.081 136.82C177.927 136.393 178.746 135.912 179.531 135.381C181.915 133.894 183.946 131.907 185.485 129.557C187.024 127.207 188.034 124.551 188.444 121.772L190.747 112.347C190.797 111.035 190.774 109.722 190.677 108.412C190.472 106.192 192.142 101.63 191.221 99.7492Z" fill="url(#paint17_linear)"/>
<path d="M165.78 121.729C165.78 121.729 160.822 123.194 158.307 123.341C158.307 123.341 163.458 134.371 167.636 136.553C168.34 136.918 169.101 137.007 169.395 137.193C170.861 137.999 167.725 136.79 167.725 136.79C167.725 136.79 158.704 133.399 156.324 125.567L156.087 124.928L155.633 121.543C158.985 122.129 162.409 122.192 165.78 121.729Z" fill="url(#paint18_linear)"/>
<path d="M188.97 106.187L184.587 97.3574H180.109L181.062 100.595L183.832 104.012C183.832 104.012 177.121 105.035 176.43 106.507C176.43 106.507 182.188 104.92 184.383 106.507" fill="url(#paint19_linear)"/>
<path d="M177.637 113.434C177.637 113.434 177.641 113.424 177.637 113.434V113.434Z" fill="#231F20"/>
<path d="M178.456 114.46C178.412 114.321 178.378 114.18 178.353 114.037C178.271 113.305 178.372 112.564 178.648 111.881L179.057 111.696C179.521 111.18 180.164 110.862 180.855 110.806H181.028H181.194H182.269L182.019 110.659L180.286 110.755L178.2 112.176L177.406 113.314L177.15 114.78C177.7 115.311 178.353 115.722 179.07 115.989C178.799 115.503 178.584 114.988 178.43 114.453L178.456 114.46Z" fill="white"/>
<path d="M185.741 113.68L185.459 112.675L183.066 111.28C183.537 111.798 183.803 112.469 183.815 113.168C183.815 113.238 183.815 113.302 183.815 113.372C183.88 114.159 183.729 114.949 183.38 115.657C184.307 115.186 185.114 114.51 185.741 113.68Z" fill="white"/>
<path d="M183.06 111.272L182.42 110.812H182.26L183.066 111.279L183.06 111.272Z" fill="#231F20"/>
<path d="M183.84 113.371C183.84 113.3 183.84 113.236 183.84 113.166C183.828 112.467 183.562 111.796 183.091 111.279L182.285 110.812H181.21H181.044H180.871C180.18 110.867 179.537 111.186 179.073 111.701L178.664 111.886C178.388 112.57 178.287 113.311 178.37 114.043C178.395 114.185 178.429 114.326 178.472 114.465C178.626 115 178.84 115.515 179.112 116C179.82 116.272 180.583 116.375 181.338 116.301C182.073 116.227 182.786 116.009 183.437 115.661C183.777 114.949 183.916 114.157 183.84 113.371Z" fill="#2E2454"/>
<path d="M176.656 114.535C176.654 113.779 176.779 113.029 177.027 112.315C177.237 111.615 177.634 110.985 178.175 110.493C178.716 110.002 179.381 109.667 180.099 109.525L180.175 109.903C179.521 110.031 178.916 110.339 178.425 110.79C177.935 111.242 177.58 111.821 177.398 112.462C177.164 113.133 177.043 113.838 177.04 114.548L176.656 114.535Z" fill="#2E2454"/>
<path d="M164.097 115.655C164.109 115.512 164.109 115.369 164.097 115.226C164.059 114.493 163.839 113.78 163.457 113.153L163.022 113.032C162.476 112.608 161.791 112.402 161.102 112.456H160.936L160.782 112.488L159.727 112.68L159.944 112.494L161.684 112.283L163.975 113.339L164.928 114.343L165.427 115.751C164.972 116.365 164.395 116.879 163.732 117.261C163.91 116.734 164.031 116.189 164.09 115.636L164.097 115.655Z" fill="white"/>
<path d="M156.781 116.104L156.89 115.068L159.014 113.289C158.633 113.88 158.482 114.591 158.592 115.285C158.592 115.349 158.592 115.42 158.592 115.49C158.658 116.276 158.94 117.028 159.405 117.665C158.421 117.354 157.523 116.82 156.781 116.104Z" fill="white"/>
<path d="M159.02 113.288L159.577 112.725L159.73 112.699L159.014 113.288H159.02Z" fill="#231F20"/>
<path d="M158.599 115.489C158.599 115.418 158.599 115.348 158.599 115.284C158.49 114.589 158.64 113.879 159.022 113.288L159.738 112.699L160.794 112.507L160.947 112.475H161.114C161.803 112.422 162.487 112.627 163.033 113.051L163.468 113.173C163.85 113.8 164.07 114.512 164.108 115.246C164.121 115.388 164.121 115.532 164.108 115.674C164.049 116.227 163.928 116.772 163.75 117.299C163.089 117.674 162.352 117.893 161.594 117.939C160.859 117.985 160.123 117.889 159.425 117.658C158.956 117.024 158.671 116.274 158.599 115.489Z" fill="#2E2454"/>
<path d="M165.761 115.49H165.377C165.441 114.359 165.067 113.248 164.333 112.385C163.599 111.523 162.562 110.976 161.436 110.858L161.493 110.474C165.978 111.145 165.761 115.451 165.761 115.49Z" fill="#2E2454"/>
<path d="M170.718 122.202L169.17 120.923C170.026 119.578 170.325 117.953 170.002 116.393C170.002 116.393 171.435 120.539 170.718 122.202Z" fill="white"/>
<path d="M173.355 121.728C173.393 121.636 173.45 121.553 173.522 121.485C173.597 121.413 173.681 121.351 173.771 121.299C173.882 121.243 174.001 121.206 174.123 121.19H174.315C174.377 121.193 174.437 121.206 174.494 121.229L174.648 121.293C174.699 121.293 174.731 121.35 174.769 121.376C174.844 121.442 174.913 121.515 174.974 121.594C174.974 121.594 174.853 121.562 174.699 121.504C174.661 121.484 174.62 121.471 174.578 121.466C174.533 121.472 174.488 121.472 174.443 121.466C174.392 121.466 174.347 121.466 174.296 121.466H174.149C174.051 121.47 173.954 121.487 173.861 121.517C173.778 121.562 173.675 121.574 173.611 121.619L173.355 121.728Z" fill="white"/>
<path d="M178.365 124.965C178.167 125.378 177.891 125.75 177.553 126.059C176.802 125.352 175.845 124.903 174.821 124.779C174.652 124.74 174.481 124.714 174.309 124.703C173.936 124.666 173.56 124.727 173.218 124.88C172.876 125.032 172.579 125.271 172.357 125.573C172.019 125.413 171.642 125.354 171.271 125.403C170.9 125.452 170.551 125.606 170.265 125.848C168.646 126.865 168.198 128.017 168.083 128.663C167.72 128.578 167.379 128.414 167.085 128.183L166.561 128.746C167.074 129.163 167.695 129.427 168.352 129.508C169.926 132.483 173.893 131.069 173.893 131.069C177.322 130.365 177.732 127.723 177.847 126.846C178.356 126.431 178.771 125.912 179.063 125.323L178.365 124.965Z" fill="#2E2454"/>
<path d="M171.211 128.426C171.211 128.426 172.299 126.718 174.679 127.627C174.259 128.108 173.697 128.445 173.074 128.589C172.452 128.732 171.8 128.675 171.211 128.426Z" fill="white"/>
<path d="M186.95 107.972C186.861 107.882 186.778 107.792 186.682 107.709L186.4 107.453C186.304 107.37 186.202 107.3 186.1 107.223L185.946 107.108L185.786 107.006C185.677 106.935 185.575 106.865 185.46 106.801C185.345 106.737 185.165 106.641 185.012 106.57C183.267 105.739 181.316 105.436 179.401 105.7C178.946 105.734 178.495 105.803 178.051 105.905C176.914 106.17 175.872 106.741 175.037 107.556L175.005 107.594C174.722 107.872 174.477 108.186 174.276 108.528L174.18 108.65L174.276 108.72C174.311 108.752 174.349 108.78 174.391 108.803L174.532 108.899C174.578 108.934 174.627 108.964 174.679 108.989L174.82 109.066L174.973 109.13L175.127 109.187C175.178 109.21 175.232 109.227 175.287 109.238L175.453 109.277C175.508 109.284 175.564 109.284 175.619 109.277H175.792H175.965C176.078 109.283 176.191 109.283 176.304 109.277L176.63 109.213H176.739L176.861 109.123L177.116 108.931L177.398 108.733C177.59 108.605 177.782 108.483 177.987 108.368C178.191 108.253 178.383 108.138 178.588 108.029L178.895 107.869L179.209 107.722C179.42 107.626 179.631 107.537 179.848 107.46C180.066 107.383 180.284 107.3 180.488 107.236C180.597 107.197 180.708 107.165 180.821 107.14L181.154 107.057L181.486 106.993L181.826 106.942C182.049 106.942 182.28 106.89 182.504 106.884C182.617 106.878 182.73 106.878 182.843 106.884C182.956 106.877 183.069 106.877 183.182 106.884L183.521 106.916L183.86 106.974L184.186 107.05L184.353 107.095L184.513 107.146C184.731 107.216 184.945 107.299 185.153 107.396L185.453 107.556L185.607 107.639L185.754 107.735C185.85 107.799 185.946 107.856 186.042 107.927L186.317 108.138C186.413 108.208 186.496 108.285 186.586 108.362L186.842 108.599L187.2 108.266L186.95 107.972Z" fill="#2E2454"/>
<path d="M191.731 112.214C189.812 112.918 189.204 117.467 189.172 117.659L189.652 117.716C189.787 116.734 190.019 115.768 190.343 114.831C190.487 114.823 190.631 114.844 190.768 114.892C190.904 114.94 191.029 115.015 191.136 115.112C191.494 115.445 191.853 116.232 191.584 118.126L192.064 118.196C192.307 116.501 192.102 115.342 191.462 114.754C191.206 114.521 190.88 114.379 190.535 114.351C190.755 113.637 191.24 113.035 191.891 112.668C192.39 112.489 192.966 112.7 193.606 113.308L193.932 112.956C193.158 112.207 192.441 111.964 191.731 112.214Z" fill="#2E2454"/>
<path d="M177.637 113.434C177.637 113.434 177.641 113.424 177.637 113.434V113.434Z" fill="#2E2454"/>
<path d="M181.649 110.268C181.566 110.262 181.482 110.262 181.399 110.268H181.092C180.99 110.268 180.894 110.268 180.792 110.319C180.394 110.392 180.007 110.515 179.64 110.684C179.287 110.86 178.954 111.075 178.648 111.324C178.363 111.546 178.103 111.799 177.874 112.079C177.671 112.334 177.492 112.605 177.337 112.892C177.298 112.956 177.273 113.02 177.241 113.077C177.23 113.109 177.215 113.139 177.196 113.167V113.211C177.145 113.339 177.093 113.455 177.055 113.57C177.017 113.685 177.004 113.749 176.978 113.832C176.924 114.041 176.894 114.256 176.889 114.472L177.241 114.773C177.243 114.728 177.243 114.683 177.241 114.638V114.478C177.237 114.446 177.237 114.414 177.241 114.382C177.241 114.35 177.241 114.312 177.241 114.274C177.241 114.235 177.279 114.12 177.305 114.03C177.33 113.941 177.375 113.845 177.407 113.743C177.439 113.64 177.503 113.538 177.548 113.429V113.384L177.727 113.314C177.759 113.256 177.791 113.186 177.823 113.135C177.972 112.891 178.143 112.662 178.335 112.45C178.545 112.209 178.783 111.994 179.045 111.81C179.323 111.618 179.621 111.457 179.934 111.33C180.255 111.196 180.593 111.106 180.939 111.062H181.195H181.457C181.627 111.051 181.798 111.051 181.969 111.062C182.611 111.136 183.228 111.355 183.773 111.701L183.952 111.823L184.042 111.881L184.119 111.945L184.279 112.073L184.426 112.207C184.501 112.275 184.571 112.347 184.637 112.424C184.859 112.802 184.975 113.231 184.975 113.669C184.975 114.106 184.859 114.536 184.637 114.913C184.815 114.811 184.982 114.691 185.136 114.555C185.882 114 186.436 113.226 186.723 112.341C184.125 109.852 181.649 110.268 181.649 110.268Z" fill="#2E2454"/>
<path d="M165.496 114.85L165.374 114.613C165.317 114.504 165.246 114.396 165.176 114.28V114.236L165.118 114.159L164.926 113.954C164.735 113.699 164.521 113.461 164.286 113.244C164.018 112.997 163.722 112.782 163.404 112.604C163.061 112.418 162.698 112.272 162.322 112.169C161.918 112.07 161.503 112.025 161.087 112.035C160.985 112.035 160.883 112.035 160.78 112.035H160.62H160.48C160.278 112.056 160.077 112.088 159.878 112.131H159.814C158.955 112.271 158.132 112.583 157.396 113.048C156.659 113.513 156.024 114.121 155.527 114.837C155.935 115.656 156.588 116.327 157.396 116.756C157.613 116.91 157.85 117.034 158.099 117.128C157.817 116.794 157.628 116.391 157.552 115.961C157.475 115.531 157.514 115.088 157.664 114.677C157.72 114.591 157.78 114.508 157.843 114.427L157.959 114.274L158.099 114.12L158.163 114.044L158.24 113.973L158.4 113.826C158.634 113.623 158.887 113.443 159.155 113.289C159.449 113.134 159.758 113.01 160.076 112.918C160.24 112.871 160.407 112.837 160.576 112.815H160.716H160.831H161.094C161.442 112.802 161.79 112.834 162.13 112.911C162.46 112.984 162.78 113.096 163.084 113.244C163.372 113.379 163.645 113.547 163.896 113.743C164.128 113.92 164.342 114.12 164.536 114.338C164.581 114.383 164.619 114.44 164.664 114.491L164.722 114.575V114.613C164.791 114.705 164.855 114.802 164.914 114.901L165.061 115.17C165.105 115.253 165.137 115.33 165.169 115.4L165.214 115.496L165.253 115.592L165.304 115.746C165.336 115.829 165.349 115.873 165.349 115.873L165.649 115.515C165.623 115.288 165.572 115.065 165.496 114.85Z" fill="#2E2454"/>
<path d="M162.101 105.841C161.717 105.7 161.358 105.591 161.032 105.502C160.284 105.287 159.506 105.198 158.729 105.239H158.524C158.397 105.247 158.271 105.264 158.146 105.291L157.961 105.323L157.782 105.374L157.603 105.425H157.513L157.423 105.457L157.078 105.598L156.752 105.77L156.592 105.854L156.438 105.956L156.131 106.161L155.849 106.385L155.709 106.5L155.574 106.621L155.331 106.916C155.248 106.999 155.171 107.088 155.088 107.178L154.967 107.306L154.909 107.376H154.877C154.877 107.376 154.877 107.376 154.928 107.479L155.267 107.792C155.35 107.85 155.363 107.85 155.37 107.837H155.402L155.459 107.779L155.574 107.664C155.658 107.588 155.728 107.504 155.811 107.434L156.061 107.223L156.182 107.114L156.317 107.024L156.579 106.833C156.662 106.775 156.758 106.724 156.848 106.673L156.982 106.589L157.129 106.519L157.411 106.391L157.705 106.289H157.775H157.852L157.999 106.25H158.146H158.3C158.4 106.241 158.501 106.241 158.601 106.25C158.703 106.25 158.805 106.25 158.908 106.25H159.209L159.509 106.308C159.612 106.308 159.708 106.359 159.804 106.385C160.003 106.442 160.198 106.515 160.386 106.602C160.482 106.644 160.576 106.691 160.667 106.743L160.802 106.813L160.942 106.897C161.035 106.947 161.125 107.003 161.211 107.063C161.294 107.127 161.384 107.178 161.467 107.248C161.55 107.319 161.806 107.511 161.973 107.652C162.139 107.792 162.26 107.914 162.401 108.055H162.369H162.401C162.529 108.176 163.777 109.462 163.783 109.469C164.225 109.846 164.716 110.162 165.242 110.409C165.62 110.535 166.028 110.535 166.406 110.409C166.685 110.3 166.934 110.128 167.134 109.906C167.334 109.684 167.479 109.418 167.558 109.13C167.257 108.33 166.08 107.159 162.101 105.841Z" fill="#2E2454"/>
<path d="M194.115 110.115C194.032 102.277 192.125 96.9793 189.412 93.4091L189.355 93.3387C187.893 91.4263 186.042 89.8471 183.923 88.7064C176.494 84.4452 167.857 85.6672 167.857 85.6672C164.428 86.0512 161.13 87.2004 158.205 89.0298C155.281 90.8593 152.804 93.3223 150.959 96.2371C149.257 99.0119 148.142 102.106 147.683 105.329C147.535 106.105 147.463 106.893 147.466 107.683C147.466 107.824 147.466 107.895 147.466 107.895C147.466 108.214 147.466 108.534 147.51 108.861C147.913 113.621 143.883 118.381 142.392 122.854C141.259 126.238 143.671 128.522 143.601 132.054C143.544 134.21 143.057 135.669 141.682 137.058C143.015 138.049 144.627 138.593 146.288 138.612C148.777 138.612 149.526 138.228 150.569 136.482C150.559 137.062 150.617 137.642 150.741 138.209C153.761 138.676 157.14 138.03 160.339 137.838C156.321 135.17 156.557 129.245 156.148 124.933C155.796 121.248 154.868 118.426 154.376 114.805C154.165 113.269 153.371 110.812 153.851 108.406C154.117 107.208 154.481 106.033 154.939 104.894C155.284 104.004 155.636 103.205 155.886 102.475C157.684 102.194 159.302 101.835 159.302 101.835L160.115 98.1565L160.416 101.746C162.725 102.066 170.653 101.528 170.653 101.528L170.224 96.4098L171.683 101.452C173.122 101.202 176.629 101.036 176.629 101.036L175.656 96.6018L177.275 100.985L185.068 100.345C185.068 100.345 189.655 105.354 188.369 114.645C188.369 114.645 189.182 110.198 191.786 110.627L191.965 110.025L194.115 110.115Z" fill="url(#paint20_linear)"/>
<path d="M191.765 120.415C191.765 120.588 191.713 120.757 191.617 120.902C191.521 121.046 191.384 121.158 191.224 121.224C191.064 121.291 190.887 121.308 190.717 121.274C190.547 121.241 190.391 121.157 190.268 121.034C190.146 120.912 190.062 120.756 190.029 120.586C189.995 120.416 190.012 120.239 190.078 120.079C190.145 119.919 190.257 119.782 190.401 119.686C190.545 119.589 190.715 119.538 190.888 119.538C191.121 119.538 191.344 119.63 191.508 119.795C191.672 119.959 191.765 120.182 191.765 120.415Z" fill="#70C250"/>
<path d="M193.156 119.54C193.156 119.648 193.124 119.753 193.064 119.842C193.005 119.932 192.92 120.001 192.82 120.042C192.721 120.084 192.612 120.094 192.506 120.073C192.401 120.052 192.304 120.001 192.228 119.925C192.152 119.848 192.1 119.752 192.079 119.646C192.058 119.541 192.069 119.431 192.11 119.332C192.151 119.232 192.221 119.148 192.31 119.088C192.399 119.028 192.505 118.996 192.612 118.996C192.756 118.996 192.895 119.053 192.997 119.155C193.099 119.257 193.156 119.396 193.156 119.54Z" fill="#2E2454"/>
<path d="M196.05 113.192C195.548 113.647 194.961 113.997 194.322 114.223" stroke="#70C250" stroke-width="1.52" stroke-miterlimit="10"/>
<path opacity="0.3" d="M170.842 108.009C162.826 108.648 151.469 108.725 151.469 108.725L152.921 120.095C155.903 123.396 167.637 121.483 167.637 121.483L168.84 117.171C169.448 115.047 170.715 114.612 171.399 114.554C172.084 114.496 173.408 114.701 174.374 116.685L176.294 120.728C176.294 120.728 188.182 120.588 190.549 116.819L190.018 105.366C190.018 105.366 178.847 107.279 170.842 108.009Z" fill="white"/>
<path d="M168.992 117.304C169.574 114.88 170.841 114.406 171.551 114.336C172.262 114.265 173.567 114.534 174.559 116.818" stroke="#683199" stroke-width="1.52" stroke-miterlimit="10" stroke-linecap="round"/>
<path d="M151.492 109.309C151.492 109.309 173.585 109.616 190.067 105.956" stroke="#683199" stroke-width="2.27" stroke-miterlimit="10" stroke-linecap="round"/>
<path d="M190.263 165.453C192.029 159.528 192.566 151.953 192.592 151.582C192.617 151.23 192.5 150.882 192.269 150.616C192.037 150.35 191.709 150.186 191.357 150.161C191.005 150.137 190.658 150.253 190.391 150.485C190.125 150.716 189.961 151.044 189.937 151.396C189.607 155.713 188.911 159.994 187.857 164.193C187.145 163.968 186.403 163.856 185.656 163.86H160.198C159.592 163.859 158.988 163.932 158.4 164.078C157.367 159.919 156.684 155.682 156.359 151.409C156.312 151.074 156.14 150.768 155.877 150.555C155.614 150.342 155.279 150.236 154.942 150.26C154.604 150.283 154.287 150.434 154.056 150.682C153.825 150.93 153.697 151.256 153.697 151.595C153.697 151.966 154.248 159.317 155.95 165.204C151.471 168.313 150.102 175.741 150.102 175.741L154.491 188.813C154.491 188.813 155.898 187.335 172.924 187.316C189.95 187.297 191.479 188.813 191.479 188.813L195.733 175.709C195.733 175.709 194.46 168.703 190.263 165.453Z" fill="#70C250"/>
<path d="M177.38 172.569H177.041L176.746 172.864L176.625 172.979H170.969L170.789 173.158L170.578 173.363H176.241L175.537 174.066L174.942 174.655L174.302 175.295L174.181 175.416H167.936L165.914 177.425H167.315C167.638 177.419 167.947 177.291 168.179 177.067L168.96 176.28H173.886C174.39 176.278 174.872 176.078 175.23 175.724L177.687 173.26C177.746 173.203 177.786 173.129 177.801 173.048C177.817 172.967 177.807 172.883 177.774 172.808C177.74 172.732 177.685 172.669 177.614 172.627C177.544 172.584 177.462 172.564 177.38 172.569Z" fill="white"/>
<path d="M171.95 169.42L170.734 170.623H178.297L179.513 169.42H171.95Z" fill="white"/>
<path d="M167.706 174.994H173.887L174.527 174.354L175.115 173.765H169.472L169.907 173.33L170.829 172.415H176.485L177.7 171.206H170.144L167.31 174.021C167.227 174.099 167.17 174.2 167.146 174.311C167.122 174.423 167.132 174.538 167.175 174.643C167.217 174.749 167.291 174.838 167.386 174.901C167.481 174.964 167.593 174.996 167.706 174.994Z" fill="white"/>
<path d="M165.129 181.864C157.041 180.329 153.81 167.231 153.81 167.231C151.251 169.887 149.824 176.304 149.824 176.304L154.488 188.813L161.091 187.693L157.816 182.267L165.129 181.864Z" fill="#339F28"/>
<path d="M180.715 181.864C188.809 180.329 192.04 167.231 192.04 167.231C194.599 169.887 195.751 175.728 195.751 175.728L191.361 188.813L184.765 187.693L188.041 182.267L180.715 181.864Z" fill="#84EF84"/>
<path d="M110.682 230.05L107.531 236.063L117.965 241.53L121.115 235.517L110.682 230.05Z" fill="#70C250"/>
<path d="M99.0762 246.21L107.746 249.332C108.25 249.497 108.796 249.481 109.29 249.287C109.784 249.093 110.195 248.734 110.452 248.27L121.7 226.932C121.822 226.723 121.895 226.489 121.915 226.248C121.935 226.007 121.901 225.764 121.815 225.538C121.729 225.312 121.594 225.108 121.419 224.94C121.244 224.773 121.034 224.647 120.804 224.571L112.135 221.442" fill="#63676B"/>
<path d="M120.55 226.517C120.672 226.308 120.745 226.074 120.765 225.833C120.785 225.592 120.751 225.349 120.665 225.123C120.579 224.897 120.444 224.693 120.269 224.525C120.094 224.358 119.884 224.232 119.654 224.156L110.985 221.034C110.48 220.87 109.933 220.886 109.439 221.081C108.945 221.276 108.535 221.637 108.278 222.102L97.0301 243.434C96.9085 243.644 96.8353 243.879 96.8158 244.121C96.7963 244.362 96.8311 244.606 96.9175 244.832C97.0039 245.059 97.1399 245.264 97.3154 245.432C97.491 245.599 97.7017 245.725 97.9323 245.801L106.595 248.917C107.1 249.082 107.646 249.066 108.139 248.872C108.633 248.679 109.044 248.319 109.302 247.855L120.55 226.517Z" fill="#A7A9AC"/>
<path d="M110.179 245.147L98.8281 241.059L107.357 224.891L118.707 228.979L110.179 245.147Z" fill="#2E2454"/>
<path d="M115.247 224.642C115.128 224.856 114.939 225.021 114.711 225.11C114.483 225.199 114.232 225.205 113.999 225.128C113.893 225.094 113.796 225.036 113.715 224.959C113.634 224.882 113.572 224.788 113.532 224.684C113.492 224.58 113.476 224.468 113.485 224.356C113.494 224.245 113.528 224.137 113.584 224.041C113.704 223.821 113.899 223.651 114.134 223.562C114.368 223.473 114.627 223.47 114.863 223.554C114.967 223.592 115.06 223.653 115.138 223.731C115.215 223.81 115.274 223.904 115.311 224.008C115.348 224.112 115.361 224.223 115.35 224.332C115.339 224.442 115.304 224.548 115.247 224.642Z" fill="#70C250"/>
<path d="M105.117 234.591L105.347 234.681L105.622 234.553L105.737 234.501L105.84 234.54L109.608 235.922L109.775 235.845L109.967 235.756L106.768 234.585L106.083 234.335L106.723 234.028L107.279 233.772L107.874 233.497L107.99 233.446L108.092 233.484L111.976 234.905L112.264 235.013L114.151 234.143L113.191 233.791C112.972 233.702 112.726 233.702 112.507 233.791L111.777 234.137L108.463 232.96C108.292 232.897 108.11 232.869 107.928 232.876C107.745 232.884 107.566 232.927 107.401 233.004L105.091 234.079C105.045 234.106 105.008 234.144 104.982 234.191C104.957 234.237 104.945 234.29 104.948 234.343C104.95 234.396 104.967 234.447 104.997 234.491C105.027 234.535 105.069 234.569 105.117 234.591Z" fill="#9446CE"/>
<path d="M108.056 238.122L109.189 237.598L104 235.697L102.867 236.222L108.056 238.122Z" fill="#70C250"/>
<path d="M112.367 235.358L112.002 235.23L108.118 233.804L107.517 234.079L106.967 234.335L110.46 235.614L110.851 235.755L110.441 235.947L109.577 236.344L105.694 234.917L104.555 235.442L109.744 237.361L112.399 236.145C112.48 236.114 112.549 236.058 112.597 235.986C112.645 235.913 112.668 235.827 112.665 235.74C112.661 235.654 112.631 235.57 112.577 235.502C112.524 235.433 112.45 235.383 112.367 235.358Z" fill="#70C250"/>
<defs>
<linearGradient id="paint0_linear" x1="146.688" y1="402.481" x2="160.655" y2="402.481" gradientUnits="userSpaceOnUse">
<stop stop-color="#6C28A5"/>
<stop offset="1" stop-color="#A96AD8"/>
</linearGradient>
<linearGradient id="paint1_linear" x1="139.107" y1="416.556" x2="151.442" y2="416.556" gradientUnits="userSpaceOnUse">
<stop stop-color="#1D183A" stop-opacity="0.2"/>
<stop offset="1" stop-color="#1D183A"/>
</linearGradient>
<linearGradient id="paint2_linear" x1="4663.79" y1="18665.1" x2="4968.69" y2="18665.1" gradientUnits="userSpaceOnUse">
<stop stop-color="#6C28A5"/>
<stop offset="1" stop-color="#A96AD8"/>
</linearGradient>
<linearGradient id="paint3_linear" x1="120943" y1="21418.3" x2="120706" y2="21418.3" gradientUnits="userSpaceOnUse">
<stop stop-color="#1D183A" stop-opacity="0.2"/>
<stop offset="1" stop-color="#1D183A"/>
</linearGradient>
<linearGradient id="paint4_linear" x1="27253.1" y1="47967" x2="59590.7" y2="47967" gradientUnits="userSpaceOnUse">
<stop stop-color="#6C28A5"/>
<stop offset="1" stop-color="#A96AD8"/>
</linearGradient>
<linearGradient id="paint5_linear" x1="152.441" y1="212.122" x2="192.635" y2="212.122" gradientUnits="userSpaceOnUse">
<stop stop-color="#CE7E9B"/>
<stop offset="0.27" stop-color="#D48CA9"/>
<stop offset="0.66" stop-color="#DB99B7"/>
<stop offset="1" stop-color="#DD9EBC"/>
</linearGradient>
<linearGradient id="paint6_linear" x1="123.001" y1="304.141" x2="225.884" y2="304.141" gradientUnits="userSpaceOnUse">
<stop stop-color="#1D183A"/>
<stop offset="0.16" stop-color="#221B41"/>
<stop offset="0.61" stop-color="#2B224F"/>
<stop offset="1" stop-color="#2E2454"/>
</linearGradient>
<linearGradient id="paint7_linear" x1="9949.57" y1="25432.8" x2="12640.9" y2="25432.8" gradientUnits="userSpaceOnUse">
<stop stop-color="#1D183A" stop-opacity="0.2"/>
<stop offset="1" stop-color="#1D183A"/>
</linearGradient>
<linearGradient id="paint8_linear" x1="5071.19" y1="17839.2" x2="5752.41" y2="17839.2" gradientUnits="userSpaceOnUse">
<stop stop-color="#1D183A" stop-opacity="0.2"/>
<stop offset="1" stop-color="#1D183A"/>
</linearGradient>
<linearGradient id="paint9_linear" x1="170.188" y1="247.234" x2="187.034" y2="247.234" gradientUnits="userSpaceOnUse">
<stop stop-color="#1D183A" stop-opacity="0.5"/>
<stop offset="1" stop-color="#1D183A"/>
</linearGradient>
<linearGradient id="paint10_linear" x1="12338.9" y1="26139.9" x2="14508.3" y2="26139.9" gradientUnits="userSpaceOnUse">
<stop stop-color="#1D183A" stop-opacity="0.2"/>
<stop offset="1" stop-color="#1D183A"/>
</linearGradient>
<linearGradient id="paint11_linear" x1="5544.49" y1="44408.2" x2="5920.44" y2="44408.2" gradientUnits="userSpaceOnUse">
<stop stop-color="#1D183A" stop-opacity="0.5"/>
<stop offset="1" stop-color="#1D183A"/>
</linearGradient>
<linearGradient id="paint12_linear" x1="7290.82" y1="15515" x2="8643.93" y2="15515" gradientUnits="userSpaceOnUse">
<stop stop-color="#1D183A" stop-opacity="0.2"/>
<stop offset="1" stop-color="#1D183A"/>
</linearGradient>
<linearGradient id="paint13_linear" x1="7896.07" y1="10250.4" x2="8848.39" y2="10250.4" gradientUnits="userSpaceOnUse">
<stop stop-color="#1D183A" stop-opacity="0.2"/>
<stop offset="1" stop-color="#1D183A"/>
</linearGradient>
<linearGradient id="paint14_linear" x1="4506.53" y1="13864.8" x2="4769.94" y2="13864.8" gradientUnits="userSpaceOnUse">
<stop stop-color="#1D183A" stop-opacity="0.5"/>
<stop offset="1" stop-color="#1D183A"/>
</linearGradient>
<linearGradient id="paint15_linear" x1="4634.97" y1="12757.1" x2="5159.78" y2="12757.1" gradientUnits="userSpaceOnUse">
<stop stop-color="#1D183A" stop-opacity="0.5"/>
<stop offset="1" stop-color="#1D183A"/>
</linearGradient>
<linearGradient id="paint16_linear" x1="123.001" y1="304.141" x2="225.884" y2="304.141" gradientUnits="userSpaceOnUse">
<stop stop-color="#1D183A"/>
<stop offset="0.16" stop-color="#221B41"/>
<stop offset="0.61" stop-color="#2B224F"/>
<stop offset="1" stop-color="#2E2454"/>
</linearGradient>
<linearGradient id="paint17_linear" x1="172.602" y1="92.7175" x2="172.602" y2="137.914" gradientUnits="userSpaceOnUse">
<stop stop-color="#F2B7CC"/>
<stop offset="1" stop-color="#ECB7D0"/>
</linearGradient>
<linearGradient id="paint18_linear" x1="4196.6" y1="4419" x2="4196.6" y2="4815.42" gradientUnits="userSpaceOnUse">
<stop stop-color="#E0A2B8"/>
<stop offset="1" stop-color="#DD9EBC"/>
</linearGradient>
<linearGradient id="paint19_linear" x1="182.706" y1="97.3574" x2="182.706" y2="106.507" gradientUnits="userSpaceOnUse">
<stop stop-color="#CE7E9B"/>
<stop offset="0.09" stop-color="#D388A6"/>
<stop offset="0.27" stop-color="#D995B3"/>
<stop offset="0.5" stop-color="#DC9CBA"/>
<stop offset="1" stop-color="#DD9EBC"/>
</linearGradient>
<linearGradient id="paint20_linear" x1="13387.4" y1="13627.4" x2="17687.4" y2="13627.4" gradientUnits="userSpaceOnUse">
<stop stop-color="#6C28A5"/>
<stop offset="1" stop-color="#A96AD8"/>
</linearGradient>
</defs>
</svg>
