<svg width="192" height="63" viewBox="0 0 192 63" fill="none" xmlns="http://www.w3.org/2000/svg">
<rect width="192" height="63" fill="white"/>
<rect x="0.5" y="0.5" width="191" height="62" rx="7.5" stroke="#70C250"/>
<path d="M58.2949 19.8857H60.9644V23.7046C60.549 23.8371 60.1265 23.9373 59.6968 24.0054C59.2671 24.0734 58.7694 24.1074 58.2036 24.1074C57.0148 24.1074 56.0892 23.7547 55.4268 23.0493C54.7643 22.3403 54.4331 21.3485 54.4331 20.0737C54.4331 19.2573 54.596 18.543 54.9219 17.9307C55.2513 17.3148 55.724 16.8457 56.3398 16.5234C56.9557 16.1976 57.6772 16.0347 58.5044 16.0347C59.3423 16.0347 60.1229 16.1886 60.8462 16.4966L60.4917 17.3022C59.7827 17.0015 59.1006 16.8511 58.4453 16.8511C57.4893 16.8511 56.7427 17.1357 56.2056 17.7051C55.6685 18.2744 55.3999 19.064 55.3999 20.0737C55.3999 21.1336 55.6577 21.9375 56.1733 22.4854C56.6925 23.0332 57.4535 23.3071 58.4561 23.3071C59.0003 23.3071 59.5321 23.2445 60.0513 23.1191V20.7021H58.2949V19.8857ZM67.2324 24H62.855V16.1475H67.2324V16.9585H63.7681V19.4883H67.0229V20.2939H63.7681V23.1836H67.2324V24ZM71.395 24H70.4819V16.9585H67.9951V16.1475H73.8818V16.9585H71.395V24ZM77.9263 24V16.1475H78.8394V24H77.9263ZM83.4155 24H82.5024V16.9585H80.0156V16.1475H85.9023V16.9585H83.4155V24ZM96.7627 20.063C96.7627 21.3198 96.444 22.3081 95.8066 23.0278C95.1729 23.7476 94.2902 24.1074 93.1587 24.1074C92.0021 24.1074 91.1087 23.7547 90.4785 23.0493C89.8519 22.3403 89.5386 21.3413 89.5386 20.0522C89.5386 18.7739 89.8537 17.7839 90.4839 17.082C91.1141 16.3766 92.0093 16.0239 93.1694 16.0239C94.2974 16.0239 95.1782 16.382 95.812 17.0981C96.4458 17.8143 96.7627 18.8026 96.7627 20.063ZM90.5054 20.063C90.5054 21.1265 90.731 21.9339 91.1821 22.4854C91.6369 23.0332 92.2957 23.3071 93.1587 23.3071C94.0288 23.3071 94.6859 23.0332 95.1299 22.4854C95.5739 21.9375 95.7959 21.13 95.7959 20.063C95.7959 19.0067 95.5739 18.2064 95.1299 17.6621C94.6895 17.1143 94.036 16.8403 93.1694 16.8403C92.2993 16.8403 91.6369 17.116 91.1821 17.6675C90.731 18.2153 90.5054 19.0138 90.5054 20.063ZM104.653 24H103.611L99.3193 17.4097H99.2764C99.3337 18.1831 99.3623 18.8921 99.3623 19.5366V24H98.519V16.1475H99.5503L103.831 22.7109H103.874C103.867 22.6143 103.851 22.3045 103.826 21.7817C103.801 21.2554 103.792 20.8794 103.799 20.6538V16.1475H104.653V24Z" fill="#110744"/>
<path d="M60.6328 37.2559H65.8867V44.4238C65.0273 44.7038 64.2005 44.9023 63.4062 45.0195C62.6185 45.1367 61.7656 45.1953 60.8477 45.1953C58.6862 45.1953 57.0195 44.5573 55.8477 43.2812C54.6758 41.9987 54.0898 40.1921 54.0898 37.8613C54.0898 35.5632 54.7507 33.7663 56.0723 32.4707C57.3939 31.1686 59.2135 30.5176 61.5312 30.5176C63.0221 30.5176 64.4349 30.804 65.7695 31.377L64.9492 33.3203C63.7904 32.7865 62.6315 32.5195 61.4727 32.5195C59.9492 32.5195 58.7448 32.998 57.8594 33.9551C56.974 34.9121 56.5312 36.2207 56.5312 37.8809C56.5312 39.6257 56.9284 40.9538 57.7227 41.8652C58.5234 42.7702 59.6725 43.2227 61.1699 43.2227C61.9251 43.2227 62.7324 43.1283 63.5918 42.9395V39.2578H60.6328V37.2559ZM78.6602 39.5801C78.6602 41.3444 78.2077 42.7214 77.3027 43.7109C76.3978 44.7005 75.138 45.1953 73.5234 45.1953C72.5143 45.1953 71.6224 44.9674 70.8477 44.5117C70.0729 44.056 69.4772 43.4017 69.0605 42.5488C68.6439 41.696 68.4355 40.7064 68.4355 39.5801C68.4355 37.8288 68.8848 36.4616 69.7832 35.4785C70.6816 34.4954 71.9479 34.0039 73.582 34.0039C75.1445 34.0039 76.3815 34.5085 77.293 35.5176C78.2044 36.5202 78.6602 37.8743 78.6602 39.5801ZM70.7988 39.5801C70.7988 42.0736 71.7201 43.3203 73.5625 43.3203C75.3854 43.3203 76.2969 42.0736 76.2969 39.5801C76.2969 37.1126 75.3789 35.8789 73.543 35.8789C72.5794 35.8789 71.8796 36.1979 71.4434 36.8359C71.0137 37.474 70.7988 38.3887 70.7988 39.5801ZM90.8867 39.5801C90.8867 41.3444 90.4342 42.7214 89.5293 43.7109C88.6243 44.7005 87.3646 45.1953 85.75 45.1953C84.7409 45.1953 83.849 44.9674 83.0742 44.5117C82.2995 44.056 81.7038 43.4017 81.2871 42.5488C80.8704 41.696 80.6621 40.7064 80.6621 39.5801C80.6621 37.8288 81.1113 36.4616 82.0098 35.4785C82.9082 34.4954 84.1745 34.0039 85.8086 34.0039C87.3711 34.0039 88.6081 34.5085 89.5195 35.5176C90.431 36.5202 90.8867 37.8743 90.8867 39.5801ZM83.0254 39.5801C83.0254 42.0736 83.9466 43.3203 85.7891 43.3203C87.612 43.3203 88.5234 42.0736 88.5234 39.5801C88.5234 37.1126 87.6055 35.8789 85.7695 35.8789C84.806 35.8789 84.1061 36.1979 83.6699 36.8359C83.2402 37.474 83.0254 38.3887 83.0254 39.5801ZM102.654 34.1992V35.459L100.809 35.8008C100.978 36.0286 101.118 36.3086 101.229 36.6406C101.339 36.9727 101.395 37.3242 101.395 37.6953C101.395 38.8086 101.01 39.6842 100.242 40.3223C99.474 40.9603 98.416 41.2793 97.0684 41.2793C96.7233 41.2793 96.4108 41.2533 96.1309 41.2012C95.6361 41.5072 95.3887 41.8652 95.3887 42.2754C95.3887 42.5228 95.5026 42.7083 95.7305 42.832C95.9648 42.9557 96.3913 43.0176 97.0098 43.0176H98.8945C100.086 43.0176 100.991 43.2715 101.609 43.7793C102.228 44.2871 102.537 45.0195 102.537 45.9766C102.537 47.2005 102.033 48.1445 101.023 48.8086C100.014 49.4727 98.556 49.8047 96.6484 49.8047C95.1771 49.8047 94.054 49.5443 93.2793 49.0234C92.5046 48.5026 92.1172 47.7604 92.1172 46.7969C92.1172 46.1328 92.3255 45.5729 92.7422 45.1172C93.1654 44.668 93.7546 44.3555 94.5098 44.1797C94.2038 44.0495 93.9499 43.8411 93.748 43.5547C93.5527 43.2617 93.4551 42.9557 93.4551 42.6367C93.4551 42.2331 93.569 41.8913 93.7969 41.6113C94.0247 41.3314 94.3633 41.0547 94.8125 40.7812C94.2526 40.5404 93.7969 40.1497 93.4453 39.6094C93.1003 39.0625 92.9277 38.4245 92.9277 37.6953C92.9277 36.5234 93.2956 35.6152 94.0312 34.9707C94.7734 34.3262 95.8281 34.0039 97.1953 34.0039C97.5013 34.0039 97.8203 34.0267 98.1523 34.0723C98.4909 34.1113 98.7448 34.1536 98.9141 34.1992H102.654ZM94.168 46.6797C94.168 47.1745 94.3893 47.5553 94.832 47.8223C95.2812 48.0892 95.9095 48.2227 96.7168 48.2227C97.9668 48.2227 98.8978 48.0436 99.5098 47.6855C100.122 47.3275 100.428 46.8522 100.428 46.2598C100.428 45.791 100.258 45.4557 99.9199 45.2539C99.5879 45.0586 98.9661 44.9609 98.0547 44.9609H96.3164C95.6589 44.9609 95.1348 45.1139 94.7441 45.4199C94.36 45.7324 94.168 46.1523 94.168 46.6797ZM95.1543 37.6953C95.1543 38.3724 95.3268 38.8932 95.6719 39.2578C96.0234 39.6224 96.5247 39.8047 97.1758 39.8047C98.5039 39.8047 99.168 39.0951 99.168 37.6758C99.168 36.9727 99.002 36.4323 98.6699 36.0547C98.3444 35.6706 97.8464 35.4785 97.1758 35.4785C96.5117 35.4785 96.0072 35.6673 95.6621 36.0449C95.3236 36.4225 95.1543 36.9727 95.1543 37.6953ZM106.961 45H104.666V29.8047H106.961V45ZM114.969 45.1953C113.289 45.1953 111.974 44.707 111.023 43.7305C110.079 42.7474 109.607 41.3965 109.607 39.6777C109.607 37.9134 110.047 36.5267 110.926 35.5176C111.805 34.5085 113.012 34.0039 114.549 34.0039C115.975 34.0039 117.101 34.4368 117.928 35.3027C118.755 36.1686 119.168 37.36 119.168 38.877V40.1172H111.971C112.003 41.1654 112.286 41.9727 112.82 42.5391C113.354 43.099 114.106 43.3789 115.076 43.3789C115.714 43.3789 116.307 43.3203 116.854 43.2031C117.407 43.0794 117.999 42.8776 118.631 42.5977V44.4629C118.071 44.7298 117.505 44.9186 116.932 45.0293C116.359 45.14 115.704 45.1953 114.969 45.1953ZM114.549 35.7422C113.82 35.7422 113.234 35.9733 112.791 36.4355C112.355 36.8978 112.094 37.5716 112.01 38.457H116.912C116.899 37.5651 116.684 36.8913 116.268 36.4355C115.851 35.9733 115.278 35.7422 114.549 35.7422ZM136.668 35.0391C136.668 36.5299 136.18 37.6725 135.203 38.4668C134.227 39.2611 132.837 39.6582 131.033 39.6582H129.549V45H127.215V30.7227H131.326C133.11 30.7227 134.445 31.0872 135.33 31.8164C136.222 32.5456 136.668 33.6198 136.668 35.0391ZM129.549 37.6953H130.789C131.987 37.6953 132.866 37.487 133.426 37.0703C133.986 36.6536 134.266 36.0026 134.266 35.1172C134.266 34.2969 134.015 33.6849 133.514 33.2812C133.012 32.8776 132.231 32.6758 131.17 32.6758H129.549V37.6953ZM141.57 45H139.275V29.8047H141.57V45ZM151.619 45L151.16 43.4961H151.082C150.561 44.1536 150.037 44.6029 149.51 44.8438C148.982 45.0781 148.305 45.1953 147.479 45.1953C146.417 45.1953 145.587 44.9089 144.988 44.3359C144.396 43.763 144.1 42.9525 144.1 41.9043C144.1 40.791 144.513 39.9512 145.34 39.3848C146.167 38.8184 147.426 38.5091 149.119 38.457L150.984 38.3984V37.8223C150.984 37.1322 150.822 36.6178 150.496 36.2793C150.177 35.9342 149.679 35.7617 149.002 35.7617C148.449 35.7617 147.918 35.8431 147.41 36.0059C146.902 36.1686 146.414 36.3607 145.945 36.582L145.203 34.9414C145.789 34.6354 146.43 34.4043 147.127 34.248C147.824 34.0853 148.481 34.0039 149.1 34.0039C150.473 34.0039 151.508 34.3034 152.205 34.9023C152.908 35.5013 153.26 36.4421 153.26 37.7246V45H151.619ZM148.201 43.4375C149.035 43.4375 149.702 43.2064 150.203 42.7441C150.711 42.2754 150.965 41.6211 150.965 40.7812V39.8438L149.578 39.9023C148.497 39.9414 147.71 40.1237 147.215 40.4492C146.727 40.7682 146.482 41.2598 146.482 41.9238C146.482 42.4056 146.626 42.7799 146.912 43.0469C147.199 43.3073 147.628 43.4375 148.201 43.4375ZM154.822 34.1992H157.322L159.52 40.3223C159.852 41.1947 160.073 42.015 160.184 42.7832H160.262C160.32 42.4251 160.428 41.9922 160.584 41.4844C160.74 40.9701 161.567 38.5417 163.064 34.1992H165.545L160.926 46.4355C160.086 48.6816 158.686 49.8047 156.727 49.8047C156.219 49.8047 155.724 49.7493 155.242 49.6387V47.8223C155.587 47.9004 155.981 47.9395 156.424 47.9395C157.531 47.9395 158.309 47.2982 158.758 46.0156L159.158 45L154.822 34.1992Z" fill="#110744"/>
<path d="M18.4668 15.901C17.7437 15.4373 16.8752 15.2971 16.0605 15.488L30.3764 29.6958L35.0163 25.091L18.4668 15.901Z" fill="#70C250"/>
<path d="M14.2834 16.6431C13.8841 17.1699 13.6543 17.8167 13.6543 18.501V43.8092C13.6543 44.4935 13.8842 45.1403 14.2834 45.6671L28.9058 31.1551L14.2834 16.6431Z" fill="#70C250"/>
<path d="M41.0707 28.4537L36.9008 26.1382L31.8457 31.155L36.901 36.1722L41.0714 33.8564C42.0705 33.3009 42.6669 32.2911 42.6669 31.155C42.6669 30.019 42.0705 29.0093 41.0707 28.4537Z" fill="#70C250"/>
<path d="M30.3756 32.6143L16.0605 46.8211C16.2952 46.8759 16.5341 46.9055 16.773 46.9055C17.3632 46.9055 17.9515 46.7389 18.466 46.409L35.0156 37.2191L30.3756 32.6143Z" fill="#70C250"/>
</svg>
