<svg width="175" height="58" viewBox="0 0 175 58" fill="none" xmlns="http://www.w3.org/2000/svg">
<rect x="0.912109" y="0.5" width="173.588" height="56.2868" rx="7.5" stroke="white"/>
<path d="M64.2383 18.2744C64.2383 19.4528 63.9176 20.3545 63.2764 20.9795C62.6383 21.6012 61.7188 21.9121 60.5176 21.9121H58.54V14.7734H60.7275C61.8376 14.7734 62.7002 15.0811 63.3154 15.6963C63.9307 16.3115 64.2383 17.1709 64.2383 18.2744ZM63.3594 18.3037C63.3594 17.3727 63.125 16.6712 62.6562 16.1992C62.1908 15.7272 61.4974 15.4912 60.5762 15.4912H59.3701V21.1943H60.3809C61.3704 21.1943 62.1143 20.9518 62.6123 20.4668C63.1104 19.9785 63.3594 19.2575 63.3594 18.3037ZM72.0312 18.333C72.0312 19.4756 71.7415 20.374 71.1621 21.0283C70.5859 21.6826 69.7835 22.0098 68.7549 22.0098C67.7035 22.0098 66.8913 21.6891 66.3184 21.0479C65.7487 20.4033 65.4639 19.4951 65.4639 18.3232C65.4639 17.1611 65.7503 16.2611 66.3232 15.623C66.8962 14.9818 67.71 14.6611 68.7646 14.6611C69.79 14.6611 70.5908 14.9867 71.167 15.6377C71.7432 16.2887 72.0312 17.1872 72.0312 18.333ZM66.3428 18.333C66.3428 19.2998 66.5479 20.0339 66.958 20.5352C67.3714 21.0332 67.9704 21.2822 68.7549 21.2822C69.5459 21.2822 70.1432 21.0332 70.5469 20.5352C70.9505 20.0371 71.1523 19.3031 71.1523 18.333C71.1523 17.3727 70.9505 16.6452 70.5469 16.1504C70.1465 15.6523 69.5524 15.4033 68.7646 15.4033C67.9736 15.4033 67.3714 15.654 66.958 16.1553C66.5479 16.6533 66.3428 17.3792 66.3428 18.333ZM79.8584 21.9121H79.0381L77.5977 17.1318C77.5293 16.9202 77.4528 16.6533 77.3682 16.3311C77.2835 16.0088 77.2396 15.8151 77.2363 15.75C77.1647 16.1797 77.0508 16.6501 76.8945 17.1611L75.498 21.9121H74.6777L72.7783 14.7734H73.6572L74.7852 19.1826C74.9414 19.8011 75.0553 20.361 75.127 20.8623C75.2148 20.2666 75.3451 19.6839 75.5176 19.1143L76.7969 14.7734H77.6758L79.0186 19.1533C79.1748 19.6579 79.3066 20.2275 79.4141 20.8623C79.4759 20.4001 79.5931 19.8369 79.7656 19.1729L80.8887 14.7734H81.7676L79.8584 21.9121ZM88.4619 21.9121H87.5146L83.6133 15.9209H83.5742C83.6263 16.624 83.6523 17.2686 83.6523 17.8545V21.9121H82.8857V14.7734H83.8232L87.7148 20.7402H87.7539C87.7474 20.6523 87.7327 20.3708 87.71 19.8955C87.6872 19.417 87.679 19.0752 87.6855 18.8701V14.7734H88.4619V21.9121ZM90.4248 21.9121V14.7734H91.2549V21.1602H94.4043V21.9121H90.4248ZM101.816 18.333C101.816 19.4756 101.527 20.374 100.947 21.0283C100.371 21.6826 99.5687 22.0098 98.54 22.0098C97.4886 22.0098 96.6764 21.6891 96.1035 21.0479C95.5339 20.4033 95.249 19.4951 95.249 18.3232C95.249 17.1611 95.5355 16.2611 96.1084 15.623C96.6813 14.9818 97.4951 14.6611 98.5498 14.6611C99.5752 14.6611 100.376 14.9867 100.952 15.6377C101.528 16.2887 101.816 17.1872 101.816 18.333ZM96.1279 18.333C96.1279 19.2998 96.333 20.0339 96.7432 20.5352C97.1566 21.0332 97.7555 21.2822 98.54 21.2822C99.3311 21.2822 99.9284 21.0332 100.332 20.5352C100.736 20.0371 100.938 19.3031 100.938 18.333C100.938 17.3727 100.736 16.6452 100.332 16.1504C99.9316 15.6523 99.3376 15.4033 98.5498 15.4033C97.7588 15.4033 97.1566 15.654 96.7432 16.1553C96.333 16.6533 96.1279 17.3792 96.1279 18.333ZM107.9 21.9121L107.012 19.6416H104.15L103.271 21.9121H102.432L105.254 14.7441H105.952L108.76 21.9121H107.9ZM106.753 18.8945L105.923 16.6826C105.815 16.4027 105.705 16.0592 105.591 15.6523C105.519 15.9648 105.417 16.3083 105.283 16.6826L104.443 18.8945H106.753ZM115.439 18.2744C115.439 19.4528 115.119 20.3545 114.478 20.9795C113.84 21.6012 112.92 21.9121 111.719 21.9121H109.741V14.7734H111.929C113.039 14.7734 113.901 15.0811 114.517 15.6963C115.132 16.3115 115.439 17.1709 115.439 18.2744ZM114.561 18.3037C114.561 17.3727 114.326 16.6712 113.857 16.1992C113.392 15.7272 112.699 15.4912 111.777 15.4912H110.571V21.1943H111.582C112.572 21.1943 113.315 20.9518 113.813 20.4668C114.312 19.9785 114.561 19.2575 114.561 18.3037ZM125.83 18.333C125.83 19.4756 125.54 20.374 124.961 21.0283C124.385 21.6826 123.582 22.0098 122.554 22.0098C121.502 22.0098 120.69 21.6891 120.117 21.0479C119.548 20.4033 119.263 19.4951 119.263 18.3232C119.263 17.1611 119.549 16.2611 120.122 15.623C120.695 14.9818 121.509 14.6611 122.563 14.6611C123.589 14.6611 124.39 14.9867 124.966 15.6377C125.542 16.2887 125.83 17.1872 125.83 18.333ZM120.142 18.333C120.142 19.2998 120.347 20.0339 120.757 20.5352C121.17 21.0332 121.769 21.2822 122.554 21.2822C123.345 21.2822 123.942 21.0332 124.346 20.5352C124.749 20.0371 124.951 19.3031 124.951 18.333C124.951 17.3727 124.749 16.6452 124.346 16.1504C123.945 15.6523 123.351 15.4033 122.563 15.4033C121.772 15.4033 121.17 15.654 120.757 16.1553C120.347 16.6533 120.142 17.3792 120.142 18.333ZM133.003 21.9121H132.056L128.154 15.9209H128.115C128.167 16.624 128.193 17.2686 128.193 17.8545V21.9121H127.427V14.7734H128.364L132.256 20.7402H132.295C132.288 20.6523 132.274 20.3708 132.251 19.8955C132.228 19.417 132.22 19.0752 132.227 18.8701V14.7734H133.003V21.9121ZM139.761 21.9121H138.931V15.5107H136.67V14.7734H142.021V15.5107H139.761V21.9121ZM148.521 21.9121H147.69V18.5527H143.931V21.9121H143.101V14.7734H143.931V17.8105H147.69V14.7734H148.521V21.9121ZM154.463 21.9121H150.483V14.7734H154.463V15.5107H151.313V17.8105H154.272V18.543H151.313V21.1699H154.463V21.9121Z" fill="white"/>
<path d="M68.3008 42.8242L66.875 38.8594H61.416L60.0195 42.8242H57.5586L62.9004 28.4883H65.4395L70.7812 42.8242H68.3008ZM66.2598 36.8477L64.9219 32.9609C64.8242 32.7005 64.6875 32.2904 64.5117 31.7305C64.3424 31.1706 64.2253 30.7604 64.1602 30.5C63.9844 31.3008 63.7272 32.1764 63.3887 33.127L62.0996 36.8477H66.2598ZM77.9004 43.0195C76.5332 43.0195 75.472 42.528 74.7168 41.5449H74.5801C74.6712 42.4564 74.7168 43.0098 74.7168 43.2051V47.6289H72.4219V32.0234H74.2773C74.3294 32.2253 74.4368 32.707 74.5996 33.4688H74.7168C75.4329 32.375 76.5072 31.8281 77.9395 31.8281C79.2871 31.8281 80.3353 32.3164 81.084 33.293C81.8392 34.2695 82.2168 35.64 82.2168 37.4043C82.2168 39.1686 81.8327 40.5456 81.0645 41.5352C80.3027 42.5247 79.248 43.0195 77.9004 43.0195ZM77.3438 33.7031C76.4323 33.7031 75.765 33.9701 75.3418 34.5039C74.9251 35.0378 74.7168 35.8906 74.7168 37.0625V37.4043C74.7168 38.7194 74.9251 39.6732 75.3418 40.2656C75.7585 40.8516 76.4388 41.1445 77.3828 41.1445C78.1771 41.1445 78.7891 40.819 79.2188 40.168C79.6484 39.5169 79.8633 38.5892 79.8633 37.3848C79.8633 36.1738 79.6484 35.2591 79.2188 34.6406C78.7956 34.0156 78.1706 33.7031 77.3438 33.7031ZM90.3613 43.0195C88.9941 43.0195 87.9329 42.528 87.1777 41.5449H87.041C87.1322 42.4564 87.1777 43.0098 87.1777 43.2051V47.6289H84.8828V32.0234H86.7383C86.7904 32.2253 86.8978 32.707 87.0605 33.4688H87.1777C87.8939 32.375 88.9681 31.8281 90.4004 31.8281C91.748 31.8281 92.7962 32.3164 93.5449 33.293C94.3001 34.2695 94.6777 35.64 94.6777 37.4043C94.6777 39.1686 94.2936 40.5456 93.5254 41.5352C92.7637 42.5247 91.709 43.0195 90.3613 43.0195ZM89.8047 33.7031C88.8932 33.7031 88.2259 33.9701 87.8027 34.5039C87.3861 35.0378 87.1777 35.8906 87.1777 37.0625V37.4043C87.1777 38.7194 87.3861 39.6732 87.8027 40.2656C88.2194 40.8516 88.8997 41.1445 89.8438 41.1445C90.638 41.1445 91.25 40.819 91.6797 40.168C92.1094 39.5169 92.3242 38.5892 92.3242 37.3848C92.3242 36.1738 92.1094 35.2591 91.6797 34.6406C91.2565 34.0156 90.6315 33.7031 89.8047 33.7031ZM111.016 38.9473C111.016 40.2168 110.557 41.2129 109.639 41.9355C108.721 42.6582 107.454 43.0195 105.84 43.0195C104.225 43.0195 102.904 42.7689 101.875 42.2676V40.0605C102.526 40.3665 103.216 40.6074 103.945 40.7832C104.681 40.959 105.365 41.0469 105.996 41.0469C106.921 41.0469 107.601 40.8711 108.037 40.5195C108.48 40.168 108.701 39.696 108.701 39.1035C108.701 38.5697 108.499 38.1172 108.096 37.7461C107.692 37.375 106.859 36.9355 105.596 36.4277C104.294 35.9004 103.376 35.2982 102.842 34.6211C102.308 33.944 102.041 33.1302 102.041 32.1797C102.041 30.9883 102.464 30.0508 103.311 29.3672C104.157 28.6836 105.293 28.3418 106.719 28.3418C108.086 28.3418 109.447 28.6413 110.801 29.2402L110.059 31.1445C108.789 30.6107 107.656 30.3438 106.66 30.3438C105.905 30.3438 105.332 30.5098 104.941 30.8418C104.551 31.1673 104.355 31.6003 104.355 32.1406C104.355 32.5117 104.434 32.8307 104.59 33.0977C104.746 33.3581 105.003 33.6055 105.361 33.8398C105.719 34.0742 106.364 34.3835 107.295 34.7676C108.343 35.2038 109.111 35.6107 109.6 35.9883C110.088 36.3659 110.446 36.7923 110.674 37.2676C110.902 37.7428 111.016 38.3027 111.016 38.9473ZM117.559 41.1641C118.118 41.1641 118.678 41.0762 119.238 40.9004V42.6289C118.984 42.7396 118.656 42.8307 118.252 42.9023C117.855 42.9805 117.441 43.0195 117.012 43.0195C114.837 43.0195 113.75 41.8737 113.75 39.582V33.7617H112.275V32.7461L113.857 31.9062L114.639 29.6211H116.055V32.0234H119.131V33.7617H116.055V39.543C116.055 40.0964 116.191 40.5065 116.465 40.7734C116.745 41.0339 117.109 41.1641 117.559 41.1641ZM130.986 37.4043C130.986 39.1686 130.534 40.5456 129.629 41.5352C128.724 42.5247 127.464 43.0195 125.85 43.0195C124.84 43.0195 123.949 42.7917 123.174 42.3359C122.399 41.8802 121.803 41.2259 121.387 40.373C120.97 39.5202 120.762 38.5306 120.762 37.4043C120.762 35.653 121.211 34.2858 122.109 33.3027C123.008 32.3197 124.274 31.8281 125.908 31.8281C127.471 31.8281 128.708 32.3327 129.619 33.3418C130.531 34.3444 130.986 35.6986 130.986 37.4043ZM123.125 37.4043C123.125 39.8978 124.046 41.1445 125.889 41.1445C127.712 41.1445 128.623 39.8978 128.623 37.4043C128.623 34.9368 127.705 33.7031 125.869 33.7031C124.906 33.7031 124.206 34.0221 123.77 34.6602C123.34 35.2982 123.125 36.2129 123.125 37.4043ZM139.111 31.8281C139.574 31.8281 139.954 31.8607 140.254 31.9258L140.029 34.0645C139.704 33.9863 139.365 33.9473 139.014 33.9473C138.096 33.9473 137.35 34.2467 136.777 34.8457C136.211 35.4447 135.928 36.2227 135.928 37.1797V42.8242H133.633V32.0234H135.43L135.732 33.9277H135.85C136.208 33.2832 136.673 32.7721 137.246 32.3945C137.826 32.0169 138.447 31.8281 139.111 31.8281ZM146.982 43.0195C145.303 43.0195 143.988 42.5312 143.037 41.5547C142.093 40.5716 141.621 39.2207 141.621 37.502C141.621 35.7376 142.061 34.3509 142.939 33.3418C143.818 32.3327 145.026 31.8281 146.562 31.8281C147.988 31.8281 149.115 32.2611 149.941 33.127C150.768 33.9928 151.182 35.1842 151.182 36.7012V37.9414H143.984C144.017 38.9896 144.3 39.7969 144.834 40.3633C145.368 40.9232 146.12 41.2031 147.09 41.2031C147.728 41.2031 148.32 41.1445 148.867 41.0273C149.421 40.9036 150.013 40.7018 150.645 40.4219V42.2871C150.085 42.554 149.518 42.7428 148.945 42.8535C148.372 42.9642 147.718 43.0195 146.982 43.0195ZM146.562 33.5664C145.833 33.5664 145.247 33.7975 144.805 34.2598C144.368 34.722 144.108 35.3958 144.023 36.2812H148.926C148.913 35.3893 148.698 34.7155 148.281 34.2598C147.865 33.7975 147.292 33.5664 146.562 33.5664Z" fill="white"/>
<path d="M42.4418 27.9361C41.5602 23.5685 45.7718 21.0069 45.7718 21.0069C45.7718 21.0069 44.1309 18.6701 41.3731 18.0689C38.6168 17.4664 37.2372 18.2192 35.8604 18.7837C34.4822 19.3497 33.7945 19.3497 33.7945 19.3497C31.8056 19.3497 30.3518 17.2769 26.5625 18.2205C23.9519 18.869 21.2037 21.8355 20.7072 25.3759C20.2107 28.9177 21.2822 33.437 23.3481 36.9396C25.4139 40.4448 27.5184 41.7621 29.0121 41.8001C30.5058 41.8366 31.9968 40.7467 33.7945 40.4814C35.5936 40.2187 36.7008 41.1231 38.4654 41.6119C40.2232 42.0993 40.8394 41.6471 42.8641 39.952C44.8942 38.2569 46.7318 33.3951 46.7318 33.3951C46.7318 33.3951 43.3235 32.3065 42.4418 27.9361Z" fill="#70C250"/>
<path d="M38.2873 15.7105C40.2835 13.8274 39.6073 10.9121 39.6073 10.9121C39.6073 10.9121 36.8042 11.3676 34.9261 13.1766C33.0494 14.987 33.36 17.8462 33.36 17.8462C33.36 17.8462 36.2911 17.5925 38.2873 15.7105Z" fill="#70C250"/>
</svg>
