<svg width="499" height="244" viewBox="0 0 499 244" fill="none" xmlns="http://www.w3.org/2000/svg">
<path d="M331.932 40.7416H327.363L323.386 44.7027L321.762 46.3173H245.02L242.612 48.7176L239.796 51.5162H316.495L306.939 61.0637L298.865 69.0074L290.212 77.6184L288.589 79.2437H203.988L176.598 106.498H195.528C197.708 106.5 199.867 106.072 201.882 105.237C203.896 104.402 205.726 103.177 207.267 101.632L217.844 91.0301H284.3C287.679 91.035 291.026 90.372 294.149 89.079C297.272 87.786 300.11 85.8886 302.499 83.4954L335.823 50.063C336.6 49.3021 337.132 48.325 337.348 47.2582C337.564 46.1915 337.456 45.0843 337.037 44.08C336.617 43.0758 335.907 42.2206 334.996 41.6254C334.086 41.0302 333.019 40.7223 331.932 40.7416Z" fill="#7562E0"/>
<path d="M257.953 0L241.506 16.361H343.919L360.377 0H257.953Z" fill="#23D627"/>
<path d="M202.409 73.6894H286.257L294.911 65.0784L302.93 57.1024H226.317L232.218 51.2253L242.764 40.7414H319.41L335.868 24.3804H233.444L197.024 60.6114C195.951 61.6798 195.22 63.0429 194.921 64.528C194.623 66.0131 194.772 67.5534 195.349 68.9538C195.925 70.3542 196.904 71.5517 198.161 72.3947C199.418 73.2377 200.896 73.6883 202.409 73.6894Z" fill="#23D627"/>
<path d="M88.9618 147.889H50.3379V187.791H59.6472V174.874H88.951C90.5947 174.904 92.2203 174.526 93.6831 173.775C95.146 173.024 96.4007 171.923 97.3358 170.569C99.3305 167.936 100.369 164.701 100.281 161.398C100.355 158.077 99.3186 154.826 97.3358 152.163C96.4002 150.814 95.1459 149.718 93.6849 148.973C92.2238 148.227 90.6013 147.855 88.9618 147.889ZM88.9618 165.51H59.6579V157.2H88.9618C90.3162 157.2 90.9827 158.589 90.9827 161.387C90.9827 164.186 90.3162 165.51 88.9618 165.51Z" fill="#7562E0"/>
<path d="M313.147 147.533H286.832C285.294 147.489 283.766 147.793 282.363 148.423C280.959 149.053 279.716 149.993 278.726 151.172C276.639 153.573 275.516 156.664 275.577 159.847V187.435H284.886V159.912C284.886 157.921 285.531 156.898 286.832 156.898H313.201C314.544 156.898 315.222 157.974 315.222 159.923V165.52H290.712V174.83H315.222V187.489H324.456V159.847C324.516 156.664 323.394 153.573 321.306 151.172C320.308 149.988 319.056 149.046 317.643 148.416C316.23 147.786 314.693 147.485 313.147 147.533Z" fill="#7562E0"/>
<path d="M145.044 147.889H118.674C117.138 147.845 115.612 148.149 114.21 148.779C112.808 149.409 111.567 150.349 110.58 151.527C108.492 153.928 107.37 157.02 107.43 160.203V187.791H116.739V160.214C116.739 158.212 117.384 157.2 118.674 157.2H145.044C146.398 157.2 147.064 158.212 147.064 160.225V165.822H122.566V175.132H147.086V187.791H156.395V160.203C156.46 157.021 155.341 153.929 153.256 151.527C152.251 150.339 150.99 149.394 149.567 148.764C148.145 148.133 146.598 147.834 145.044 147.889Z" fill="#7562E0"/>
<path d="M203.048 160.224C203.048 162.194 202.392 163.184 201.102 163.184H174.733C173.443 163.184 172.798 162.194 172.798 160.224V147.889H163.489V160.224C163.405 163.364 164.515 166.419 166.595 168.77C167.58 169.97 168.825 170.928 170.235 171.574C171.645 172.219 173.183 172.534 174.733 172.495H183.333V187.79H192.653V172.495H201.102C202.664 172.529 204.213 172.212 205.636 171.568C207.059 170.923 208.32 169.967 209.326 168.77C211.362 166.398 212.443 163.351 212.357 160.224V147.889H203.048V160.224Z" fill="#7562E0"/>
<path d="M0.626953 183.13C0.626953 184.366 1.11734 185.552 1.99026 186.426C2.86317 187.3 4.0471 187.791 5.28159 187.791H43.1423V178.48H9.93625V172.495H43.2068V163.142H0.626953V183.13Z" fill="#7562E0"/>
<path d="M0.626953 147.889V157.199H9.93625H43.2068V147.889H0.626953Z" fill="#23D627"/>
<path d="M403.938 182.774C403.937 184.011 404.428 185.196 405.301 186.07C406.174 186.944 407.358 187.435 408.592 187.435H446.453V178.125H413.247V172.14H446.453V162.829H403.938V182.774Z" fill="#7562E0"/>
<path d="M403.938 147.534V156.844H413.247H446.517V147.534H403.938Z" fill="#7562E0"/>
<path d="M462.944 156.834V162.829H491.732C492.922 162.89 494.043 163.406 494.864 164.272C495.684 165.138 496.141 166.286 496.139 167.479V182.774C496.141 183.386 496.022 183.992 495.789 184.557C495.556 185.123 495.214 185.636 494.783 186.069C494.352 186.502 493.839 186.846 493.275 187.08C492.711 187.315 492.106 187.435 491.495 187.435H453.635V178.124H486.83V172.129H458.042C456.852 172.068 455.731 171.552 454.91 170.686C454.09 169.821 453.633 168.672 453.635 167.479V152.184C453.633 151.572 453.752 150.966 453.985 150.401C454.218 149.836 454.56 149.322 454.991 148.889C455.423 148.456 455.935 148.112 456.499 147.878C457.063 147.644 457.668 147.523 458.279 147.523H496.139V156.834H462.944Z" fill="#7562E0"/>
<path d="M234.6 165.531H268.408V175.121C268.477 178.304 267.358 181.398 265.269 183.797C263.711 185.667 261.524 186.903 259.12 187.274C258.452 187.382 257.776 187.436 257.099 187.435H230.708C230.064 187.435 229.421 187.384 228.784 187.284C226.374 186.915 224.183 185.674 222.625 183.797C220.537 181.396 219.415 178.304 219.475 175.121V159.848C219.415 156.665 220.537 153.573 222.625 151.172C224.183 149.295 226.374 148.054 228.784 147.684C229.428 147.584 230.078 147.533 230.73 147.534H257.088C257.765 147.532 258.441 147.586 259.109 147.695C261.521 148.063 263.715 149.299 265.28 151.172C267.345 153.559 268.459 156.625 268.408 159.783H259.109C259.109 157.824 258.432 156.812 257.088 156.812H230.73C229.429 156.812 228.784 157.835 228.784 159.837V175.089C228.784 177.08 229.429 178.103 230.708 178.103H257.099C258.443 178.103 259.109 177.08 259.109 175.078V174.755H234.6V165.531Z" fill="#7562E0"/>
<path d="M393.683 151.172C392.683 149.986 391.427 149.042 390.01 148.412C388.594 147.782 387.052 147.481 385.503 147.534H370.786C368.41 147.463 366.084 148.225 364.208 149.686C362.309 148.221 359.961 147.46 357.564 147.534H342.826C341.289 147.49 339.761 147.794 338.358 148.424C336.954 149.054 335.711 149.993 334.721 151.172C332.644 153.578 331.526 156.667 331.582 159.847V187.435H340.891V159.912C340.891 157.921 341.536 156.898 342.826 156.898H357.564C358.854 156.898 359.499 157.856 359.553 159.708C359.553 159.772 359.553 159.826 359.553 159.901V187.489H368.895V159.847C368.895 159.794 368.895 159.751 368.895 159.686C368.895 157.813 369.561 156.844 370.808 156.844H385.524C386.879 156.844 387.545 157.921 387.545 159.869V187.435H396.855V159.847C396.914 156.661 395.783 153.567 393.683 151.172Z" fill="#7562E0"/>
<path d="M35.9436 217.058L40.7092 207.652H45.928L38.3498 221.605V230.496H33.5373V221.761L25.9592 207.652H31.2092L35.9436 217.058ZM68.5373 219.042C68.5373 222.824 67.5998 225.73 65.7248 227.761C63.8498 229.792 61.1623 230.808 57.6623 230.808C54.1623 230.808 51.4748 229.792 49.5998 227.761C47.7248 225.73 46.7873 222.813 46.7873 219.011C46.7873 215.209 47.7248 212.308 49.5998 210.308C51.4853 208.298 54.1832 207.292 57.6936 207.292C61.204 207.292 63.8863 208.303 65.7405 210.324C67.605 212.345 68.5373 215.251 68.5373 219.042ZM51.8655 219.042C51.8655 221.595 52.3498 223.516 53.3186 224.808C54.2873 226.1 55.7353 226.746 57.6623 226.746C61.5269 226.746 63.4592 224.178 63.4592 219.042C63.4592 213.897 61.5373 211.324 57.6936 211.324C55.7665 211.324 54.3134 211.975 53.3342 213.277C52.355 214.569 51.8655 216.49 51.8655 219.042ZM90.8655 207.652V222.433C90.8655 224.121 90.4853 225.6 89.7248 226.871C88.9748 228.141 87.8863 229.115 86.4592 229.792C85.0321 230.47 83.3446 230.808 81.3967 230.808C78.4592 230.808 76.178 230.058 74.553 228.558C72.928 227.048 72.1155 224.985 72.1155 222.371V207.652H76.9436V221.636C76.9436 223.397 77.2978 224.688 78.0061 225.511C78.7144 226.334 79.8863 226.746 81.5217 226.746C83.105 226.746 84.2509 226.334 84.9592 225.511C85.678 224.678 86.0373 223.376 86.0373 221.605V207.652H90.8655ZM100.303 217.792H101.865C103.397 217.792 104.527 217.537 105.256 217.027C105.985 216.516 106.35 215.714 106.35 214.621C106.35 213.537 105.975 212.766 105.225 212.308C104.485 211.85 103.334 211.621 101.772 211.621H100.303V217.792ZM100.303 221.73V230.496H95.4592V207.652H102.115C105.22 207.652 107.517 208.22 109.006 209.355C110.496 210.48 111.24 212.194 111.24 214.496C111.24 215.839 110.871 217.037 110.131 218.089C109.392 219.131 108.345 219.949 106.99 220.542C110.428 225.678 112.668 228.996 113.709 230.496H108.334L102.881 221.73H100.303ZM127.74 218.402H129.334C130.824 218.402 131.938 218.11 132.678 217.527C133.418 216.933 133.787 216.074 133.787 214.949C133.787 213.813 133.475 212.975 132.85 212.433C132.235 211.891 131.267 211.621 129.944 211.621H127.74V218.402ZM138.678 214.777C138.678 217.235 137.907 219.115 136.365 220.417C134.834 221.72 132.652 222.371 129.819 222.371H127.74V230.496H122.897V207.652H130.194C132.964 207.652 135.069 208.251 136.506 209.449C137.954 210.636 138.678 212.412 138.678 214.777ZM155.975 230.496L154.319 225.058H145.99L144.334 230.496H139.115L147.178 207.558H153.1L161.194 230.496H155.975ZM153.162 220.996C151.631 216.069 150.767 213.282 150.569 212.636C150.381 211.99 150.246 211.48 150.162 211.105C149.819 212.438 148.834 215.735 147.209 220.996H153.162ZM167.928 217.792H169.49C171.022 217.792 172.152 217.537 172.881 217.027C173.61 216.516 173.975 215.714 173.975 214.621C173.975 213.537 173.6 212.766 172.85 212.308C172.11 211.85 170.959 211.621 169.397 211.621H167.928V217.792ZM167.928 221.73V230.496H163.084V207.652H169.74C172.845 207.652 175.142 208.22 176.631 209.355C178.121 210.48 178.865 212.194 178.865 214.496C178.865 215.839 178.496 217.037 177.756 218.089C177.017 219.131 175.97 219.949 174.615 220.542C178.053 225.678 180.293 228.996 181.334 230.496H175.959L170.506 221.73H167.928ZM192.022 230.496H187.178V211.683H180.975V207.652H198.225V211.683H192.022V230.496ZM221.006 230.496H214.85L204.912 213.214H204.772C204.97 216.266 205.069 218.444 205.069 219.746V230.496H200.74V207.652H206.85L216.772 224.761H216.881C216.725 221.792 216.647 219.694 216.647 218.464V207.652H221.006V230.496ZM238.928 230.496H225.772V207.652H238.928V211.621H230.615V216.636H238.35V220.605H230.615V226.496H238.928V230.496ZM247.553 217.792H249.115C250.647 217.792 251.777 217.537 252.506 217.027C253.235 216.516 253.6 215.714 253.6 214.621C253.6 213.537 253.225 212.766 252.475 212.308C251.735 211.85 250.584 211.621 249.022 211.621H247.553V217.792ZM247.553 221.73V230.496H242.709V207.652H249.365C252.47 207.652 254.767 208.22 256.256 209.355C257.746 210.48 258.49 212.194 258.49 214.496C258.49 215.839 258.121 217.037 257.381 218.089C256.642 219.131 255.595 219.949 254.24 220.542C257.678 225.678 259.918 228.996 260.959 230.496H255.584L250.131 221.73H247.553ZM270.147 230.496V207.652H274.99V230.496H270.147ZM300.006 230.496H293.85L283.912 213.214H283.772C283.97 216.266 284.069 218.444 284.069 219.746V230.496H279.74V207.652H285.85L295.772 224.761H295.881C295.725 221.792 295.647 219.694 295.647 218.464V207.652H300.006V230.496ZM316.928 218.402H318.522C320.011 218.402 321.126 218.11 321.865 217.527C322.605 216.933 322.975 216.074 322.975 214.949C322.975 213.813 322.662 212.975 322.037 212.433C321.423 211.891 320.454 211.621 319.131 211.621H316.928V218.402ZM327.865 214.777C327.865 217.235 327.095 219.115 325.553 220.417C324.022 221.72 321.839 222.371 319.006 222.371H316.928V230.496H312.084V207.652H319.381C322.152 207.652 324.256 208.251 325.694 209.449C327.142 210.636 327.865 212.412 327.865 214.777ZM345.162 230.496L343.506 225.058H335.178L333.522 230.496H328.303L336.365 207.558H342.287L350.381 230.496H345.162ZM342.35 220.996C340.819 216.069 339.954 213.282 339.756 212.636C339.569 211.99 339.433 211.48 339.35 211.105C339.006 212.438 338.022 215.735 336.397 220.996H342.35ZM359.381 217.058L364.147 207.652H369.365L361.787 221.605V230.496H356.975V221.761L349.397 207.652H354.647L359.381 217.058ZM380.912 230.496L375.412 212.574H375.272C375.47 216.22 375.569 218.652 375.569 219.871V230.496H371.24V207.652H377.834L383.24 225.121H383.334L389.069 207.652H395.662V230.496H391.147V219.683C391.147 219.173 391.152 218.584 391.162 217.917C391.183 217.251 391.256 215.48 391.381 212.605H391.24L385.35 230.496H380.912ZM413.584 230.496H400.428V207.652H413.584V211.621H405.272V216.636H413.006V220.605H405.272V226.496H413.584V230.496ZM437.631 230.496H431.475L421.537 213.214H421.397C421.595 216.266 421.694 218.444 421.694 219.746V230.496H417.365V207.652H423.475L433.397 224.761H433.506C433.35 221.792 433.272 219.694 433.272 218.464V207.652H437.631V230.496ZM451.209 230.496H446.365V211.683H440.162V207.652H457.412V211.683H451.209V230.496ZM473.412 224.152C473.412 226.214 472.668 227.839 471.178 229.027C469.699 230.214 467.636 230.808 464.99 230.808C462.553 230.808 460.397 230.35 458.522 229.433V224.933C460.063 225.621 461.365 226.105 462.428 226.386C463.501 226.667 464.48 226.808 465.365 226.808C466.428 226.808 467.24 226.605 467.803 226.199C468.376 225.792 468.662 225.188 468.662 224.386C468.662 223.938 468.537 223.542 468.287 223.199C468.037 222.845 467.668 222.506 467.178 222.183C466.699 221.86 465.714 221.345 464.225 220.636C462.829 219.98 461.782 219.35 461.084 218.746C460.386 218.141 459.829 217.438 459.412 216.636C458.996 215.834 458.787 214.897 458.787 213.824C458.787 211.803 459.47 210.214 460.834 209.058C462.209 207.902 464.105 207.324 466.522 207.324C467.709 207.324 468.839 207.464 469.912 207.746C470.996 208.027 472.126 208.423 473.303 208.933L471.74 212.699C470.522 212.199 469.511 211.85 468.709 211.652C467.918 211.454 467.136 211.355 466.365 211.355C465.449 211.355 464.746 211.569 464.256 211.996C463.767 212.423 463.522 212.98 463.522 213.667C463.522 214.095 463.621 214.47 463.819 214.792C464.017 215.105 464.329 215.412 464.756 215.714C465.194 216.006 466.22 216.537 467.834 217.308C469.97 218.329 471.433 219.355 472.225 220.386C473.017 221.407 473.412 222.662 473.412 224.152Z" fill="#70C250"/>
</svg>
